<svg width="21" height="14" fill="none" xmlns="http://www.w3.org/2000/svg"><path d="M19.175.656H2.379c-.437 0-.81.154-1.118.461C.954 1.425.8 1.797.8 2.235v9.454c0 .438.154.81.461 1.118.308.307.68.461 1.118.461h16.796c.438 0 .81-.154 1.118-.461.307-.308.461-.68.461-1.118V2.235c0-.438-.154-.81-.461-1.118a1.522 1.522 0 00-1.118-.461zm0 1.046c.014 0 .027.003.041.01a.09.09 0 00.041.01l-7.895 5.27c-.15.096-.346.144-.585.144-.24 0-.434-.048-.584-.143l-7.916-5.27c.013 0 .03-.004.05-.011a.169.169 0 01.052-.01h16.796zm0 10.5H2.379a.516.516 0 01-.38-.154.492.492 0 01-.153-.359V2.686l7.772 5.189c.164.095.346.17.544.225a2.341 2.341 0 001.774-.226l7.772-5.188v9.003a.492.492 0 01-.154.359.516.516 0 01-.379.154z" fill="#fff"/></svg>