<svg width="18" height="22" fill="none" xmlns="http://www.w3.org/2000/svg"><path d="M9.29 4.81c-.615 0-1.19.116-1.722.349a4.486 4.486 0 00-1.395.943c-.396.397-.71.861-.943 1.395a4.213 4.213 0 00-.349 1.702c0 .601.116 1.169.349 1.702.232.533.547 1.001.943 1.405a4.14 4.14 0 001.395.933 4.264 4.264 0 001.722.348c.602 0 1.17-.109 1.702-.328a4.4 4.4 0 001.395-.953c.396-.404.71-.872.943-1.405.233-.533.349-1.1.349-1.702 0-.602-.116-1.17-.349-1.702a4.487 4.487 0 00-.943-1.395 4.487 4.487 0 00-1.395-.943A4.213 4.213 0 009.29 4.81zm0 7.731c-.93 0-1.719-.328-2.368-.984A3.234 3.234 0 015.948 9.2c0-.916.324-1.702.974-2.359a3.207 3.207 0 012.368-.984c.916 0 1.699.328 2.348.984.65.657.975 1.443.975 2.359 0 .916-.325 1.702-.975 2.358a3.183 3.183 0 01-2.348.984zm0-11.915h-.307a8.519 8.519 0 00-2.994.657 8.777 8.777 0 00-2.513 1.64 8.55 8.55 0 00-1.794 2.4 8.08 8.08 0 00-.84 2.953c-.042.41-.052.82-.032 1.23.02.41.065.807.134 1.19l.02.072c.014.047.027.12.041.215.068.287.15.57.246.851.096.28.205.55.328.81.22.52.506 1.1.862 1.743.369.656.83 1.354 1.384 2.092a28.704 28.704 0 001.979 2.338c.766.82 1.668 1.661 2.707 2.522.11.096.232.168.37.216a1.236 1.236 0 00.83 0c.13-.048.25-.12.359-.216a29.162 29.162 0 002.707-2.522c.779-.82 1.442-1.6 1.989-2.338a21.592 21.592 0 001.374-2.071c.355-.643.642-1.224.861-1.743a9.506 9.506 0 00.574-1.682c.014-.055.024-.103.031-.144a.8.8 0 01.031-.123c.041-.273.075-.543.102-.81.028-.266.041-.536.041-.81a8.058 8.058 0 00-.676-3.281 8.668 8.668 0 00-1.825-2.707 8.736 8.736 0 00-2.687-1.825A8.421 8.421 0 009.29.626zm7.28 9.906l-.01.061a1.845 1.845 0 01-.03.144c-.055.26-.123.512-.206.759a8.255 8.255 0 01-.287.738 21.24 21.24 0 01-.84 1.661 17.714 17.714 0 01-1.303 1.979 27.49 27.49 0 01-1.897 2.246 28.584 28.584 0 01-2.604 2.399.17.17 0 01-.103.041.17.17 0 01-.102-.041 28.627 28.627 0 01-2.605-2.4 29.22 29.22 0 01-1.907-2.245 16.985 16.985 0 01-1.312-1.979 18.45 18.45 0 01-.82-1.682 6.543 6.543 0 01-.288-.717 12.285 12.285 0 01-.225-.76A2.993 2.993 0 012 10.604l-.01-.05v-.041a6.657 6.657 0 01-.124-1.057 9.403 9.403 0 01.021-1.077 7.6 7.6 0 01.738-2.584 7.514 7.514 0 011.57-2.102 7.502 7.502 0 012.204-1.425 7.36 7.36 0 012.625-.595 7.45 7.45 0 012.973.513 7.59 7.59 0 012.461 1.59 7.376 7.376 0 011.64 2.389c.411.916.616 1.9.616 2.953 0 .232-.01.465-.03.697a5.792 5.792 0 01-.113.718z" fill="#fff"/></svg>