<svg width="22" height="22" fill="none" xmlns="http://www.w3.org/2000/svg"><path d="M17.372 13.628a2.447 2.447 0 00-.707-.502 1.87 1.87 0 00-1.58 0 2.732 2.732 0 00-.727.502l-1.395 1.395a4.408 4.408 0 00-.174-.082.896.896 0 01-.174-.103 2.008 2.008 0 01-.216-.102 6.074 6.074 0 01-.215-.123 12.827 12.827 0 01-1.887-1.446 18.7 18.7 0 01-1.763-1.877 13.695 13.695 0 01-.698-.984 7.343 7.343 0 01-.492-.902c.178-.164.352-.332.523-.503L8.37 8.4c.054-.068.116-.133.184-.195.068-.061.13-.126.185-.195.465-.465.697-.974.697-1.528 0-.553-.232-1.063-.697-1.527l-1.21-1.21a6.248 6.248 0 01-.205-.216 6.238 6.238 0 00-.205-.215l-.41-.41-.41-.41A2.284 2.284 0 005.59 2a1.97 1.97 0 00-1.58 0c-.252.11-.488.274-.707.493h-.02L1.787 4.03c-.288.273-.51.584-.667.933a3.601 3.601 0 00-.297 1.118 5.543 5.543 0 00.133 1.825c.144.574.29 1.06.44 1.456.356.97.811 1.917 1.365 2.84a22.967 22.967 0 002.02 2.82 19.615 19.615 0 001.538 1.64c.533.52 1.09 1.009 1.671 1.467.581.458 1.18.878 1.795 1.261.629.397 1.278.752 1.948 1.067.506.246 1.09.488 1.753.728a7.942 7.942 0 002.143.44h.287a3.54 3.54 0 001.405-.276 3.21 3.21 0 001.138-.831h.02v-.02c.124-.137.25-.27.38-.4l.4-.4a6.313 6.313 0 00.574-.574 2.4 2.4 0 00.503-.718 1.94 1.94 0 00.174-.8c0-.273-.058-.54-.174-.8a2.486 2.486 0 00-.523-.738l-2.44-2.44zm1.6 4.676a9.551 9.551 0 01-.277.267c-.089.082-.18.17-.277.266l-.43.431c-.15.15-.294.3-.43.451a2.07 2.07 0 01-.74.544 2.339 2.339 0 01-.922.174h-.206a7.396 7.396 0 01-1.877-.4 15.686 15.686 0 01-1.569-.646 18.16 18.16 0 01-1.825-1.005 21.051 21.051 0 01-1.702-1.19 18.649 18.649 0 01-1.579-1.373 19.399 19.399 0 01-1.435-1.559 22.774 22.774 0 01-1.908-2.666 16.29 16.29 0 01-1.292-2.645 8.115 8.115 0 01-.42-1.497 5.456 5.456 0 01-.072-1.272c.027-.26.089-.499.185-.718.095-.218.239-.417.43-.594l1.497-1.518c.11-.11.223-.188.339-.236a.886.886 0 01.338-.072c.137 0 .263.035.38.103.116.068.208.137.276.205l.4.4.4.4.216.215.215.215 1.21 1.21c.232.233.349.462.349.687 0 .226-.117.455-.35.687-.067.069-.132.134-.194.195l-.195.195A13.895 13.895 0 016.4 8.625c0 .013-.004.02-.01.02h-.01c-.192.191-.288.376-.288.554 0 .177.02.328.062.45v.032c0 .007.007.01.02.01.15.383.342.762.574 1.138.233.376.513.776.841 1.2h.02a17.39 17.39 0 001.887 2.02 15.11 15.11 0 002.051 1.569c.082.054.171.106.267.153l.267.134a7.495 7.495 0 01.471.256l.02.01c.083.041.158.072.226.093.069.02.144.03.226.03a.746.746 0 00.44-.123.947.947 0 00.216-.184l1.518-1.518c.082-.082.18-.157.297-.225a.735.735 0 01.749 0c.109.068.198.136.266.205v.02h.02l2.441 2.44c.219.233.328.466.328.698 0 .232-.11.465-.328.697zM12.122 5.61c.588.11 1.142.297 1.662.564.52.266.99.612 1.415 1.035.41.424.752.896 1.025 1.416a5.41 5.41 0 01.554 1.64.58.58 0 00.595.492h.101a.573.573 0 00.39-.246.59.59 0 00.102-.45A6.927 6.927 0 0016.04 6.37a6.925 6.925 0 00-3.69-1.93.59.59 0 00-.452.103.573.573 0 00-.246.39.577.577 0 00.092.43.539.539 0 00.38.247zm9.64 4.286a10.011 10.011 0 00-.431-1.702c-.178-.547-.4-1.077-.667-1.59a12.391 12.391 0 00-.913-1.486c-.355-.465-.738-.91-1.148-1.333a12.98 12.98 0 00-1.333-1.128 10.291 10.291 0 00-1.487-.923 13.058 13.058 0 00-1.59-.677 13.77 13.77 0 00-1.68-.43.59.59 0 00-.452.102.573.573 0 00-.246.39.59.59 0 00.102.45.573.573 0 00.39.247 10.025 10.025 0 015.455 2.83 9.718 9.718 0 011.846 2.502c.478.93.8 1.907.964 2.933.027.15.099.27.215.359a.612.612 0 00.38.133h.101a.573.573 0 00.39-.246.555.555 0 00.102-.431z" fill="#fff"/></svg>