<svg width="142" height="56" fill="none" xmlns="http://www.w3.org/2000/svg"><path d="M50.677 55.415c-4.765 0-8.893-1.25-12.383-3.75-3.491-2.547-6.157-5.944-7.996-10.19-1.793-4.245-2.713-8.915-2.76-14.01-.047-4.01.684-8.09 2.194-12.242 1.51-4.198 3.939-7.736 7.288-10.614C40.37 1.685 44.686.222 49.969.222c5.33 0 9.694 1.392 13.09 4.175 3.444 2.736 5.92 6.18 7.43 10.331 1.557 4.151 2.336 8.397 2.336 12.737 0 5.142-.826 9.836-2.477 14.081-1.651 4.199-4.151 7.572-7.5 10.119-3.303 2.5-7.36 3.75-12.171 3.75zm0-1.415c5.708 0 9.835-2.453 12.383-7.36 2.594-4.952 3.868-11.344 3.82-19.175a42.145 42.145 0 00-1.91-12.03c-1.18-3.962-3.042-7.24-5.59-9.835-2.5-2.642-5.637-3.963-9.411-3.963-3.821 0-6.958 1.44-9.411 4.317-2.453 2.83-4.246 6.298-5.378 10.402-1.085 4.104-1.627 8.066-1.627 11.887 0 4.812.613 9.152 1.84 13.02 1.273 3.868 3.184 6.958 5.731 9.27C43.718 52.844 46.903 54 50.677 54zm38.826-1.769c.943.283 1.745.425 2.406.425 1.84 0 2.76-.968 2.76-2.902V29.517L82.214 5.883c-.52-.99-1.109-1.722-1.77-2.194-.613-.518-1.367-.778-2.264-.778-.471 0-1.297.165-2.476.495V1.637h17.053v1.77c-1.132-.33-2.005-.496-2.618-.496-.755 0-1.368.142-1.84.425-.424.283-.637.707-.637 1.273 0 .425.118.85.354 1.274l11.322 21.936L110.59 7.652l.849-1.627a2.6 2.6 0 00.353-1.274c0-.613-.306-1.085-.919-1.415-.614-.33-1.392-.496-2.336-.496-.943 0-1.981.189-3.113.566V1.637h13.869v1.77c-.849-.284-1.604-.425-2.264-.425-1.227 0-2.17.495-2.831 1.486-2.17 3.538-4.906 8.397-8.208 14.576-2.453 4.576-4.363 8.067-5.731 10.473v20.237c0 1.934.919 2.902 2.759 2.902.708 0 1.51-.142 2.406-.425V54H89.503v-1.769z" fill="#383838"/><path fill="#fff" d="M0 18h142v19.988H0z"/><path d="M5.257 23.496c-1.331.004-2.262.425-2.791 1.262-.53.833-.794 1.835-.794 3.006 0 1.176.332 2.18.996 3.013.663.828 1.527 1.247 2.59 1.256h.032c1.037 0 1.889-.443 2.557-1.328.66-.876.989-1.843.989-2.902v-.039a5.487 5.487 0 00-.846-2.94c-.555-.886-1.466-1.328-2.733-1.328zm0-.572h.065c1.401 0 2.584.429 3.546 1.288.898.802 1.347 1.86 1.347 3.175 0 .117-.004.236-.013.358-.09 1.492-.61 2.65-1.555 3.474-.941.82-2.075 1.267-3.403 1.34-.1.005-.2.007-.299.007-1.206 0-2.273-.416-3.201-1.249-.955-.85-1.432-1.963-1.432-3.338 0-.078.002-.156.007-.234.052-1.48.529-2.648 1.431-3.507.907-.86 2.076-1.297 3.507-1.314zm8.588 8.796h2.779c.403 0 .744-.154 1.021-.462.282-.312.495-.555.638-.728.078-.096.139-.143.182-.143.091 0 .137.045.137.136a.58.58 0 01-.013.137l-.475 1.672h-5.96c-.091 0-.137-.046-.137-.137 0-.108.109-.2.325-.273.217-.078.326-.258.326-.54v-7.229c0-.277-.109-.455-.325-.533-.217-.078-.326-.174-.326-.287 0-.09.046-.136.137-.136h2.206c.086 0 .13.045.13.136 0 .113-.109.209-.326.287-.216.078-.325.256-.325.533l.006 7.567zm8.68 0h2.778c.403 0 .744-.154 1.022-.462.282-.312.494-.555.637-.728.078-.096.14-.143.183-.143.09 0 .136.045.136.136a.58.58 0 01-.013.137l-.475 1.672h-5.98c-.078 0-.116-.046-.116-.137 0-.108.108-.2.325-.273.217-.078.325-.258.325-.54v-7.229c0-.282-.108-.46-.325-.533-.217-.078-.325-.174-.325-.287 0-.09.045-.136.136-.136h6.038v1.672c0 .091-.045.137-.136.137-.044 0-.124-.087-.241-.26a6.448 6.448 0 00-.566-.697c-.156-.165-.365-.247-.625-.247h-2.778v3.533h1.49c.277 0 .46-.11.546-.332.087-.225.187-.338.3-.338.086 0 .13.045.13.136v1.653c0 .091-.044.137-.13.137-.113 0-.22-.11-.32-.332-.099-.221-.288-.332-.565-.332h-1.451v3.793zm14.75-.709v-6.858c0-.277-.109-.455-.326-.533-.212-.078-.318-.174-.318-.287 0-.09.043-.136.13-.136h1.659c.091 0 .137.045.137.136 0 .113-.109.209-.326.287-.217.078-.325.256-.325.533l-.007 8.459-1.151-.28-6.234-7.736v6.786c0 .282.109.462.326.54.217.074.325.165.325.273 0 .091-.046.137-.137.137h-1.652c-.091 0-.137-.046-.137-.137 0-.108.108-.2.325-.273.217-.078.326-.258.326-.54v-7.229c0-.277-.109-.455-.326-.533-.216-.078-.325-.174-.325-.287 0-.09.046-.136.137-.136h1.672l6.227 7.814zm7.775-7.964c.217.512.483 1.139.8 1.88l.989 2.29a767.435 767.435 0 001.802 4.164c.065.162.193.307.384.437.1.065.197.12.293.163.1.043.18.084.24.123.044.03.072.061.085.091a.115.115 0 01.013.052.105.105 0 01-.013.046c-.013.026-.039.039-.078.039h-2.199a.21.21 0 01-.117-.039c-.044-.03-.07-.063-.078-.098a.07.07 0 01-.013-.039c0-.039.026-.08.078-.123.039-.04.087-.08.143-.124a.37.37 0 00.143-.293.652.652 0 00-.052-.24l-.963-2.226h-3.793a5318.843 5318.843 0 00-.93 2.226.687.687 0 00-.066.234.65.65 0 00-.006.09c0 .044.006.085.02.125a.364.364 0 00.064.143.32.32 0 01.065.11.703.703 0 01.007.072.105.105 0 01-.013.045c-.03.091-.078.137-.143.137h-1.679c-.043 0-.074-.013-.091-.039a.113.113 0 00-.013-.032c0-.01.004-.03.013-.066.026-.056.1-.112.221-.169l.208-.097a2.38 2.38 0 00.235-.137c.16-.113.277-.25.351-.41l3.69-8.335h.403zm1.23 5.576l-1.699-3.962c-.278.663-.555 1.325-.833 1.984l-.82 1.978h3.351zm11.41-.696l-2.27-3.78c-.1-.148-.267-.293-.5-.436a2.438 2.438 0 00-.352-.156 1.706 1.706 0 01-.267-.13.336.336 0 01-.11-.092.132.132 0 01-.027-.071v-.026c.005-.026.026-.04.065-.04h2.206a.22.22 0 01.124.04c.047.03.084.063.11.097a.13.13 0 01.02.066c0 .03-.015.062-.046.097-.03.04-.067.082-.11.13a.245.245 0 00-.072.163v.032c0 .096.035.193.104.293l2.193 3.475 1.685-2.57c.126-.191.2-.356.221-.495a.327.327 0 00.007-.065c0-.13-.052-.3-.156-.508l-.221-.442.93-.403a.216.216 0 01.085-.02c.056 0 .108.035.156.104l.39.657a.49.49 0 01.072.248c0 .147-.074.297-.221.449-.23.242-.476.553-.736.93L59.24 28c-.079.117-.13.282-.157.494a5.97 5.97 0 00-.032.605v2.284c0 .282.108.462.325.54.217.074.326.165.326.273 0 .091-.046.137-.137.137h-2.206c-.091 0-.137-.046-.137-.137 0-.108.109-.2.326-.273.217-.078.325-.258.325-.54v-2.778c0-.252-.06-.477-.182-.677zm9.832-4.88c.217.512.483 1.139.8 1.88l.99 2.29c.342.786.672 1.55.988 2.291.321.742.592 1.367.814 1.874.065.16.192.306.383.436.1.065.198.12.293.163.1.043.18.084.24.123.044.03.073.061.085.091a.115.115 0 01.014.052.105.105 0 01-.014.046c-.012.026-.038.039-.078.039h-2.199a.21.21 0 01-.117-.039c-.043-.03-.07-.063-.078-.098a.07.07 0 01-.013-.039c0-.039.026-.08.078-.123.04-.04.087-.08.143-.124a.372.372 0 00.143-.293.652.652 0 00-.052-.24l-.963-2.226h-3.793l-.469 1.12c-.151.368-.305.737-.461 1.106a.683.683 0 00-.066.234.634.634 0 00-.006.09.4.4 0 00.02.125.362.362 0 00.065.143.32.32 0 01.065.11.674.674 0 01.006.072.105.105 0 01-.013.045c-.03.091-.078.137-.143.137h-1.679c-.043 0-.074-.013-.09-.039a.116.116 0 00-.014-.032c0-.01.005-.03.013-.066.026-.056.1-.112.221-.169l.209-.097c.078-.04.156-.085.234-.137.16-.113.277-.25.351-.41l3.69-8.335h.403zm1.23 5.576l-1.699-3.962a879.22 879.22 0 01-.832 1.984l-.82 1.978h3.35zm7.052-1.145l3.403-3.22c.339-.317.625-.59.86-.82.155-.157.311-.235.468-.235a.52.52 0 01.234.059l.69.338c.073.043.11.096.11.156a.216.216 0 01-.02.085l-.338.95-.449-.189a1.243 1.243 0 00-.468-.104.812.812 0 00-.592.254l-2.623 2.557 4.894 4.515c.09.092.186.161.286.209.104.043.156.097.156.162 0 .091-.043.137-.13.137h-2.206c-.091 0-.137-.046-.137-.137 0-.034.024-.073.072-.117.078-.065.121-.123.13-.175v-.007c0-.056-.078-.152-.234-.286l-4.106-3.787v3.56c0 .281.109.461.326.54.217.073.325.164.325.272 0 .091-.043.137-.13.137h-2.206c-.091 0-.137-.046-.137-.137 0-.108.109-.2.326-.273.217-.078.325-.258.325-.54v-7.229c0-.277-.108-.455-.325-.533-.217-.078-.326-.174-.326-.287 0-.09.046-.136.137-.136h2.206c.087 0 .13.045.13.136 0 .113-.108.209-.325.287-.217.078-.326.256-.326.533v3.325zm10.215-3.325v7.223c0 .286.108.468.325.546.217.074.326.165.326.273 0 .091-.046.137-.137.137h-2.206c-.086 0-.13-.046-.13-.137 0-.108.109-.2.326-.273.217-.078.325-.258.325-.54v-7.229c0-.282-.108-.46-.325-.533-.217-.078-.326-.174-.326-.287 0-.09.046-.136.137-.136h2.2c.09 0 .136.045.136.136 0 .113-.109.209-.326.287-.216.073-.325.251-.325.533zm13.234 0v7.23c0 .281.108.461.325.54.222.073.332.164.332.272 0 .091-.045.137-.136.137h-2.206c-.091 0-.137-.046-.137-.137 0-.108.109-.2.326-.273.216-.078.325-.258.325-.54v-6.969l-3.754 8.114h-.254l-3.715-7.808v6.663c0 .282.108.462.325.54.217.074.325.165.325.273 0 .091-.045.137-.136.137H89.22c-.091 0-.137-.046-.137-.137 0-.108.109-.2.326-.273.216-.078.325-.258.325-.54v-7.229c0-.277-.109-.455-.325-.533-.217-.078-.326-.174-.326-.287 0-.09.046-.136.137-.136h1.73l3.56 7.3 3.448-7.3h1.816c.09 0 .136.045.136.136 0 .113-.11.209-.332.287-.217.078-.325.256-.325.533zm4.743 7.567h2.778c.404 0 .744-.154 1.022-.462.282-.312.494-.555.637-.728.078-.096.139-.143.182-.143.092 0 .137.045.137.136a.565.565 0 01-.013.137l-.475 1.672h-5.979c-.079 0-.118-.046-.118-.137 0-.108.109-.2.326-.273.217-.078.325-.258.325-.54v-7.229c0-.282-.108-.46-.325-.533-.217-.078-.326-.174-.326-.287 0-.09.046-.136.137-.136h6.038v1.672c0 .091-.045.137-.136.137-.044 0-.124-.087-.241-.26a6.534 6.534 0 00-.566-.697c-.156-.165-.365-.247-.625-.247h-2.778v3.533h1.49c.277 0 .46-.11.546-.332.087-.225.187-.338.3-.338.086 0 .13.045.13.136v1.653c0 .091-.044.137-.13.137-.113 0-.219-.11-.319-.332-.1-.221-.289-.332-.566-.332h-1.451v3.793zm14.75-.709v-6.858c0-.277-.109-.455-.326-.533-.212-.078-.318-.174-.318-.287 0-.09.043-.136.13-.136h1.659c.091 0 .137.045.137.136 0 .113-.109.209-.326.287-.217.078-.325.256-.325.533l-.007 8.459-1.151-.28-6.234-7.736v6.786c0 .282.109.462.326.54.217.074.325.165.325.273 0 .091-.046.137-.137.137h-1.652c-.091 0-.137-.046-.137-.137 0-.108.109-.2.325-.273.217-.078.326-.258.326-.54v-7.229c0-.277-.109-.455-.326-.533-.216-.078-.325-.174-.325-.287 0-.09.046-.136.137-.136h1.672l6.227 7.814zm5.152-3.533l3.403-3.22c.339-.317.625-.59.859-.82.156-.157.313-.235.469-.235a.52.52 0 01.234.059l.69.338c.073.043.11.096.11.156a.214.214 0 01-.019.085l-.339.95-.449-.189a1.24 1.24 0 00-.468-.104.81.81 0 00-.592.254l-2.622 2.557 4.893 4.515c.091.092.186.161.286.209.104.043.156.097.156.162 0 .091-.043.137-.13.137h-2.206c-.091 0-.136-.046-.136-.137 0-.034.023-.073.071-.117.078-.065.122-.123.13-.175v-.007c0-.056-.078-.152-.234-.286l-4.106-3.787v3.56c0 .281.109.461.326.54.217.073.325.164.325.272 0 .091-.043.137-.13.137h-2.206c-.091 0-.136-.046-.136-.137 0-.108.108-.2.325-.273.217-.078.325-.258.325-.54v-7.229c0-.277-.108-.455-.325-.533-.217-.078-.325-.174-.325-.287 0-.09.045-.136.136-.136h2.206c.087 0 .13.045.13.136 0 .113-.108.209-.325.287-.217.078-.326.256-.326.533v3.325zm12.642-3.982c-1.331.004-2.262.425-2.791 1.262-.529.833-.794 1.835-.794 3.006 0 1.176.332 2.18.996 3.013.663.828 1.527 1.247 2.589 1.256h.033c1.036 0 1.889-.443 2.557-1.328.659-.876.989-1.843.989-2.902v-.039a5.492 5.492 0 00-.846-2.94c-.555-.886-1.466-1.328-2.733-1.328zm0-.572h.065c1.401 0 2.583.429 3.546 1.288.898.802 1.347 1.86 1.347 3.175 0 .117-.004.236-.013.358-.091 1.492-.609 2.65-1.555 3.474-.941.82-2.075 1.267-3.403 1.34-.1.005-.199.007-.299.007-1.206 0-2.273-.416-3.201-1.249-.955-.85-1.432-1.963-1.432-3.338 0-.078.002-.156.007-.234.052-1.48.529-2.648 1.431-3.507.907-.86 2.076-1.297 3.507-1.314z" fill="#383838"/></svg>