<svg width="124" height="19" fill="none" xmlns="http://www.w3.org/2000/svg"><path d="M35.864 15.224c-1.11 0-2.043-.245-2.8-.736a4.02 4.02 0 01-1.6-2.032l1.888-1.104c.437 1.141 1.296 1.712 2.576 1.712.619 0 1.072-.112 1.36-.336.288-.224.432-.507.432-.848 0-.395-.176-.699-.528-.912-.352-.224-.981-.464-1.888-.72a12.63 12.63 0 01-1.28-.448 6.116 6.116 0 01-1.04-.592 2.538 2.538 0 01-.784-.96c-.181-.384-.272-.832-.272-1.344 0-1.013.357-1.819 1.072-2.416.725-.608 1.595-.912 2.608-.912.907 0 1.701.224 2.384.672.693.437 1.232 1.05 1.616 1.84L37.752 7.16c-.448-.96-1.163-1.44-2.144-1.44-.459 0-.821.107-1.088.32a.97.97 0 00-.384.8c0 .352.144.64.432.864.299.213.864.448 1.696.704.341.107.597.192.768.256.181.053.421.144.72.272.31.117.544.23.704.336.17.107.363.25.576.432.213.181.373.368.48.56.117.192.213.427.288.704.085.267.128.56.128.88 0 1.035-.379 1.856-1.136 2.464-.747.608-1.723.912-2.928.912zm9.75-6.24h-1.808v3.328c0 .277.07.48.208.608.138.128.341.203.608.224.266.01.597.005.992-.016V15c-1.419.16-2.422.027-3.008-.4-.576-.427-.864-1.19-.864-2.288V8.984H40.35V7h1.392V5.384l2.064-.624V7h1.808v1.984zm3.644-.608c.192-.512.507-.896.944-1.152a2.946 2.946 0 011.488-.384v2.304c-.63-.075-1.195.053-1.696.384-.49.33-.736.88-.736 1.648V15h-2.064V7h2.064v1.376zm5.086 3.472c.278 1.003 1.03 1.504 2.256 1.504.79 0 1.387-.267 1.792-.8l1.664.96c-.79 1.141-1.952 1.712-3.488 1.712-1.322 0-2.384-.4-3.184-1.2-.8-.8-1.2-1.808-1.2-3.024 0-1.205.395-2.208 1.184-3.008.79-.81 1.803-1.216 3.04-1.216 1.174 0 2.139.405 2.896 1.216.768.81 1.152 1.813 1.152 3.008 0 .267-.026.55-.08.848h-6.032zm-.032-1.6h4.08c-.117-.544-.362-.95-.736-1.216a2.052 2.052 0 00-1.248-.4c-.554 0-1.013.144-1.376.432-.362.277-.602.672-.72 1.184zm9.177-.976c0 .213.138.39.416.528a6.93 6.93 0 001.04.352c.405.096.81.224 1.216.384.405.15.746.405 1.024.768.288.363.432.816.432 1.36 0 .821-.31 1.456-.928 1.904-.608.437-1.371.656-2.288.656-1.643 0-2.763-.635-3.36-1.904l1.792-1.008c.234.693.757 1.04 1.568 1.04.736 0 1.104-.23 1.104-.688 0-.213-.144-.384-.432-.512a5.357 5.357 0 00-1.024-.368c-.406-.107-.811-.24-1.216-.4a2.586 2.586 0 01-1.04-.752c-.278-.352-.416-.79-.416-1.312 0-.79.288-1.408.864-1.856.586-.459 1.312-.688 2.176-.688.65 0 1.242.15 1.776.448a3.16 3.16 0 011.264 1.248l-1.76.96c-.256-.544-.683-.816-1.28-.816-.267 0-.491.059-.672.176a.553.553 0 00-.256.48zm6.937 0c0 .213.139.39.416.528a6.93 6.93 0 001.04.352c.405.096.81.224 1.216.384.406.15.747.405 1.024.768.288.363.432.816.432 1.36 0 .821-.31 1.456-.928 1.904-.608.437-1.37.656-2.288.656-1.642 0-2.762-.635-3.36-1.904l1.792-1.008c.235.693.758 1.04 1.568 1.04.736 0 1.104-.23 1.104-.688 0-.213-.144-.384-.432-.512a5.357 5.357 0 00-1.024-.368c-.405-.107-.81-.24-1.216-.4a2.586 2.586 0 01-1.04-.752c-.277-.352-.416-.79-.416-1.312 0-.79.288-1.408.864-1.856.587-.459 1.312-.688 2.176-.688.65 0 1.243.15 1.776.448a3.16 3.16 0 011.264 1.248l-1.76.96c-.256-.544-.683-.816-1.28-.816-.266 0-.49.059-.672.176a.553.553 0 00-.256.48zm7.09 2.576c.277 1.003 1.03 1.504 2.256 1.504.79 0 1.387-.267 1.792-.8l1.664.96c-.79 1.141-1.952 1.712-3.488 1.712-1.322 0-2.384-.4-3.184-1.2-.8-.8-1.2-1.808-1.2-3.024 0-1.205.395-2.208 1.184-3.008.79-.81 1.803-1.216 3.04-1.216 1.174 0 2.139.405 2.896 1.216.768.81 1.152 1.813 1.152 3.008 0 .267-.026.55-.08.848h-6.032zm-.032-1.6h4.08c-.117-.544-.362-.95-.736-1.216a2.051 2.051 0 00-1.248-.4c-.555 0-1.013.144-1.376.432-.362.277-.602.672-.72 1.184zm9.649-1.872c.192-.512.507-.896.944-1.152a2.946 2.946 0 011.488-.384v2.304c-.63-.075-1.195.053-1.696.384-.49.33-.736.88-.736 1.648V15h-2.064V7h2.064v1.376zm4.659 6.432a1.31 1.31 0 01-.96.4 1.31 1.31 0 01-.96-.4 1.31 1.31 0 01-.4-.96c0-.373.133-.693.4-.96.266-.267.586-.4.96-.4.373 0 .693.133.96.4.266.267.4.587.4.96s-.134.693-.4.96zm5.288.416c-1.205 0-2.213-.405-3.024-1.216-.8-.81-1.2-1.813-1.2-3.008s.4-2.197 1.2-3.008c.81-.81 1.819-1.216 3.024-1.216.779 0 1.488.187 2.128.56.64.373 1.125.875 1.456 1.504l-1.776 1.04a1.798 1.798 0 00-.736-.784 2.073 2.073 0 00-1.088-.288c-.618 0-1.13.208-1.536.624-.405.405-.608.928-.608 1.568 0 .63.203 1.152.608 1.568.405.405.917.608 1.536.608a2.2 2.2 0 001.104-.272 1.8 1.8 0 00.736-.784l1.792 1.024a4.066 4.066 0 01-1.488 1.52 4.15 4.15 0 01-2.128.56zm11.399-1.216c-.822.81-1.824 1.216-3.008 1.216s-2.187-.405-3.008-1.216c-.811-.821-1.216-1.824-1.216-3.008s.405-2.181 1.216-2.992c.821-.821 1.824-1.232 3.008-1.232s2.186.41 3.008 1.232c.821.81 1.232 1.808 1.232 2.992s-.411 2.187-1.232 3.008zm-4.56-1.424c.416.416.933.624 1.552.624.618 0 1.136-.208 1.552-.624.416-.416.624-.944.624-1.584 0-.64-.208-1.168-.624-1.584-.416-.416-.934-.624-1.552-.624-.619 0-1.136.208-1.552.624-.406.416-.608.944-.608 1.584 0 .64.202 1.168.608 1.584zm16.092-5.808c.917 0 1.648.299 2.192.896.554.597.832 1.397.832 2.4V15h-2.064v-4.784c0-.48-.118-.853-.352-1.12-.235-.267-.566-.4-.992-.4-.47 0-.838.155-1.104.464-.256.31-.384.757-.384 1.344V15h-2.064v-4.784c0-.48-.118-.853-.352-1.12-.235-.267-.566-.4-.992-.4-.459 0-.827.155-1.104.464-.267.31-.4.757-.4 1.344V15h-2.064V7h2.064v.848c.48-.715 1.221-1.072 2.224-1.072.981 0 1.706.384 2.176 1.152.533-.768 1.328-1.152 2.384-1.152z" fill="#1E1E1E"/><path fill-rule="evenodd" clip-rule="evenodd" d="M10.507 4.003a4 4 0 00-4 4v1h-1a3.5 3.5 0 000 7h10a3.5 3.5 0 100-7h-1v-1a4 4 0 00-4-4zM4.577 7.08a6.001 6.001 0 0111.86 0 5.502 5.502 0 01-.93 10.922h-10a5.5 5.5 0 01-.93-10.922z" fill="#1E1E1E"/></svg>