<svg width="41" height="41" fill="none" xmlns="http://www.w3.org/2000/svg"><path d="M25.297 13.103l.233.471.52.076 10.163 1.477h.001c.163.025.26.171.239.312h0l-.002.01a.279.279 0 01-.082.16l-7.354 7.17-.376.367.089.518 1.738 10.126h0a.28.28 0 01-.23.323h-.001a.272.272 0 01-.172-.026l-.004-.002-9.093-4.78-.465-.245-.466.244-9.093 4.781h-.001a.278.278 0 01-.39-.141.28.28 0 01-.016-.153v-.001l1.738-10.126.09-.518-.377-.367-7.355-7.171h0a.283.283 0 01-.007-.4.278.278 0 01.159-.08h.002l10.166-1.478.52-.076.233-.471 4.542-9.208v-.002a.287.287 0 01.38-.13l.002.001c.054.027.098.07.125.125h0l4.544 9.214zM21.65 3.447a1.274 1.274 0 00-.58-.58l.58.58z" stroke="#000" stroke-opacity=".74" stroke-width="2"/></svg>