<svg width="48" height="48" fill="none" xmlns="http://www.w3.org/2000/svg"><rect width="48" height="48" rx="10" fill="#FFF7EF"/><path d="M27.125 18.938a.875.875 0 01-.875-.875V16.75h-3.5v1.313a.875.875 0 01-1.75 0V16.75c0-.965.785-1.75 1.75-1.75h3.5c.965 0 1.75.785 1.75 1.75v1.313a.875.875 0 01-.875.875zm-2.004 7.769a1.918 1.918 0 01-1.295-.017L14 23.417v6.677a2.405 2.405 0 002.406 2.406h16.188A2.405 2.405 0 0035 30.094v-6.677l-9.879 3.29z" fill="#FDAE82"/><path d="M35 20.031v2.004l-10.29 3.43a.587.587 0 01-.21.035.587.587 0 01-.21-.035L14 22.035v-2.004a2.405 2.405 0 012.406-2.406h16.188A2.405 2.405 0 0135 20.031z" fill="#FDAE82"/></svg>