<svg width="48" height="48" fill="none" xmlns="http://www.w3.org/2000/svg"><rect width="48" height="48" rx="10" fill="#EFFDF1"/><path d="M33.099 29.113c-.577-.484-3.964-2.63-4.527-2.53-.265.046-.467.272-1.008.917a7.71 7.71 0 01-.822.89 7.106 7.106 0 01-1.568-.581 9.712 9.712 0 01-4.483-4.484 7.106 7.106 0 01-.581-1.569c.275-.296.572-.571.89-.822.645-.54.87-.741.918-1.007.098-.564-2.049-3.95-2.53-4.527-.203-.24-.387-.4-.622-.4C18.084 15 15 18.814 15 19.308c0 .04.066 4.01 5.08 9.112 5.102 5.014 9.072 5.08 9.112 5.08.494 0 4.308-3.084 4.308-3.766 0-.235-.16-.419-.401-.621zm-4.224-5.523h1.321a5.291 5.291 0 00-5.285-5.286v1.321a3.968 3.968 0 013.964 3.964z" fill="#87C672"/><path d="M32.179 23.59H33.5A8.6 8.6 0 0024.91 15v1.321a7.277 7.277 0 017.269 7.268z" fill="#87C672"/></svg>