<svg width="48" height="48" fill="none" xmlns="http://www.w3.org/2000/svg"><rect width="48" height="48" rx="10" fill="#F1FDFF"/><g clip-path="url(#clip0_173_79)" fill="#6CCBE0"><path d="M35.548 20.312c-.066-.03-1.682-.73-11.25-4.876a.748.748 0 00-.597 0l-11.25 4.876c-.604.26-.598 1.118 0 1.376l11.25 4.875a.75.75 0 00.596 0l7.953-3.446v7.987c0 .404.31.752.714.77a.75.75 0 00.786-.749v-8.28a.234.234 0 00-.204-.232l-9.643-1.244a.75.75 0 01.139-1.493c.034.002 10.722 1.381 10.715 1.38.2.026.364.154.442.328a.237.237 0 00.316.12c.202-.095.377-.22.457-.501a.75.75 0 00-.424-.891z"/><path d="M23.104 27.94l-6.277-2.72a.234.234 0 00-.328.214v2.691c0 2.524 3.294 4.5 7.5 4.5 4.206 0 7.5-1.976 7.5-4.5v-2.69a.234.234 0 00-.327-.216l-6.278 2.72a2.247 2.247 0 01-1.79 0z"/></g><defs><clipPath id="clip0_173_79"><path fill="#fff" transform="translate(12 12)" d="M0 0h24v24H0z"/></clipPath></defs></svg>