<svg width="48" height="48" fill="none" xmlns="http://www.w3.org/2000/svg"><rect width="48" height="48" rx="10" fill="#F8F2FF"/><path fill-rule="evenodd" clip-rule="evenodd" d="M24 34c5.523 0 10-4.477 10-10s-4.477-10-10-10-10 4.477-10 10 4.477 10 10 10zm.91-15.454a.91.91 0 10-1.82 0v.532c-1.282.297-2.272 1.411-2.272 2.795 0 1.378.995 2.528 2.331 2.81l1.266.265c.58.122.949.599.949 1.103 0 .59-.51 1.13-1.216 1.13H24c-.66 0-1.18-.43-1.323-.962a.909.909 0 10-1.756.471c.284 1.059 1.12 1.878 2.17 2.182v.582a.91.91 0 101.818 0v-.548c1.288-.326 2.273-1.457 2.273-2.855 0-1.413-1.021-2.594-2.393-2.882l-1.266-.266c-.543-.114-.887-.561-.887-1.03 0-.548.474-1.055 1.137-1.055H24c.66 0 1.18.431 1.323.963a.909.909 0 101.756-.471c-.284-1.059-1.12-1.878-2.17-2.182v-.582z" fill="#9F8FFA"/></svg>