<svg width="48" height="48" fill="none" xmlns="http://www.w3.org/2000/svg"><rect width="48" height="48" rx="10" fill="#F1F3FF"/><path d="M18.987 18.075l-1.823-1.823a.644.644 0 10-.912.912l1.823 1.823a.644.644 0 10.912-.912zm-2.721 5.28h-2.621a.644.644 0 100 1.29h2.62a.644.644 0 100-1.29zm18.089 0h-2.62a.644.644 0 100 1.29h2.62a.644.644 0 100-1.29zm-2.607-7.103a.644.644 0 00-.912 0l-1.823 1.823a.644.644 0 10.912.912l1.823-1.823a.644.644 0 000-.912zM24 13a.644.644 0 00-.645.645v2.62a.644.644 0 101.29 0v-2.62A.644.644 0 0024 13zm3.61 6.45c-1.406-1.11-3.223-1.509-5.002-1.083a5.715 5.715 0 00-4.228 4.163c-.503 2.063.077 4.151 1.56 5.608.528.528.837 1.358.837 2.208v.142c0 .361.284.645.645.645h5.156a.639.639 0 00.645-.645v-.142c0-.837.322-1.693.89-2.247A5.805 5.805 0 0029.8 24c0-1.779-.8-3.442-2.192-4.55zM24 22.066c-.972 0-1.68.645-1.866 1.392a.645.645 0 11-1.25-.31c.319-1.289 1.53-2.37 3.116-2.37a.644.644 0 110 1.288zm-2.578 10.356v.644c0 1.067.867 1.934 1.933 1.934h1.29a1.936 1.936 0 001.933-1.934v-.644h-5.156z" fill="#6F96FD"/></svg>