<svg width="48" height="48" fill="none" xmlns="http://www.w3.org/2000/svg"><rect width="48" height="48" rx="10" fill="#FFF5F5"/><path d="M25.031 31.539a.836.836 0 00.357-1.133s-.409-.769-.634-1.186c-.114.54-.43.722-1.175 1.367l.322.607c.146.273.713.569 1.13.345zm-2.164-.976l1.147-.994a.84.84 0 00.036-1.23.836.836 0 00-1.139-.044l-1.146.996a.84.84 0 00-.08 1.187.849.849 0 001.182.085zm4.027-.011a.84.84 0 00.358-1.136l-1.297-2.423.369-.232 1.442 2.724a.84.84 0 001.13.347.835.835 0 00.358-1.136l-1.5-2.825.382-.23s.992 1.91 1.35 2.59c.22.413.731.56 1.13.345a.834.834 0 00.357-1.135c-1.124-2.128-.88-1.68-1.338-2.431-1.352-1.878-3.323-3.167-5.265-4.775l-3.45 1.62a1.325 1.325 0 01-1.758-.623 1.323 1.323 0 01.615-1.771l.825-.388-2.651-.008-2.81 3.845 1.831 1.683a1.29 1.29 0 01.334-.445l2.055-1.785a1.329 1.329 0 012.19 1.106c.479-.108.966.063 1.28.422.386.444.435 1.069.14 1.552a1.325 1.325 0 01.773 2.198.891.891 0 01.828.374s.875 1.589 1.193 2.191c.143.274.714.568 1.13.346zm-5.409-1.582l1.83-1.587a.838.838 0 00.075-1.186.834.834 0 00-1.177-.084c-.043.037-1.856 1.607-1.895 1.648a.843.843 0 001.168 1.209zm-1.607-1.397l2.51-2.177a.835.835 0 00.079-1.186.834.834 0 00-1.178-.085l-2.293 1.984c-.531.335-.604 1.026-.295 1.38.256.302.797.416 1.177.084zM17.547 25.7a.84.84 0 01.075-1.187l2.056-1.785a.845.845 0 011.181.084.836.836 0 01-.075 1.187l-2.06 1.785a.833.833 0 01-1.177-.084zm6.896-6.035l-3.73 1.75a.84.84 0 01-1.116-.395.84.84 0 01.39-1.126l3.753-1.76c.522-.19 1.043-.276 1.683-.276 1.29 0 3.94.694 5.16 1.04l2.193 3.74-1.258.792c-.3.289-.547 1.103-1.206 1.536-1.35-1.829-3.71-3.735-5.87-5.301zm6.48-1.531l2.305-1.409L36 21.363l-2.396 1.344-2.681-4.572zM12 21.092l3.239-4.71 2.382 1.91-3.164 4.39L12 21.092z" fill="#D36B6B"/></svg>