<svg width="56" height="42" fill="none" xmlns="http://www.w3.org/2000/svg"><path d="M0 6.936c0-1.84.727-3.604 2.021-4.904A6.883 6.883 0 016.901 0h41.404c1.83 0 3.585.73 4.88 2.032a6.954 6.954 0 012.02 4.904v3.468H0V6.936zM0 17.34v17.34c0 1.84.727 3.604 2.021 4.905a6.883 6.883 0 004.88 2.031h41.404c1.83 0 3.585-.73 4.88-2.031a6.954 6.954 0 002.02-4.905V17.34H0zm10.351 6.936h3.45c.915 0 1.793.366 2.44 1.016a3.477 3.477 0 011.01 2.452v3.468a3.48 3.48 0 01-1.01 2.453 3.441 3.441 0 01-2.44 1.015h-3.45a3.441 3.441 0 01-2.44-1.015 3.477 3.477 0 01-1.01-2.453v-3.468c0-.92.363-1.802 1.01-2.452a3.441 3.441 0 012.44-1.016z" fill="#000"/></svg>