<svg width="53" height="53" fill="none" xmlns="http://www.w3.org/2000/svg"><path d="M28.614.765a3.242 3.242 0 00-3.848 0L1.975 17.573c-1.93 1.422-.91 4.452 1.495 4.452h46.441c2.407 0 3.425-3.03 1.497-4.452L28.614.765zM26.69 14.256a2.877 2.877 0 01-2.022-.827 2.807 2.807 0 01-.837-1.997c0-.75.301-1.468.837-1.998a2.877 2.877 0 012.022-.827c.758 0 1.485.298 2.021.827.537.53.838 1.248.838 1.998 0 .749-.301 1.467-.837 1.997a2.876 2.876 0 01-2.022.827zM.96 48.504c0-4.097 3.36-7.416 7.505-7.416h36.45c4.146 0 7.505 3.319 7.505 7.414v2.119c0 .974-.8 1.764-1.787 1.764H2.747A1.775 1.775 0 01.96 50.62v-2.119.002zm11.436-10.24H6.678V24.848h5.718v13.416zm5.717-13.416v13.416h5.718V24.848h-5.718zm11.436 0v13.416h5.718V24.848h-5.718zm11.435 0v13.416h5.718V24.848h-5.718z" fill="#000"/></svg>