<svg width="91" height="66" fill="none" xmlns="http://www.w3.org/2000/svg"><rect x="3.148" y="2.5" width="85.352" height="60.388" rx="7.5" stroke="#000" stroke-width="5"/><path d="M36.856 23.94h-3.542l-3.696 10.164-3.872-10.164h-3.762l6.16 15.4h2.706l6.006-15.4zm.665 15.4h3.52v-15.4h-3.52v15.4zm12.042-4.224c0 .726-.528 1.188-1.452 1.188-1.078 0-2.42-.506-3.3-1.628l-2.002 2.398c.748 1.65 3.146 2.53 5.214 2.53 2.97 0 5.28-1.848 5.28-4.532 0-5.016-6.424-4.4-6.424-6.952 0-.704.572-1.144 1.54-1.144 1.144 0 1.65.396 2.332 1.034l1.892-2.64c-.968-1.034-2.552-1.694-4.532-1.694-3.08 0-4.972 2.068-4.972 4.444 0 4.972 6.424 4.686 6.424 6.996zm3.292 4.224h3.542l1.276-3.234h6.094l1.276 3.234h3.762l-6.402-15.4h-3.146l-6.402 15.4zm7.876-10.89l1.716 4.356h-3.454l1.738-4.356z" fill="#000"/></svg>