<svg width="91" height="66" fill="none" xmlns="http://www.w3.org/2000/svg"><rect x="2.5" y="2.563" width="85.423" height="60.614" rx="7.5" stroke="#000" stroke-width="5"/><path d="M22.532 39.34h3.52v-9.745l4.268 5.94h.506l4.29-6.006v9.812h3.52v-15.4h-3.322l-4.488 6.49-4.752-6.49h-3.542v15.4zm21.827 0l6.82-9.57v9.57h3.52v-15.4h-3.08l-6.82 9.57v-9.57h-3.52v15.4h3.08zm16.5 0v-5.235c.55.066 1.386.066 1.716.066 3.564 0 5.698-2.42 5.698-5.17 0-2.662-1.54-5.104-6.226-5.104-1.188 0-3.85.044-4.708.044v15.4h3.52zm1.54-12.143c1.254 0 2.134.418 2.134 1.782 0 1.496-1.144 1.892-2.068 1.892-.506 0-1.1-.044-1.606-.11v-3.52c.726-.022 1.078-.044 1.54-.044z" fill="#000"/></svg>