<svg width="22" height="17" fill="none" xmlns="http://www.w3.org/2000/svg"><path fill-rule="evenodd" clip-rule="evenodd" d="M18.551 1.707A1 1 0 0017.137.293l-4.261 4.26a4 4 0 00-5.478 5.478l-4.26 4.262a1 1 0 101.413 1.414l4.261-4.26a4 4 0 005.478-5.478l4.261-4.262zm-7.189 4.36a2 2 0 00-2.45 2.45l2.45-2.45zm-1.036 3.865l2.45-2.45a1.998 1.998 0 01-2.45 2.45zM14.609.821C13.474.32 12.211 0 10.844 0 7.992 0 5.601 1.395 3.842 2.906 2.077 4.423.852 6.138.308 6.97a1.876 1.876 0 000 2.06 20.305 20.305 0 002.748 3.344L4.47 10.96A18.313 18.313 0 012.024 8c.51-.773 1.598-2.268 3.121-3.577C6.718 3.072 8.66 2 10.844 2a7.06 7.06 0 012.22.367L14.609.821zM10.844 14a7.062 7.062 0 01-2.22-.367L7.08 15.18c1.136.5 2.398.821 3.765.821 2.852 0 5.243-1.395 7.002-2.906 1.765-1.517 2.99-3.232 3.534-4.064a1.875 1.875 0 000-2.06 20.298 20.298 0 00-2.748-3.344L17.218 5.04A18.26 18.26 0 0119.664 8c-.51.773-1.598 2.268-3.121 3.577C14.97 12.928 13.028 14 10.844 14z" fill="#000"/></svg>