<svg width="488" height="218" fill="none" xmlns="http://www.w3.org/2000/svg"><path d="M118.414 186.783c-1.98 4.817-2.351 11.75-2.866 17.01m0 0c-.01.102 1.266-.027 1.365-.039 4.434-.557 11.374-4.574 14.354-7.575m-15.719 7.614c17.088-21.853 34.249-48.124 51.289-74.006 13.749-20.884 27.42-41.516 40.91-59.37" stroke="#E55733" stroke-width="5" stroke-miterlimit="1.5" stroke-linecap="round" stroke-linejoin="round"/><path fill-rule="evenodd" clip-rule="evenodd" d="M17.923 106.26a106.694 106.694 0 01-6.748 10.781c-.398.561-1.965 3.051-2.815 3.036-1.43-.026-2.218-1.638-2.456-2.803-.654-3.198-.224-6.353-.341-9.565-.024-.663-.346-2.877.165-3.413 2.016-2.113 8.994 1.29 11.5 2.104" fill="#F5BD33"/><path d="M17.923 106.26a106.712 106.712 0 01-6.748 10.781c-.398.561-1.965 3.051-2.815 3.036-1.43-.026-2.218-1.638-2.456-2.803-.654-3.198-.225-6.353-.341-9.565-.024-.663-.346-2.877.165-3.413 2.016-2.113 8.994 1.29 11.5 2.104" stroke="#F5BD33" stroke-width="5" stroke-miterlimit="1.5" stroke-linecap="round" stroke-linejoin="round"/><path d="M12.059 105.912c2.27-11.763 6.747-22.74 10.243-34.133 2.036-6.63 3.806-13.943 10.093-17.981 6.962-4.474 16.323-3.275 24.206-1.649 20.275 4.182 38.622 13.68 58.442 19.02" stroke="#F5BD33" stroke-width="5" stroke-miterlimit="1.5" stroke-linecap="round" stroke-linejoin="round"/><path d="M59.328 161.519c7.848-15.215 12.468-32.187 18.888-48.018" stroke="#00C2FF" stroke-width="5" stroke-miterlimit="1.5" stroke-linecap="round" stroke-linejoin="round"/><path fill-rule="evenodd" clip-rule="evenodd" d="M70.609 153.476c-5.125-1.221-10.096-2.868-15.189-4.17 1.377 3.754 1.47 8.838 3.342 12.319.372.694 3.31-.998 3.679-1.198 3.032-1.649 5.698-4.788 8.31-7.051" fill="#00C2FF"/><path d="M70.609 153.476c-5.125-1.221-10.096-2.868-15.189-4.17 1.377 3.754 1.47 8.838 3.342 12.319.372.694 3.31-.998 3.679-1.198 3.032-1.649 5.698-4.788 8.31-7.051" stroke="#00C2FF" stroke-width="5" stroke-miterlimit="1.5" stroke-linecap="round" stroke-linejoin="round"/><path clip-rule="evenodd" d="M203.256 137.011c-4.502.172-9.824 1.63-13.666 4.15 2.241-4.862 2.115-10.065-.185-14.87 4.373 2.562 11.04-.054 14.642-2.921-2.496 3.652-2.492 9.465-.791 13.641zm17.534 29.229c-6.271 2.694-13.01 4.635-19.541 6.623.515-6.738 1.282-13.463 1.888-20.188 6.966-2.215 13.574-5.849 19.963-9.306-.271 8.449-1.112 16.166-2.31 22.871z" stroke="#F5BD33" stroke-width="5" stroke-miterlimit="1.5" stroke-linecap="round" stroke-linejoin="round"/><path d="M130.636 99.57c1.835-26.099 3.652-52.07 6.092-78.142-23.171 26.549-43.94 56.48-62.462 86.284 1.712-33.68 7.51-67.174 12.237-100.535-21.582 14.952-37.76 39.624-54.134 59.51m344.925 29.476c-3.157-14.156 1.758-26.893 13.791-35.036 7.35-4.973 20.628-6.991 26.008 1.928 3.74 6.201-4.746 20.986-10.927 13.53-3.149-3.8-.904-11.064 1.172-14.76 5.954-10.595 18.96-13.78 30.185-10.261 9.914 3.107 16.131 13.742 14.096 23.96-1.242 6.236-8.039 14.362-15.103 9.956-10.926-6.815 7.671-18.765 15.763-18.16 29.262 2.183 24.859 43.288 12.051 59.812M161 164.043c-4.507 9.554-7.908 19.492-11.97 29.212m41.01-34.413c-12.031 12.367-22.899 26.237-32.912 40.252m41.718-11.503c-11.282 3.59-25.487 13.507-35.94 19.904" stroke="#00C2FF" stroke-width="5" stroke-miterlimit="1.5" stroke-linecap="round" stroke-linejoin="round"/><path d="M278.178 179.958c.726-4.976 1.594-9.903 2.528-14.842m7.291 20.192c2.659-5.039 6.119-9.552 9.256-14.283m-1.985 22.461c3.966-2.661 8.332-4.965 12.961-6.153" stroke="#00FFA3" stroke-width="5" stroke-miterlimit="1.5" stroke-linecap="round" stroke-linejoin="round"/><path fill-rule="evenodd" clip-rule="evenodd" d="M352.611 32.71c-8.749-5.958-24.488-4.942-34.584 14.935-2.459 4.84-10.185 4.468-11.492 9.787-3.371 13.716 24.449 26.613 34.519 28.132 3.769.57 9.462 1.287 12.514-1.73 3.607-3.569-.594-10.23 1.734-14.555 6.123-11.374 11.695-26.772-2.691-36.569z" fill="#fff" stroke="#2D32FF" stroke-width="5" stroke-miterlimit="1.5" stroke-linecap="round" stroke-linejoin="round"/><path d="M349.895 82.167c.88-.954.103-2.066-.57-2.9-1.592-1.97-3.603-3.452-5.639-4.927-7.24-5.25-15.242-10.73-23.802-13.549-2.822-.928-10.16-3.132-8.927 2.363m40.128 4.366c-3.469-4.928-7.899-9.1-13.124-12.102-2.6-1.495-5.514-2.472-8.314-3.508-4.433-1.64-9.141-2.654-13.839-1.738" stroke="#2D32FF" stroke-width="5" stroke-miterlimit="1.5" stroke-linecap="round" stroke-linejoin="round"/><path fill-rule="evenodd" clip-rule="evenodd" d="M336.241 69.162c-.943 1.498-2.645 3.516-4.359 4.034-3.235.979-7.082-.653-7.457-4.268-.09-.86.077-1.76.297-2.586.248-.927.864-2.23 1.476-2.967 3.552 1.659 7.039 3.804 10.043 5.787zm19.354-34.112c-2.018-1.755-3.916-3.203-6.624-4.244.569-1.166 1.343-2.13 2.207-3.3 2.177-2.946 6.87-3.69 7.396.665.269 2.226-1.777 5.113-2.979 6.879z" fill="#fff" stroke="#2D32FF" stroke-width="5" stroke-miterlimit="1.5" stroke-linecap="round" stroke-linejoin="round"/><path fill-rule="evenodd" clip-rule="evenodd" d="M306.294 37.432c1.69.893 3.418 1.777 5.038 2.797l-5.038-2.797z" fill="#fff"/><path d="M306.294 37.432c1.69.893 3.418 1.777 5.038 2.797" stroke="#00C2FF" stroke-width="5" stroke-miterlimit="1.5" stroke-linecap="round" stroke-linejoin="round"/><path fill-rule="evenodd" clip-rule="evenodd" d="M309.138 21.058c2.607 3.788 5.423 7.386 8.264 10.997l-8.264-10.997z" fill="#fff"/><path d="M309.138 21.058c2.607 3.788 5.423 7.386 8.264 10.997" stroke="#00C2FF" stroke-width="5" stroke-miterlimit="1.5" stroke-linecap="round" stroke-linejoin="round"/><path fill-rule="evenodd" clip-rule="evenodd" d="M322.91 20.833c.503 1.847 1.011 3.692 1.523 5.536l-1.523-5.536z" fill="#fff"/><path d="M322.91 20.833c.503 1.847 1.011 3.692 1.523 5.536" stroke="#00C2FF" stroke-width="5" stroke-miterlimit="1.5" stroke-linecap="round" stroke-linejoin="round"/><path fill-rule="evenodd" clip-rule="evenodd" d="M366.419 54.914c1.428.073 2.859.14 4.288.192l-4.288-.192z" fill="#fff"/><path d="M366.419 54.914c1.428.073 2.859.14 4.288.192" stroke="#00C2FF" stroke-width="5" stroke-miterlimit="1.5" stroke-linecap="round" stroke-linejoin="round"/><path fill-rule="evenodd" clip-rule="evenodd" d="M364.142 61.243c3.84.888 7.578 2.087 11.25 3.51l-11.25-3.51z" fill="#fff"/><path d="M364.142 61.243c3.84.888 7.578 2.087 11.25 3.51" stroke="#00C2FF" stroke-width="5" stroke-miterlimit="1.5" stroke-linecap="round" stroke-linejoin="round"/><path fill-rule="evenodd" clip-rule="evenodd" d="M362.097 67.075c.883 1.639 1.673 3.313 2.517 4.97l-2.517-4.97z" fill="#fff"/><path d="M362.097 67.075c.883 1.639 1.673 3.313 2.517 4.97m-145.928 53.314c6.971 4.865 13.698 10.175 20.644 15.119" stroke="#00C2FF" stroke-width="5" stroke-miterlimit="1.5" stroke-linecap="round" stroke-linejoin="round"/><path d="M259.674 139.533c-4.935-3.127-9.589-7.878-14.108-11.587-10.191-8.364-21.484-15.513-32.324-22.967" stroke="#2D32FF" stroke-width="5" stroke-miterlimit="1.5" stroke-linecap="round" stroke-linejoin="round"/><path d="M210.846 83.178c8.998 6.288 18.798 11.333 27.967 17.361 16.643 10.942 33.622 23.675 48.896 36.495" stroke="#00C2FF" stroke-width="5" stroke-miterlimit="1.5" stroke-linecap="round" stroke-linejoin="round"/><path d="M231.357 77.611c15.223 10.402 30.638 20.434 45.528 31.351" stroke="#2D32FF" stroke-width="5" stroke-miterlimit="1.5" stroke-linecap="round" stroke-linejoin="round"/><path d="M252.573 74.514c7.754 5.428 15.88 10.339 23.681 15.711" stroke="#00FFA3" stroke-width="5" stroke-miterlimit="1.5" stroke-linecap="round" stroke-linejoin="round"/><path d="M252.39 56.134c13.355 10.008 27.574 18.714 41.159 28.372" stroke="#F5BD33" stroke-width="5" stroke-miterlimit="1.5" stroke-linecap="round" stroke-linejoin="round"/><path d="M268.026 50.107c8.847 6.05 18.043 11.835 27.174 17.464" stroke="#00FFA3" stroke-width="5" stroke-miterlimit="1.5" stroke-linecap="round" stroke-linejoin="round"/><path fill-rule="evenodd" clip-rule="evenodd" d="M141.83 133.109c1.436-2.632 4.081-6.292 3.659-11.673-.433-5.521-7.01-10.164-12.91-9.867-6.072.306-9.507 4.388-12.817 9.304-8.779 13.04-21.805 31.092-27.673 42.051-.323.602.584 10.807 1.042 16.196.18 2.101.154 4.677 2.212 5.923 2.045 1.239 4.45.187 6.386-.78 4.394-2.195 8.406-5.087 12.424-7.889 1.575-1.098 19.346-29.409 27.677-43.265z" fill="#fff" stroke="#2D32FF" stroke-width="5" stroke-miterlimit="1.5" stroke-linecap="round" stroke-linejoin="round"/><path fill-rule="evenodd" clip-rule="evenodd" d="M122.307 117.431c-.869 1.067-1.693 2.229-2.51 3.442a890.71 890.71 0 01-4.754 6.973l.609.212c7.475 2.575 15.294 7.741 20.876 13.808 1.989-3.231 3.819-6.234 5.336-8.757.158-.289.33-.59.511-.904-4.895-6.762-12.012-12.741-20.068-14.774z" fill="#fff" stroke="#2D32FF" stroke-width="5" stroke-miterlimit="1.5" stroke-linecap="round" stroke-linejoin="round"/><path d="M92.044 163.123c.651-.352 2.074-.637 2.82-.74 3.962-.546 5.417 3.654 5.636 6.817.865-.893 1.972-1.747 3.199-2.076 3.605-.966 5.404 2.174 4.783 5.341 2.683-1.185 7.087-.32 5.828 3.751m-21.438-.368c2.345-.429 4.91.036 7.18 1.129 2.365 1.138 4.409 2.957 5.549 5.153" stroke="#2D32FF" stroke-width="5" stroke-miterlimit="1.5" stroke-linecap="round" stroke-linejoin="round"/><path d="M100.486 169.192c2.131-4.191 5.796-10.814 8.613-15.308 4.492-7.167 9.492-15.353 14.285-22.32" stroke="#2D32FF" stroke-width="5" stroke-miterlimit="1.5" stroke-linecap="round" stroke-linejoin="round"/><path fill-rule="evenodd" clip-rule="evenodd" d="M108.485 172.459c7.559-11.212 14.529-24.802 22.566-35.685l-22.566 35.685z" fill="#fff"/><path d="M108.485 172.459c7.559-11.212 14.529-24.802 22.566-35.685m43.591 13.154c.758-1.466 1.552-2.945 2.177-4.474m-79.75-36.901c1.826-5.447 3.769-10.962 5.103-16.556" stroke="#2D32FF" stroke-width="5" stroke-miterlimit="1.5" stroke-linecap="round" stroke-linejoin="round"/><path fill-rule="evenodd" clip-rule="evenodd" d="M297.065 120.881c.566-1.031 2.376-2.419 1.709-3.388-2.807-4.08-5.806-9.192-3.603-14.235.892-2.044 2.499-4.377 4.575-5.35 1.405-.658 3.336-.13 3.809 1.505.499 1.729-1.184 3.54-1.864 4.99-.507 1.083-.559 2.174.611 2.813.355.193.744.33 1.135.431.539.141 1.09.185 1.64.088 1.832-.324 3.575-2.43 4.259-4.056.435-1.034.478-2.253-.471-2.997-1.474-1.156-3.952.269-5.169-1.294a2.45 2.45 0 01-.447-.869c-.572-2.17 1.565-3.392 3.337-3.85 1.7-.44 3.764-.627 5.45-.033 3.766 1.33 4.505 5.957 3.736 9.388 1.497-3.046 1.662-6.62 2.652-9.836.437-1.416.906-3.047 2.081-4.047 1.025-.872 2.338-.693 3.069.49.754 1.221.883 2.848.867 4.244-.046 4.16-1.409 8.176-3.705 11.591 2.066-2.137 4.108-4.308 6.152-6.466.947-1 1.89-2.274 2.974-2.656 1.502-.53 2.818.373 3.073 1.938.222 1.359-.246 2.679-.867 3.873-1.247 2.397-3.266 4.362-5.291 6.103-2.25 1.937-4.586 3.847-7.261 5.148 2.102-.673 4.136-1.399 6.166-2.268 1.924-.823 4.588-2.787 6.811-2.514 1.636.201 1.839 1.724 1.33 3.126-.646 1.779-2.483 2.983-4.073 3.841-3.222 1.738-6.716 2.961-10.289 3.743-1.205.264-2.42.477-3.643.639-.536.07-1.407-.007-1.889.222-.552.264-1.012.998-1.385 1.454-.963 1.178-1.942 2.399-2.737 3.699" fill="#fff"/><path d="M297.065 120.881c.566-1.031 2.376-2.419 1.709-3.388-2.807-4.08-5.806-9.192-3.603-14.235.892-2.044 2.499-4.377 4.575-5.35 1.405-.658 3.336-.13 3.809 1.505.499 1.729-1.184 3.54-1.864 4.99-.507 1.083-.559 2.174.611 2.813.355.193.744.33 1.135.431.539.141 1.09.185 1.64.088 1.832-.324 3.575-2.43 4.259-4.056.435-1.034.478-2.253-.471-2.997-1.474-1.156-3.952.269-5.169-1.294a2.45 2.45 0 01-.447-.869c-.572-2.17 1.565-3.392 3.337-3.85 1.7-.44 3.764-.627 5.45-.033 3.766 1.33 4.505 5.957 3.736 9.388 1.497-3.046 1.662-6.62 2.652-9.836.437-1.416.906-3.047 2.081-4.047 1.025-.872 2.338-.693 3.069.49.754 1.221.883 2.848.867 4.244-.046 4.16-1.409 8.176-3.705 11.591 2.066-2.137 4.108-4.308 6.152-6.466.947-1 1.89-2.274 2.974-2.656 1.502-.53 2.818.373 3.073 1.938.222 1.359-.246 2.679-.867 3.873-1.247 2.397-3.266 4.362-5.291 6.103-2.25 1.937-4.586 3.847-7.261 5.148 2.102-.673 4.136-1.399 6.166-2.268 1.924-.823 4.588-2.787 6.811-2.514 1.636.201 1.839 1.724 1.33 3.126-.646 1.779-2.483 2.983-4.073 3.841-3.222 1.738-6.716 2.961-10.289 3.743-1.205.264-2.42.477-3.643.639-.536.07-1.407-.007-1.889.222-.552.264-1.012.998-1.385 1.454-.963 1.178-1.942 2.399-2.737 3.699" stroke="#E55733" stroke-width="5" stroke-miterlimit="1.5" stroke-linecap="round" stroke-linejoin="round"/><path fill-rule="evenodd" clip-rule="evenodd" d="M387.88 166.657c-.185 2.153-.021 5.218-1.297 7.013-2.037 2.867-5.271-.678-6.368-2.442a30.74 30.74 0 01-1.742-3.174c-1.873 1.029-4.339 1.998-6.502 1.938-1.812-.05-2.862-1.266-2.497-3.073.435-2.159 1.913-4.239 3.186-5.984-.967-2.06-1.984-4.164-2.426-6.397-.425-2.147 1.022-3.438 3.12-3.128.678.1 1.343.278 1.992.496.874.293 2.908 1.164 3.433 1.369.071-.011.394-.473.459-.548.44-.507.888-1.003 1.358-1.484.355-.362.713-.722 1.075-1.078 1.287-1.266 4.429-4.798 6.12-2.326.172.252.29.53.384.818.155.476.221.993.272 1.489.097.933.091 1.871.092 2.807.001 1.398-.091 2.808-.03 4.205a.303.303 0 01-.003.052c.774.324 1.552.643 2.318.986 1.67.749 4.506 1.345 4.591 3.334.046 1.076-.78 1.873-1.619 2.404-1.705 1.078-3.668 1.657-5.58 2.242" fill="#fff"/><path d="M387.88 166.657c-.185 2.153-.021 5.218-1.297 7.013-2.037 2.867-5.271-.678-6.368-2.442a30.74 30.74 0 01-1.742-3.174c-1.873 1.029-4.339 1.998-6.502 1.938-1.812-.05-2.862-1.266-2.497-3.073.435-2.159 1.913-4.239 3.186-5.984-.967-2.06-1.984-4.164-2.426-6.397-.425-2.147 1.022-3.438 3.12-3.128.678.1 1.343.278 1.992.496.874.293 2.908 1.164 3.433 1.369.071-.011.394-.473.459-.548.44-.507.888-1.003 1.358-1.484.355-.362.713-.722 1.075-1.078 1.287-1.266 4.429-4.798 6.12-2.326.172.252.29.53.384.818.155.476.221.993.272 1.489.097.933.091 1.871.092 2.807.001 1.398-.091 2.808-.03 4.205a.303.303 0 01-.003.052c.774.324 1.552.643 2.318.986 1.67.749 4.506 1.345 4.591 3.334.046 1.076-.78 1.873-1.619 2.404-1.705 1.078-3.668 1.657-5.58 2.242" stroke="#2D32FF" stroke-width="5" stroke-miterlimit="1.5" stroke-linecap="round" stroke-linejoin="round"/><path d="M227.455 208.627c-3.73-2.288-8.044-3.514-11.739-5.814-.626-.39-2.942-1.157-3.247-1.885m0 0c-.396-.945 1.805-2.565 2.308-2.957 2.536-1.979 6.989-5.389 9.976-7.239m-12.284 10.196c11.918.378 28.305-8.935 27.892-19.77m0 0c-.11-2.868-1.397-5.843-4.256-8.773-5.406-5.54-12.126 2.324-7.282 7.543 2.675 2.881 7.642 2.417 11.538 1.23zm0 0a23.755 23.755 0 003.011-1.14c10.691-4.938 17.956-18.305 17.385-29.84" stroke="#00FFA3" stroke-width="5" stroke-miterlimit="1.5" stroke-linecap="round" stroke-linejoin="round"/><path fill-rule="evenodd" clip-rule="evenodd" d="M321.356 151.984c-2.856-3.288-6.524-6.549-10.925-7.465-.622 4.78-2.886 10.562-2.688 15.322.023.549 3.905-.831 4.079-.909 3.81-1.723 7.278-3.892 10.765-6.178" fill="#F5BD33"/><path d="M321.356 151.984c-2.856-3.288-6.524-6.549-10.925-7.465-.622 4.78-2.886 10.562-2.688 15.322.023.549 3.905-.831 4.079-.909 3.81-1.723 7.278-3.892 10.765-6.178" stroke="#F5BD33" stroke-width="5" stroke-miterlimit="1.5" stroke-linecap="round" stroke-linejoin="round"/><path d="M315.199 148.949c7.713-16.332 25.275-28.875 43.53-24.932 4.691 1.014 10.454 2.272 13.698 6.161 1.84 2.205 3.307 5.852 2.244 8.662-1.986 5.248-9.428 5.112-12.306.533-1.452-2.309-1.857-6.803-.954-9.372.641-1.826 1.666-3.566 3.253-4.747 13.476-10.023 36.46-2.658 44.756 11.232" stroke="#F5BD33" stroke-width="5" stroke-miterlimit="1.5" stroke-linecap="round" stroke-linejoin="round"/><path d="M354.52 167.122c-3.272 1.414-7.38 3.293-9.058 6.683-1.687 3.408 1.278 9.052 5.427 8.615 4.096-.431 6.701-3.871 9.079-6.838" stroke="#00C2FF" stroke-width="5" stroke-miterlimit="1.5" stroke-linecap="round" stroke-linejoin="round"/><path d="M365.081 180.385c-.351 2.374-2.153 4.516-3.593 6.337-2.741 3.464-6.052 6.459-10.623 7.047-7.697.988-16.335-4.883-17.3-12.727-.333-2.702.59-5.056 1.614-7.504 1.214-2.899 3.301-5.353 5.645-7.433 2.823-2.505 6.181-4.982 9.84-6.084" stroke="#00C2FF" stroke-width="5" stroke-miterlimit="1.5" stroke-linecap="round" stroke-linejoin="round"/><path d="M370.565 185.018c-.257 3.137-2.797 5.971-4.205 8.629-5.799 10.953-20.35 17.228-32.013 11.858-10.207-4.701-18.378-17.318-16.15-29.137 2.725-14.461 19.533-21.588 28.387-21.81" stroke="#00C2FF" stroke-width="5" stroke-miterlimit="1.5" stroke-linecap="round" stroke-linejoin="round"/><path d="M173.177 89.642a179.98 179.98 0 01-14.92 14.126c-.848.717-4.306 3.977-5.581 3.632-2.145-.581-2.623-3.373-2.468-5.266.422-5.194 2.458-9.912 3.696-14.925.256-1.035.745-4.582 1.752-5.217M243.5 41.074c-11.17-5.497-24.755-10.893-37.222-6.606-11.256 3.87-17.144 14.513-23.132 24.001-10.288 16.3-21.871 31.59-30.472 48.929" stroke="#00FFA3" stroke-width="5" stroke-miterlimit="1.5" stroke-linecap="round" stroke-linejoin="round"/><path d="M85.529 124.179c-.827 3.039-1.78 6.067-2.46 9.141-.788 3.56-3.324 19.054 4.815 12.347.763-.629 1.428-1.384 2.083-2.121 1.176-1.324 2.37-2.621 3.438-4.036 8.785-11.632 15.418-25.124 21.531-38.281" stroke="#F5BD33" stroke-width="5" stroke-miterlimit="1.5" stroke-linecap="round" stroke-linejoin="round"/><path d="M280.771 144.621c-2.44 2.882-4.533 5.998-6.834 8.977m17.34-8.086c-5.297 3.156-10.332 6.939-15.085 10.851" stroke="#E55733" stroke-width="5" stroke-miterlimit="1.5" stroke-linecap="round" stroke-linejoin="round"/></svg>