<svg width="168" height="32" fill="none" xmlns="http://www.w3.org/2000/svg"><g clip-path="url(#clip0_8:79)" fill="#F11DB2"><path d="M4.812 10.103h22.889L22.854 31.71 0 31.728l1.967-8.838H14.54l1.051-4.684H3.002l1.81-8.103zM7.089.017L29.925 0l-1.604 7.368H5.433L7.089.017zm23.889 0l16.075.017c1.403 0 2.576.148 3.519.445 1.161.364 2.23 1.447 3.208 3.248l.293.803c.264 1.265.397 2.462.397 3.59 0 3.704-1.484 6.622-4.45 8.752-1.08.775-2.484 1.293-4.209 1.556l-9.71-.017-2.967 13.3-9.263.017 4.882-21.762h15.73l1.104-.154.57-.239.465-.273.242-.53v-.24l-.242-.512-.57-.376-.62-.189-16.11-.05L30.977.016zm27.322 0h15.954l1.621.17c2.622.274 4.244 1.58 4.865 3.917.425 1.597.638 3.08.638 4.448 0 3.57-1.5 6.203-4.502 7.902l-3.588 1.522 3.984 13.752-9.33-.017-4.554-13.266-2.967 13.283H51.21l4.812-21.711h15.92l1.104-.154.57-.222.466-.29.242-.513V8.41l-.242-.513-.57-.376-.62-.188-16.197-.07L58.3.018z"/><path d="M84.966 10.12h17.387l2.95 21.608-10.47-.017-1.105-12.821h-3.277l-6.727 12.838H72.6l11.746-20.702.621-.906zm16.989-2.82L100.766 0h-10.59l-4.14 7.3h15.919zm5.089-7.3H117.6l1.587 7.265h-10.332L107.044 0zm29.546 10.035l.707 3.094.708-3.06h8.383l-4.812 21.66h-9.642l-3.83-14.292-3.173 14.291h-9.659l-5.571-21.642 10.246-.017.707 3.06.725-3.094h15.211zM123.688 0h10.573l1.639 7.35h-13.92L123.688 0zm14.938 7.35L140.247 0h8.435l-1.69 7.35h-8.366zM151.045.017L160.049 0l-5.278 23.54L168 23.523l-1.829 8.189-22.233.017L151.045.017z"/></g><defs><clipPath id="clip0_8:79"><path fill="#fff" d="M0 0h168v32H0z"/></clipPath></defs></svg>