<svg width="39" height="58" fill="none" xmlns="http://www.w3.org/2000/svg"><path d="M28.39 4.302H5.877a.5.5 0 00-.355.148.51.51 0 00-.147.359v37.518a.51.51 0 00.147.359.5.5 0 00.355.149H28.39a.5.5 0 00.355-.15.511.511 0 00.147-.358V29.682a.51.51 0 00-.153-.349.5.5 0 00-.85.349V41.82H6.378V5.315h21.51v7.082a.51.51 0 00.152.348.499.499 0 00.698 0 .51.51 0 00.153-.348V4.81a.514.514 0 00-.31-.47.497.497 0 00-.192-.038zM7.865 45.492H5.792c-.27 0-.417.154-.417.433v6.451c0 .28.148.433.417.433h2.073a1.772 1.772 0 001.273-.546 1.917 1.917 0 00.527-1.32v-3.584a1.905 1.905 0 00-.131-.718 1.852 1.852 0 00-.39-.608 1.776 1.776 0 00-.587-.404 1.724 1.724 0 00-.692-.137zm.966 5.45a.986.986 0 01-.595.927.904.904 0 01-.37.074H6.208v-5.585h1.656a.906.906 0 01.683.293.987.987 0 01.283.708v3.584zm8.064-5.45a2.08 2.08 0 00-.821.17c-.26.112-.497.276-.697.483a2.213 2.213 0 00-.464.722c-.108.27-.163.56-.163.852v2.866c0 .292.056.58.163.85.108.27.266.516.465.722.2.207.436.37.696.482a2.079 2.079 0 001.642 0c.26-.111.497-.275.696-.482.2-.206.357-.451.465-.721.108-.27.163-.56.163-.851v-2.866a2.288 2.288 0 00-.16-.852 2.225 2.225 0 00-.466-.723 2.132 2.132 0 00-.697-.482 2.07 2.07 0 00-.822-.168v-.002zm1.31 5.09a1.304 1.304 0 01-.378.965 1.308 1.308 0 01-.93.394 1.308 1.308 0 01-1.218-.835 1.344 1.344 0 01-.091-.524V47.72c-.005-.18.026-.358.091-.524a1.308 1.308 0 011.217-.835 1.308 1.308 0 011.218.835c.065.166.096.345.091.524v2.863zm9.836 1.794c0 .28.152.433.426.433.275 0 .426-.154.426-.433v-6.451c0-.28-.151-.432-.426-.432a.402.402 0 00-.36.19l-1.756 2.684-1.746-2.66a.431.431 0 00-.37-.213c-.276 0-.426.154-.426.432v6.45c0 .28.15.433.425.433s.426-.154.426-.433V47.35l1.299 1.983c.11.168.242.25.392.25.15 0 .275-.084.385-.25l1.304-1.985.001 5.028z" fill="#000"/><path d="M28.418 15.195a.465.465 0 00-.337.148.519.519 0 00-.14.356v10.877a.518.518 0 00.146.346c.088.09.207.142.331.142a.464.464 0 00.332-.142.518.518 0 00.145-.346V15.7a.52.52 0 00-.14-.356.465.465 0 00-.337-.148zm3.8 4.39h-1.686a.622.622 0 00-.2.027.536.536 0 00-.17.087.418.418 0 00-.114.134.338.338 0 000 .317c.027.05.066.096.115.134a.534.534 0 00.17.087c.063.02.131.029.2.027h1.685a.573.573 0 00.348-.124.369.369 0 00.143-.283.369.369 0 00-.143-.282.573.573 0 00-.348-.124zm-7.119 0a.584.584 0 00-.353.124.368.368 0 00-.144.282c0 .106.051.207.144.283a.59.59 0 00.353.124h1.707a.584.584 0 00.352-.124.367.367 0 00.145-.283.368.368 0 00-.145-.282.584.584 0 00-.352-.124h-1.707z" fill="#000"/></svg>