<svg width="16" height="16" fill="none" xmlns="http://www.w3.org/2000/svg"><g clip-path="url(#clip0_183_1863)"><path d="M13.138 15.363a49.56 49.56 0 01-10.272 0 2.944 2.944 0 01-1.754-.817 2.822 2.822 0 01-.839-1.712 46.21 46.21 0 010-10.034c.07-.648.365-1.253.836-1.714.472-.46 1.09-.75 1.753-.82a49.553 49.553 0 0110.272 0 2.944 2.944 0 011.754.818 2.82 2.82 0 01.839 1.712c.364 3.335.364 6.7 0 10.035a2.822 2.822 0 01-.837 1.713c-.47.46-1.09.75-1.752.82z" fill="#0056FF"/><path d="M9.496 5.148h2.506v.61H9.496v-.61zM13 8.571C13 7.3 11.99 6.27 10.748 6.27c-1.243 0-2.251 1.03-2.251 2.302s.935 2.302 2.25 2.302c1 0 1.855-.43 2.145-1.462h-1.055a1.117 1.117 0 01-.417.427 1.153 1.153 0 01-.583.157c-.59 0-1.11-.413-1.078-1.108h3.222c.018-.1.018-.206.018-.316zM9.762 8.12c.078-.572.492-.937.991-.937.5 0 .91.365.991.937H9.763zm-1.65.548c-.081-.883-1.103-1.18-1.103-1.18.388-.178.85-.541.846-1.341-.007-1.155-1.24-1.39-1.636-1.39H3v6.006h2.924c.407 0 .84-.053 1.182-.22.925-.444 1.086-.992 1.006-1.875zm-3.76-2.874h1.384s.818-.019.818.688-.818.688-.818.688H4.353V5.794zm1.466 3.95H4.353V8.1h1.465s.974-.022.974.82c0 .844-.974.822-.974.822z" fill="#fff"/></g><defs><clipPath id="clip0_183_1863"><path fill="#fff" d="M0 0h16v16H0z"/></clipPath></defs></svg>