<svg width="217" height="197" fill="none" xmlns="http://www.w3.org/2000/svg"><g clip-path="url(#clip0_83_4686)"><path d="M.294 196.048l215.726.984.458-128.927L.753 67.121.294 196.048z" fill="#414040"/><path d="M95.422 5.918L.82 67.119l215.659.874-94.106-61.971a24.64 24.64 0 00-26.95-.114v.01z" fill="#404040"/><path opacity=".2" d="M208.471 67.967l-89.414-58.88a18.595 18.595 0 00-20.336-.079L8.832 67.155l199.639.812z" fill="#474747"/><path d="M169.176 62.42l28.134 10.674-.027 7.318-88.922 57.528-88.442-58.243.054-14.634 149.203-2.642z" fill="#fff"/><path d="M169.177 62.42l3.937 15.762 24.197-5.088" fill="#E0E0E0"/><path d="M169.177 62.42l1.55 12.828 26.584-2.154" fill="#F0F0F0"/><path d="M126.801 125.994l89.154 71.04-215.66-.873 89.725-70.314a29.634 29.634 0 0136.781.147z" fill="#504F4F"/></g><defs><clipPath id="clip0_83_4686"><path fill="#fff" transform="translate(.5)" d="M0 0h216v197H0z"/></clipPath></defs></svg>