<svg width="20" height="21" fill="none" xmlns="http://www.w3.org/2000/svg"><g clip-path="url(#clip0_487_1239)"><path d="M10 4.54c-3.821 0-7.286 2.09-9.844 5.485a.792.792 0 000 .945c2.558 3.4 6.023 5.49 9.844 5.49 3.821 0 7.287-2.09 9.843-5.485a.792.792 0 000-.945C17.287 6.63 13.821 4.54 10 4.54zm.274 10.158a4.21 4.21 0 01-4.472-4.472 4.216 4.216 0 013.924-3.924 4.209 4.209 0 014.472 4.472 4.23 4.23 0 01-3.924 3.924zm-.127-1.94a2.261 2.261 0 01-2.405-2.405 2.275 2.275 0 012.115-2.115 2.261 2.261 0 012.405 2.405 2.275 2.275 0 01-2.115 2.115z" fill="#ACACAC"/></g><defs><clipPath id="clip0_487_1239"><path fill="#fff" transform="translate(0 .5)" d="M0 0h20v20H0z"/></clipPath></defs></svg>