<svg width="40" height="40" fill="none" xmlns="http://www.w3.org/2000/svg"><path d="M26.832 11.868c.194.435.363.88.508 1.332a12.728 12.728 0 01-10.224 16.372c-.473.073-.95.117-1.428.132a11.311 11.311 0 0015.86 2.38l3.057.472a.6.6 0 00.596-.264.608.608 0 000-.656l-1.269-1.956A11.176 11.176 0 0036.116 23a11.332 11.332 0 00-9.284-11.132z" fill="#fff"/><path d="M26.515 17a11.316 11.316 0 01-18.063 9.084l-3.056.472a.6.6 0 01-.596-.92l1.268-1.956A11.176 11.176 0 013.884 17a11.316 11.316 0 1122.631 0z" fill="#fff"/></svg>