<svg width="32" height="32" fill="none" xmlns="http://www.w3.org/2000/svg"><rect width="32" height="32" rx="6" fill="#F3F2F6"/><g clip-path="url(#clip0_80_1967)"><path d="M18.51 10.197a.768.768 0 00-.498.185l-.007-.007-6.074 6.053c-.689.688-.97 1.36-.974 2.318 0 .75.276 1.424.78 1.9.519.49 1.24.748 2.085.748h.018a3.252 3.252 0 002.318-.974l7.048-7.046c1.785-1.786 1.832-4.33.112-6.05A4.494 4.494 0 0020.118 6a4.49 4.49 0 00-3.198 1.323L8.092 16.15a5.779 5.779 0 000 8.163A5.733 5.733 0 0012.174 26c1.543 0 2.992-.6 4.081-1.687l9.139-9.171s.201-.198.201-.532a.775.775 0 00-1.3-.567l-.002-.002-9.139 9.171a4.188 4.188 0 01-2.98 1.232 4.187 4.187 0 01-2.98-1.232 4.22 4.22 0 010-5.962l8.827-8.826a2.946 2.946 0 012.097-.867 2.95 2.95 0 012.099.867c.558.559.839 1.222.812 1.919-.027.685-.346 1.353-.923 1.93l-7.063 7.061a1.703 1.703 0 01-1.208.503c-.868 0-1.322-.546-1.322-1.085.002-.456.18-.885.504-1.208l6.089-6.068-.007-.007a.767.767 0 00.185-.497.775.775 0 00-.775-.775z" fill="#6F6F6F"/></g><defs><clipPath id="clip0_80_1967"><path fill="#fff" transform="translate(6 6)" d="M0 0h20v20H0z"/></clipPath></defs></svg>