<svg width="77" height="30" fill="none" xmlns="http://www.w3.org/2000/svg"><path d="M.008 23V.6h4.16v18.88H15.88V23H.008zm25.592.224c-1.75 0-3.307-.373-4.672-1.12a8.608 8.608 0 01-3.232-3.136c-.79-1.323-1.184-2.827-1.184-4.512 0-1.707.395-3.21 1.184-4.512a8.371 8.371 0 013.232-3.104c1.365-.747 2.923-1.12 4.672-1.12 1.77 0 3.339.373 4.704 1.12 1.387.747 2.464 1.77 3.232 3.072.79 1.301 1.184 2.816 1.184 4.544 0 1.685-.395 3.19-1.184 4.512-.768 1.323-1.845 2.368-3.232 3.136-1.365.747-2.933 1.12-4.704 1.12zm0-3.424c.981 0 1.856-.213 2.624-.64a4.427 4.427 0 001.792-1.856c.448-.81.672-1.76.672-2.848 0-1.11-.224-2.059-.672-2.848a4.427 4.427 0 00-1.792-1.856c-.768-.427-1.632-.64-2.592-.64-.981 0-1.856.213-2.624.64-.747.427-1.344 1.045-1.792 1.856-.448.79-.672 1.739-.672 2.848 0 1.088.224 2.037.672 2.848.448.81 1.045 1.43 1.792 1.856.768.427 1.632.64 2.592.64zm19.985 9.632a17.02 17.02 0 01-4.64-.64c-1.493-.405-2.72-1.003-3.68-1.792l1.792-3.008c.747.619 1.685 1.11 2.816 1.472 1.152.384 2.315.576 3.488.576 1.877 0 3.253-.437 4.128-1.312.875-.853 1.312-2.144 1.312-3.872v-3.04l.32-3.872-.128-3.872v-4.16h3.808v14.496c0 3.093-.79 5.365-2.368 6.816-1.579 1.472-3.861 2.208-6.848 2.208zm-.512-7.2c-1.621 0-3.093-.341-4.416-1.024a8.151 8.151 0 01-3.104-2.912c-.747-1.237-1.12-2.688-1.12-4.352 0-1.643.373-3.083 1.12-4.32a7.913 7.913 0 013.104-2.88c1.323-.683 2.795-1.024 4.416-1.024 1.45 0 2.752.288 3.904.864 1.152.576 2.07 1.472 2.752 2.688.704 1.216 1.056 2.773 1.056 4.672 0 1.899-.352 3.467-1.056 4.704-.683 1.216-1.6 2.123-2.752 2.72-1.152.576-2.453.864-3.904.864zm.608-3.392c1.003 0 1.899-.203 2.688-.608.79-.427 1.397-1.003 1.824-1.728.448-.747.672-1.6.672-2.56s-.224-1.803-.672-2.528a4.13 4.13 0 00-1.824-1.696c-.79-.405-1.685-.608-2.688-.608-1.003 0-1.91.203-2.72.608-.79.384-1.408.95-1.856 1.696-.427.725-.64 1.568-.64 2.528s.213 1.813.64 2.56a4.835 4.835 0 001.856 1.728c.81.405 1.717.608 2.72.608zm21.355 4.384c-1.75 0-3.307-.373-4.672-1.12a8.607 8.607 0 01-3.232-3.136c-.79-1.323-1.184-2.827-1.184-4.512 0-1.707.394-3.21 1.184-4.512a8.37 8.37 0 013.232-3.104c1.365-.747 2.922-1.12 4.672-1.12 1.77 0 3.338.373 4.704 1.12 1.386.747 2.464 1.77 3.232 3.072.79 1.301 1.184 2.816 1.184 4.544 0 1.685-.395 3.19-1.184 4.512-.768 1.323-1.846 2.368-3.232 3.136-1.366.747-2.934 1.12-4.704 1.12zm0-3.424c.981 0 1.856-.213 2.624-.64a4.427 4.427 0 001.792-1.856c.448-.81.672-1.76.672-2.848 0-1.11-.224-2.059-.672-2.848a4.427 4.427 0 00-1.792-1.856c-.768-.427-1.632-.64-2.592-.64-.982 0-1.856.213-2.624.64-.747.427-1.344 1.045-1.792 1.856-.448.79-.672 1.739-.672 2.848 0 1.088.224 2.037.672 2.848.448.81 1.045 1.43 1.792 1.856.768.427 1.632.64 2.592.64z" fill="#000"/></svg>