<svg width="24" height="24" fill="none" xmlns="http://www.w3.org/2000/svg"><g clip-path="url(#clip0_527_1224)"><path d="M10.324 1.862c-4.672 0-8.483 3.81-8.483 8.481 0 4.672 3.811 8.48 8.484 8.479a8.43 8.43 0 005.248-1.835l4.577 4.576a1 1 0 101.413-1.414l-4.579-4.577a8.428 8.428 0 001.82-5.229c0-4.672-3.808-8.481-8.48-8.48zm0 1.999c3.591 0 6.48 2.89 6.48 6.482a6.464 6.464 0 01-6.48 6.48 6.468 6.468 0 01-6.484-6.48 6.47 6.47 0 016.484-6.482z" fill="#504F4F"/></g><defs><clipPath id="clip0_527_1224"><path fill="#fff" d="M0 0h24v24H0z"/></clipPath></defs></svg>