<svg width="635" height="460" fill="none" xmlns="http://www.w3.org/2000/svg"><path d="M91.124 47.516v192.299c0 9.571 7.77 17.34 17.343 17.34h238.011c9.572 0 17.343-7.769 17.343-17.34V47.516c0-9.57-7.771-17.34-17.343-17.34H108.467c-9.573 0-17.343 7.77-17.343 17.34zM346.703 248.26h-238.48a6.416 6.416 0 01-6.419-6.418V45.49a6.415 6.415 0 016.419-6.419h238.48a6.415 6.415 0 016.419 6.419v196.352a6.416 6.416 0 01-6.419 6.418zm178.889 112.785c-21.679 0-39.247 17.565-39.247 39.241 0 21.675 17.568 39.24 39.247 39.24 21.678 0 39.246-17.565 39.246-39.24 0-21.676-17.568-39.241-39.246-39.241zm0 68.704c-16.292 0-29.487-13.193-29.487-29.482s13.195-29.482 29.487-29.482c16.291 0 29.486 13.193 29.486 29.482s-13.195 29.482-29.486 29.482z" fill="#FADB96"/><path d="M528.67 138.514v249.573c0 6.419-5.199 11.617-11.618 11.617H136.414c-6.419 0-11.618-5.198-11.618-11.617V138.514c0-14.806 12.012-26.836 26.84-26.836H501.83c14.828 0 26.84 12.03 26.84 26.836z" fill="#fff" stroke="#A6A4F7" stroke-miterlimit="10"/><path d="M528.67 138.514v1.126H124.815v-1.126c0-14.806 12.012-26.836 26.84-26.836h350.194c14.827 0 26.84 12.03 26.84 26.836h-.019z" fill="#383838"/><path d="M195.499 160.827h-48.481a5.85 5.85 0 01-5.856-5.855 5.852 5.852 0 015.856-5.855h48.481a5.85 5.85 0 015.856 5.855 5.85 5.85 0 01-5.856 5.855z" fill="#FFB450"/><path d="M374.538 159.589h-21.36a3.436 3.436 0 01-3.434-3.434 3.436 3.436 0 013.434-3.435h21.36a3.436 3.436 0 013.434 3.435 3.436 3.436 0 01-3.434 3.434zm40.372 0h-21.359a3.436 3.436 0 01-3.435-3.434 3.436 3.436 0 013.435-3.435h21.359a3.436 3.436 0 013.435 3.435 3.436 3.436 0 01-3.435 3.434zm40.992 0h-21.359a3.436 3.436 0 01-3.435-3.434 3.436 3.436 0 013.435-3.435h21.359a3.436 3.436 0 013.435 3.435 3.436 3.436 0 01-3.435 3.434zm40.391 0h-21.359a3.436 3.436 0 01-3.435-3.434 3.436 3.436 0 013.435-3.435h21.359a3.436 3.436 0 013.435 3.435 3.436 3.436 0 01-3.435 3.434zm-173.614 36.406H164.605a4.054 4.054 0 00-4.054 4.054v100.569a4.054 4.054 0 004.054 4.053h158.074a4.054 4.054 0 004.054-4.053V200.049a4.054 4.054 0 00-4.054-4.054zm131.008 0h-89.754a3.153 3.153 0 00-3.153 3.153v10.828a3.153 3.153 0 003.153 3.153h89.754a3.152 3.152 0 003.153-3.153v-10.828a3.153 3.153 0 00-3.153-3.153zm-25.62 37.815h-64.246a3.04 3.04 0 110-6.081h64.246a3.04 3.04 0 110 6.081zm64.285 14.713H363.821a3.04 3.04 0 110-6.081h128.531a3.04 3.04 0 110 6.081zm0 14.713H363.821a3.04 3.04 0 110-6.081h128.531a3.04 3.04 0 013.04 3.04 3.04 3.04 0 01-3.04 3.041zm0 14.713H363.821a3.04 3.04 0 110-6.081h128.531a3.04 3.04 0 010 6.081z" fill="#F3F2F6"/><path d="M404.324 309.457h-36.918a6.624 6.624 0 110-13.249h36.918a6.624 6.624 0 110 13.249z" fill="#FFB450"/><path d="M528.67 345.938v42.149c0 6.419-5.199 11.617-11.618 11.617H136.414c-6.419 0-11.618-5.198-11.618-11.617v-42.149H528.67z" fill="#F3F2F6"/><path d="M421.329 370.334v29.37H232.136v-29.37a6.16 6.16 0 016.157-6.155h176.899a6.16 6.16 0 016.156 6.155h-.019z" fill="#383838"/><path d="M467.332 126.954a3.484 3.484 0 01-3.491 3.491 3.485 3.485 0 01-3.491-3.491 3.484 3.484 0 013.491-3.49 3.483 3.483 0 013.491 3.49zm19.107 0a3.485 3.485 0 01-3.491 3.491 3.485 3.485 0 01-3.491-3.491 3.484 3.484 0 013.491-3.49 3.484 3.484 0 013.491 3.49zm18.263 0a3.485 3.485 0 01-3.491 3.491 3.485 3.485 0 01-3.491-3.491 3.484 3.484 0 013.491-3.49 3.484 3.484 0 013.491 3.49z" fill="#FFB450"/><path d="M528.67 138.514v249.573c0 6.419-5.199 11.617-11.618 11.617H136.414c-6.419 0-11.618-5.198-11.618-11.617V138.514c0-14.806 12.012-26.836 26.84-26.836H501.83c14.828 0 26.84 12.03 26.84 26.836z" stroke="#A6A4F7" stroke-miterlimit="10"/><path d="M206.404 100.587H51.634a4.842 4.842 0 00-4.843 4.842v116.07a4.842 4.842 0 004.843 4.842h154.77a4.843 4.843 0 004.843-4.842v-116.07a4.843 4.843 0 00-4.843-4.842z" fill="#F3F2F6"/><path d="M187.522 83.079H32.752a4.842 4.842 0 00-4.843 4.841v116.051a4.842 4.842 0 004.843 4.842h154.77a4.842 4.842 0 004.842-4.842V87.921a4.842 4.842 0 00-4.842-4.843z" fill="#FFCC4D"/><path d="M192.365 161.878v42.112a4.843 4.843 0 01-4.843 4.842H32.733a4.842 4.842 0 01-4.842-4.842v-40.517s26.408-45.527 45.14-45.527c23.348 0 36.618 53.128 48.217 53.128 11.6 0 26.709-36.538 42.062-36.538 9.197 0 21.021 15.182 29.036 27.361l.019-.019zm-21.116-52.771c0 5.912-4.786 10.716-10.717 10.716-5.931 0-10.717-4.804-10.717-10.716 0-5.911 4.786-10.715 10.717-10.715 5.931 0 10.717 4.804 10.717 10.715z" fill="#FFE7B0"/><path d="M572.139 201.231h-89.585a3.116 3.116 0 00-3.116 3.115v121.756a3.115 3.115 0 003.116 3.115h89.585a3.115 3.115 0 003.116-3.115V204.346a3.116 3.116 0 00-3.116-3.115z" fill="#F3F2F6"/><path d="M498.376 186.95h89.585a3.108 3.108 0 013.116 3.115v121.756a3.107 3.107 0 01-3.116 3.115h-89.585a3.107 3.107 0 01-3.115-3.115V190.065a3.108 3.108 0 013.115-3.115z" fill="#4C3EDB"/><path d="M574.429 200.856h-62.501v8.445h62.501v-8.445z" fill="#9A90FC"/><path d="M556.26 301.35h-26.183a4.734 4.734 0 01-4.73-4.73 4.734 4.734 0 014.73-4.729h26.183a4.734 4.734 0 014.73 4.729 4.734 4.734 0 01-4.73 4.73z" fill="#FFCC4D"/><path d="M544.849 221.574h-25.414a1.839 1.839 0 00-1.839 1.839v.319a1.84 1.84 0 001.839 1.84h25.414a1.84 1.84 0 001.839-1.84v-.319a1.84 1.84 0 00-1.839-1.839zm32.864 9.833h-58.278a1.84 1.84 0 00-1.839 1.84v.319c0 1.016.823 1.839 1.839 1.839h58.278a1.84 1.84 0 001.84-1.839v-.319a1.84 1.84 0 00-1.84-1.84zm0 9.815h-58.278a1.84 1.84 0 00-1.839 1.84v.319a1.84 1.84 0 001.839 1.839h58.278a1.84 1.84 0 001.84-1.839v-.319a1.84 1.84 0 00-1.84-1.84zm-70.215-17.64c0 1.107-.901 1.99-1.989 1.99a2.003 2.003 0 01-1.99-1.99c0-1.089.901-1.989 1.99-1.989 1.088 0 1.989.9 1.989 1.989zm37.351 30.608h-25.414a1.839 1.839 0 00-1.839 1.839v.319a1.84 1.84 0 001.839 1.84h25.414a1.84 1.84 0 001.839-1.84v-.319a1.84 1.84 0 00-1.839-1.839zm32.864 9.833h-58.278a1.84 1.84 0 00-1.839 1.84v.319c0 1.016.823 1.839 1.839 1.839h58.278a1.84 1.84 0 001.84-1.839v-.319a1.84 1.84 0 00-1.84-1.84zm0 9.815h-58.278a1.84 1.84 0 00-1.839 1.839v.32a1.84 1.84 0 001.839 1.839h58.278a1.84 1.84 0 001.84-1.839v-.32a1.84 1.84 0 00-1.84-1.839zm-70.215-17.64a1.99 1.99 0 01-1.989 1.989c-1.089 0-1.99-.9-1.99-1.989s.901-1.99 1.99-1.99c1.088 0 1.989.901 1.989 1.99z" fill="#9A90FC"/><path d="M633.157 184.21l-45.834 37.796c-.356.3-.732.563-1.126.825a11.39 11.39 0 01-3.153 1.426l-7.414 2.102c-.901.263-1.67-.675-1.239-1.501l3.473-6.887a12.02 12.02 0 011.97-2.778c.319-.356.676-.675 1.051-.994l45.609-37.608c2.121-1.745 5.312-1.726 7.17.3 1.971 2.158 1.727 5.499-.507 7.338v-.019z" fill="#FFCC4D"/><path d="M586.197 222.831a11.39 11.39 0 01-3.153 1.426l-4.336 1.239-3.078.863c-.901.263-1.67-.675-1.239-1.501l1.445-2.853 2.028-4.034a12.02 12.02 0 011.97-2.778c1.652.488 5.518 2.196 6.363 7.638z" fill="#FFE7B0"/><path d="M578.708 225.497l-3.078.863c-.901.263-1.67-.676-1.239-1.502l1.445-2.852c1.371.15 3.191.807 2.872 3.491z" fill="#FFCC4D"/><path d="M433.454 9.965H317.067a7.526 7.526 0 00-7.527 7.525v79.532a7.526 7.526 0 007.527 7.525h116.387a7.525 7.525 0 007.526-7.525V17.49a7.525 7.525 0 00-7.526-7.525z" fill="#F3F2F6"/><path d="M423.938 0H307.551a7.526 7.526 0 00-7.527 7.525v79.532a7.526 7.526 0 007.527 7.525h116.387a7.526 7.526 0 007.527-7.525V7.525A7.526 7.526 0 00423.938 0z" fill="#6E52FF"/><path d="M431.464 76.398v10.64a7.525 7.525 0 01-7.526 7.526H307.57a7.525 7.525 0 01-7.527-7.526v-10.64h131.44-.019z" fill="#4C3EDB"/><path d="M369.808 86.382c0 .882.263 1.689.732 2.383h-58.785a2.375 2.375 0 01-2.384-2.383 2.375 2.375 0 012.384-2.384h58.785a4.166 4.166 0 00-.732 2.384z" fill="#6E52FF"/><path d="M390.116 86.382a2.387 2.387 0 01-2.383 2.383H370.54a4.167 4.167 0 01-.732-2.383c0-.883.263-1.69.732-2.384h17.193a2.387 2.387 0 012.383 2.384z" fill="#8F83FF"/><path d="M378.254 86.381a4.21 4.21 0 01-4.223 4.223 4.166 4.166 0 01-3.472-1.84 4.166 4.166 0 01-.732-2.383c0-.882.263-1.689.732-2.383a4.192 4.192 0 013.472-1.84c1.445 0 2.74.733 3.491 1.84.469.676.732 1.501.732 2.383z" fill="#fff"/><path d="M376.096 86.382c0 1.145-.92 2.064-2.065 2.064a2.058 2.058 0 01-2.064-2.064c0-1.145.919-2.065 2.064-2.065s2.065.92 2.065 2.065z" fill="#6E52FF"/><path d="M407.853 88.484v-3.96a.69.69 0 011.013-.62l3.961 1.99c.506.262.506.994 0 1.238l-3.961 1.99c-.469.225-1.013-.113-1.013-.62v-.018zm10.68-.77v-2.42c0-.32.262-.526.488-.376l1.914 1.22c.244.15.244.6 0 .77l-1.914 1.22c-.226.15-.488-.057-.488-.376v-.038z" fill="#8F83FF"/><path d="M421.123 87.714v-2.42c0-.32.263-.526.488-.376l1.914 1.22c.244.15.244.6 0 .77l-1.914 1.22c-.225.15-.488-.057-.488-.376v-.038zm-18.15 0v-2.42c0-.32-.263-.526-.488-.376l-1.914 1.22c-.244.15-.244.6 0 .77l1.914 1.22c.225.15.488-.057.488-.376v-.038z" fill="#8F83FF"/><path d="M400.383 87.714v-2.42c0-.32-.263-.526-.488-.376l-1.915 1.22c-.244.15-.244.6 0 .77l1.915 1.22c.225.15.488-.057.488-.376v-.038z" fill="#8F83FF"/><path d="M388.588 44.855c2.989-12.584-4.791-25.209-17.377-28.198-12.587-2.989-25.214 4.79-28.203 17.375-2.989 12.585 4.791 25.21 17.378 28.198 12.586 2.99 25.213-4.79 28.202-17.374z" fill="#FBF8FF"/><path d="M359.56 46.597V32.184c0-1.595 1.764-2.552 3.097-1.689l11.073 7.207a2 2 0 010 3.359l-11.073 7.206c-1.333.863-3.097-.094-3.097-1.689v.019z" fill="#6E52FF"/><path d="M147.957 343.142H58.56c-5.277 0-9.554 4.277-9.554 9.552v71.293c0 5.276 4.277 9.552 9.554 9.552h89.397c5.276 0 9.553-4.276 9.553-9.552v-71.293c0-5.275-4.277-9.552-9.553-9.552z" fill="#F3F2F6"/><path d="M135.832 330.343H46.435c-5.276 0-9.554 4.277-9.554 9.553v71.293c0 5.275 4.278 9.552 9.554 9.552h89.397c5.276 0 9.554-4.277 9.554-9.552v-71.293c0-5.276-4.278-9.553-9.554-9.553z" fill="#FCFAFF"/><path d="M83.091 406.422h-4.167a1.233 1.233 0 01-1.2-1.52l4.504-19.93c.131-.563.638-.976 1.2-.976h7.002c.788 0 1.389.732 1.201 1.52l-3.885 17.172a4.798 4.798 0 01-4.674 3.734h.02z" fill="#6E52FF"/><path d="M119.297 378.366h-3.942v-13.568h3.942a6.772 6.772 0 016.775 6.775 6.772 6.772 0 01-6.775 6.775v.018zm-47.862-21.262h10.661v29.369h-10.66c-4.318 0-7.827-3.509-7.827-7.825V364.93c0-4.316 3.51-7.826 7.826-7.826z" fill="#FFCC4D"/><path d="M82.096 357.104l35.718-5.855c1.783-.3 3.397 1.089 3.397 2.89v34.887c0 1.782-1.595 3.171-3.36 2.89l-35.755-5.443v-29.369zm-4.824 7.019h-7.15a.793.793 0 01-.789-.788c0-.432.357-.789.788-.789h7.151c.432 0 .789.357.789.789a.793.793 0 01-.789.788zm0 2.965h-7.15a.793.793 0 01-.789-.788c0-.432.357-.788.788-.788h7.151c.432 0 .789.356.789.788a.793.793 0 01-.789.788z" fill="#FFE7B0"/><path d="M366.28 348.078h66.405l17.342 17.509v91.729a2.683 2.683 0 01-2.684 2.684H365.66a2.683 2.683 0 01-2.684-2.684V351.381a3.308 3.308 0 013.304-3.303z" fill="#F3F2F6"/><path d="M356.444 338.263h66.406l17.342 17.509v91.73a2.683 2.683 0 01-2.684 2.683h-81.683a2.683 2.683 0 01-2.684-2.683V341.566a3.308 3.308 0 013.303-3.303z" fill="#FFCC4D"/><path d="M422.85 338.263v14.506a3 3 0 003.003 3.003h14.358l-17.343-17.509h-.018z" fill="#FFE7B0"/><path d="M363.971 388.744a9.946 9.946 0 013.791-3.791c1.596-.9 3.397-1.351 5.387-1.351 2.327 0 4.354.601 6.1 1.783 1.745 1.182 2.966 2.834 3.66 4.936h-4.805c-.469-.995-1.145-1.746-2.008-2.234-.864-.506-1.858-.75-2.984-.75-1.22 0-2.29.281-3.229.844-.938.563-1.67 1.37-2.196 2.402-.525 1.032-.788 2.252-.788 3.641 0 1.389.263 2.571.788 3.622a5.856 5.856 0 002.196 2.421c.939.563 2.027.844 3.229.844 1.126 0 2.139-.244 2.984-.75.863-.507 1.539-1.258 2.008-2.252h4.805c-.694 2.12-1.914 3.772-3.641 4.954-1.746 1.182-3.773 1.764-6.119 1.764-1.99 0-3.773-.45-5.387-1.351-1.595-.901-2.853-2.158-3.791-3.772-.92-1.614-1.389-3.435-1.389-5.48 0-2.046.469-3.885 1.389-5.499v.019zm46.66-4.879v20.793h-4.167v-13.53l-5.574 13.53h-3.153l-5.594-13.53v13.53h-4.166v-20.793h4.729l6.607 15.464 6.607-15.464h4.711zm8.859 20.249c-1.164-.488-2.083-1.201-2.759-2.139-.676-.939-1.032-2.027-1.051-3.303h4.467c.056.844.357 1.539.901 2.026.544.488 1.295.751 2.252.751.958 0 1.746-.225 2.29-.694.563-.469.826-1.07.826-1.839 0-.62-.188-1.126-.563-1.52a3.928 3.928 0 00-1.408-.939 20.667 20.667 0 00-2.346-.75c-1.351-.395-2.44-.789-3.285-1.183a5.785 5.785 0 01-2.177-1.764c-.6-.788-.901-1.839-.901-3.134 0-1.238.301-2.308.92-3.209.619-.919 1.483-1.614 2.59-2.102 1.107-.488 2.384-.731 3.81-.731 2.14 0 3.885.525 5.237 1.557 1.332 1.051 2.083 2.496 2.215 4.373h-4.58a2.337 2.337 0 00-.901-1.764c-.563-.469-1.314-.695-2.252-.695-.807 0-1.464.207-1.952.62-.488.412-.732 1.013-.732 1.82 0 .563.187 1.013.544 1.389.375.375.826.656 1.37.9.545.244 1.314.488 2.309.789 1.351.394 2.459.788 3.303 1.201a5.877 5.877 0 012.196 1.782c.62.789.92 1.84.92 3.134 0 1.108-.282 2.14-.863 3.097-.582.957-1.427 1.708-2.534 2.271-1.108.563-2.44.844-3.961.844-1.445 0-2.759-.244-3.922-.751l.037-.037z" fill="#fff"/><path d="M70.009 278.68a3.477 3.477 0 01-3.472-3.472 3.477 3.477 0 013.472-3.472 3.476 3.476 0 013.472 3.472 3.476 3.476 0 01-3.472 3.472zm-16.629 0a3.476 3.476 0 01-3.473-3.472 3.476 3.476 0 013.472-3.472 3.476 3.476 0 013.473 3.472 3.476 3.476 0 01-3.473 3.472zm-16.63 0a3.477 3.477 0 01-3.472-3.472 3.477 3.477 0 013.472-3.472 3.476 3.476 0 013.472 3.472 3.476 3.476 0 01-3.472 3.472zm-16.648 0a3.476 3.476 0 01-3.473-3.472 3.476 3.476 0 013.473-3.472 3.477 3.477 0 013.472 3.472 3.477 3.477 0 01-3.472 3.472zm-16.63 0A3.477 3.477 0 010 275.208a3.477 3.477 0 013.472-3.472 3.477 3.477 0 013.473 3.472 3.477 3.477 0 01-3.473 3.472zm77.104 14.806a3.476 3.476 0 01-3.472-3.471 3.476 3.476 0 013.472-3.472 3.477 3.477 0 013.472 3.472 3.476 3.476 0 01-3.472 3.471zm-16.648 0a3.476 3.476 0 01-3.473-3.471 3.477 3.477 0 013.473-3.472 3.476 3.476 0 013.472 3.472 3.476 3.476 0 01-3.472 3.471zm-16.63 0a3.476 3.476 0 01-3.472-3.471 3.476 3.476 0 013.472-3.472 3.477 3.477 0 013.472 3.472 3.476 3.476 0 01-3.472 3.471zm-16.629 0a3.472 3.472 0 10.001-6.943 3.472 3.472 0 00-.001 6.943zm-16.649 0a3.472 3.472 0 10.002-6.943 3.472 3.472 0 00-.002 6.943zm76.11 14.807a3.472 3.472 0 100-6.944 3.472 3.472 0 000 6.944zm-16.649 0a3.472 3.472 0 10.001-6.944 3.472 3.472 0 000 6.944zm-16.629 0a3.476 3.476 0 01-3.473-3.472 3.476 3.476 0 013.473-3.471 3.476 3.476 0 013.472 3.471 3.477 3.477 0 01-3.472 3.472zm-16.63 0a3.476 3.476 0 01-3.472-3.472 3.476 3.476 0 013.472-3.471 3.476 3.476 0 013.473 3.471 3.477 3.477 0 01-3.473 3.472zm-16.648 0a3.476 3.476 0 01-3.472-3.472 3.476 3.476 0 013.472-3.471 3.476 3.476 0 013.472 3.471 3.476 3.476 0 01-3.472 3.472z" fill="#A6A4F7"/><path d="M251.563 431.982h-54.825a3.921 3.921 0 110-7.844h54.825a3.92 3.92 0 013.922 3.922 3.92 3.92 0 01-3.922 3.922zm0 19.573h-54.825a3.921 3.921 0 110-7.844h54.825a3.92 3.92 0 013.922 3.922 3.92 3.92 0 01-3.922 3.922z" fill="#FADB96"/><path d="M561.384 59.846l11.975-2.252V46.859l-11.975-2.064a35.395 35.395 0 00-5.067-12.198l6.869-10.077-7.601-7.6-9.929 7.018a35.23 35.23 0 00-12.2-5.048l-2.252-11.973h-10.736l-2.065 11.973a35.41 35.41 0 00-12.2 5.067l-10.06-6.869-7.602 7.6 7.02 9.928a35.381 35.381 0 00-5.049 12.198l-11.975 2.252V57.8l11.975 2.065a35.246 35.246 0 005.068 12.198l-6.87 10.058 7.602 7.6 9.948-7.018a34.863 34.863 0 0012.199 5.048l2.253 11.973h10.736l2.064-11.973c4.43-.92 8.54-2.665 12.2-5.067l10.06 6.869 7.602-7.6-7.02-9.928a35.211 35.211 0 005.049-12.198l-.019.019zM525.93 74.559c-12.276 0-22.223-9.965-22.223-22.22 0-12.254 9.947-22.22 22.223-22.22 12.275 0 22.222 9.947 22.222 22.22s-9.947 22.22-22.222 22.22z" stroke="#A6A4F7" stroke-miterlimit="10"/><path d="M602.714 129.713l6.907 2.421 3.228-5.574-5.612-4.673a21.33 21.33 0 001.033-7.863l6.607-3.171-1.671-6.231-7.264.676a21.398 21.398 0 00-4.823-6.287l2.421-6.906-5.574-3.228-4.674 5.611a21.34 21.34 0 00-7.864-1.032l-3.172-6.587-6.232 1.67.676 7.282a21.407 21.407 0 00-6.288 4.823l-6.907-2.421-3.228 5.574 5.612 4.672a21.331 21.331 0 00-1.032 7.863l-6.588 3.172 1.67 6.23 7.283-.675a21.067 21.067 0 004.823 6.286l-2.421 6.906 5.575 3.228 4.673-5.611a21.336 21.336 0 007.864 1.032l3.172 6.587 6.232-1.67-.676-7.281a21.104 21.104 0 006.288-4.823h-.038zm-22.842-2.984c-6.381-3.678-8.559-11.842-4.88-18.222 3.679-6.381 11.843-8.558 18.225-4.879 6.381 3.678 8.559 11.841 4.88 18.222-3.679 6.38-11.843 8.576-18.225 4.898v-.019z" stroke="#FADB96" stroke-miterlimit="10"/></svg>