<svg width="75" height="74" fill="none" xmlns="http://www.w3.org/2000/svg"><path d="M55.266 31.823a17.292 17.292 0 01-2.08 8.263 18.073 18.073 0 01-5.815 6.4l-.008 8.087a5.233 5.233 0 01-1.615 3.739 5.635 5.635 0 01-3.876 1.565l-9.991.024a5.614 5.614 0 01-3.868-1.554 5.213 5.213 0 01-1.612-3.728l-.003-7.98a18.101 18.101 0 01-5.373-5.387 17.396 17.396 0 01-2.606-7.04c-.342-2.5-.13-5.041.62-7.458a17.706 17.706 0 013.738-6.562 18.516 18.516 0 016.198-4.515 19.12 19.12 0 017.568-1.673c2.616-.036 5.21.462 7.609 1.462 2.4 1 4.55 2.48 6.312 4.34M30.08 60.189l.02 3.618 12.929.042-.02-3.617m-10.806 3.902l.002 3.766 8.905.001-.001-3.751M63.416 24a27.628 27.628 0 01.396 13.79A27.335 27.335 0 0157.5 50" stroke="#000" stroke-width="1.88" stroke-miterlimit="10"/><path d="M17.73 53a28.76 28.76 0 01-6.743-9.455 29.101 29.101 0 01-2.484-11.393 29.112 29.112 0 012.183-11.455 28.785 28.785 0 016.491-9.635 28.328 28.328 0 019.732-6.229 28.029 28.029 0 0122.513 1.13 28.435 28.435 0 019.078 7.173" stroke="#000" stroke-width="1.88" stroke-miterlimit="10"/><path d="M24.5 34.34L36.72 43 67.5 12" stroke="#000" stroke-width="1.88" stroke-miterlimit="10"/></svg>