<svg width="81" height="80" fill="none" xmlns="http://www.w3.org/2000/svg"><g opacity=".8"><path d="M33.438 74.867h14.285" stroke="#000" stroke-width="1.88" stroke-miterlimit="3.55"/><path d="M18.712 30.575c5.276.996 9.29 3.268 11.938 6.774a17.781 17.781 0 012.676 5.177c.537 1.657.886 3.37 1.041 5.106a26.65 26.65 0 01.103 3.304 26.66 26.66 0 01-3.172-.928 23.27 23.27 0 01-4.683-2.29 17.729 17.729 0 01-4.345-3.89c-2.724-3.448-3.918-7.899-3.558-13.258m-1.904-2.46c-3.201 23.247 19.61 25.35 19.61 25.35s3.691-22.607-19.61-25.34v-.01z" fill="#000"/><path d="M25.805 39.742L40.584 58.84" stroke="#000" stroke-width="1.88" stroke-miterlimit="3.55"/><path d="M63.037 40.462c.249 5.363-1.037 9.788-3.833 13.178a17.74 17.74 0 01-4.428 3.799 23.325 23.325 0 01-4.729 2.193c-1.046.352-2.112.64-3.193.862-.035-3.089.459-8.881 4.082-13.484 2.725-3.463 6.79-5.66 12.096-6.548m1.955-2.419C41.633 40.29 44.854 62.97 44.854 62.97s22.851-1.625 20.133-24.927z" fill="#000"/><path d="M55.811 49.414L40.586 68.266" stroke="#000" stroke-width="1.88" stroke-miterlimit="3.55"/><path d="M40.588 9.111c3.563 4.016 5.344 8.267 5.297 12.661a17.758 17.758 0 01-1.054 5.735 23.335 23.335 0 01-2.303 4.677 26.488 26.488 0 01-1.942 2.677c-1.967-2.382-5.225-7.198-5.296-13.055-.055-4.406 1.726-8.669 5.298-12.695zm0-3.111c-16.757 16.421 0 32.042 0 32.042s16.755-15.62 0-32.042z" fill="#000"/><path d="M40.586 20.855v53.479" stroke="#000" stroke-width="1.88" stroke-miterlimit="3.55"/></g></svg>