<svg width="209" height="35" fill="none" xmlns="http://www.w3.org/2000/svg"><path d="M67.49 27L57.11 15.72 66.02 6h-5.28l-7.92 9.3V6h-3.84v21h3.84V16.71L61.91 27h5.58zm5.993.45c2.25 0 3.75-.96 4.62-2.4h.06V27h3.66V13.14h-3.66v1.95h-.06c-.87-1.44-2.37-2.4-4.62-2.4-3.63 0-6.66 2.64-6.66 7.38s3.03 7.38 6.66 7.38zm.93-3.48c-2.22 0-3.75-1.56-3.75-3.9s1.53-3.9 3.75-3.9c2.22 0 3.75 1.56 3.75 3.9s-1.53 3.9-3.75 3.9zM85.007 33h3.66v-7.95h.06c.87 1.44 2.37 2.4 4.62 2.4 3.63 0 6.66-2.64 6.66-7.38s-3.03-7.38-6.66-7.38c-2.25 0-3.75.96-4.62 2.4h-.06v-1.95h-3.66V33zm7.41-9.03c-2.22 0-3.75-1.56-3.75-3.9s1.53-3.9 3.75-3.9c2.22 0 3.75 1.56 3.75 3.9s-1.53 3.9-3.75 3.9zm27.662-10.83v10.47h-5.16V13.14h-3.69v10.47h-5.16V13.14h-3.66V27h21.36V13.14h-3.69zm13.27-.45c-4.35 0-7.2 3-7.2 7.41s2.94 7.35 7.47 7.35c2.91 0 4.77-1.35 6-2.49l-1.86-2.67c-.78.78-2.16 1.89-4.14 1.89-2.13 0-3.69-1.23-3.9-3.36h10.35v-.72c0-4.74-2.52-7.41-6.72-7.41zm-.18 2.97c1.8 0 3.06 1.02 3.18 2.79h-6.54c.3-1.92 1.59-2.79 3.36-2.79zm9.23 17.34h3.66v-7.95h.06c.87 1.44 2.37 2.4 4.62 2.4 3.63 0 6.66-2.64 6.66-7.38s-3.03-7.38-6.66-7.38c-2.25 0-3.75.96-4.62 2.4h-.06v-1.95h-3.66V33zm7.41-9.03c-2.22 0-3.75-1.56-3.75-3.9s1.53-3.9 3.75-3.9c2.22 0 3.75 1.56 3.75 3.9s-1.53 3.9-3.75 3.9zm9.993 3.03h3.3l6.42-8.4h.06V27h3.69V13.14h-3.33l-6.42 8.4h-.06v-8.4h-3.66V27zm26.42-13.86v4.98h-6.09v-4.98h-3.66V27h3.66v-5.52h6.09V27h3.69V13.14h-3.69zm16.369 0h-9.45V27h3.66V16.53h5.79v-3.39zm3.974 9.69h-4.14V27h4.14v-4.17z" fill="#000"/><path d="M29.855 35H5.145A5.153 5.153 0 010 29.855V5.145A5.153 5.153 0 015.145 0h24.71A5.153 5.153 0 0135 5.145v24.71A5.153 5.153 0 0129.855 35z" fill="url(#paint0_linear_3_8)"/><path d="M26.729 23.707h-3.162a1.033 1.033 0 01-1.108-.957 1.033 1.033 0 01.957-1.108h3.313a.548.548 0 00.548-.549v-3.92c0-.851-.688-1.54-1.54-1.54h-3.931a2.615 2.615 0 01-1.459-.443l-5.658-3.827a3.035 3.035 0 00-1.727-.548H6.581a1.033 1.033 0 01-1.109-.957A1.033 1.033 0 016.43 8.75h6.545a5.09 5.09 0 012.881.887l5.67 3.826a.55.55 0 00.292.129h3.897a3.605 3.605 0 013.605 3.593v3.932c-.023 1.435-1.167 2.59-2.59 2.59zm-16.205 0H6.58a1.033 1.033 0 01-1.109-.957 1.033 1.033 0 01.957-1.108h4.095a1.033 1.033 0 011.108.956 1.033 1.033 0 01-.957 1.109.332.332 0 01-.151 0z" fill="#fff"/><path d="M17.116 20.428a2.256 2.256 0 012.263 2.252 2.256 2.256 0 01-2.252 2.263 2.256 2.256 0 01-2.263-2.251v-.012a2.246 2.246 0 012.252-2.252zm0-2.065a4.314 4.314 0 00-4.317 4.317 4.314 4.314 0 004.317 4.317 4.314 4.314 0 004.316-4.317 4.314 4.314 0 00-4.316-4.317z" fill="#fff"/><defs><linearGradient id="paint0_linear_3_8" x1="0" y1="35.002" x2="35" y2="35.002" gradientUnits="userSpaceOnUse"><stop stop-color="#EC656D"/><stop offset="1" stop-color="#EF914F"/></linearGradient></defs></svg>