<svg width="82" height="33" fill="none" xmlns="http://www.w3.org/2000/svg"><path d="M14.983 4.255c-.961 1.114-2.499 1.993-4.037 1.868-.192-1.507.561-3.109 1.442-4.098C13.35.88 15.031.063 16.392 0c.16 1.57-.464 3.108-1.41 4.255zm1.393 2.166c-2.226-.126-4.132 1.24-5.19 1.24-1.072 0-2.69-1.177-4.452-1.146-2.29.032-4.42 1.303-5.59 3.328-2.403 4.05-.625 10.048 1.698 13.345 1.137 1.633 2.498 3.422 4.292 3.36 1.698-.063 2.371-1.084 4.421-1.084 2.066 0 2.66 1.084 4.453 1.052 1.858-.031 3.027-1.633 4.165-3.265 1.297-1.853 1.826-3.658 1.858-3.752-.032-.032-3.588-1.366-3.62-5.385-.032-3.36 2.803-4.961 2.93-5.055-1.6-2.324-4.1-2.575-4.965-2.638zm12.862-4.553v24.475h3.877v-8.367h5.366c4.9 0 8.345-3.297 8.345-8.07 0-4.772-3.38-8.038-8.217-8.038h-9.37zm3.877 3.203h4.469c3.363 0 5.285 1.758 5.285 4.851s-1.922 4.867-5.301 4.867h-4.453V5.07zm20.79 21.46c2.435 0 4.694-1.208 5.719-3.123h.08v2.935h3.588V14.161c0-3.533-2.884-5.809-7.32-5.809-4.117 0-7.16 2.308-7.272 5.48h3.491c.289-1.508 1.714-2.497 3.668-2.497 2.371 0 3.7 1.083 3.7 3.077v1.35l-4.837.283c-4.5.267-6.935 2.072-6.935 5.212 0 3.171 2.514 5.275 6.118 5.275zm1.041-2.903c-2.066 0-3.38-.974-3.38-2.465 0-1.539 1.266-2.434 3.685-2.575l4.309-.267v1.382c0 2.292-1.987 3.925-4.614 3.925zM68.082 33c3.78 0 5.558-1.413 7.112-5.699L82 8.588h-3.94l-4.565 14.459h-.08L68.85 8.587h-4.053l6.567 17.82-.352 1.082c-.593 1.837-1.554 2.544-3.267 2.544-.305 0-.898-.032-1.138-.063v2.936c.225.063 1.186.094 1.474.094z" fill="url(#paint0_linear_1_33)"/><defs><linearGradient id="paint0_linear_1_33" x1="0" y1="33.002" x2="82" y2="33.002" gradientUnits="userSpaceOnUse"><stop stop-color="#EC656D"/><stop offset="1" stop-color="#EF914F"/></linearGradient></defs></svg>