<svg width="25" height="24" fill="none" xmlns="http://www.w3.org/2000/svg"><path d="M6.818 24h11.364C21.95 24 25 21.073 25 17.454V6.545C25 2.927 21.95 0 18.182 0H6.818C3.05 0 0 2.927 0 6.545v10.91C0 21.072 3.05 24 6.818 24zM2.273 6.545c0-2.418 2.026-4.363 4.545-4.363h11.364c2.519 0 4.545 1.945 4.545 4.363v10.91c0 2.418-2.026 4.363-4.545 4.363H6.818c-2.519 0-4.545-1.945-4.545-4.364V6.545z" fill="url(#paint0_linear_1_9)"/><path d="M6.818 18.545c.625 0 1.137-.49 1.137-1.09V13.09h3.409v4.364c0 .6.511 1.09 1.136 1.09.625 0 1.136-.49 1.136-1.09V13.09h2.273c1.875 0 3.41-1.473 3.41-3.273V6.545c0-.6-.512-1.09-1.137-1.09s-1.136.49-1.136 1.09v3.273c0 .6-.512 1.091-1.137 1.091h-2.273V6.545c0-.6-.511-1.09-1.136-1.09-.625 0-1.136.49-1.136 1.09v4.364h-3.41V6.545c0-.6-.51-1.09-1.136-1.09-.625 0-1.136.49-1.136 1.09v10.91c0 .6.511 1.09 1.136 1.09z" fill="url(#paint1_linear_1_9)"/><path d="M18.182 18.546c.627 0 1.136-.489 1.136-1.091 0-.603-.509-1.091-1.136-1.091-.628 0-1.136.488-1.136 1.09 0 .603.508 1.091 1.136 1.091z" fill="url(#paint2_linear_1_9)"/><defs><linearGradient id="paint0_linear_1_9" x1="0" y1="24.001" x2="25" y2="24.001" gradientUnits="userSpaceOnUse"><stop stop-color="#EC656D"/><stop offset="1" stop-color="#EF914F"/></linearGradient><linearGradient id="paint1_linear_1_9" x1="0" y1="24.001" x2="25" y2="24.001" gradientUnits="userSpaceOnUse"><stop stop-color="#EC656D"/><stop offset="1" stop-color="#EF914F"/></linearGradient><linearGradient id="paint2_linear_1_9" x1="0" y1="24.001" x2="25" y2="24.001" gradientUnits="userSpaceOnUse"><stop stop-color="#EC656D"/><stop offset="1" stop-color="#EF914F"/></linearGradient></defs></svg>