<svg width="16" height="30" fill="none" xmlns="http://www.w3.org/2000/svg"><path d="M15.374 0h-3.682c-4.472 0-7.36 2.983-7.36 7.6v2.953H.626a.629.629 0 00-.626.632v5.078c0 .35.28.63.626.63h3.706V29.37c0 .347.28.63.624.63h5.22a.629.629 0 00.628-.63V16.89h4.568c.346 0 .626-.28.626-.629L16 11.185a.65.65 0 00-.184-.444.623.623 0 00-.442-.186h-4.57V8.134c0-1.427.338-2.152 2.186-2.152l2.384-.008c.344 0 .624-.28.624-.63V.63a.625.625 0 00-.624-.63z" fill="url(#paint0_linear_1_26)"/><defs><linearGradient id="paint0_linear_1_26" x1="0" y1="30.002" x2="16" y2="30.002" gradientUnits="userSpaceOnUse"><stop stop-color="#EC656D"/><stop offset="1" stop-color="#EF914F"/></linearGradient></defs></svg>