<svg width="90" height="36" fill="none" xmlns="http://www.w3.org/2000/svg"><path d="M41.596 17.583v10.549h-3.331V2.08H47.1a7.958 7.958 0 015.721 2.255 7.28 7.28 0 012.39 5.498 7.245 7.245 0 01-2.39 5.53c-1.545 1.48-3.452 2.219-5.721 2.218h-5.505v.002zm0-12.296v9.095h5.587a4.386 4.386 0 003.297-1.347 4.442 4.442 0 001.339-3.184 4.459 4.459 0 00-1.34-3.183 4.345 4.345 0 00-3.296-1.383h-5.587v.002zM62.89 9.725c2.462 0 4.406.661 5.831 1.983 1.425 1.322 2.137 3.135 2.136 5.438v10.986H67.67v-2.474h-.145c-1.38 2.037-3.214 3.056-5.504 3.056-1.955 0-3.59-.582-4.907-1.746a5.597 5.597 0 01-1.974-4.365c0-1.845.694-3.312 2.082-4.4 1.388-1.09 3.24-1.636 5.558-1.639 1.978 0 3.608.364 4.888 1.091v-.765a3.824 3.824 0 00-1.376-2.962 4.706 4.706 0 00-3.216-1.22c-1.861 0-3.334.789-4.418 2.366l-2.934-1.857c1.614-2.328 4.002-3.492 7.166-3.492zm-4.31 12.95a2.683 2.683 0 001.104 2.183c.737.582 1.652.89 2.589.873a5.3 5.3 0 003.748-1.563c1.103-1.043 1.655-2.268 1.655-3.673-1.039-.832-2.487-1.247-4.346-1.247-1.353 0-2.481.328-3.385.983-.913.665-1.366 1.474-1.366 2.444zm30.57-12.368L78.025 35.99h-3.44l4.129-8.987-7.315-16.696h3.621l5.287 12.805h.073l5.142-12.805h3.627z" fill="url(#paint0_linear_1_34)"/><path d="M29.993 15.309a17.918 17.918 0 00-.256-3.044H15.685v5.765h8.047a6.946 6.946 0 01-1.024 2.58 6.912 6.912 0 01-1.951 1.968v3.741h4.803c2.812-2.604 4.432-6.456 4.432-11.01z" fill="url(#paint1_linear_1_34)"/><path d="M15.686 29.934c4.02 0 7.406-1.326 9.875-3.613l-4.803-3.742c-1.337.911-3.059 1.43-5.072 1.43-3.886 0-7.185-2.631-8.365-6.177H2.374v3.856a14.942 14.942 0 005.492 6.018 14.85 14.85 0 007.82 2.228z" fill="url(#paint2_linear_1_34)"/><path d="M7.322 17.832a9.006 9.006 0 010-5.729V8.247H2.374a15.022 15.022 0 000 13.44l4.948-3.855z" fill="url(#paint3_linear_1_34)"/><path d="M15.686 5.925A8.069 8.069 0 0121.4 8.17l4.254-4.27A14.28 14.28 0 0015.686 0a14.85 14.85 0 00-7.82 2.227 14.942 14.942 0 00-5.492 6.02l4.947 3.855c1.18-3.546 4.479-6.178 8.365-6.178z" fill="url(#paint4_linear_1_34)"/><defs><linearGradient id="paint0_linear_1_34" x1="38.265" y1="35.991" x2="89.15" y2="35.991" gradientUnits="userSpaceOnUse"><stop stop-color="#EC656D"/><stop offset="1" stop-color="#EF914F"/></linearGradient><linearGradient id="paint1_linear_1_34" x1="15.686" y1="26.32" x2="29.993" y2="26.32" gradientUnits="userSpaceOnUse"><stop stop-color="#EC656D"/><stop offset="1" stop-color="#EF914F"/></linearGradient><linearGradient id="paint2_linear_1_34" x1="2.374" y1="29.935" x2="25.561" y2="29.935" gradientUnits="userSpaceOnUse"><stop stop-color="#EC656D"/><stop offset="1" stop-color="#EF914F"/></linearGradient><linearGradient id="paint3_linear_1_34" x1=".788" y1="21.689" x2="7.322" y2="21.689" gradientUnits="userSpaceOnUse"><stop stop-color="#EC656D"/><stop offset="1" stop-color="#EF914F"/></linearGradient><linearGradient id="paint4_linear_1_34" x1="2.374" y1="12.104" x2="25.654" y2="12.104" gradientUnits="userSpaceOnUse"><stop stop-color="#EC656D"/><stop offset="1" stop-color="#EF914F"/></linearGradient></defs></svg>