<svg width="28" height="30" fill="none" xmlns="http://www.w3.org/2000/svg"><path d="M8 0h12c2.122 0 4.157.903 5.657 2.51C27.157 4.119 28 6.299 28 8.572V21.43c0 2.273-.843 4.453-2.343 6.06C24.157 29.098 22.122 30 20 30H8c-2.122 0-4.157-.903-5.657-2.51C.843 25.881 0 23.701 0 21.428V8.57c0-2.273.843-4.453 2.343-6.06C3.843.903 5.878 0 8 0zm6 21.429c1.591 0 3.117-.678 4.243-1.883C19.368 18.34 20 16.705 20 15s-.632-3.34-1.757-4.546C17.117 9.25 15.59 8.571 14 8.571c-1.591 0-3.117.678-4.243 1.883C8.632 11.66 8 13.295 8 15s.632 3.34 1.757 4.546c1.126 1.205 2.652 1.883 4.243 1.883zm6.888-11.906c.238.008.476-.034.698-.126.223-.092.426-.231.598-.409.171-.177.307-.39.4-.625a2.023 2.023 0 000-1.488 1.914 1.914 0 00-.4-.626 1.768 1.768 0 00-.598-.408 1.672 1.672 0 00-.698-.126 1.726 1.726 0 00-1.219.58c-.32.355-.5.83-.5 1.324 0 .494.18.969.5 1.324a1.73 1.73 0 001.219.58z" fill="url(#paint0_linear_1_31)"/><defs><linearGradient id="paint0_linear_1_31" x1="0" y1="30.002" x2="28" y2="30.002" gradientUnits="userSpaceOnUse"><stop stop-color="#EC656D"/><stop offset="1" stop-color="#EF914F"/></linearGradient></defs></svg>