<svg width="55" height="32" fill="none" xmlns="http://www.w3.org/2000/svg"><path d="M54.24 15.787c0 8.72-7.466 15.788-16.677 15.788-3.745.004-7.38-1.186-10.31-3.375a16.035 16.035 0 004.703-5.52 15.006 15.006 0 001.668-6.893 15.006 15.006 0 00-1.668-6.89 16.034 16.034 0 00-4.701-5.52C30.183 1.186 33.818-.004 37.563 0c9.21 0 16.676 7.07 16.676 15.787" fill="url(#paint0_linear_1_41)"/><path d="M20.886 15.787a15.007 15.007 0 011.668-6.89 16.033 16.033 0 014.701-5.52C24.327 1.186 20.692-.004 16.947 0 7.737 0 .27 7.07.27 15.787c0 8.72 7.467 15.788 16.677 15.788 3.745.004 7.38-1.186 10.308-3.375a16.034 16.034 0 01-4.702-5.52 15.007 15.007 0 01-1.67-6.893" fill="url(#paint1_linear_1_41)"/><path d="M27.255 3.374a16.033 16.033 0 00-4.703 5.522 15.006 15.006 0 00-1.668 6.893 15.006 15.006 0 001.67 6.89 16.032 16.032 0 004.701 5.52 16.032 16.032 0 004.701-5.521 15.005 15.005 0 001.669-6.89 15.006 15.006 0 00-1.669-6.891 16.034 16.034 0 00-4.7-5.521" fill="url(#paint2_linear_1_41)"/><defs><linearGradient id="paint0_linear_1_41" x1="27.253" y1="31.576" x2="54.24" y2="31.576" gradientUnits="userSpaceOnUse"><stop stop-color="#EC656D"/><stop offset="1" stop-color="#EF914F"/></linearGradient><linearGradient id="paint1_linear_1_41" x1=".27" y1="31.576" x2="27.255" y2="31.576" gradientUnits="userSpaceOnUse"><stop stop-color="#EC656D"/><stop offset="1" stop-color="#EF914F"/></linearGradient><linearGradient id="paint2_linear_1_41" x1="20.884" y1="28.2" x2="33.625" y2="28.2" gradientUnits="userSpaceOnUse"><stop stop-color="#EC656D"/><stop offset="1" stop-color="#EF914F"/></linearGradient></defs></svg>