<svg width="23" height="33" fill="none" xmlns="http://www.w3.org/2000/svg"><path d="M9.614 23.39c-2.967-.262-5.646-.883-7.937-2.402-.285-.19-.58-.372-.84-.584-1.002-.817-1.103-1.753-.31-2.718.681-.825 1.82-1.048 3.006-.574.23.093.446.206.656.33 4.273 2.492 10.142 2.56 14.43.111.422-.276.878-.5 1.402-.616 1.026-.223 1.978.097 2.53.856.626.866.619 1.716-.154 2.388-1.187 1.031-2.613 1.78-4.197 2.302-1.5.493-3.14.742-4.763.905.243.227.36.338.512.468 2.208 1.881 4.42 3.754 6.62 5.64.75.643.906 1.439.492 2.185a2.486 2.486 0 01-1.013.971c-.434.23-.933.344-1.437.327-.625-.038-1.115-.301-1.55-.673-1.665-1.423-3.358-2.817-4.99-4.265-.474-.42-.702-.34-1.12.025A295.268 295.268 0 015.86 32.4c-.769.644-1.682.76-2.574.392-.947-.392-1.55-1.21-1.504-2.036.032-.556.356-.983.805-1.367 2.185-1.848 4.36-3.702 6.538-5.554.145-.124.279-.254.488-.446zm1.391-6.523c-5.128-.017-9.33-3.836-9.303-8.452C1.735 3.748 5.942-.012 11.118 0c5.189.012 9.351 3.828 9.326 8.543-.027 4.605-4.26 8.34-9.438 8.324zm4.658-8.442a3.74 3.74 0 00-.345-1.576c-.23-.5-.566-.955-.992-1.338a4.643 4.643 0 00-1.49-.893 5.038 5.038 0 00-1.757-.312 5.043 5.043 0 00-1.773.316 4.643 4.643 0 00-1.499.906 4.1 4.1 0 00-.991 1.355 3.737 3.737 0 00-.33 1.594 3.75 3.75 0 00.358 1.574c.233.498.575.95 1.004 1.33.429.38.938.68 1.496.883a5.04 5.04 0 001.76.3c.604 0 1.2-.108 1.757-.316a4.625 4.625 0 001.486-.9c.424-.384.759-.84.985-1.342.226-.501.34-1.038.333-1.579l-.002-.002z" fill="url(#paint0_linear_1_30)"/><defs><linearGradient id="paint0_linear_1_30" x1="0" y1="33.002" x2="23" y2="33.002" gradientUnits="userSpaceOnUse"><stop stop-color="#EC656D"/><stop offset="1" stop-color="#EF914F"/></linearGradient></defs></svg>