<svg width="22" height="26" fill="none" xmlns="http://www.w3.org/2000/svg"><path d="M1.046 1.726A2.868 2.868 0 013.028.546c1.439-.19 2.814.83 3.134 2.296l.351 1.562c.096.414.032.86-.224 1.211a1.76 1.76 0 01-1.023.702l-2.078.446c-.128.032-.224.032-.352.032a1.64 1.64 0 01-1.502-.988L.598 4.053l-.032-.095a3.122 3.122 0 01.48-2.232zm.8 1.945l.703 1.69c.064.159.224.223.383.19l2.079-.446a.37.37 0 00.223-.16c.064-.063.064-.158.032-.254l-.351-1.562c-.16-.765-.832-1.307-1.567-1.307h-.16a1.6 1.6 0 00-1.087.637c-.256.351-.32.797-.256 1.212z" fill="url(#paint0_linear_1_10)"/><path d="M3.348 7.178l.608-.16c1.278-.35 2.43-.223 3.357.35 1.119.702 1.918 2.041 2.302 3.858l1.119 5.611c.032.192.191.287.383.287l4.604-.446c1.79-.096 3.39.35 4.38 1.307.864.797 1.375 1.945 1.375 3.316v.127c0 .925-.735 1.722-1.598 2.008v.479c0 .892-.736 1.562-1.631 1.562H7.792c-.895 0-1.662-.67-1.662-1.562V21.81a3.858 3.858 0 01-.576-1.212L2.165 9.25c-.192-.956.32-1.816 1.183-2.071zM7.44 23.883c0 .191.192.287.384.287H18.28c.192 0 .352-.128.352-.287v-.35H9.519a3.95 3.95 0 01-2.079-.607v.957zM3.412 8.803l3.421 11.382a2.8 2.8 0 002.686 2.072h9.751c.448 0 .96-.415.96-.86v-.128c0-1.02-.384-1.818-.992-2.391-.671-.638-1.758-.989-2.973-.989h-.416l-4.572.479c-.863.095-1.662-.479-1.79-1.308l-1.12-5.547c-.32-1.466-.895-2.518-1.726-3.028-.64-.383-1.439-.479-2.366-.224l-.607.16c-.16.064-.288.223-.256.382z" fill="url(#paint1_linear_1_10)"/><path fill-rule="evenodd" clip-rule="evenodd" d="M5.65 2.953C5.383 1.731 4.245.913 3.097 1.065l-.006.001c-.65.078-1.25.442-1.613.956a2.603 2.603 0 00-.402 1.81l.013.037.727 1.734c.171.405.584.669 1.02.669a.82.82 0 00.225-.017l.009-.002 2.082-.447a1.24 1.24 0 00.714-.499.96.96 0 00.137-.785v-.003L5.65 2.953zM2.252 7.237a2.152 2.152 0 01-1.4-1.227L.85 6.009.108 4.237l-.05-.15-.008-.04a3.65 3.65 0 01.56-2.612l.007-.01A3.392 3.392 0 012.963.028C4.69-.2 6.299 1.02 6.673 2.73l.351 1.559c.124.539.047 1.145-.311 1.635a2.48 2.48 0 01-.449.473c.47.099.914.274 1.324.528l.003.002c1.281.803 2.135 2.294 2.536 4.192l.001.006 1.09 5.465 4.464-.433h.011c1.875-.1 3.636.36 4.768 1.449.975.902 1.539 2.19 1.539 3.695v.128c0 1.063-.729 1.934-1.599 2.358v.129c0 1.21-.998 2.085-2.154 2.085H7.792c-1.142 0-2.186-.863-2.186-2.085v-1.941a4.468 4.468 0 01-.555-1.228L1.656 9.376l-.005-.023c-.162-.81.079-1.59.601-2.116zm1.238.444c-.576.174-.945.748-.816 1.444l3.384 11.33c.113.397.28.754.495 1.048l.1.137v2.275c0 .563.491 1.039 1.14 1.039h10.454c.635 0 1.107-.463 1.107-1.04v-.855l.358-.119c.708-.235 1.24-.869 1.24-1.512V21.3c0-1.234-.457-2.24-1.206-2.93l-.009-.009c-.848-.819-2.277-1.25-3.977-1.161l-4.617.447h-.026a.958.958 0 01-.553-.167.841.841 0 01-.345-.547L9.1 11.331c-.366-1.733-1.11-2.919-2.066-3.518-.78-.482-1.774-.61-2.94-.29l-.006.001-.6.157zm-.34-6.383h.197c.99 0 1.868.722 2.079 1.72l.346 1.538c.048.163.087.466-.13.718a.863.863 0 01-.467.328l-.027.009-2.114.454c-.354.07-.794-.07-.971-.506l-.727-1.746-.01-.063c-.079-.513-.007-1.109.35-1.599a2.125 2.125 0 011.437-.847l.037-.006zm.077 1.047c-.3.05-.542.2-.704.422-.144.199-.202.472-.169.766l.615 1.476 1.746-.376-.314-1.397c-.111-.53-.574-.891-1.054-.891h-.12zm.911 5.411c1.038-.284 1.988-.189 2.771.28l.005.003c1.012.62 1.633 1.844 1.964 3.363l.002.008 1.121 5.559.002.012c.082.528.607.934 1.215.866h.004l4.599-.48h.443c1.3 0 2.534.372 3.334 1.131l-.36.38.36-.38c.712.673 1.154 1.607 1.154 2.77v.128c0 .423-.236.77-.492.993a1.552 1.552 0 01-.99.391H9.518a3.324 3.324 0 01-3.19-2.453l.002.008.502-.15-.507.133.003.009L2.903 8.93l-.005-.024a.815.815 0 01.142-.632.978.978 0 01.433-.339l.03-.012.636-.167zm0 0l-.003.001.14.504-.134-.506-.003.001zm2.23 1.176c-.494-.295-1.14-.39-1.955-.166l-.006.002-.426.111 3.355 11.164.002.008a2.277 2.277 0 002.18 1.683h9.751c.073 0 .195-.04.304-.135.111-.096.131-.179.131-.203v-.127c0-.877-.324-1.536-.827-2.011v-.001c-.544-.516-1.483-.845-2.613-.845h-.389l-4.541.476h-.002c-1.113.122-2.182-.613-2.362-1.735L7.855 11.62c-.308-1.41-.836-2.29-1.486-2.69zm.548 13.046l.803.506a3.426 3.426 0 001.799.525h9.635v.874c0 .545-.502.81-.875.81H7.824c-.173 0-.377-.042-.554-.16a.773.773 0 01-.353-.65v-1.905z" fill="url(#paint2_linear_1_10)"/><defs><linearGradient id="paint0_linear_1_10" x1="0" y1="26.002" x2="22" y2="26.002" gradientUnits="userSpaceOnUse"><stop stop-color="#EC656D"/><stop offset="1" stop-color="#EF914F"/></linearGradient><linearGradient id="paint1_linear_1_10" x1="0" y1="26.002" x2="22" y2="26.002" gradientUnits="userSpaceOnUse"><stop stop-color="#EC656D"/><stop offset="1" stop-color="#EF914F"/></linearGradient><linearGradient id="paint2_linear_1_10" x1="0" y1="26.002" x2="22" y2="26.002" gradientUnits="userSpaceOnUse"><stop stop-color="#EC656D"/><stop offset="1" stop-color="#EF914F"/></linearGradient></defs></svg>