<svg width="34" height="27" fill="none" xmlns="http://www.w3.org/2000/svg"><path d="M34 3.196a14.178 14.178 0 01-4.006 1.074A6.878 6.878 0 0033.061.5a14.26 14.26 0 01-4.433 1.655A7.027 7.027 0 0024.671.091a7.117 7.117 0 00-4.425.716 6.884 6.884 0 00-3.064 3.201 6.676 6.676 0 00-.437 4.363 20.162 20.162 0 01-7.963-2.067 19.723 19.723 0 01-6.413-5.056 6.651 6.651 0 00-.945 3.427c0 2.367 1.232 4.452 3.102 5.673a7.099 7.099 0 01-3.157-.855v.085c0 1.574.557 3.1 1.576 4.318a7.012 7.012 0 004.017 2.37 7.218 7.218 0 01-1.837.238c-.44 0-.88-.042-1.313-.127a6.827 6.827 0 002.48 3.389 7.084 7.084 0 004.033 1.346 14.2 14.2 0 01-8.661 2.914c-.563 0-1.118-.033-1.664-.093A20.046 20.046 0 0010.69 27c12.832 0 19.844-10.388 19.844-19.397l-.021-.885A13.761 13.761 0 0034 3.196z" fill="url(#paint0_linear_1_28)"/><defs><linearGradient id="paint0_linear_1_28" x1="0" y1="27.002" x2="34" y2="27.002" gradientUnits="userSpaceOnUse"><stop stop-color="#EC656D"/><stop offset="1" stop-color="#EF914F"/></linearGradient></defs></svg>