<svg width="71" height="21" fill="none" xmlns="http://www.w3.org/2000/svg"><path d="M25.01 20.699L28.607.353h5.75l-3.6 20.347H25.01zM51.609.855A15.318 15.318 0 0046.455 0c-5.68 0-9.681 2.761-9.715 6.716-.033 2.921 2.856 4.552 5.038 5.526 2.237.997 2.989 1.632 2.978 2.524-.014 1.362-1.787 1.987-3.44 1.987-2.3 0-3.521-.308-5.41-1.068l-.74-.324-.807 4.552c1.342.571 3.825 1.063 6.403 1.087 6.043 0 9.965-2.728 10.01-6.95.022-2.315-1.51-4.075-4.826-5.527-2.01-.942-3.24-1.57-3.228-2.522 0-.846 1.04-1.75 3.292-1.75 1.475-.032 2.94.233 4.303.779l.515.234.78-4.409zM66.35.372h-4.444c-1.374 0-2.404.364-3.009 1.69L50.36 20.704h6.036s.987-2.506 1.21-3.056l7.363.008c.172.713.7 3.05.7 3.05H71L66.35.37v.001zm-7.09 13.115c.475-1.172 2.29-5.688 2.29-5.688-.033.054.473-1.177.764-1.942l.389 1.755 1.33 5.875H59.26zM20.192.369l-5.629 13.874-.599-2.821c-1.048-3.249-4.313-6.77-7.963-8.533l5.148 17.793 6.082-.007L26.28.369h-6.087z" fill="url(#paint0_linear_1_40)"/><path d="M9.342.357H.074L0 .779c7.213 1.684 11.983 5.755 13.964 10.645l-2.016-9.352C11.6.784 10.59.4 9.342.355v.002z" fill="url(#paint1_linear_1_40)"/><defs><linearGradient id="paint0_linear_1_40" x1="0" y1="21.001" x2="71" y2="21.001" gradientUnits="userSpaceOnUse"><stop stop-color="#EC656D"/><stop offset="1" stop-color="#EF914F"/></linearGradient><linearGradient id="paint1_linear_1_40" x1="0" y1="21.001" x2="71" y2="21.001" gradientUnits="userSpaceOnUse"><stop stop-color="#EC656D"/><stop offset="1" stop-color="#EF914F"/></linearGradient></defs></svg>