<svg width="33" height="20" fill="none" xmlns="http://www.w3.org/2000/svg"><path d="M28.4 12.716c1.095 1.146 2.25 2.222 3.232 3.482.433.56.845 1.138 1.159 1.788.445.924.041 1.94-.732 1.996l-4.806-.004c-1.241.112-2.23-.424-3.062-1.332-.665-.726-1.281-1.5-1.923-2.248a4.671 4.671 0 00-.866-.824c-.654-.456-1.223-.318-1.598.416-.384.746-.47 1.572-.507 2.402-.052 1.212-.392 1.532-1.53 1.586-2.43.124-4.736-.27-6.879-1.584-1.89-1.156-3.354-2.79-4.63-4.64-2.481-3.602-4.38-7.56-6.09-11.63C-.219 1.208.061.716 1.007.7 2.578.668 4.146.666 5.714.696c.638.01 1.058.4 1.306 1.046.848 2.234 1.885 4.36 3.188 6.332.349.524.702 1.048 1.207 1.418.557.408.982.272 1.244-.392.165-.422.239-.876.276-1.328.124-1.554.14-3.106-.076-4.654-.135-.966-.644-1.592-1.543-1.774-.46-.094-.392-.278-.17-.558.389-.484.752-.786 1.478-.786h5.432c.856.18 1.046.592 1.163 1.514l.004 6.464c-.01.356.165 1.416.767 1.652.479.168.796-.244 1.085-.57 1.3-1.48 2.228-3.226 3.059-5.036.367-.796.685-1.62.99-2.448.227-.612.583-.914 1.229-.9l5.228.006c.155 0 .312 0 .462.028.883.16 1.124.568.852 1.49-.429 1.446-1.264 2.65-2.079 3.86-.872 1.292-1.805 2.54-2.67 3.84-.795 1.188-.73 1.786.255 2.816z" fill="url(#paint0_linear_1_27)"/><defs><linearGradient id="paint0_linear_1_27" x1="0" y1="20.001" x2="33" y2="20.001" gradientUnits="userSpaceOnUse"><stop stop-color="#EC656D"/><stop offset="1" stop-color="#EF914F"/></linearGradient></defs></svg>