<svg width="33" height="24" fill="none" xmlns="http://www.w3.org/2000/svg"><path d="M31.713 2.06C30.525.596 28.323 0 24.123 0H8.877C4.579 0 2.343.636 1.155 2.194 0 3.714 0 5.95 0 9.048v5.904C0 20.952 1.374 24 8.877 24h15.246c3.642 0 5.662-.526 6.967-1.82 1.34-1.322 1.91-3.484 1.91-7.228V9.048c0-3.266-.089-5.518-1.287-6.988zM21.186 12.816l-6.924 3.74a1.036 1.036 0 01-1.043-.036 1.132 1.132 0 01-.38-.407 1.09 1.09 0 01-.134-.533V8.124c0-.384.194-.74.511-.94a1.03 1.03 0 011.044-.036l6.924 3.716c.35.188.573.564.573.974.003.198-.048.392-.149.564a1.13 1.13 0 01-.422.414z" fill="url(#paint0_linear_1_29)"/><defs><linearGradient id="paint0_linear_1_29" x1="0" y1="24.001" x2="33" y2="24.001" gradientUnits="userSpaceOnUse"><stop stop-color="#EC656D"/><stop offset="1" stop-color="#EF914F"/></linearGradient></defs></svg>