<svg width="20" height="20" fill="none" xmlns="http://www.w3.org/2000/svg"><path d="M6.05 8.14V9.3h3.26V6.05H8.15a2.1 2.1 0 00-2.1 2.09zm0 3.72a2.1 2.1 0 002.09 2.09H9.3V10.7H6.05v1.16zm4.65 2.09h1.16a2.1 2.1 0 002.09-2.09V10.7H10.7v3.25z" fill="#fff"/><path d="M14.19 0H5.81C2.17 0 0 2.17 0 5.81v8.37C0 17.83 2.17 20 5.81 20h8.37c3.64 0 5.81-2.17 5.81-5.81V5.81C20 2.17 17.83 0 14.19 0zm1.16 11.86a3.5 3.5 0 01-3.49 3.49H8.14a3.493 3.493 0 01-3.49-3.49V8.14a3.5 3.5 0 013.49-3.49h3.72a3.493 3.493 0 013.49 3.49v3.72z" fill="#fff"/><path d="M11.86 6.05H10.7v3.26h3.26V8.15a2.113 2.113 0 00-2.1-2.1z" fill="#fff"/></svg>