<svg width="22" height="22" fill="none" xmlns="http://www.w3.org/2000/svg"><path d="M20.99 14a7 7 0 01-7 7l1.05-1.75M.99 8a7 7 0 017-7L6.94 2.75" stroke="#fff" stroke-width="1.5" stroke-linecap="round" stroke-linejoin="round"/><path d="M20.99 3.2v.11a.5.5 0 01-.5.5h-9a.5.5 0 01-.5-.5V3.2c0-1.76.44-2.2 2.22-2.2h5.56c1.78 0 2.22.44 2.22 2.2zm-9.5 1.61a.5.5 0 00-.5.5V7.3c0 1.76.44 2.2 2.22 2.2h5.56c1.78 0 2.22-.44 2.22-2.2V5.31a.5.5 0 00-.5-.5h-9zm-.5 9.89v.11a.5.5 0 01-.5.5h-9a.5.5 0 01-.5-.5v-.11c0-1.76.44-2.2 2.22-2.2h5.56c1.78 0 2.22.44 2.22 2.2zm-9.5 1.61a.5.5 0 00-.5.5v1.99c0 1.76.44 2.2 2.22 2.2h5.56c1.78 0 2.22-.44 2.22-2.2v-1.99a.5.5 0 00-.5-.5h-9z" fill="#fff"/></svg>