<svg width="21" height="22" fill="none" xmlns="http://www.w3.org/2000/svg"><path d="M3.99 13.327a4 4 0 00-4 4c-.001.727.2 1.44.58 2.06a3.985 3.985 0 006.84 0c.38-.62.582-1.333.58-2.06a4 4 0 00-4-4zm1.49 4.73h-.74v.78a.75.75 0 11-1.5 0v-.78H2.5a.75.75 0 110-1.5h.74v-.71a.75.75 0 111.5 0v.71h.74a.75.75 0 110 1.5zm15.01-7.23h-2.5a2 2 0 000 4h2.5a.5.5 0 00.5-.5v-3a.5.5 0 00-.5-.5zm-4.97-7.099a.44.44 0 01-.37.74l-8.28-.01a.538.538 0 01-.38-.92l1.75-1.763a3.8 3.8 0 015.35 0l1.89 1.91.04.043z" fill="#fff"/><path d="M20.86 16.987a4.669 4.669 0 01-4.77 3.34h-6.5a.557.557 0 01-.48-.79 5.8 5.8 0 00.49-2.21 5.51 5.51 0 00-5.5-5.5c-.75 0-1.493.156-2.18.46a.579.579 0 01-.82-.49v-1.47a4.654 4.654 0 014.19-4.94c.265-.041.532-.061.8-.06h10a4.59 4.59 0 01.75.05 4.541 4.541 0 014.02 3.29.507.507 0 01-.48.66h-2.29a3.494 3.494 0 00-3.42 4.23 3.555 3.555 0 003.52 2.77h2.19a.506.506 0 01.48.66z" fill="#fff"/></svg>