<svg width="20" height="18" fill="none" xmlns="http://www.w3.org/2000/svg"><path d="M9.25 3.707H7c-1.886 0-2.828 0-3.414.585C3 4.878 3 5.821 3 7.707v6.25h14v-6.25c0-1.886 0-2.829-.586-3.415-.586-.585-1.528-.585-3.414-.585h-2.25v4.972l.68-.794a.75.75 0 111.14.976l-2 2.334a.75.75 0 01-1.14 0l-2-2.334a.75.75 0 111.14-.976l.68.794V3.707zm-6.22 11.75h13.94c-.052.79-.189 1.297-.556 1.664-.586.585-1.528.585-3.414.585H7c-1.886 0-2.828 0-3.414-.585-.367-.367-.504-.874-.555-1.664z" fill="#fff"/><path d="M3.889.707H16.11c2.15 0 3.89 1.8 3.89 4.02 0 1.29-.587 2.437-1.5 3.173v-.283c0-.866 0-1.66-.087-2.305-.095-.71-.32-1.462-.938-2.08-.618-.618-1.37-.843-2.08-.939-.646-.087-1.44-.087-2.306-.086H6.91c-.865 0-1.659 0-2.304.086-.711.096-1.463.32-2.08.939-.619.618-.844 1.37-.94 2.08-.086.646-.086 1.44-.086 2.305V7.9A4.063 4.063 0 010 4.727C0 2.507 1.741.707 3.889.707z" fill="#fff"/></svg>