<svg width="20" height="18" fill="none" xmlns="http://www.w3.org/2000/svg"><path fill-rule="evenodd" clip-rule="evenodd" d="M15.32 17.519a.975.975 0 00.922.123.98.98 0 00.604-.714c.724-3.471 2.48-12.258 3.14-15.416a.671.671 0 00-.217-.644.657.657 0 00-.664-.119C15.61 2.07 4.85 6.187.452 7.847a.703.703 0 00.042 1.328c1.973.602 4.562 1.44 4.562 1.44s1.21 3.726 1.84 5.622c.08.238.263.425.503.49a.712.712 0 00.676-.176l2.58-2.485s2.977 2.226 4.665 3.453zm-9.175-7.376l1.4 4.708.31-2.981 8.488-7.808a.24.24 0 00.027-.32.234.234 0 00-.313-.055l-9.912 6.456z" fill="#fff"/></svg>