<svg width="20" height="20" fill="none" xmlns="http://www.w3.org/2000/svg"><g clip-path="url(#clip0_313_2330)" fill="#fff"><path d="M15 0H5C2.25 0 0 2.25 0 5v10c0 2.75 2.25 5 5 5h10c2.75 0 5-2.25 5-5V5c0-2.75-2.25-5-5-5zm3.333 15A3.337 3.337 0 0115 18.333H5A3.337 3.337 0 011.667 15V5A3.337 3.337 0 015 1.667h10A3.337 3.337 0 0118.333 5v10z"/><path d="M15.417 5.834a1.25 1.25 0 100-2.5 1.25 1.25 0 000 2.5zM10 5a5 5 0 100 10 5 5 0 000-10zm0 8.334a3.333 3.333 0 110-6.667 3.333 3.333 0 010 6.667z"/></g><defs><clipPath id="clip0_313_2330"><path fill="#fff" d="M0 0h20v20H0z"/></clipPath></defs></svg>