<svg width="24" height="24" fill="none" xmlns="http://www.w3.org/2000/svg"><g clip-path="url(#clip0_62_364)" fill="#383838"><path d="M18 0H6C2.7 0 0 2.7 0 6v12c0 3.299 2.7 6 6 6h12c3.3 0 6-2.701 6-6V6c0-3.3-2.7-6-6-6zm4 18c0 2.205-1.794 4-4 4H6c-2.205 0-4-1.795-4-4V6c0-2.206 1.795-4 4-4h12c2.206 0 4 1.794 4 4v12z"/><path d="M18.5 7a1.5 1.5 0 100-3 1.5 1.5 0 000 3zM12 6a6 6 0 100 12 6 6 0 000-12zm0 10a4 4 0 110-8 4 4 0 010 8z"/></g><defs><clipPath id="clip0_62_364"><path fill="#fff" d="M0 0h24v24H0z"/></clipPath></defs></svg>