<svg width="20" height="20" fill="none" xmlns="http://www.w3.org/2000/svg"><path d="M18.762 5.016A5.031 5.031 0 0115.722 4a5.043 5.043 0 01-2.01-3.984h-3.26v8.909l-.004 4.88a2.951 2.951 0 01-3.123 2.945 2.94 2.94 0 01-1.35-.414 2.951 2.951 0 01-1.443-2.486 2.954 2.954 0 013.888-2.845V7.694a6.417 6.417 0 00-.94-.07 6.25 6.25 0 00-4.698 2.102 6.116 6.116 0 00-1.543 3.69 6.109 6.109 0 001.82 4.759 6.253 6.253 0 004.421 1.81c.318 0 .632-.024.94-.07a6.232 6.232 0 003.482-1.74 6.104 6.104 0 001.83-4.345l-.016-7.287a8.242 8.242 0 005.056 1.718V5.015h-.01z" fill="#fff"/></svg>