<svg width="24" height="24" fill="none" xmlns="http://www.w3.org/2000/svg"><path d="M22.515 6.018a6.038 6.038 0 01-3.649-1.22 6.052 6.052 0 01-2.411-4.78h-3.913v10.69l-.005 5.857a3.541 3.541 0 01-3.747 3.534 3.526 3.526 0 01-1.62-.497 3.541 3.541 0 01-1.73-2.984 3.544 3.544 0 014.665-3.413V9.232a7.7 7.7 0 00-1.129-.084 7.5 7.5 0 00-5.637 2.522 7.34 7.34 0 00-1.852 4.428 7.33 7.33 0 002.183 5.71 7.503 7.503 0 005.306 2.172 7.479 7.479 0 005.306-2.172 7.326 7.326 0 002.198-5.213l-.02-8.745a9.89 9.89 0 006.067 2.062V6.017h-.012z" fill="#383838"/></svg>