<svg width="40" height="40" fill="none" xmlns="http://www.w3.org/2000/svg"><circle cx="19.77" cy="19.885" r="19.77" fill="#000"/><path d="M19.765 10.157c3.167 0 3.542.012 4.793.07 1.157.052 1.785.245 2.203.408.553.215.948.472 1.364.887.415.415.672.81.887 1.364.162.418.356 1.046.408 2.203.057 1.25.07 1.626.07 4.793 0 3.168-.012 3.543-.07 4.794-.052 1.156-.246 1.784-.408 2.202a3.676 3.676 0 01-.887 1.364c-.416.415-.81.672-1.364.888-.418.162-1.046.355-2.203.408-1.25.057-1.626.07-4.793.07-3.168 0-3.543-.013-4.794-.07-1.156-.053-1.784-.246-2.202-.408a3.675 3.675 0 01-1.364-.888 3.675 3.675 0 01-.888-1.364c-.162-.418-.355-1.046-.408-2.202-.057-1.251-.07-1.626-.07-4.794 0-3.167.013-3.542.07-4.793.053-1.157.246-1.785.408-2.203.216-.553.473-.949.888-1.364a3.67 3.67 0 011.364-.887c.418-.162 1.046-.356 2.202-.409 1.251-.057 1.626-.069 4.794-.069zm0-2.137c-3.222 0-3.626.014-4.891.071-1.263.058-2.125.259-2.88.552a5.814 5.814 0 00-2.1 1.368 5.814 5.814 0 00-1.369 2.101c-.293.755-.494 1.617-.551 2.88-.058 1.265-.072 1.669-.072 4.89 0 3.222.014 3.626.072 4.891.057 1.263.258 2.125.551 2.88a5.81 5.81 0 001.368 2.1 5.815 5.815 0 002.101 1.369c.755.293 1.617.494 2.88.551 1.265.058 1.669.072 4.89.072 3.222 0 3.626-.014 4.891-.072 1.263-.057 2.125-.258 2.88-.551a5.815 5.815 0 002.101-1.368 5.817 5.817 0 001.368-2.102c.293-.754.494-1.616.551-2.879.058-1.265.072-1.67.072-4.89 0-3.222-.014-3.626-.072-4.891-.057-1.263-.258-2.125-.55-2.88a5.817 5.817 0 00-1.369-2.101 5.815 5.815 0 00-2.101-1.368c-.755-.293-1.617-.494-2.88-.552-1.265-.057-1.669-.071-4.89-.071z" fill="#fff"/><path d="M19.767 13.803a6.091 6.091 0 100 12.183 6.091 6.091 0 000-12.183zm0 10.046a3.954 3.954 0 110-7.908 3.954 3.954 0 010 7.908zm7.76-10.293a1.424 1.424 0 11-2.847 0 1.424 1.424 0 012.847 0z" fill="#fff"/></svg>