<svg width="40" height="40" fill="none" xmlns="http://www.w3.org/2000/svg"><circle cx="19.79" cy="20.23" r="19.77" fill="#000"/><path fill-rule="evenodd" clip-rule="evenodd" d="M9.1 25.328c.05 0 .094-.045.101-.107l.274-2.31-.274-2.362c-.008-.063-.05-.106-.102-.106-.052 0-.095.044-.102.106l-.242 2.362.242 2.31c.007.062.05.107.102.107zm-.91-.879c.05 0 .09-.042.098-.102l.213-1.436-.213-1.462c-.007-.06-.048-.102-.098-.102-.052 0-.093.043-.1.103l-.18 1.462.18 1.435c.007.06.048.102.1.102zm1.999-4.34c-.008-.075-.06-.129-.123-.129-.065 0-.118.054-.124.129l-.23 2.802.23 2.7c.006.076.059.13.124.13.064 0 .115-.054.123-.13l.261-2.7-.261-2.802zm.851 5.74c.075 0 .138-.065.144-.151l.246-2.785-.246-2.88c-.006-.086-.069-.152-.144-.152-.076 0-.138.065-.144.152l-.217 2.88.217 2.785c.006.086.068.15.144.15zm.982.046c.088 0 .16-.075.166-.174l.233-2.808-.233-2.673c-.007-.098-.078-.173-.166-.173-.088 0-.158.075-.165.175l-.204 2.67.204 2.81c.006.098.077.172.165.172zm1.394-2.981l-.216-4.347c-.006-.11-.088-.197-.186-.197-.1 0-.182.087-.186.197l-.192 4.347.192 2.808c.005.11.087.197.186.197s.18-.087.186-.198v.002l.216-2.81zm.595 3.009c.11 0 .202-.096.208-.22v.003l.203-2.792-.203-5.34c-.006-.123-.097-.22-.208-.22-.111 0-.202.097-.207.22l-.18 5.34.18 2.79c.005.123.095.219.207.219zm1.006-9.036c-.124 0-.224.107-.228.242l-.168 5.785.168 2.763c.004.134.104.24.228.24.123 0 .223-.106.228-.242v.002l.188-2.763-.188-5.785c-.005-.135-.105-.242-.228-.242zm1.014 9.036c.135 0 .245-.115.25-.264v.001l.174-2.745-.174-5.98c-.005-.15-.115-.266-.25-.266-.136 0-.245.116-.249.265l-.155 5.981.155 2.745c.003.148.113.263.25.263zm1.022-.003c.147 0 .267-.126.27-.288v.003l.161-2.72-.16-5.829c-.004-.16-.124-.287-.27-.287-.149 0-.268.127-.271.288l-.142 5.827.142 2.72c.002.16.122.286.27.286zm1.468-3.004l-.147-5.616c-.004-.173-.131-.31-.291-.31-.16 0-.289.137-.292.31l-.13 5.616.13 2.702c.003.171.131.308.292.308.159 0 .287-.137.29-.31v.002l.148-2.702zm.6 3.015c.169 0 .31-.149.311-.332v.002l.132-2.684-.132-6.683c-.002-.183-.142-.333-.31-.333-.17 0-.31.15-.313.334l-.118 6.68.118 2.686c.002.181.142.33.312.33zm1.034-10.657c-.183 0-.332.16-.334.356l-.137 7.287.137 2.645c.002.194.152.352.334.352.18 0 .33-.159.332-.354v.002l.148-2.645-.148-7.288c-.002-.196-.152-.354-.332-.354zm.945 10.66l8.387.005c1.671 0 3.026-1.449 3.026-3.236 0-1.787-1.354-3.235-3.026-3.235-.414 0-.81.09-1.17.25-.24-2.915-2.528-5.202-5.317-5.202-.683 0-1.348.144-1.936.387-.229.095-.289.192-.29.38v10.268a.38.38 0 00.326.382z" fill="#fff"/></svg>