<svg width="40" height="40" fill="none" xmlns="http://www.w3.org/2000/svg"><circle cx="19.781" cy="20.115" r="18.168" fill="#fff"/><path d="M22.012 1.186a19.45 19.45 0 1017.564 21.17 19.471 19.471 0 00-17.564-21.17zm3.26 27.678a1.496 1.496 0 01-2.07.433 8.002 8.002 0 00-7.547-.702 1.496 1.496 0 01-1.147-2.763 11.095 11.095 0 0110.331.961 1.496 1.496 0 01.433 2.071zm3.465-4.937a1.496 1.496 0 01-2.072.427 14.414 14.414 0 00-13.498-1.256 1.496 1.496 0 01-1.155-2.76 17.394 17.394 0 0116.298 1.517 1.497 1.497 0 01.424 2.076l.003-.004zM32.2 18.99a1.497 1.497 0 01-2.073.425 20.689 20.689 0 00-19.453-1.81 1.497 1.497 0 01-1.16-2.76 23.69 23.69 0 0122.261 2.071 1.496 1.496 0 01.423 2.078l.002-.004z" fill="#000"/></svg>