<svg width="40" height="40" fill="none" xmlns="http://www.w3.org/2000/svg"><circle cx="19.77" cy="19.991" r="19.77" fill="#000"/><path fill-rule="evenodd" clip-rule="evenodd" d="M30.936 12.47c.394.395.678.886.824 1.425.84 3.378.646 8.712.016 12.22a3.193 3.193 0 01-2.248 2.25c-1.972.537-9.907.537-9.907.537s-7.935 0-9.907-.538a3.194 3.194 0 01-2.249-2.248c-.844-3.364-.612-8.702-.016-12.205a3.195 3.195 0 012.249-2.249c1.971-.537 9.907-.554 9.907-.554s7.935 0 9.907.538c.538.146 1.03.43 1.424.825zm-7.274 7.535l-6.583 3.813v-7.626l6.583 3.813z" fill="#fff"/></svg>