<svg width="247" height="159" fill="none" xmlns="http://www.w3.org/2000/svg"><path d="M10.364 112.047h15.878l9.348-22.8h38.29l9.347 22.8h16.775L62.098 22.633h-13.83l-37.904 89.414zm44.435-69.162L67.86 74.6H41.609L54.8 42.885zm60.55 69.162H131.1v-89.16h-15.751v89.16zm79.738-33.37h21.641v14.01c-3.329 3.184-11.653 6.114-18.568 6.114-18.184 0-30.349-12.355-30.349-31.334 0-19.87 12.677-31.333 29.965-31.333 7.811 0 15.751 2.675 20.233 6.878l6.659-12.482c-7.3-5.732-16.007-9.044-28.813-9.044-27.404 0-44.691 20.38-44.691 45.981 0 27.767 17.415 45.981 46.74 45.981 11.141 0 25.611-4.585 33.55-12.482V64.028h-36.367v14.648zM0 151.065h2.678l.964-2.443H8.25l.964 2.443h2.844l-4.84-11.633H4.84L0 151.065zm5.954-8.226l1.298 3.29H4.64l1.314-3.29zm10.256 8.226v-4.071h.981l2.828 4.071h3.226l-3.393-4.587c.632-.315 1.963-1.196 1.963-3.357 0-2.144-1.131-3.722-4.308-3.722-.332 0-3.31.033-3.958.033v11.633h2.66zm1.164-9.173c1.28 0 1.614.614 1.614 1.263 0 .98-.799 1.346-1.813 1.346h-.965v-2.576c.549-.017.765-.033 1.164-.033zm7.532 9.173h2.661v-11.633h-2.66v11.633zm5.827 0h7.069v-2.492h-4.407v-2.111h3.742v-2.493h-3.742v-2.044h4.24v-2.493h-6.902v11.633zm13.842-3.191c0 .549-.4.898-1.098.898-.815 0-1.83-.382-2.495-1.23l-1.514 1.812c.566 1.246 2.379 1.911 3.942 1.911 2.246 0 3.992-1.396 3.992-3.424 0-3.789-4.857-3.324-4.857-5.251 0-.532.433-.865 1.165-.865.865 0 1.247.299 1.763.781l1.43-1.994c-.732-.781-1.93-1.28-3.426-1.28-2.329 0-3.759 1.563-3.759 3.358 0 3.756 4.857 3.539 4.857 5.284zm4.152-2.625c0 3.706 2.644 6.016 6.187 6.016 3.542 0 6.187-2.493 6.187-6.016 0-3.706-2.645-6.017-6.187-6.017-3.71 0-6.187 2.643-6.187 6.017zm2.827 0c0-2.128 1.43-3.524 3.36-3.524 1.88 0 3.36 1.396 3.36 3.524 0 1.961-1.148 3.523-3.36 3.523-1.863 0-3.36-1.529-3.36-3.523zm21.859 5.816v-11.633h-2.495v7.013l-5.522-7.013h-2.13v11.633h2.496v-6.98l5.522 6.98h2.129zm6.49 0h2.661v-11.633h-2.66v11.633zm15.973 0v-11.633h-2.495v7.013l-5.522-7.013H85.73v11.633h2.495v-6.98l5.522 6.98h2.129zm12.575-11.633h-2.678l-2.794 7.678-2.927-7.678h-2.845l4.657 11.633h2.046l4.541-11.633zm1.335 11.633h7.068v-2.492h-4.407v-2.111h3.742v-2.493h-3.742v-2.044h4.241v-2.493h-6.902v11.633zm13.84-3.191c0 .549-.399.898-1.098.898a3.26 3.26 0 01-2.494-1.23l-1.514 1.812c.565 1.246 2.378 1.911 3.942 1.911 2.245 0 3.992-1.396 3.992-3.424 0-3.789-4.857-3.324-4.857-5.251 0-.532.433-.865 1.165-.865.864 0 1.247.299 1.763.781l1.43-1.994c-.731-.781-1.929-1.28-3.426-1.28-2.329 0-3.76 1.563-3.76 3.358 0 3.756 4.857 3.539 4.857 5.284zm3.653-5.949h3.493v9.14h2.661v-9.14h3.493v-2.493h-9.647v2.493zm11.304 9.14h2.661v-7.362l3.227 4.487h.382l3.244-4.537v7.412h2.66l.001-11.633h-2.512l-3.393 4.903-3.592-4.903h-2.678v11.633zm15.171 0h7.068v-2.492h-4.407v-2.111h3.742v-2.493h-3.742v-2.044h4.241v-2.493h-6.902v11.633zm19.712 0v-11.633h-2.495v7.013l-5.521-7.013h-2.129v11.633h2.494v-6.98l5.522 6.98h2.129zm1.664-9.14h3.492v9.14h2.661v-9.14h3.493v-2.493h-9.646v2.493zm19.423 5.002h2.478v1.263c-.266.25-1.131.582-1.83.582-2.079 0-3.443-1.379-3.443-3.523 0-2.394 1.481-3.524 3.393-3.524.899 0 1.913.366 2.379.865l1.114-2.144c-.948-.748-2.079-1.214-3.809-1.214-3.659 0-5.904 2.676-5.904 6.017 0 3.623 2.245 6.016 6.237 6.016 1.447 0 3.327-.615 4.358-1.645v-5.186h-4.973v2.493zm9.956 4.138v-4.071h.981l2.828 4.071h3.226l-3.393-4.587c.632-.315 1.963-1.196 1.963-3.357 0-2.144-1.131-3.722-4.308-3.722-.333 0-3.31.033-3.958.033v11.633h2.661zm1.164-9.173c1.281 0 1.613.614 1.613 1.263 0 .98-.798 1.346-1.813 1.346h-.964v-2.576c.549-.017.765-.033 1.164-.033zm6.03 3.357c0 3.706 2.645 6.016 6.187 6.016 3.543 0 6.187-2.493 6.187-6.016 0-3.706-2.644-6.017-6.187-6.017-3.709 0-6.187 2.643-6.187 6.017zm2.828 0c0-2.128 1.43-3.524 3.359-3.524 1.88 0 3.36 1.396 3.36 3.524 0 1.961-1.148 3.523-3.36 3.523-1.863 0-3.359-1.529-3.359-3.523zm21.376-5.817h-2.661v6.299c0 1.861-.482 3.041-2.096 3.041-1.863 0-2.411-1.379-2.411-3.191v-6.149h-2.662v6.714c0 3.407 2.08 5.119 5.073 5.119 2.495 0 4.757-1.446 4.757-5.003v-6.83zm5.488 11.633v-3.955c.416.05 1.048.05 1.297.05 2.695 0 4.308-1.828 4.308-3.906 0-2.011-1.164-3.855-4.707-3.855-.898 0-2.911.033-3.559.033v11.633h2.661zm1.164-9.173c.948 0 1.614.315 1.614 1.346 0 1.13-.865 1.429-1.564 1.429-.382 0-.832-.033-1.214-.083v-2.659c.549-.017.815-.033 1.164-.033z" fill="#424242"/></svg>