<svg width="36" height="36" fill="none" xmlns="http://www.w3.org/2000/svg"><g clip-path="url(#clip0_0_513)"><path fill="#fff" d="M0 0h36v36H0z"/><path d="M0 18v18h36V0H0v18zM27.642 4.883l-8.54 7.596a3704.534 3704.534 0 00-8.462 7.537c.004.004 1.1-.274 2.435-.618 1.336-.343 2.432-.625 2.441-.625.007 0-.016.03-.05.066-.036.036-1.059 1.265-2.274 2.73a233.687 233.687 0 01-2.23 2.668c-.065.016-.668-.788-.964-1.28-.57-.95-.977-1.986-1.172-2.97a8.688 8.688 0 01-.178-1.24 13.72 13.72 0 010-1.371c.046-.505.07-.686.125-.967.099-.508.083-.441.183-.8l.07-.255c.072-.267.25-.745.401-1.08.153-.345.229-.494.422-.844.114-.21.413-.679.524-.826l.183-.247c.234-.313.494-.61.835-.95a9.103 9.103 0 012.083-1.584 9.59 9.59 0 013.366-1.115 12.302 12.302 0 011.942-.056c.304.012 1.134.086 1.132.102 0 .005-1.265 1.16-2.81 2.566a1301.158 1301.158 0 00-2.93 2.669l-.12.11.158-.107c.088-.058 3.157-2.146 6.82-4.639 3.665-2.494 6.666-4.535 6.671-4.535a.314.314 0 01-.061.065zm-2.372 7.088l.148.175c.028.027.381.508.483.66.33.488.672 1.126.892 1.66a9.997 9.997 0 01.444 1.346c.014.047.05.207.078.351.154.775.186 1.111.186 1.916 0 .893-.063 1.412-.278 2.303A9.834 9.834 0 0126.648 22c0 .03-.332.662-.46.877a9.37 9.37 0 01-3.002 3.124l-.197.124a.793.793 0 01-.111.065 11.387 11.387 0 01-1.09.555 11.2 11.2 0 01-.984.356c-1.057.327-2.38.47-3.446.373-.652-.062-1.151-.145-1.151-.192 0-.025.27-.269 2.98-2.682a574.084 574.084 0 002.838-2.537l.062-.061-.08.052-6.31 4.233c-3.427 2.3-6.472 4.342-6.767 4.539-.296.197-.5.325-.454.283l8.518-7.555a5680.13 5680.13 0 008.433-7.485 215.73 215.73 0 00-2.4.603c-1.318.334-2.4.605-2.408.603-.005-.004.993-1.227 2.22-2.721a550.428 550.428 0 002.24-2.739c.017-.04.05-.014.191.155z" fill="#131313"/></g><defs><clipPath id="clip0_0_513"><path fill="#fff" d="M0 0h36v36H0z"/></clipPath></defs></svg>