<svg width="41" height="41" fill="none" xmlns="http://www.w3.org/2000/svg"><g clip-path="url(#clip0_0_535)"><path fill="#fff" d="M0 0h41v41H0z"/><path d="M-5 22.5V46h47V-1H-5v23.5zM31.088 5.375c-.05.046-5.068 4.51-11.15 9.917a4815.324 4815.324 0 00-11.047 9.84c.005.005 1.437-.358 3.179-.808a665.76 665.76 0 013.187-.814c.01 0-.02.039-.066.085-.046.048-1.382 1.652-2.968 3.564-1.585 1.911-2.896 3.479-2.912 3.483-.085.021-.872-1.028-1.257-1.67-.744-1.242-1.276-2.594-1.531-3.879-.142-.713-.16-.847-.232-1.618-.03-.326-.03-1.464 0-1.79.06-.658.092-.895.163-1.262.128-.663.108-.576.239-1.044l.091-.333c.095-.349.326-.973.524-1.411.2-.45.298-.645.55-1.102.15-.273.54-.886.684-1.078l.239-.322a11.24 11.24 0 011.09-1.241 11.88 11.88 0 012.72-2.068c1.296-.732 2.944-1.278 4.394-1.455.726-.087 1.57-.112 2.536-.073.397.016 1.48.112 1.478.133 0 .007-1.652 1.514-3.67 3.35-2.019 1.836-3.74 3.404-3.825 3.484l-.156.145.206-.14c.115-.076 4.122-2.803 8.905-6.057a4569.26 4569.26 0 018.709-5.92c.007 0-.03.036-.08.084zm-3.096 9.253c.098.12.186.223.193.23.036.034.498.663.63.86.43.639.877 1.472 1.164 2.17a13.021 13.021 0 01.58 1.755c.02.062.065.27.102.459.202 1.012.243 1.45.243 2.501 0 1.166-.083 1.843-.363 3.007a12.853 12.853 0 01-.75 2.113c0 .04-.434.865-.601 1.145a12.233 12.233 0 01-2.37 2.894c-.47.423-1.047.863-1.55 1.184l-.257.163a1.03 1.03 0 01-.145.085 14.869 14.869 0 01-1.423.725c-.305.131-.876.34-1.285.464-1.379.427-3.107.613-4.498.487-.851-.08-1.503-.189-1.503-.25 0-.033.354-.352 3.89-3.503a740.167 740.167 0 003.706-3.311l.08-.08-.103.068c-.057.04-3.763 2.525-8.238 5.527-4.475 3.001-8.45 5.668-8.836 5.925-.385.257-.652.425-.592.37.06-.056 5.065-4.494 11.121-9.864 6.057-5.37 11.011-9.767 11.009-9.772a315.51 315.51 0 00-3.133.787 308 308 0 01-3.144.788 358.044 358.044 0 012.899-3.553c1.6-1.95 2.917-3.56 2.924-3.575.023-.053.066-.019.25.201z" fill="#0F0F0F"/></g><defs><clipPath id="clip0_0_535"><path fill="#fff" d="M0 0h41v41H0z"/></clipPath></defs></svg>