<svg width="23" height="22" fill="none" xmlns="http://www.w3.org/2000/svg"><path d="M11.768 5.39c3.077 0 5.616 2.539 5.616 5.615a5.616 5.616 0 01-5.616 5.615 5.585 5.585 0 01-5.615-5.615 5.616 5.616 0 015.615-5.615zm0 9.277c2.002 0 3.614-1.611 3.614-3.662a3.605 3.605 0 00-3.614-3.613c-2.05 0-3.662 1.61-3.662 3.613 0 2.05 1.66 3.662 3.662 3.662zm7.13-9.473c0 .733-.587 1.319-1.319 1.319a1.313 1.313 0 01-1.318-1.319c0-.732.586-1.318 1.318-1.318.732 0 1.318.586 1.318 1.318zm3.71 1.319c.098 1.806.098 7.226 0 9.033-.097 1.758-.488 3.271-1.757 4.59-1.27 1.27-2.832 1.66-4.59 1.758-1.807.097-7.227.097-9.033 0-1.758-.098-3.272-.489-4.59-1.758-1.27-1.319-1.66-2.832-1.758-4.59-.098-1.807-.098-7.227 0-9.033.098-1.758.488-3.32 1.758-4.59C3.956.653 5.47.263 7.228.165c1.806-.098 7.226-.098 9.033 0 1.758.098 3.32.488 4.59 1.758s1.66 2.832 1.757 4.59zM20.265 17.45c.586-1.416.44-4.834.44-6.445 0-1.563.146-4.98-.44-6.445-.391-.928-1.123-1.71-2.051-2.051-1.465-.586-4.883-.44-6.445-.44-1.612 0-5.03-.146-6.446.44a3.766 3.766 0 00-2.1 2.05c-.585 1.465-.439 4.883-.439 6.446 0 1.611-.146 5.03.44 6.445a3.702 3.702 0 002.1 2.1c1.415.586 4.833.44 6.444.44 1.563 0 4.981.146 6.446-.44.928-.39 1.709-1.123 2.05-2.1z" fill="#fff"/></svg>