<svg width="26" height="22" fill="none" xmlns="http://www.w3.org/2000/svg"><path d="M22.68 5.927v.683c0 6.788-5.127 14.551-14.55 14.551-2.93 0-5.616-.83-7.862-2.295.39.049.781.098 1.22.098 2.393 0 4.59-.83 6.349-2.197-2.247-.05-4.15-1.514-4.786-3.565.342.049.635.098.977.098.44 0 .928-.098 1.318-.196a5.133 5.133 0 01-4.101-5.029v-.049c.683.391 1.513.586 2.344.635a5.044 5.044 0 01-2.295-4.248c0-.976.244-1.855.683-2.588a14.875 14.875 0 0010.596 5.371 4.814 4.814 0 01-.147-1.172A5.126 5.126 0 0117.553.897c1.465 0 2.784.586 3.76 1.612a10.828 10.828 0 003.223-1.27 5.01 5.01 0 01-2.246 2.832 9.61 9.61 0 002.93-.781c-.684 1.025-1.563 1.904-2.54 2.637z" fill="#fff"/></svg>