<svg width="42" height="42" fill="none" xmlns="http://www.w3.org/2000/svg"><g clip-path="url(#clip0_1_841)"><path d="M7.187 37.694h1.68v1.173h-1.68v-1.173zm-3.088 1.094h2.306v-1.172H4.1a.688.688 0 01-.527-.235.835.835 0 01-.215-.586v-.782H2.262v.782c0 .573.176 1.049.528 1.427a1.72 1.72 0 001.31.566zm19.309-26.734h1.368v1.211h-1.368v-1.211zm-2.541 0h1.368v1.211h-1.368v-1.211zm18.957 3.048L28.997 5.37a1.471 1.471 0 00-.586-.352 2.214 2.214 0 00-.704-.117h-.704v-4.3H16.88v4.3c-.417.026-.781.215-1.094.567-.313.352-.47.775-.47 1.27v9.771h-.742v-3.986h-8.56v3.986h-3.44c-.624 0-1.152.215-1.582.645-.43.43-.645.958-.645 1.583v19.66c0 .6.215 1.121.645 1.564.43.443.958.664 1.583.664h35.959c.52 0 .957-.175 1.31-.527.35-.352.527-.788.527-1.31V16.431c0-.286-.052-.54-.157-.762a1.995 1.995 0 00-.39-.567zM18.092 1.813h7.778v.938h-7.778v-.938zm0 2.15h7.778v.938h-7.778v-.938zm-5.238 9.771h.548v2.775h-.548v-2.775zm-1.993 0h.782v2.775h-.782v-2.775zm-1.993 0h.781v2.775h-.781v-2.775zm-1.681 0h.547v2.775h-.547v-2.775zM19.03 36.795v1.602a.982.982 0 01-.293.724.982.982 0 01-.723.293H2.574a.982.982 0 01-.722-.293.982.982 0 01-.293-.724v-3.36H19.03v1.758zm0-2.931H1.559V23.35H19.03v10.514zm0-11.687H1.559v-3.44c0-.286.097-.527.293-.723a.983.983 0 01.723-.293H18.17a.95.95 0 01.606.313c.17.182.254.417.254.703v3.44zm.899-4.534c0-.052-.013-.085-.04-.098-.025-.013-.038-.032-.038-.058l-.04-.04-.038-.038-.04-.04-.039-.039-.039-.058-.039-.059-.039-.039-.039-.04-.039-.038-.04-.04-.058-.038a.19.19 0 00-.097-.04c-.052 0-.085-.013-.098-.039-.013-.026-.046-.039-.098-.039h-.059c-.012 0-.045-.026-.097-.078V9.748c0-.105.039-.196.117-.274a.422.422 0 01.313-.117h8.012a.48.48 0 01.176.039.449.449 0 00.137.039l8.99 8.364c.052.026.078.059.078.098v18.507c0 .13-.033.228-.098.293-.065.066-.163.098-.293.098H20.242V18.112c0-.052-.007-.085-.02-.098l-.059-.058c0-.052-.006-.085-.02-.098l-.058-.059-.117-.117-.04-.039zm18.605 21.77H20.007v-1.407h16.22c.444 0 .822-.156 1.134-.468.313-.313.47-.69.47-1.134V17.956c0-.209-.04-.417-.118-.626a1.191 1.191 0 00-.352-.508l-8.833-8.325c-.13-.13-.26-.222-.391-.274a7.813 7.813 0 00-.43-.156h-8.521a1.5 1.5 0 00-1.094.469c-.313.313-.47.69-.47 1.134v6.84h-1.21V6.737c0-.156.064-.306.195-.45a.612.612 0 01.469-.214h10.631a.52.52 0 01.235.058l.273.137 10.71 9.693a.444.444 0 01.136.235c.014.078.02.156.02.234v22.357c.052.157.013.3-.117.43a.598.598 0 01-.43.196zm-10.749-9.77c.964 0 1.792-.346 2.482-1.036.69-.691 1.036-1.518 1.036-2.482 0-.521-.143-1.212-.43-2.072a37.032 37.032 0 00-.958-2.619 57.446 57.446 0 00-.996-2.306c-.313-.677-.495-1.094-.547-1.25l-.587-1.056-.547 1.056a65.05 65.05 0 00-1.583 3.556c-.352.86-.671 1.733-.958 2.62-.26.859-.39 1.55-.39 2.07 0 .965.345 1.792 1.035 2.483.69.69 1.505 1.035 2.443 1.035zm0-10.202a48.238 48.238 0 011.524 3.635c.522 1.381.782 2.397.782 3.049 0 .651-.221 1.205-.664 1.66-.443.457-.99.685-1.642.685-.625 0-1.166-.228-1.622-.684a2.262 2.262 0 01-.684-1.661c0-.652.28-1.675.84-3.069a552 552 0 011.466-3.615zm-6.449 12.586h12.977v1.211H21.335v-1.211zM5.663 18.58h9.185v1.212H5.663V18.58zm15.673 15.673h12.977v1.212H21.335v-1.212zm-11.061-1.25c.651 0 1.218-.235 1.7-.704s.723-1.042.723-1.72c0-.651-.287-1.622-.86-2.911-.573-1.29-.899-2.04-.977-2.248l-.586-1.016-.547 1.016c-.079.209-.404.945-.978 2.208-.573 1.264-.86 2.248-.86 2.951 0 .652.235 1.219.704 1.7.47.483 1.03.724 1.68.724zm0-5.902c.286.677.56 1.348.82 2.013.261.664.391 1.153.391 1.465 0 .34-.117.626-.351.86a1.17 1.17 0 01-.86.352c-.313 0-.587-.117-.821-.352a1.17 1.17 0 01-.352-.86c0-.312.117-.814.352-1.504.234-.69.508-1.349.82-1.974z" fill="#F77F00"/></g><defs><clipPath id="clip0_1_841"><path fill="#fff" transform="matrix(1 0 0 -1 .347 41.114)" d="M0 0h41v41H0z"/></clipPath></defs></svg>