<svg width="42" height="42" fill="none" xmlns="http://www.w3.org/2000/svg"><g clip-path="url(#clip0_1_847)"><path d="M17.271 18.034a9.4 9.4 0 00-1.935 2.912 8.712 8.712 0 00-.684 3.42c0 1.198.228 2.345.684 3.44a9.334 9.334 0 001.935 2.93 8.762 8.762 0 002.931 1.955 9.081 9.081 0 003.44.664 9.08 9.08 0 003.44-.664 8.357 8.357 0 002.892-1.954 8.903 8.903 0 001.993-2.97 9.421 9.421 0 00.626-3.382c0-1.16-.209-2.286-.626-3.38a8.903 8.903 0 00-1.993-2.971 7.976 7.976 0 00-2.97-1.954 8.883 8.883 0 00-3.362-.665 9.18 9.18 0 00-3.4.665c-1.095.417-2.085 1.068-2.97 1.954zM28.958 29.72a7.612 7.612 0 01-2.443 1.641 7.31 7.31 0 01-2.873.586 7.405 7.405 0 01-2.912-.586 7.612 7.612 0 01-2.443-1.641 7.35 7.35 0 01-1.622-2.443 7.627 7.627 0 01-.566-2.912c0-.99.189-1.948.566-2.873a7.35 7.35 0 011.622-2.443 7.437 7.437 0 012.502-1.661 7.577 7.577 0 012.853-.567 7.43 7.43 0 012.834.567 7.488 7.488 0 012.482 1.661 7.69 7.69 0 011.68 2.502c.365.912.548 1.856.548 2.833 0 .977-.183 1.922-.548 2.834a7.69 7.69 0 01-1.68 2.502zm10.983-9.068a.618.618 0 00-.235-.391.672.672 0 00-.43-.157h-1.993a7.791 7.791 0 00-.41-1.211c-.17-.391-.359-.769-.567-1.134l1.407-1.407a.717.717 0 00.195-.41.672.672 0 00-.117-.489 13.034 13.034 0 00-1.055-1.505 18.171 18.171 0 00-1.25-1.387c-.444-.47-.913-.9-1.408-1.29a14.505 14.505 0 00-1.524-1.055.638.638 0 00-.47-.117.922.922 0 00-.43.195l-1.367 1.407c-.391-.209-.782-.39-1.173-.547-.39-.157-.795-.3-1.212-.43V8.77a.728.728 0 00-.156-.47.618.618 0 00-.39-.234c-.496-.13-.99-.228-1.486-.293-.495-.065-.99-.098-1.485-.098a.485.485 0 000-.273.985.985 0 00-.118-.235 8.081 8.081 0 00-.82-1.192 15.434 15.434 0 00-2.052-2.052 8.083 8.083 0 00-1.192-.82.554.554 0 00-.45-.118.716.716 0 00-.41.195l-.977.977c-.261-.13-.528-.254-.802-.37a7.528 7.528 0 00-.801-.294V2.126a.753.753 0 00-.156-.45.617.617 0 00-.43-.254 13.202 13.202 0 00-2.873-.312c-.977 0-1.935.104-2.873.312a.595.595 0 00-.39.254.753.753 0 00-.157.45v1.368c-.287.078-.56.176-.82.293-.261.117-.522.241-.783.371l-.977-.977a.934.934 0 00-.45-.195.555.555 0 00-.449.117 8.083 8.083 0 00-1.192.82c-.378.314-.736.64-1.075.978a12.53 12.53 0 00-.957 1.075c-.3.378-.58.775-.84 1.192a.555.555 0 00-.118.45.926.926 0 00.196.449l.977.938c-.13.26-.248.528-.352.801a58.5 58.5 0 00-.313.84H1.363c-.156 0-.3.053-.43.157a.825.825 0 00-.273.39 13.202 13.202 0 00-.313 2.874c0 .977.104 1.934.313 2.872a.825.825 0 00.273.391.67.67 0 00.43.157h1.368c.104.286.209.566.313.84.104.274.221.54.352.801l-.977.938a.934.934 0 00-.196.45.557.557 0 00.117.45c.26.416.541.814.84 1.191a12.542 12.542 0 003.225 2.873.34.34 0 00.176.098 1.1 1.1 0 00.215.02h.117a19.062 19.062 0 00.391 2.97.618.618 0 00.235.39c.13.105.286.157.469.157h1.954c.13.417.274.821.43 1.212.156.39.339.768.547 1.133l-1.368 1.407a.559.559 0 00-.215.41c-.013.17.02.333.098.49a17.734 17.734 0 002.345 2.892c.443.443.906.86 1.388 1.25.482.391.996.756 1.543 1.095.13.104.28.143.45.117a.716.716 0 00.41-.195l1.407-1.407c.365.208.75.39 1.154.547.403.156.8.3 1.192.43V40c0 .182.052.339.156.47.104.13.248.208.43.234.6.156 1.212.267 1.837.332s1.25.097 1.876.097c.625 0 1.244-.039 1.857-.117a24.013 24.013 0 001.856-.312.618.618 0 00.391-.235.728.728 0 00.156-.469v-1.954c.417-.13.821-.274 1.212-.43.391-.157.782-.339 1.173-.547l1.368 1.407a.91.91 0 00.43.195.638.638 0 00.469-.117 20.67 20.67 0 001.524-1.095c.495-.39.964-.807 1.407-1.25.443-.443.86-.906 1.25-1.388.392-.482.743-.983 1.056-1.505a.672.672 0 00.117-.488.717.717 0 00-.195-.41l-1.407-1.408c.208-.365.397-.742.567-1.133a7.82 7.82 0 00.41-1.212h1.954a.727.727 0 00.47-.156.618.618 0 00.234-.391c.286-1.225.43-2.469.43-3.733 0-1.264-.144-2.508-.43-3.732zm-32.637 0c-.104.443-.189.879-.254 1.309-.065.43-.11.866-.137 1.31l-.234.234a10.8 10.8 0 01-.782-.606 12.425 12.425 0 01-1.426-1.427c-.222-.26-.424-.52-.606-.781l.938-.938a.922.922 0 00.195-.43c.026-.157 0-.3-.078-.43a9.788 9.788 0 01-.547-1.114 8.512 8.512 0 01-.391-1.192.733.733 0 00-.704-.508H1.95a13.223 13.223 0 01-.156-2.013c0-.665.052-1.336.157-2.013h1.328a.733.733 0 00.704-.508c.104-.417.234-.815.39-1.192a9.9 9.9 0 01.548-1.114c.078-.13.104-.274.078-.43a.922.922 0 00-.195-.43l-.938-.938c.182-.261.384-.522.606-.782a12.482 12.482 0 011.426-1.427c.26-.221.521-.423.782-.606l.938.939c.13.104.274.169.43.195.156.026.3 0 .43-.078a8.949 8.949 0 011.133-.547c.391-.157.782-.3 1.173-.43a.546.546 0 00.371-.235.733.733 0 00.137-.43V2.712a13.348 13.348 0 012.032-.156c.678 0 1.342.052 1.994.156v1.33a.73.73 0 00.137.43c.09.13.215.208.37.234.418.13.815.273 1.193.43.378.156.75.338 1.114.547.13.078.28.104.45.078a.716.716 0 00.41-.195l.938-.939c.26.183.521.385.782.606a12.5 12.5 0 011.426 1.427c.222.26.424.521.606.782l-.195.234c-.443.026-.886.072-1.33.137-.442.065-.872.15-1.29.254a.644.644 0 00-.429.235.728.728 0 00-.156.469v1.68a5.504 5.504 0 00-.47-.703 7.118 7.118 0 00-.586-.665 7.335 7.335 0 00-2.286-1.505 6.91 6.91 0 00-2.678-.527 7.07 7.07 0 00-2.697.527A7.274 7.274 0 008.32 9.083c-1.354 1.381-2.032 3.042-2.032 4.984 0 1.94.678 3.602 2.032 4.983.209.209.43.398.665.567.234.17.482.332.743.488h-1.72a.727.727 0 00-.47.157.618.618 0 00-.234.39zm2.267-4.3l1.368 1.407a2.871 2.871 0 00-.273.528c-.079.195-.157.384-.235.567a2.842 2.842 0 01-.567-.372 72.568 72.568 0 01-.527-.45c-1.069-1.094-1.603-2.416-1.603-3.966 0-1.55.534-2.873 1.603-3.967a6.085 6.085 0 011.837-1.212 5.46 5.46 0 012.15-.43c.73 0 1.44.143 2.13.43a5.555 5.555 0 012.267 1.72c.143.182.267.364.37.547a10.211 10.211 0 00-1.094.547l-1.407-1.407a.716.716 0 00-.41-.195.555.555 0 00-.45.117 11.53 11.53 0 00-1.543 1.055c-.482.39-.945.82-1.388 1.29a17.901 17.901 0 00-2.345 2.892.917.917 0 00-.098.489c.013.17.085.306.215.41zm29.12 10.866h-1.916a.651.651 0 00-.45.156.888.888 0 00-.254.391 16.762 16.762 0 01-.547 1.544 17.49 17.49 0 01-.703 1.505.681.681 0 00.117.86l1.329 1.329a14.144 14.144 0 01-1.798 2.189c-.339.338-.697.664-1.075.977-.378.312-.762.599-1.153.86l-1.329-1.369a.923.923 0 00-.43-.195.524.524 0 00-.43.117 16.966 16.966 0 01-3.049 1.251.618.618 0 00-.39.235.673.673 0 00-.157.43v1.915a14.863 14.863 0 01-5.667 0v-1.915c0-.157-.052-.3-.157-.43a.618.618 0 00-.39-.235 16.723 16.723 0 01-1.544-.547 13.811 13.811 0 01-1.466-.704.639.639 0 00-.469-.117.923.923 0 00-.43.195l-1.329 1.368a11.8 11.8 0 01-1.133-.86 18.738 18.738 0 01-2.033-2.032 11.79 11.79 0 01-.86-1.133l1.368-1.33a.922.922 0 00.196-.43.617.617 0 00-.078-.43 12.384 12.384 0 01-.743-1.504 16.762 16.762 0 01-.547-1.544.617.617 0 00-.235-.39.672.672 0 00-.43-.157H8.594a14.812 14.812 0 010-5.667h1.915c.157 0 .3-.052.43-.157a.617.617 0 00.235-.39c.156-.522.338-1.036.547-1.544.208-.509.456-1.01.743-1.505.078-.13.104-.274.078-.43a.922.922 0 00-.196-.43l-1.368-1.33c.26-.39.547-.774.86-1.152.313-.378.639-.736.977-1.075a14.135 14.135 0 012.189-1.798l1.33 1.329a.68.68 0 00.429.215.872.872 0 00.469-.098c.47-.26.958-.495 1.466-.703a16.482 16.482 0 011.544-.547.618.618 0 00.39-.235.728.728 0 00.157-.47V9.358a14.814 14.814 0 015.667 0v1.876c0 .182.052.339.157.469.104.13.234.208.39.235.522.156 1.036.338 1.544.547.508.208 1.01.443 1.505.703a.681.681 0 00.86-.117l1.329-1.329c.39.26.775.54 1.153.84a12.54 12.54 0 012.032 2.033c.3.378.58.762.84 1.153l-1.328 1.329a.681.681 0 00-.117.86 17.35 17.35 0 011.25 3.048.888.888 0 00.254.391.651.651 0 00.45.157h1.915a17.2 17.2 0 010 5.667zM21.1 21.864c-.703.678-1.055 1.512-1.055 2.502 0 .99.352 1.837 1.056 2.54.338.365.73.632 1.172.802a3.697 3.697 0 002.697 0c.443-.17.834-.437 1.173-.802a3.463 3.463 0 001.055-2.54c0-.99-.352-1.824-1.055-2.502-.678-.703-1.512-1.055-2.502-1.055-.99 0-1.837.352-2.54 1.055zm4.026 4.026a2.052 2.052 0 01-1.504.625 2.051 2.051 0 01-1.505-.625 2.051 2.051 0 01-.626-1.505c0-.586.209-1.088.626-1.505a2.08 2.08 0 01.703-.468c.26-.105.534-.157.821-.157.26 0 .521.052.782.157.26.104.495.26.703.469.443.416.665.918.665 1.504 0 .587-.222 1.088-.665 1.505z" fill="#F77F00"/></g><defs><clipPath id="clip0_1_847"><path fill="#fff" transform="matrix(1 0 0 -1 .347 41.114)" d="M0 0h41v41H0z"/></clipPath></defs></svg>