<svg width="42" height="42" fill="none" xmlns="http://www.w3.org/2000/svg"><g clip-path="url(#clip0_1_853)"><path d="M39.316 8.106H14.651v-.977c0-.73-.254-1.349-.762-1.857a2.481 2.481 0 00-1.817-.762H8.047c-.704 0-1.31.254-1.818.762a2.527 2.527 0 00-.762 1.857v.977H1.402a1.05 1.05 0 00-.742.293.952.952 0 00-.313.723c0 .287.104.534.313.743.208.208.456.313.742.313h4.065v.977c0 .703.254 1.31.762 1.817a2.481 2.481 0 001.818.762h4.026a2.48 2.48 0 001.817-.762 2.481 2.481 0 00.762-1.817v-.977h24.663c.287 0 .535-.105.743-.313.209-.209.313-.456.313-.743a.952.952 0 00-.313-.723 1.049 1.049 0 00-.742-.293zM12.58 11.155c0 .13-.052.247-.156.352a.486.486 0 01-.352.156H8.047a.468.468 0 01-.371-.156.52.52 0 01-.137-.352V7.129c0-.156.045-.287.137-.39a.468.468 0 01.37-.157h4.027c.13 0 .247.052.351.156a.53.53 0 01.157.39v4.027zm26.735 8.481H35.25v-.977a2.48 2.48 0 00-.763-1.817 2.481 2.481 0 00-1.817-.762h-4.026a2.48 2.48 0 00-1.817.762 2.481 2.481 0 00-.763 1.817v.977H1.402c-.286 0-.534.105-.742.313a1.015 1.015 0 00-.313.743c0 .286.104.527.313.723.208.195.456.293.742.293h24.663v.977c0 .73.255 1.349.763 1.857a2.481 2.481 0 001.817.762h4.026a2.48 2.48 0 001.817-.762 2.527 2.527 0 00.763-1.857v-.977h4.065c.286 0 .534-.098.742-.293a.952.952 0 00.313-.723c0-.287-.104-.535-.313-.743a1.015 1.015 0 00-.742-.313zm-6.137 3.049a.572.572 0 01-.137.39.468.468 0 01-.371.157h-4.026a.486.486 0 01-.352-.156.53.53 0 01-.156-.391v-4.026c0-.13.052-.247.156-.352a.486.486 0 01.352-.156h4.026c.156 0 .28.052.371.156a.52.52 0 01.137.352v4.026zm6.136 9.38H21.962v-.976c0-.73-.254-1.342-.762-1.838-.508-.495-1.127-.742-1.856-.742h-4.026c-.704 0-1.31.247-1.818.742s-.762 1.108-.762 1.837v.978H1.402c-.286 0-.534.097-.742.293a.952.952 0 00-.313.723c0 .286.104.534.313.742.208.209.456.313.742.313h11.335v.977c0 .704.254 1.31.762 1.818a2.482 2.482 0 001.818.762h4.026c.73 0 1.348-.254 1.856-.762a2.481 2.481 0 00.762-1.818v-.977h17.355c.286 0 .534-.104.742-.313.209-.208.313-.456.313-.742a.952.952 0 00-.313-.723 1.049 1.049 0 00-.742-.293zm-19.425 3.05c0 .13-.052.247-.157.351a.53.53 0 01-.39.156h-4.026a.486.486 0 01-.352-.156.486.486 0 01-.156-.352V31.09a.47.47 0 01.156-.372.52.52 0 01.352-.137h4.026c.156 0 .286.046.39.137a.468.468 0 01.157.372v4.025z" fill="#F77F00"/></g><defs><clipPath id="clip0_1_853"><path fill="#fff" transform="matrix(1 0 0 -1 .347 41.114)" d="M0 0h41v41H0z"/></clipPath></defs></svg>