<svg width="48" height="42" fill="none" xmlns="http://www.w3.org/2000/svg"><g clip-path="url(#clip0_1_859)"><path d="M14.886 11.545c-.73-.73-1.609-.958-2.638-.684-1.03.273-1.662 1.036-1.896 2.287v.469c.234 1.277.88 2.045 1.935 2.306 1.055.26 1.922.026 2.6-.704.52-.469.78-1.068.78-1.798s-.26-1.355-.78-1.876zm-1.133 2.619a.948.948 0 01-.567.332c-.222.04-.45.02-.684-.059a1.148 1.148 0 01-.528-.41 1.066 1.066 0 01-.215-.645c0-.234.065-.443.195-.625.13-.183.313-.326.548-.43.182-.078.39-.098.625-.059.235.04.443.15.626.332.26.235.39.508.39.821a.86.86 0 01-.39.743zM33.649 37.5c.443 0 .873-.078 1.29-.235a3.44 3.44 0 001.133-.703c.782-.808 1.101-1.805.958-2.99-.143-1.186-.84-2.079-2.091-2.678a.902.902 0 00-.254-.117 1.066 1.066 0 00-.294-.04c-1.85-.286-3.14.385-3.87 2.014-.729 1.628-.3 3.081 1.29 4.358a2.085 2.085 0 001.212.39h.626zm.156-5.355h.196c.833.26 1.329.742 1.485 1.446.156.704-.026 1.316-.547 1.837a1.81 1.81 0 01-1.33.547c-.52 0-.977-.182-1.367-.547a1.634 1.634 0 01-.43-.586 1.904 1.904 0 01-.157-.782 2.12 2.12 0 01.665-1.349c.39-.377.886-.566 1.485-.566zm3.44-31.076a1.563 1.563 0 00-.528-.352 1.473 1.473 0 00-1.153 0 1.239 1.239 0 00-.469.352L23.837 12.327a1.98 1.98 0 00-.469.762 2.565 2.565 0 000 1.759c.105.274.261.502.47.684l.234.235c.235.26.521.443.86.547.339.104.69.143 1.055.117h.079l-1.447 1.407c-.234.26-.488.528-.762.802-.274.273-.567.54-.88.8a23.27 23.27 0 00-.957-.84 3.92 3.92 0 01-.723-.762l-1.447-1.407h.704c.209 0 .417-.052.625-.156.209-.104.378-.222.509-.352l1.524-1.486c.156-.182.235-.37.235-.566a.61.61 0 00-.235-.489l-8.639-8.56-3.752-3.753A1.631 1.631 0 009.746.68c-.404 0-.762.13-1.075.39L.658 9.082c-.26.261-.391.606-.391 1.036 0 .43.13.802.39 1.114L11.916 22.49c.209.208.463.365.763.469a2.567 2.567 0 001.759 0c.273-.104.501-.26.684-.47l.82-.781a.83.83 0 00.216-.606 2.652 2.652 0 00-.137-.684v-.157l1.407 1.447c.208.183.417.39.625.626.209.234.43.468.665.703a53.071 53.071 0 01-4.378 3.127c-1.433.912-2.606 1.473-3.518 1.681-.209.052-.423.11-.645.176a9.373 9.373 0 00-.645.215l-.313-.313a1.712 1.712 0 00-.488-.352 1.338 1.338 0 00-.567-.117c-.183 0-.371.04-.567.117a.944.944 0 00-.45.352L6.092 28.98a1.838 1.838 0 00-.352.469 1.21 1.21 0 00-.117.547c0 .208.04.404.117.586.079.183.196.339.352.47l.313.312a6.305 6.305 0 00-.586 3.186 6.088 6.088 0 001.094 3.107c.235.365.502.69.801.977.3.287.62.548.958.782a5.848 5.848 0 003.049 1.095 6.663 6.663 0 003.244-.587l.313.313c.156.156.32.274.489.352.169.078.358.117.566.117.209 0 .404-.039.587-.117a.956.956 0 00.43-.352l2.189-2.15-1.368-1.368.234-.625c.078-.209.13-.43.157-.665.208-.886.723-1.993 1.544-3.322A46.624 46.624 0 0122.977 28c1.277 1.642 2.287 3.101 3.03 4.378.743 1.277 1.192 2.294 1.348 3.05.026.208.079.423.157.644.078.222.156.437.234.645l-.312.313a1.71 1.71 0 00-.352.488c-.078.17-.117.359-.117.567 0 .183.039.372.117.567a.943.943 0 00.352.45l1.055 1.055c.156.156.313.273.47.352.155.078.338.117.546.117.209 0 .404-.04.587-.117a1.24 1.24 0 00.469-.352l.312-.313c.99.47 2.053.665 3.186.587a6.088 6.088 0 003.108-1.095c.156-.104.325-.222.508-.352a2.46 2.46 0 00.469-.43c.156-.156.3-.319.43-.488.13-.17.247-.333.352-.489a5.848 5.848 0 001.094-3.049 6.662 6.662 0 00-.586-3.244l.313-.313c.156-.156.273-.32.351-.489a1.48 1.48 0 000-1.153.955.955 0 00-.352-.43l-2.15-2.189-1.367 1.369-.626-.235a2.749 2.749 0 00-.664-.156c-.808-.157-1.89-.645-3.245-1.466-1.355-.821-2.905-1.935-4.651-3.342.234-.235.456-.47.664-.704.209-.234.404-.443.587-.625l1.446-1.447v.157l-.059.058c-.039.04-.332.098-.88.176l1.916 1.916c.183.208.424.364.723.469.3.104.593.156.88.156.312 0 .606-.052.88-.156.273-.105.514-.26.722-.47l12.352-12.39-9.03-8.952zm4.808 11.258l-1.056 1.055-8.052-8.052 1.056-1.056 8.052 8.053zM7.85 8.262l3.987-3.988 1.134 1.056-8.052 8.052-1.056-1.055L7.85 8.262zm1.916-6.137L10.82 3.14l-8.09 8.092-1.017-1.055 8.053-8.052zm4.573 18.997l-.235.234a1.203 1.203 0 01-.254.196.66.66 0 01-.332.078.581.581 0 01-.293-.078 1.203 1.203 0 01-.254-.196l-6.958-6.919 8.013-8.013 7.505 7.505-.82.821a.76.76 0 01-.274.176.998.998 0 01-.352.059h-.078a1.1 1.1 0 01-.215-.02 5.588 5.588 0 01-.254-.058h-.587a3.46 3.46 0 00-.527.039c-.17.026-.333.065-.489.117h-.079c-.051.026-.11.052-.175.078a.42.42 0 00-.137.078h-.195c-.026 0-.059.02-.098.059a.525.525 0 01-.137.098l-.156.078h-.078a.344.344 0 01-.137.137 2.681 2.681 0 01-.176.097c-.052 0-.085.013-.098.04-.013.026-.032.039-.058.039a.851.851 0 00-.196.176.859.859 0 01-.195.175.602.602 0 00-.176.157.735.735 0 00-.137.234c0 .026-.02.046-.059.059-.039.013-.058.045-.058.098a1.149 1.149 0 00-.098.117c-.04.052-.085.117-.137.195v.04c0 .026-.026.038-.078.038l-.156.313c0 .052-.013.085-.04.098-.025.013-.038.033-.038.059-.027.13-.072.254-.137.37a3.236 3.236 0 00-.176.372v.157a.87.87 0 00-.117.273 1.11 1.11 0 00-.04.274v1.524c0 .13-.02.248-.058.352a.76.76 0 01-.176.274zm4.222-.547l-2.229-2.229a.595.595 0 01.157-.312c.078-.078.156-.17.234-.274v-.078l.02-.04c.013-.025.032-.038.059-.038a.52.52 0 00.234-.235.523.523 0 00.234-.234l.04-.04.039-.038h.02c.012 0 .032-.027.058-.079.104-.078.195-.143.274-.195a.871.871 0 01.312-.117l2.15 2.306a57.952 57.952 0 001.603 1.524 35.85 35.85 0 00-.9.763 16.05 16.05 0 01-.937.762c-.235-.235-.47-.482-.704-.743-.235-.26-.456-.495-.665-.703zm16.143 8.716c.235.026.47.078.704.157a3.1 3.1 0 01.664.312h.157a.449.449 0 00.254.078.66.66 0 00.293-.078h.078c.052 0 .098-.02.137-.058l.098-.098.742-.704 1.016 1.017-.625.625v.117c0 .026-.013.046-.039.059-.026.013-.04.046-.04.098a.19.19 0 01-.038.097.241.241 0 00-.04.137v.372c0 .013.027.045.079.097v.078a4.89 4.89 0 01.664 2.639 4.635 4.635 0 01-.82 2.56 1.202 1.202 0 00-.196.254 2.852 2.852 0 01-.195.294.385.385 0 00-.098.136c-.013.04-.046.072-.098.098a.294.294 0 01-.098.117.24.24 0 01-.136.04l-.235.234a.918.918 0 01-.313.195 4.975 4.975 0 01-2.599.821 4.81 4.81 0 01-2.6-.664h-.078c-.026 0-.045-.013-.058-.04-.013-.025-.046-.038-.098-.038h-.469a.241.241 0 00-.137.039.297.297 0 00-.097.117h-.079l-.664.625-1.016-1.016.703-.743c0-.026.013-.045.04-.058.025-.013.038-.046.038-.098l.02-.04c.013-.025.032-.038.059-.038v-.489c0-.013-.027-.032-.079-.058v-.079a7.855 7.855 0 01-.293-.664 2.788 2.788 0 01-.176-.704c-.234-1.12-.86-2.462-1.876-4.026a67.67 67.67 0 00-3.088-4.378c.365-.469.736-.925 1.114-1.368.378-.443.723-.86 1.036-1.25a44.56 44.56 0 004.397 3.322c1.603 1.068 2.965 1.72 4.085 1.954zm-7.349-8.716a32.55 32.55 0 00-.84.879c-.326.352-.684.723-1.075 1.114-.756.86-1.59 1.837-2.502 2.932a71.42 71.42 0 00-2.56 3.361 35.956 35.956 0 00-2.13 3.323c-.626 1.094-1.03 2.045-1.212 2.853a3.415 3.415 0 01-.156.704 3.1 3.1 0 01-.313.664v.079c0 .026-.007.045-.02.058a.45.45 0 00-.058.098v.469c0 .052.02.098.058.137l.098.097v.079l.704.742-1.017 1.017-.625-.626h-.117c-.026-.052-.059-.084-.098-.097a1.06 1.06 0 01-.137-.06h-.527c-.013 0-.046.027-.098.08h-.078a4.887 4.887 0 01-2.639.664 4.636 4.636 0 01-2.56-.821 1.557 1.557 0 00-.235-.196 1.551 1.551 0 01-.234-.195 1.55 1.55 0 01-.235-.196.616.616 0 01-.156-.234l-.235-.235a.917.917 0 01-.195-.312 4.976 4.976 0 01-.821-2.6 4.812 4.812 0 01.665-2.6v-.077c0-.026.006-.046.02-.059a.451.451 0 00.058-.098v-.488c0-.013-.026-.033-.078-.059 0-.052-.013-.085-.04-.098-.026-.013-.039-.032-.039-.058v-.078l-.625-.665 1.016-1.016.743.703c.026.052.059.085.098.098.039.013.084.033.136.059h.079a.24.24 0 01.136.039.19.19 0 00.098.039h.137c.04 0 .072-.026.098-.078H10c.208-.105.429-.202.664-.294.234-.09.469-.15.703-.175 1.173-.235 2.6-.906 4.28-2.014a64.49 64.49 0 004.906-3.576A43.94 43.94 0 0023.68 21.2c.47-.391.886-.762 1.25-1.114.366-.352.691-.671.978-.958l2.228-2.228c.13.026.241.078.332.157.092.078.202.156.333.234l.039.04.039.038a.52.52 0 00.234.235.523.523 0 00.235.234l.039.059.04.059h.019c.013 0 .032.026.058.078a.296.296 0 01.118.097c.026.04.039.085.039.137a.175.175 0 01.097.117c.013.053.033.118.059.196l-2.463 1.994zm5.59.86a.643.643 0 01-.254.214.736.736 0 01-.293.059.842.842 0 01-.332-.059.643.643 0 01-.255-.215l-.234-.234a.76.76 0 01-.176-.274.996.996 0 01-.058-.351v-.079c0-.078.006-.15.019-.215s.033-.15.059-.254v-.508c0-.182-.02-.365-.059-.547a2.965 2.965 0 00-.176-.547v-.079l-.078-.234a.425.425 0 00-.078-.156v-.196c0-.026-.02-.059-.059-.098a.522.522 0 01-.098-.136l-.078-.157-.02-.039c-.012-.026-.032-.039-.058-.039a.343.343 0 01-.137-.137 2.707 2.707 0 01-.097-.176c0-.052-.014-.084-.04-.097-.026-.013-.039-.033-.039-.059a.852.852 0 00-.176-.195.858.858 0 01-.176-.196l-.234-.235a1.556 1.556 0 00-.235-.195c-.026 0-.045-.013-.058-.039-.013-.026-.046-.04-.098-.04a.06.06 0 01-.058-.038c-.014-.026-.046-.04-.098-.04h-.04c-.025 0-.038-.025-.038-.077l-.235-.235a1.086 1.086 0 00-.137-.059c-.039-.013-.071-.045-.098-.097h-.039c-.026 0-.039-.026-.039-.079h-.078a1.536 1.536 0 00-.234-.058.35.35 0 01-.196-.098h-.078a4.197 4.197 0 00-.41-.117 1.397 1.397 0 00-.294-.04h-1.524a1.45 1.45 0 01-.352-.038.492.492 0 01-.273-.196l-.821-.82 7.505-7.506 8.091 8.092-7.036 6.918zm10.241-10.203l-8.091-8.091 1.055-1.016 8.053 8.052-1.017 1.055zm-12.156.313c-.73.73-.958 1.61-.684 2.639.273 1.029 1.036 1.674 2.286 1.934h.47c1.276-.26 2.045-.918 2.306-1.974.26-1.055.026-1.921-.704-2.599-.469-.521-1.068-.782-1.798-.782s-1.355.26-1.876.782zm2.697 2.619c-.235.26-.508.39-.821.39a.86.86 0 01-.743-.39c-.26-.235-.39-.508-.39-.82 0-.314.13-.561.39-.744.235-.26.509-.39.821-.39.313 0 .56.13.743.39.13.105.221.222.274.352.052.13.078.274.078.43 0 .157-.026.3-.078.43a.864.864 0 01-.274.352zM9.844 31.676c-.912.912-1.193 2.039-.84 3.38.351 1.343 1.322 2.183 2.911 2.522.13.052.255.078.372.078a.999.999 0 00.371-.078c1.59-.313 2.56-1.147 2.912-2.502.352-1.355.072-2.488-.84-3.4a3.535 3.535 0 00-1.095-.743 3.187 3.187 0 00-1.29-.274c-.495 0-.95.092-1.368.274-.417.182-.795.43-1.133.743zm3.752 3.752c-.339.365-.775.547-1.31.547-.534 0-.996-.182-1.387-.547-.521-.521-.684-1.16-.488-1.915.195-.756.762-1.212 1.7-1.368h.234c.912.156 1.48.612 1.7 1.368.222.756.072 1.394-.449 1.915z" fill="#F77F00"/></g><defs><clipPath id="clip0_1_859"><path fill="#fff" transform="matrix(1 0 0 -1 .267 41.114)" d="M0 0h47.14v41H0z"/></clipPath></defs></svg>