<svg width="42" height="42" fill="none" xmlns="http://www.w3.org/2000/svg"><g clip-path="url(#clip0_1_866)"><path d="M20.359.992c-2.762 0-5.355.52-7.778 1.563-2.423 1.068-4.54 2.508-6.352 4.32-1.81 1.81-3.25 3.927-4.319 6.35C.868 15.65.347 18.242.347 21.005c0 2.762.521 5.354 1.563 7.778 1.069 2.423 2.508 4.54 4.32 6.351 1.81 1.811 3.928 3.25 6.35 4.32 2.424 1.041 5.017 1.563 7.779 1.563 2.762 0 5.355-.522 7.778-1.564 2.423-1.068 4.54-2.508 6.351-4.319 1.811-1.81 3.251-3.928 4.32-6.351 1.042-2.424 1.563-5.016 1.563-7.778 0-2.763-.521-5.355-1.564-7.779-1.068-2.423-2.508-4.54-4.319-6.35-1.81-1.812-3.928-3.252-6.351-4.32C25.714 1.513 23.121.992 20.359.992zm0 34.239c-1.954 0-3.805-.378-5.55-1.134a14.586 14.586 0 01-4.495-3.048 14.587 14.587 0 01-3.049-4.495 13.823 13.823 0 01-1.133-5.55c0-1.955.378-3.805 1.133-5.55a14.586 14.586 0 013.049-4.495 14.586 14.586 0 014.495-3.05 13.823 13.823 0 015.55-1.133c1.954 0 3.804.378 5.55 1.134a14.587 14.587 0 014.495 3.049 14.586 14.586 0 013.049 4.494 13.822 13.822 0 011.133 5.55c0 1.955-.378 3.805-1.133 5.55a14.587 14.587 0 01-3.05 4.496 14.587 14.587 0 01-4.494 3.048 13.822 13.822 0 01-5.55 1.134zm0-26.618a12.01 12.01 0 00-4.808.978 12.541 12.541 0 00-3.947 2.657 12.541 12.541 0 00-2.658 3.948 12.017 12.017 0 00-.977 4.808c0 1.693.325 3.296.977 4.807a12.542 12.542 0 002.658 3.948 12.54 12.54 0 003.947 2.658c1.512.651 3.114.977 4.808.977s3.296-.326 4.807-.977a12.541 12.541 0 003.948-2.658 12.541 12.541 0 002.658-3.948c.651-1.511.977-3.114.977-4.807 0-1.694-.326-3.297-.977-4.808a12.54 12.54 0 00-2.658-3.948 12.542 12.542 0 00-3.948-2.657 12.016 12.016 0 00-4.807-.978zm10.788 11.609h-6.02a4.233 4.233 0 00-.293-1.095 5.912 5.912 0 00-.527-.977l4.22-4.22a10.713 10.713 0 011.818 2.891c.456 1.069.723 2.202.802 3.4zM21.14 10.216a10.3 10.3 0 013.4.801 10.735 10.735 0 012.892 1.818l-4.26 4.22a4.523 4.523 0 00-.957-.527 6.402 6.402 0 00-1.075-.332v-5.98zm-1.564 0v5.98a6.402 6.402 0 00-1.075.332c-.351.144-.67.32-.957.528l-4.26-4.221a10.735 10.735 0 012.892-1.818 10.306 10.306 0 013.4-.801zm-7.387 3.713l4.221 4.221a5.912 5.912 0 00-.527.978 4.23 4.23 0 00-.294 1.094H9.571a10.27 10.27 0 01.802-3.4 10.735 10.735 0 011.817-2.893zM9.57 21.785h6.02c.052.365.15.723.293 1.075s.319.671.527.958l-4.221 4.26a10.735 10.735 0 01-1.817-2.892 10.305 10.305 0 01-.802-3.4zm10.006 10.006a10.306 10.306 0 01-3.4-.801 10.735 10.735 0 01-2.893-1.817l4.26-4.26c.287.234.607.423.958.566.352.143.71.24 1.075.293v6.02zm0-7.622v.04a6.823 6.823 0 01-.938-.391v-.04a3.311 3.311 0 01-.586-.468 4.089 4.089 0 01-.508-.626 3.308 3.308 0 01-.215-.43 6.852 6.852 0 01-.176-.469 4.056 4.056 0 01-.078-.781 3.935 3.935 0 01.078-.782c.052-.183.11-.352.176-.508.065-.157.137-.3.215-.43.156-.235.325-.443.508-.625.182-.183.378-.34.586-.47.157-.104.313-.189.47-.254.155-.065.312-.11.468-.136a4.052 4.052 0 01.782-.079 3.932 3.932 0 01.782.079c.156.026.312.071.469.136.156.066.312.15.469.254.208.13.404.287.586.47.182.182.352.39.508.625.078.13.15.273.215.43.065.156.124.326.176.508a4.056 4.056 0 01.078.782 3.935 3.935 0 01-.078.781c-.052.157-.11.313-.176.47a3.38 3.38 0 01-.215.43 4.084 4.084 0 01-.508.625 3.31 3.31 0 01-.586.469v.039a7.51 7.51 0 01-.938.39v-.038l-.391.078a1.984 1.984 0 01-.782 0l-.39-.079zm1.564 7.622v-6.019c.364-.052.723-.15 1.075-.293a3.72 3.72 0 00.957-.567l4.26 4.26a10.735 10.735 0 01-2.892 1.818 10.307 10.307 0 01-3.4.801zm7.387-3.713l-4.221-4.26a4.53 4.53 0 00.527-.958c.143-.352.241-.71.293-1.075h6.02a10.307 10.307 0 01-.802 3.4 10.735 10.735 0 01-1.817 2.893z" fill="#F77F00"/></g><defs><clipPath id="clip0_1_866"><path fill="#fff" transform="matrix(1 0 0 -1 .347 41.504)" d="M0 0h41v41H0z"/></clipPath></defs></svg>