<svg width="42" height="42" fill="none" xmlns="http://www.w3.org/2000/svg"><g clip-path="url(#clip0_1_872)"><path d="M39.785 36.325h-4.222V24.091h4.221a.563.563 0 00.41-.175.562.562 0 00.177-.41.609.609 0 00-.176-.45.562.562 0 00-.41-.176h-4.26c-.131-.73-.496-1.349-1.095-1.857a3.162 3.162 0 00-2.11-.762h-2.893c-.834 0-1.55.267-2.15.801a3.15 3.15 0 00-1.055 2.013 6.406 6.406 0 00-.665-.508c-.234-.156-.469-.3-.703-.43v-2.58a2.76 2.76 0 00.762-.879 2.34 2.34 0 00.293-1.153c0-.495-.13-.945-.39-1.348a2.55 2.55 0 00-1.017-.919V13.46c0-.6-.189-1.12-.567-1.563a2.382 2.382 0 00-1.426-.821V9.864h9.028c.73 0 1.355-.26 1.877-.782a2.558 2.558 0 00.781-1.876c0-.703-.26-1.316-.782-1.837a2.559 2.559 0 00-1.876-.781h-3.79a.609.609 0 00-.45.175.563.563 0 00-.176.41c0 .183.058.333.176.45a.609.609 0 00.45.176h3.79c.391 0 .73.137 1.017.41.286.274.43.606.43.997s-.144.73-.43 1.017a1.39 1.39 0 01-1.017.43H8.867c-.39 0-.729-.144-1.016-.43a1.39 1.39 0 01-.43-1.017c0-.39.144-.723.43-.996.287-.274.626-.41 1.017-.41h16.455a.609.609 0 00.45-.177.609.609 0 00.175-.45.563.563 0 00-.176-.41.609.609 0 00-.45-.175H22.51v-.43c0-.626-.222-1.166-.665-1.622a2.197 2.197 0 00-1.642-.684c-.625 0-1.166.228-1.622.684-.455.456-.683.996-.683 1.622v.43h-9.03c-.729 0-1.348.26-1.856.781S6.25 6.503 6.25 7.206c0 .73.254 1.355.762 1.876a2.495 2.495 0 001.857.782h9.028v1.212a2.382 2.382 0 00-1.426.82 2.333 2.333 0 00-.567 1.564v1.798a2.418 2.418 0 00-.997.919 2.53 2.53 0 00-.37 1.348c0 .417.09.801.273 1.153.182.352.43.645.742.88v2.54a6.428 6.428 0 00-.547.352l-.547.39c-.13-.729-.495-1.341-1.095-1.836a3.158 3.158 0 00-2.071-.743H8.399c-.808 0-1.512.254-2.111.762-.6.508-.964 1.127-1.094 1.857H.934a.562.562 0 00-.411.176.609.609 0 00-.176.45c0 .155.059.292.176.41a.563.563 0 00.41.175h4.222v12.234H.933a.562.562 0 00-.41.176.609.609 0 00-.176.45c0 .156.059.293.176.41a.563.563 0 00.41.176h4.26c.13.755.496 1.387 1.095 1.895a3.16 3.16 0 002.11.763h2.893c.782 0 1.472-.248 2.072-.743a3.03 3.03 0 001.094-1.876 9.377 9.377 0 002.716 1.485 9.182 9.182 0 003.03.508 9.284 9.284 0 006.019-2.189 3.2 3.2 0 001.055 1.994c.6.547 1.316.82 2.15.82h2.892c.808 0 1.511-.253 2.11-.762.6-.508.965-1.14 1.095-1.895h4.26a.563.563 0 00.41-.176.562.562 0 00.177-.41.609.609 0 00-.176-.45.562.562 0 00-.41-.176zM19.108 4.158c0-.313.104-.574.313-.782a1.06 1.06 0 01.782-.313c.312 0 .58.104.8.313.222.208.333.469.333.782v.43h-2.228v-.43zm2.228 5.706v1.134h-2.228V9.864h2.228zm-2.97 2.345h3.674a1.2 1.2 0 01.879.372c.247.247.371.54.371.879v1.524h-6.175V13.46c0-.339.123-.632.371-.88.248-.247.54-.37.88-.37zm-1.29 3.948h6.253c.391 0 .717.137.978.41.26.274.39.593.39.958s-.13.678-.39.938a1.33 1.33 0 01-.978.39h-6.253c-.365 0-.684-.13-.958-.39a1.25 1.25 0 01-.41-.938c0-.365.136-.684.41-.958.274-.273.593-.41.958-.41zm-.313 3.909h6.918v1.485a7.742 7.742 0 00-1.7-.508 10.142 10.142 0 00-3.557 0c-.586.104-1.14.26-1.661.469v-1.447zM6.327 36.95V23.505c0-.547.183-1.016.547-1.407.365-.39.821-.6 1.368-.625v17.51a2.078 2.078 0 01-1.368-.664 1.942 1.942 0 01-.547-1.368zm5.12 2.032v-3.244a.609.609 0 00-.175-.45.563.563 0 00-.41-.175.609.609 0 00-.45.175.609.609 0 00-.176.45v3.244h-.821v-17.55h.82v11.883c0 .182.06.332.177.45a.608.608 0 00.45.175.562.562 0 00.41-.176.609.609 0 00.175-.45V21.435c.522.052.965.273 1.33.664.364.39.546.86.546 1.407v13.446c0 .52-.182.977-.547 1.368-.364.39-.807.612-1.329.664zm8.756-.625a8.187 8.187 0 01-3.069-.587 7.673 7.673 0 01-2.599-1.72V24.366c.287-.26.58-.508.88-.743.3-.234.618-.43.957-.586.026-.026.046-.039.059-.039.013 0 .032-.013.058-.04a8.764 8.764 0 011.798-.664 7.87 7.87 0 011.916-.234c1.146 0 2.234.228 3.263.684a8.297 8.297 0 012.717 1.935v11.06a8.297 8.297 0 01-2.717 1.936 7.968 7.968 0 01-3.264.684zm7.191-1.407V23.505c0-.547.183-1.016.548-1.407.364-.39.807-.6 1.328-.625v17.51a2.043 2.043 0 01-1.328-.664 1.942 1.942 0 01-.548-1.368zm3.088 2.032v-17.55h.82v17.55h-.82zm1.993 0v-17.55a2.078 2.078 0 011.368.665c.365.39.548.86.548 1.407V36.95c0 .52-.183.977-.547 1.368-.365.39-.821.612-1.369.664z" fill="#F77F00"/></g><defs><clipPath id="clip0_1_872"><path fill="#fff" transform="matrix(1 0 0 -1 .347 41.504)" d="M0 0h41v41H0z"/></clipPath></defs></svg>