<svg width="12" height="24" fill="none" xmlns="http://www.w3.org/2000/svg"><path d="M1.848 22.583l.015.001c.17.01.34-.02.496-.087l.2.458-.2-.458c.157-.068.295-.172.403-.303h.001l7.915-9.498v-.001a1.084 1.084 0 000-1.375l-.004-.004h0l-7.647-9.5-.005-.006-.005-.007a1.083 1.083 0 00-1.582-.163l-.008.008-.009.007a1.083 1.083 0 00-.163 1.527l.002.002h0l6.84 8.503.257.319-.263.315-7.093 8.486s0 0 0 0a1.084 1.084 0 00.14 1.527l.71.25zm0 0h-.016m.016 0h-.016m0 0c-.253 0-.498-.087-.693-.249l.693.25z" stroke="#000" stroke-opacity=".5"/></svg>