<svg width="40" height="40" fill="none" xmlns="http://www.w3.org/2000/svg"><path d="M20 11.016A8.984 8.984 0 1028.984 20 8.994 8.994 0 0020 11.016zm0 15.625A6.64 6.64 0 1126.64 20 6.648 6.648 0 0120 26.64zM28.594.859H11.406A10.559 10.559 0 00.86 11.406v17.188A10.559 10.559 0 0011.406 39.14h17.188A10.559 10.559 0 0039.14 28.594V11.406A10.559 10.559 0 0028.594.86zm8.203 27.735a8.213 8.213 0 01-8.203 8.203H11.406a8.213 8.213 0 01-8.203-8.203V11.406a8.212 8.212 0 018.203-8.203h17.188a8.212 8.212 0 018.203 8.203v17.188zm-4.688-18.75a1.953 1.953 0 11-3.906 0 1.953 1.953 0 013.906 0z" fill="#000"/></svg>