<svg width="44" height="39" fill="none" xmlns="http://www.w3.org/2000/svg"><path d="M43.319 6.465a1.563 1.563 0 00-1.444-.965h-5.942a9.34 9.34 0 00-14.69-1.963 9.294 9.294 0 00-2.805 6.65l-.002 1.195c-7.948-2.07-14.45-8.48-14.519-8.55a1.563 1.563 0 00-2.642.826c-1.714 9.427 1.118 15.737 3.795 19.37a21.4 21.4 0 004.83 4.757c-2.978 3.37-7.586 5.14-7.636 5.158a1.564 1.564 0 00-.751 2.33c.145.219.732.987 2.163 1.703 1.774.887 4.112 1.337 6.949 1.337 13.777 0 25.287-10.605 26.464-24.254l5.89-5.891a1.563 1.563 0 00.34-1.703zm-8.85 5.794c-.269.269-.43.626-.455 1.006-.783 12.293-11.057 21.923-23.389 21.923-2.063 0-3.525-.274-4.536-.602 2.25-1.22 5.383-3.321 7.399-6.344a1.567 1.567 0 00-.597-2.262c-.029-.015-2.917-1.509-5.392-4.924-2.814-3.884-3.998-8.585-3.532-14.004 3.082 2.53 8.99 6.671 15.773 7.802a1.562 1.562 0 001.82-1.54l.003-3.124v-.002a6.313 6.313 0 016.33-6.25 6.264 6.264 0 015.65 3.75 1.562 1.562 0 001.432.937h3.128l-3.634 3.634z" fill="#000"/><path d="M43.319 6.465a1.563 1.563 0 00-1.444-.965h-5.942a9.34 9.34 0 00-14.69-1.963 9.294 9.294 0 00-2.805 6.65l-.002 1.195c-7.948-2.07-14.45-8.48-14.519-8.55a1.563 1.563 0 00-2.642.826c-1.714 9.427 1.118 15.737 3.795 19.37a21.4 21.4 0 004.83 4.757c-2.978 3.37-7.586 5.14-7.636 5.158a1.564 1.564 0 00-.751 2.33c.145.219.732.987 2.163 1.703 1.774.887 4.112 1.337 6.949 1.337 13.777 0 25.287-10.605 26.464-24.254l5.89-5.891a1.563 1.563 0 00.34-1.703zm-8.85 5.794c-.269.269-.43.626-.455 1.006-.783 12.293-11.057 21.923-23.389 21.923-2.063 0-3.525-.274-4.536-.602 2.25-1.22 5.383-3.321 7.399-6.344a1.567 1.567 0 00-.597-2.262c-.029-.015-2.917-1.509-5.392-4.924-2.814-3.884-3.998-8.585-3.532-14.004 3.082 2.53 8.99 6.671 15.773 7.802a1.562 1.562 0 001.82-1.54l.003-3.124v-.002a6.313 6.313 0 016.33-6.25 6.264 6.264 0 015.65 3.75 1.562 1.562 0 001.432.937h3.128l-3.634 3.634z" stroke="#000"/></svg>