<svg width="23" height="23" fill="none" xmlns="http://www.w3.org/2000/svg"><path d="M19.727 0H3.273C1.415 0 0 1.415 0 3.273v16.454C0 21.585 1.415 23 3.273 23h16.454C21.585 23 23 21.585 23 19.727V3.273C23 1.415 21.585 0 19.727 0zM11.5 18.4c3.804 0 6.9-3.008 6.9-6.635 0-.619-.088-1.327-.265-1.857h1.946v9.377a.887.887 0 01-.885.884H3.804a.886.886 0 01-.885-.884V9.819h2.035a6.734 6.734 0 00-.266 1.858C4.6 15.392 7.696 18.4 11.5 18.4zm0-2.654c-2.477 0-4.423-1.946-4.423-4.335 0-2.388 1.946-4.334 4.423-4.334 2.477 0 4.423 1.946 4.423 4.335 0 2.476-1.946 4.334-4.423 4.334zm8.492-9.465c0 .53-.442.973-.973.973h-2.477a.982.982 0 01-.973-.973V3.892c0-.53.443-.973.973-.973h2.477c.531 0 .973.443.973.973v2.389z" fill="#fff"/></svg>