<svg width="32" height="32" fill="none" xmlns="http://www.w3.org/2000/svg"><circle cx="16.105" cy="15.684" r="15.684" fill="#2E2E2E"/><path d="M21.266 9.41H11.73c-1.077 0-1.897.821-1.897 1.898v9.537c0 1.077.82 1.897 1.897 1.897h9.537c1.077 0 1.897-.82 1.897-1.897v-9.537c0-1.077-.82-1.897-1.897-1.897zm-4.768 10.666c2.204 0 4-1.744 4-3.846 0-.359-.052-.769-.155-1.077h1.128v5.436a.514.514 0 01-.512.512h-8.922a.514.514 0 01-.513-.512v-5.487h1.18a3.905 3.905 0 00-.155 1.077c-.05 2.154 1.744 3.897 3.949 3.897zm0-1.538c-1.436 0-2.564-1.128-2.564-2.513 0-1.384 1.128-2.512 2.564-2.512 1.435 0 2.563 1.128 2.563 2.512 0 1.436-1.128 2.513-2.563 2.513zm4.922-5.487a.57.57 0 01-.564.564H19.42a.57.57 0 01-.564-.564v-1.384a.57.57 0 01.564-.564h1.436a.57.57 0 01.564.564v1.384z" fill="#fff"/></svg>