<svg width="32" height="32" fill="none" xmlns="http://www.w3.org/2000/svg"><circle cx="16.316" cy="15.684" r="15.684" fill="#2E2E2E"/><path d="M23.149 14.832c0-.304-.051-.66-.051-1.065-.05-.405-.101-.81-.152-1.166-.102-.405-.254-.71-.558-.963a1.713 1.713 0 00-.963-.456c-1.166-.152-2.89-.203-5.222-.203-2.332 0-4.106.05-5.221.203-.355.05-.71.203-.964.456a2.022 2.022 0 00-.557.963c-.102.355-.152.71-.152 1.166-.051.406-.051.76-.051 1.065v2.332c0 .304.05.659.05 1.065.051.405.102.81.153 1.166.101.405.253.71.557.963.254.253.609.405.963.456 1.167.152 2.89.203 5.222.203 2.332 0 4.107-.05 5.222-.203.355-.05.71-.203.963-.456.254-.254.456-.558.558-.963a4.08 4.08 0 00.152-1.166c.05-.406.05-.76.05-1.065v-2.332zm-4.259 1.572l-4.005 2.484a.387.387 0 01-.253.101c-.102 0-.152 0-.254-.05a.532.532 0 01-.253-.457v-5.019c0-.203.101-.355.253-.456a.46.46 0 01.507 0l4.005 2.484c.152.101.254.254.254.406 0 .152-.102.405-.254.507z" fill="#fff"/></svg>