<svg width="26" height="19" fill="none" xmlns="http://www.w3.org/2000/svg"><path d="M1.726 4.274h22.176c.467 0 .873-.173 1.218-.518.345-.345.518-.751.518-1.218 0-.467-.173-.877-.518-1.232-.345-.355-.751-.532-1.218-.532H1.726c-.467 0-.873.177-1.218.532-.345.355-.518.765-.518 1.232 0 .467.173.873.518 1.218.345.345.751.518 1.218.518zm0 7h22.176c.467 0 .873-.173 1.218-.518.345-.345.518-.751.518-1.218 0-.467-.173-.877-.518-1.232-.345-.355-.751-.532-1.218-.532H1.726c-.467 0-.873.177-1.218.532-.345.355-.518.765-.518 1.232 0 .467.173.873.518 1.218.345.345.751.518 1.218.518zm0 7h22.176c.467 0 .873-.173 1.218-.518.345-.345.518-.751.518-1.218 0-.467-.173-.877-.518-1.232-.345-.355-.751-.532-1.218-.532H1.726c-.467 0-.873.177-1.218.532-.345.355-.518.765-.518 1.232 0 .467.173.873.518 1.218.345.345.751.518 1.218.518z" fill="#F77F00"/></svg>