<svg width="132" height="120" fill="none" xmlns="http://www.w3.org/2000/svg"><path d="M.377 60.255v-.562c.023-.02.056-.036.068-.063a1.208 1.208 0 011.064-.645c.887-.112 1.77-.252 2.655-.386.9-.137 1.807-.294 2.713-.417a7.479 7.479 0 002.2-.648 37.305 37.305 0 005.032-2.88 81.834 81.834 0 007.715-6.083c2.381-2.064 4.778-4.11 7.155-6.18a83.132 83.132 0 003.049-2.767c1.028-.988 2.057-1.973 3.149-2.888a28.864 28.864 0 016.212-4.036c1.288-.608 2.618-1.127 3.928-1.686.937-.4 1.89-.767 2.806-1.21a23.07 23.07 0 004.987-3.23 28.336 28.336 0 007.069-8.945 41.534 41.534 0 001.417-3.124c.776-1.929 1.5-3.88 2.247-5.82a21.067 21.067 0 012.173-4.306 9.734 9.734 0 012.623-2.635 10.246 10.246 0 014.66-1.655 17.951 17.951 0 013.77.02c1.148.114 2.293.263 3.438.414 2.064.26 4.11.647 6.127 1.16a44.935 44.935 0 015.7 1.936 41.42 41.42 0 013.764 1.81c.78.416 1.53.889 2.241 1.413a30.982 30.982 0 013.77 3.359c.421.43.835.87 1.241 1.316.875.96 1.754 1.917 2.611 2.894.6.678 1.166 1.383 1.735 2.085.622.766 1.237 1.539 1.844 2.318.507.645 1 1.3 1.5 1.953.4.53.8 1.063 1.195 1.6a396.476 396.476 0 012.208 3.06.522.522 0 00.561.238c.329-.047.661-.078.992-.1.7-.06 1.409-.109 2.113-.168.559-.046 1.118-.106 1.677-.154.621-.054 1.244-.1 1.865-.154.942-.086 1.883-.186 2.826-.267.694-.06 1.39-.091 2.084-.151 1.45-.125 2.9-.264 4.348-.393a.67.67 0 01.759.457l.063.142v.187a.834.834 0 01-.576.6c-.437.167-.868.35-1.3.526l-3.551 1.452-3.206 1.31c-.935.38-1.872.751-2.806 1.131-1.05.428-2.099.858-3.146 1.292-.227.093-.451.194-.739.317.149.087.231.145.321.188a1586.763 1586.763 0 005.57 2.599l2.711 1.273c.5.235 1 .466 1.493.712a.667.667 0 01.338.764.618.618 0 01-.618.515 3.034 3.034 0 01-.467-.015c-.971-.109-1.942-.221-2.913-.337-1.353-.157-2.706-.32-4.059-.474-1.353-.156-2.708-.3-4.061-.456-.28-.03-.327 0-.384.272-.133.662-.265 1.325-.394 1.989-.271 1.419-.536 2.84-.81 4.258-.09.467-.1.456-.556.515a7.716 7.716 0 00-3.913 1.66 7.942 7.942 0 00-2.182 2.694 1.827 1.827 0 01-1.164.965c-.421.13-.876.108-1.282-.065a40.694 40.694 0 01-1.295-.543c-1.65-.718-3.3-1.437-4.948-2.159-.249-.108-.26-.13-.213-.405.074-.43.156-.86.232-1.29.274-1.545.547-3.091.819-4.637a.44.44 0 00-.024-.386c-.191.12-.372.237-.555.35-.915.555-1.833 1.108-2.747 1.666-.914.559-1.8 1.114-2.712 1.665a.445.445 0 00-.24.49c.072.525.134 1.051.2 1.578.158 1.226.32 2.453.474 3.68.237 1.898.47 3.798.7 5.7l.245 2.013c.133 1.093.27 2.186.408 3.28a.32.32 0 01-.21.37c-.1.041-.19.087-.286.127-.6.25-1.212.5-1.815.754-1.409.593-2.815 1.194-4.225 1.785-1.975.831-3.952 1.66-5.929 2.485-1.727.725-3.452 1.451-5.177 2.18-.092.038-.191.061-.326.1a2.959 2.959 0 01-.053-.36c-.024-1.288-.042-2.577-.064-3.866a498.59 498.59 0 00-.051-2.62c-.005-.25.019-.3.279-.367.484-.123.97-.236 1.457-.347 1.835-.421 3.67-.84 5.506-1.26.344-.078.374-.127.308-.47-.138-.715-.273-1.43-.412-2.144a94.59 94.59 0 00-.282-1.407c-.058-.274-.092-.3-.355-.26-.884.133-1.769.263-2.652.407-.955.155-1.905.333-2.86.486-1.92.309-3.842.605-5.762.913-1.047.168-2.091.355-3.139.52-1.777.282-3.556.545-5.332.83-1.2.193-2.4.416-3.6.61-1.611.261-3.225.505-4.837.761a578.73 578.73 0 00-3.542.572c-1.427.233-2.85.49-4.28.7a1.927 1.927 0 00-1.225.63c-1.382 1.5-2.805 2.956-4.212 4.43a3443.44 3443.44 0 00-4.757 4.99.915.915 0 01-.447.264c-1.016.268-2.027.55-3.043.817a2147.04 2147.04 0 01-6.493 1.688c-.364.094-.375.115-.39.486a5919.891 5919.891 0 00-.367 8.752 1.2 1.2 0 00.066.486c.367.906.735 1.813 1.133 2.7.407.912.849 1.806 1.276 2.71h-8.927c.01-.1.015-.207.031-.31.165-1.047.331-2.094.5-3.14.227-1.416.453-2.834.689-4.248.06-.337.033-.684-.076-1.008-.55-1.68-1.086-3.365-1.625-5.047-.288-.9-.564-1.806-.863-2.7a.61.61 0 01.112-.66c.155-.18.285-.383.423-.579 1.051-1.5 2.1-3 3.153-4.493 1.217-1.725 2.445-3.441 3.662-5.166.815-1.154 1.618-2.319 2.427-3.478.2-.29.206-.293-.045-.546a11690.04 11690.04 0 00-4.973-5c-.308-.309-.311-.306-.664-.056l-8.414 5.934-6.145 4.343a.766.766 0 01-.668.132c-1.767-.39-3.533-.782-5.305-1.148a1.5 1.5 0 01-1.177-.758c0-.008-.015-.014-.023-.02m15.708 46.646h5.071c.89-.02 1.754.292 2.426.875a2.69 2.69 0 011.025 2.117 2.698 2.698 0 01-1.025 2.117 3.573 3.573 0 01-2.426.874h-5.071v-5.983zm-.522-1.054v.008h-.55v13.457h1.072v-5.376h3.236l3.682 3.822c.43.525.954.965 1.544 1.3.723.181 1.47.251 2.214.208v-1.055a6.563 6.563 0 01-1.779-.141 4.643 4.643 0 01-1.188-1.026l-3-3.106h.367a4.624 4.624 0 003.2-1.185 3.747 3.747 0 00.977-4.436 3.76 3.76 0 00-.977-1.285 4.634 4.634 0 00-3.2-1.185h-5.598zm96.953 0a4.318 4.318 0 00-2.967 1.034 3.394 3.394 0 00-1.169 2.645c-.018.376.043.752.178 1.103.134.352.341.672.605.939a4.674 4.674 0 003.353 1.008h2.926a3.027 3.027 0 012.154.828 2.71 2.71 0 01.888 2.052 2.577 2.577 0 01-.879 1.993 3.043 3.043 0 01-2.164.81h-6.52v1.054h6.52a4.136 4.136 0 002.937-1.11 3.584 3.584 0 001.187-2.747 3.707 3.707 0 00-1.2-2.801 4.106 4.106 0 00-2.926-1.128h-2.926a3.694 3.694 0 01-2.551-.688 1.692 1.692 0 01-.5-1.317 2.388 2.388 0 01.849-1.9 3.274 3.274 0 012.2-.734h6.511v-1.044l-6.506.003zm-73.574-.011l-4.454 5.8-4.444-5.8h-1.353l5.256 6.842v6.634h1.082v-6.634l5.256-6.842H38.94zm15.891 0v1.055h4.754v12.421h1.084v-12.421h4.75v-1.055H54.831zm47.414 0l-5.72 12.414-2.647-5.742 3.072-6.672h-1.188l-2.473 5.384-2.483-5.384h-1.188l3.072 6.672-2.637 5.742-5.719-12.414h-1.19l6.211 13.476h1.382l2.551-5.523 2.54 5.523h1.391l6.212-13.476h-1.186zm3.12 13.476h1.082v-13.476h-1.078l-.004 13.476zm-62.068-12.431h5.072a3.588 3.588 0 012.436.885 2.684 2.684 0 011.015 2.109 2.737 2.737 0 01-1.015 2.128 3.639 3.639 0 01-2.436.864h-5.072v-5.986zm-.541-1.053v.008h-.541v13.476h1.082v-5.393h5.072a4.614 4.614 0 003.2-1.186 3.728 3.728 0 000-5.72 4.613 4.613 0 00-3.2-1.185h-5.613zm80.182-.01v5.195a1.94 1.94 0 00-.7.479 4.383 4.383 0 00-.735 1.12l.994.431c.117-.253.267-.49.446-.704v6.972h8.726v-1.053h-7.64v-6.315c.213.026.423.072.627.14.341.145.683.293 1.026.443.37.19.75.357 1.14.5.439.163.903.245 1.371.245.364.003.725-.065 1.063-.201.296-.121.573-.286.821-.489.233-.195.447-.413.638-.65.18-.233.347-.457.5-.678l-.907-.583a9.686 9.686 0 01-.455.612 3.936 3.936 0 01-.483.5 1.986 1.986 0 01-.541.312 2.099 2.099 0 01-1.623-.057 9.258 9.258 0 01-1.044-.451 18.328 18.328 0 00-1.112-.471 3.704 3.704 0 00-1.022-.235v-4.009h7.641v-1.053h-8.731zm-120.64 1.966a6.634 6.634 0 000 9.552 6.787 6.787 0 004.907 1.976 6.882 6.882 0 003.4-.876 6.791 6.791 0 002.472-2.3h-1.321a5.775 5.775 0 01-1.99 1.542 5.783 5.783 0 01-2.561.585 5.69 5.69 0 01-4.136-1.681 5.568 5.568 0 01-1.718-4.027 5.584 5.584 0 011.718-4.026 5.711 5.711 0 014.135-1.667 5.925 5.925 0 012.565.574c.77.364 1.45.894 1.99 1.551h1.31a6.812 6.812 0 00-2.462-2.299 6.927 6.927 0 00-3.4-.878 6.792 6.792 0 00-4.907 1.976m67.68 8.592a5.58 5.58 0 010-7.67 5.69 5.69 0 013.758-1.815v11.3a5.69 5.69 0 01-3.758-1.818m4.84-9.486a5.702 5.702 0 013.758 1.817 5.58 5.58 0 010 7.669 5.689 5.689 0 01-3.758 1.815v-11.301zm-1.082-1.807v.752a6.772 6.772 0 00-4.512 2.127 6.582 6.582 0 000 9.156 6.747 6.747 0 004.512 2.128v.753h1.081v-.753a6.792 6.792 0 004.521-2.128 6.59 6.59 0 000-9.146 6.784 6.784 0 00-4.521-2.135v-.752l-1.081-.002z" fill="#F8C541"/></svg>