<svg width="24" height="24" fill="none" xmlns="http://www.w3.org/2000/svg"><path fill-rule="evenodd" clip-rule="evenodd" d="M21.634 19.592c-.133.132-.293.302-.463.48-.424.45-.953 1.01-1.285 1.236-1.745 1.193-4.08.622-5.733-.066-2.179-.908-4.551-2.582-6.682-4.712-2.132-2.131-3.805-4.504-4.713-6.682-.688-1.653-1.26-3.989-.067-5.735.227-.332.787-.86 1.236-1.285.18-.17.348-.33.48-.462a1.258 1.258 0 011.776 0l3.212 3.211a1.258 1.258 0 010 1.775l-.875.873a1.912 1.912 0 00-.338 2.26 12.832 12.832 0 005.333 5.333 1.91 1.91 0 002.259-.339l.873-.873a1.258 1.258 0 011.775 0l3.212 3.212a1.258 1.258 0 010 1.774z" fill="#B3907A"/></svg>