<svg width="14" height="14" fill="none" xmlns="http://www.w3.org/2000/svg"><path fill-rule="evenodd" clip-rule="evenodd" d="M13.423 12.062c-.089.088-.196.201-.309.32-.282.3-.635.673-.856.824-1.164.796-2.721.415-3.822-.044-1.453-.605-3.035-1.721-4.455-3.142C2.56 8.6 1.444 7.019.84 5.567.38 4.464-.001 2.906.794 1.743c.151-.222.525-.574.824-.857.12-.113.232-.22.32-.308a.839.839 0 011.184 0L5.263 2.72a.839.839 0 010 1.183l-.583.582a1.274 1.274 0 00-.225 1.507A8.555 8.555 0 008.01 9.546a1.273 1.273 0 001.506-.226l.582-.582a.839.839 0 011.183 0l2.142 2.141a.838.838 0 010 1.183z" fill="#8F8F8F"/></svg>