<svg width="741" height="574" fill="none" xmlns="http://www.w3.org/2000/svg"><path d="M697.815 287c0 158.228-128.787 286.5-287.658 286.5C251.287 573.5 122.5 445.228 122.5 287S251.287.5 410.157.5C569.028.5 697.815 128.772 697.815 287z" stroke="#363636"/><path d="M532.979 287c0 67.557-54.987 122.326-122.822 122.326-67.834 0-122.821-54.769-122.821-122.326 0-67.557 54.987-122.326 122.821-122.326 67.835 0 122.822 54.769 122.822 122.326z" stroke="#363636"/><path d="M609.902 286.358c0 110.989-90.247 200.966-201.576 200.966s-201.577-89.977-201.577-200.966S296.997 85.392 408.326 85.392s201.576 89.977 201.576 200.966z" stroke="#363636"/><path d="M3 413.032h22.67a4.648 4.648 0 003.656-1.778l13.419-17.097a4.649 4.649 0 016.946-.416l31.036 31.072a4.65 4.65 0 003.29 1.364h32.665c.983 0 1.941-.312 2.736-.891l13.409-9.763a4.65 4.65 0 016.222.681l14.55 16.48a4.648 4.648 0 006.423.526l49.487-40.355a4.648 4.648 0 016.423.526l13.585 15.387c1.946 2.203 5.423 2.071 7.195-.275l20.438-27.057a4.647 4.647 0 012.485-1.682l32.203-8.793a4.645 4.645 0 003.172-2.975l14.277-41.579a4.65 4.65 0 012.806-2.859l23.285-8.476a4.646 4.646 0 002.542-2.24l8.738-16.965c1.698-3.298 6.385-3.376 8.192-.137l23.114 41.425a4.649 4.649 0 005.803 2.045l34.733-14.05a4.648 4.648 0 002.716-2.997l25.195-85.606a4.648 4.648 0 015.556-3.205l19.378 4.703a4.648 4.648 0 005.131-2.209l18.254-31.897a4.648 4.648 0 016.771-1.449l9.473 6.897a4.65 4.65 0 006.87-1.629l1.005-1.952c1.542-2.994 5.656-3.406 7.761-.778l21.608 26.97c2.336 2.916 6.984 2.025 8.074-1.549l22.962-75.235a4.65 4.65 0 016.372-2.874l28.335 12.894a4.649 4.649 0 005.226-.957l25.693-25.902a4.649 4.649 0 013.3-1.375h37.423a4.648 4.648 0 014.473 3.384l12.15 42.966c1.07 3.786 6.068 4.613 8.301 1.373l23.832-34.579" stroke="#fff" stroke-width="4.649" stroke-linecap="round"/><path d="M28.206 415.032H0v47.064a2.325 2.325 0 002.324 2.325h735.522a2.325 2.325 0 002.325-2.325V152.144l-31.028 39.158c-1.177 1.486-3.542 1.013-4.058-.811l-14.082-49.799a2.324 2.324 0 00-2.236-1.692h-40.149c-.62 0-1.214.247-1.651.687l-27.514 27.739a2.327 2.327 0 01-2.613.479l-32.22-14.663a2.325 2.325 0 00-3.186 1.437l-25.021 81.98c-.545 1.787-2.869 2.233-4.037.775l-26.601-33.202c-1.052-1.314-3.109-1.108-3.88.389l-3.888 7.548a2.324 2.324 0 01-3.434.815l-13.763-10.021a2.325 2.325 0 00-3.386.724l-20.41 35.666a2.324 2.324 0 01-2.565 1.104l-23.229-5.638a2.324 2.324 0 00-2.778 1.603l-26.137 88.808a2.326 2.326 0 01-1.359 1.499l-37.676 15.24a2.325 2.325 0 01-2.901-1.022l-26.225-47.002c-.903-1.619-3.247-1.58-4.096.069l-11.139 21.627c-.268.52-.722.92-1.271 1.12l-25.182 9.167a2.324 2.324 0 00-1.403 1.429l-15.037 43.793a2.323 2.323 0 01-1.586 1.487l-34.154 9.326a2.324 2.324 0 00-1.243.841l-22.63 29.959a2.325 2.325 0 01-3.597.137l-17.091-19.357a2.324 2.324 0 00-3.022-.401l-53.412 35.228a2.324 2.324 0 01-2.612-.035l-17.656-12.352a2.324 2.324 0 00-2.7.026l-16.101 11.723a2.325 2.325 0 01-1.368.445H84.458a2.322 2.322 0 01-1.644-.682l-33.571-33.609a2.324 2.324 0 00-3.473.207l-15.736 20.05a2.325 2.325 0 01-1.828.889z" fill="url(#paint0_linear_232_24)"/><defs><linearGradient id="paint0_linear_232_24" x1="370" y1="61.5" x2="482" y2="388.5" gradientUnits="userSpaceOnUse"><stop offset=".024" stop-color="#2D32FF"/><stop offset="1" stop-opacity="0"/></linearGradient></defs></svg>