<svg width="38" height="38" fill="none" xmlns="http://www.w3.org/2000/svg"><path d="M26.606.25H10.893C4.07.25 0 4.319 0 11.144v15.694C0 33.682 4.069 37.75 10.894 37.75h15.694c6.825 0 10.894-4.069 10.894-10.894V11.144C37.5 4.319 33.43.25 26.606.25z" fill="url(#paint0_linear_1_601)"/><path d="M23.19 9.25h-8.38C11.17 9.25 9 11.42 9 15.06v8.37c0 3.65 2.17 5.82 5.81 5.82h8.37c3.64 0 5.81-2.17 5.81-5.81v-8.38c.01-3.64-2.16-5.81-5.8-5.81zm-6.28 14.19a1.165 1.165 0 11-2.33 0v-3.26a1.165 1.165 0 112.33 0v3.26zm6.51 0a1.165 1.165 0 11-2.33 0v-8.38a1.165 1.165 0 112.33 0v8.38z" fill="#02081E"/><defs><linearGradient id="paint0_linear_1_601" x1="0" y1=".25" x2="35.776" y2="37.733" gradientUnits="userSpaceOnUse"><stop stop-color="#16B8EE"/><stop offset="1" stop-color="#A336F7"/></linearGradient></defs></svg>