<svg width="38" height="38" fill="none" xmlns="http://www.w3.org/2000/svg"><path d="M26.606.25H10.893C4.07.25 0 4.319 0 11.144v15.694C0 33.682 4.069 37.75 10.894 37.75h15.694c6.825 0 10.894-4.069 10.894-10.894V11.144C37.5 4.319 33.43.25 26.606.25z" fill="url(#paint0_linear_1_589)"/><path d="M28 22.25a7 7 0 01-7 7l1.05-1.75M8 16.25a7 7 0 017-7L13.95 11" stroke="#02081E" stroke-width="1.5" stroke-linecap="round" stroke-linejoin="round"/><path d="M28 11.45v.11a.5.5 0 01-.5.5h-9a.5.5 0 01-.5-.5v-.11c0-1.76.44-2.2 2.22-2.2h5.56c1.78 0 2.22.44 2.22 2.2zm-9.5 1.61a.5.5 0 00-.5.5v1.99c0 1.76.44 2.2 2.22 2.2h5.56c1.78 0 2.22-.44 2.22-2.2v-1.99a.5.5 0 00-.5-.5h-9zm-.5 9.89v.11a.5.5 0 01-.5.5h-9a.5.5 0 01-.5-.5v-.11c0-1.76.44-2.2 2.22-2.2h5.56c1.78 0 2.22.44 2.22 2.2zm-9.5 1.61a.5.5 0 00-.5.5v1.99c0 1.76.44 2.2 2.22 2.2h5.56c1.78 0 2.22-.44 2.22-2.2v-1.99a.5.5 0 00-.5-.5h-9z" fill="#02081E"/><defs><linearGradient id="paint0_linear_1_589" x1="0" y1=".25" x2="35.776" y2="37.733" gradientUnits="userSpaceOnUse"><stop stop-color="#16B8EE"/><stop offset="1" stop-color="#A336F7"/></linearGradient></defs></svg>