<svg width="13" height="13" fill="none" xmlns="http://www.w3.org/2000/svg"><path d="M6.25 12.543a6.25 6.25 0 116.25-6.25 6.26 6.26 0 01-6.25 6.25zm-.469-3.75a.469.469 0 00.938 0V5.668a.469.469 0 00-.937 0l-.001 3.125zm1.044-5.237a.645.645 0 00-.131-.206.722.722 0 00-.206-.13.589.589 0 00-.475 0 .722.722 0 00-.206.13c-.056.06-.1.13-.131.206a.59.59 0 000 .475.722.722 0 00.131.206c.06.056.13.1.206.131a.625.625 0 00.475 0 .722.722 0 00.206-.13.7.7 0 00.131-.207.589.589 0 000-.475z" fill="#404554"/></svg>