<svg width="293" height="17" fill="none" xmlns="http://www.w3.org/2000/svg"><path d="M22.777 17H.57a.398.398 0 01-.293-.117.45.45 0 01-.035-.527l3.235-4.618c.18-.234.402-.351.668-.351h7.418c.117 0 .21.043.28.129a.384.384 0 01.118.28.452.452 0 01-.07.235l-2.004 2.871a.188.188 0 00-.047.118c0 .046.02.093.058.14.04.04.09.059.153.059h8.988c.18 0 .328-.078.445-.235l.985-1.406a.548.548 0 00.105-.316c0-.188-.097-.344-.293-.469L12.5 8.574 8.55 6.22c-.265-.196-.398-.43-.398-.703 0-.157.047-.309.141-.457l1.184-1.69c.733-1.038 1.628-1.83 2.683-2.378C13.215.438 14.375.16 15.64.16h22.208a.38.38 0 01.293.13.383.383 0 01.035.515l-1.23 1.757c-.735 1.04-1.63 1.836-2.684 2.391-1.055.547-2.215.82-3.48.82h-3.927a.397.397 0 01-.293-.117.45.45 0 01-.035-.527l2.016-2.871a.172.172 0 00.035-.106.192.192 0 00-.058-.14.189.189 0 00-.153-.07H19.38c-.172 0-.32.078-.445.234l-.985 1.406a.577.577 0 00-.094.305c0 .195.094.355.282.48l7.781 4.207 3.96 2.367c.259.188.388.418.388.692 0 .164-.047.32-.141.469l-1.184 1.687c-.734 1.04-1.628 1.836-2.683 2.39-1.055.548-2.215.821-3.48.821zm16.242 0h-7.417a.398.398 0 01-.293-.117.45.45 0 01-.036-.527L42.371.511c.18-.235.402-.352.668-.352h25.7a.34.34 0 01.28.13.383.383 0 01.118.28.452.452 0 01-.07.235l-5.063 7.23c-.735 1.04-1.629 1.836-2.684 2.39-1.054.548-2.215.821-3.48.821H46.426a.398.398 0 01-.41-.41c0-.07.023-.145.07-.223l.2-.304c.148-.235.296-.434.444-.598a.775.775 0 01.586-.246h6.645a.801.801 0 00.668-.34l4.805-6.867a.172.172 0 00.035-.106.192.192 0 00-.059-.14.19.19 0 00-.152-.07h-8.989c-.171 0-.32.078-.445.234L39.688 16.648a.774.774 0 01-.669.352zm45.024 0H70.508c-.266 0-.489-.117-.668-.352l-3.34-4.793a.817.817 0 01-.152-.468c0-.157.05-.313.152-.469l5.273-7.535c.735-1.047 1.63-1.844 2.684-2.39 1.055-.548 2.215-.821 3.48-.821H95.47a.38.38 0 01.293.129.384.384 0 01.117.281.42.42 0 01-.094.246 1.912 1.912 0 00-.164.27 3.64 3.64 0 01-.457.609.776.776 0 01-.586.246H81.816c-.265 0-.488.117-.668.352l-3.574 5.097a.172.172 0 00-.035.106c.031.133.094.199.188.199h10.3c.117 0 .211.043.282.129a.358.358 0 01.117.258.476.476 0 01-.094.258 4.513 4.513 0 01-.188.293c-.14.242-.285.44-.433.597a.757.757 0 01-.574.235H76.543c-.266 0-.488.117-.668.351l-.879 1.266a.485.485 0 00-.094.293c0 .117.032.222.094.316l2.309 3.281a.526.526 0 00.433.235h7.184a.38.38 0 01.293.129.423.423 0 01.117.293c0 .07-.027.148-.082.234a7.67 7.67 0 01-.188.281 3.4 3.4 0 01-.445.598.739.739 0 01-.574.246zm30.269 0H96.125c-.266 0-.488-.117-.668-.352l-3.351-4.793a.817.817 0 01-.153-.468.8.8 0 01.153-.457l5.285-7.547c.734-1.04 1.625-1.832 2.671-2.38 1.055-.554 2.215-.831 3.481-.831h22.195a.38.38 0 01.293.129.424.424 0 01.117.293c0 .07-.023.144-.07.222l-1.242 1.758c-.734 1.04-1.629 1.836-2.684 2.39-1.047.548-2.203.821-3.468.821h-3.926a.398.398 0 01-.293-.117.452.452 0 01-.106-.293.45.45 0 01.071-.234l2.004-2.871a.23.23 0 00.035-.118.18.18 0 00-.059-.129.157.157 0 00-.14-.07h-8.848a.79.79 0 00-.656.34l-6.153 8.789a.534.534 0 00-.105.305c0 .11.035.215.105.316l2.297 3.293a.566.566 0 00.445.223h11.848c.156 0 .277.074.363.222a.407.407 0 01.047.188.405.405 0 01-.082.234l-.551.785a.773.773 0 01-.668.352zm12.411 0h-7.418a.398.398 0 01-.293-.117.447.447 0 01-.035-.527L130.074.511a.774.774 0 01.668-.352h7.406c.125 0 .223.043.293.13a.381.381 0 01.118.28.452.452 0 01-.071.235l-11.097 15.843a.794.794 0 01-.668.352zm30.972 0h-7.418c-.148 0-.269-.074-.363-.223a.35.35 0 01-.047-.175c0-.086.028-.168.082-.247l1.957-2.8a.168.168 0 00.035-.106.227.227 0 00-.023-.105c-.031-.07-.09-.106-.176-.106h-7.804a.808.808 0 00-.575.235l-3.281 3.293a.78.78 0 01-.574.234h-7.301c-.172 0-.297-.082-.375-.246a.421.421 0 01-.035-.164c0-.11.039-.203.117-.281l13.934-13.934c1.476-1.469 3.25-2.203 5.32-2.203h17.953c.117 0 .211.043.281.129a.385.385 0 01.118.281.452.452 0 01-.071.234l-11.097 15.832a.764.764 0 01-.657.352zm-4.605-5.543a.516.516 0 00.445-.234l6.281-8.953a.169.169 0 00.036-.106.192.192 0 00-.059-.14.189.189 0 00-.152-.07h-4.418a.808.808 0 00-.575.234l-8.918 8.93a.191.191 0 00-.058.14c0 .031.004.058.012.082.046.078.109.117.187.117h7.219zM184.672 17h-21.035a.398.398 0 01-.41-.41c0-.078.027-.156.082-.235L174.406.512a.774.774 0 01.668-.352h7.406c.118 0 .215.043.293.13a.42.42 0 01.118.292c0 .07-.024.145-.071.223l-9.879 14.097a.174.174 0 00-.035.106c0 .055.02.105.059.152.039.04.09.059.152.059h12.445c.118 0 .215.043.293.129a.42.42 0 01.118.293c0 .07-.024.144-.071.222l-.562.785a.774.774 0 01-.668.352zm10.371 0h-7.418a.398.398 0 01-.293-.117.451.451 0 01-.035-.527L198.395.511a.773.773 0 01.667-.352h7.407c.125 0 .222.043.293.13a.384.384 0 01.117.28.46.46 0 01-.07.235l-11.098 15.843a.794.794 0 01-.668.352zm30.715 0h-23.332a.745.745 0 01-.551-.21 2.785 2.785 0 01-.398-.517l-.176-.257a.862.862 0 01-.141-.47c0-.28.137-.515.41-.702l21.68-12.528c.07-.046.105-.105.105-.175a.179.179 0 00-.058-.13.16.16 0 00-.141-.07h-12.234a.398.398 0 01-.41-.41c0-.078.031-.16.093-.246l.188-.281c.141-.234.285-.434.434-.598a.774.774 0 01.585-.246h25.372c.117 0 .214.043.293.13a.424.424 0 01.117.292c0 .07-.028.148-.082.234l-.2.293c-.312.477-.546.762-.703.856l-22.3 12.879c-.071.047-.106.101-.106.164 0 .055.02.105.059.152.039.04.09.059.152.059h12.234c.118 0 .211.043.282.129a.384.384 0 01.117.28.46.46 0 01-.07.235l-.223.328a3.535 3.535 0 01-.434.575.718.718 0 01-.562.234zm26.449 0h-13.535c-.266 0-.488-.117-.668-.352l-3.34-4.793a.814.814 0 01-.152-.468.85.85 0 01.152-.469l5.274-7.535c.734-1.047 1.628-1.844 2.683-2.39 1.055-.548 2.215-.821 3.481-.821h17.531a.38.38 0 01.293.129.384.384 0 01.117.281.42.42 0 01-.094.246 1.97 1.97 0 00-.164.27 3.629 3.629 0 01-.457.609.774.774 0 01-.586.246H249.98c-.265 0-.488.117-.668.352l-3.574 5.097a.174.174 0 00-.035.106c.031.133.094.199.188.199h10.3c.118 0 .211.043.282.129a.359.359 0 01.117.258.472.472 0 01-.094.258 4.767 4.767 0 01-.187.293 3.234 3.234 0 01-.434.597.756.756 0 01-.574.235h-10.594c-.266 0-.488.117-.668.351l-.879 1.266a.489.489 0 00-.094.293c0 .117.032.222.094.316l2.309 3.281a.524.524 0 00.433.235h7.184a.38.38 0 01.293.129.424.424 0 01.117.293c0 .07-.027.148-.082.234-.055.086-.117.18-.187.281a3.382 3.382 0 01-.446.598.738.738 0 01-.574.246zm27 0h-22.195a.398.398 0 01-.41-.41c0-.078.027-.156.082-.235L267.77.523c.179-.234.402-.351.668-.351h21.21c.274 0 .497.117.668.351l1.84 2.637c.102.149.153.3.153.457 0 .164-.051.32-.153.469l-6.785 9.703c-.734 1.04-1.629 1.836-2.683 2.39-1.055.548-2.215.821-3.481.821zm-3.879-1.781a.8.8 0 00.668-.34l7.652-10.945a.544.544 0 00.106-.317.528.528 0 00-.106-.304l-.785-1.137a.524.524 0 00-.445-.223h-6.75a.522.522 0 00-.445.223l-8.907 12.726a.174.174 0 00-.035.106c0 .039.008.074.024.105.047.07.105.106.175.106h8.848z" fill="#fff"/></svg>