<svg width="832" height="39" fill="none" xmlns="http://www.w3.org/2000/svg"><path d="M52.49 39H1.599a.91.91 0 01-.672-.269 1.031 1.031 0 01-.241-.67c0-.18.053-.359.16-.538L8.26 26.942c.412-.537.922-.806 1.53-.806h17a.79.79 0 01.645.296.88.88 0 01.268.644c0 .18-.054.358-.161.537l-4.592 6.58a.43.43 0 00-.108.268c0 .108.045.215.135.323.09.09.206.134.349.134h20.598c.412 0 .752-.18 1.02-.537l2.256-3.223c.161-.233.242-.474.242-.725 0-.43-.224-.788-.672-1.074L28.939 19.69l-9.05-5.398c-.61-.448-.914-.985-.914-1.611 0-.358.107-.708.322-1.048l2.713-3.867c1.683-2.381 3.733-4.198 6.15-5.452C30.576 1.045 33.234.41 36.135.41h50.89a.87.87 0 01.672.295.88.88 0 01.269.645.932.932 0 01-.188.537l-2.82 4.028c-1.683 2.381-3.733 4.207-6.15 5.479-2.417 1.253-5.076 1.88-7.976 1.88h-8.997a.91.91 0 01-.67-.27 1.03 1.03 0 01-.243-.67c0-.18.054-.359.162-.538l4.619-6.58a.393.393 0 00.08-.24.44.44 0 00-.134-.323.433.433 0 00-.35-.161H44.703c-.394 0-.734.179-1.02.537L41.424 8.25a1.323 1.323 0 00-.215.699c0 .447.215.814.645 1.1l17.832 9.642 9.077 5.425c.591.43.886.958.886 1.584 0 .376-.107.734-.322 1.074l-2.712 3.868c-1.683 2.38-3.733 4.207-6.15 5.478C58.049 38.373 55.39 39 52.49 39zm53.335 0h-17a.91.91 0 01-.671-.269 1.031 1.031 0 01-.242-.67c0-.18.054-.359.161-.538l25.432-36.309c.412-.537.922-.805 1.531-.805h58.894a.79.79 0 01.645.295.879.879 0 01.268.645c0 .179-.053.358-.161.537l-11.601 16.57c-1.683 2.38-3.733 4.207-6.15 5.478-2.417 1.253-5.076 1.88-7.976 1.88h-26.158a.911.911 0 01-.671-.269.971.971 0 01-.269-.671c0-.161.054-.331.162-.51l.456-.698c.34-.538.68-.994 1.021-1.37a1.776 1.776 0 011.342-.564h15.227c.627 0 1.137-.26 1.531-.779l11.011-15.737a.391.391 0 00.081-.242.438.438 0 00-.135-.322.432.432 0 00-.349-.161h-20.598c-.394 0-.734.179-1.021.537l-23.23 33.166c-.376.537-.886.806-1.53.806zm119.292 0h-31.018c-.609 0-1.119-.269-1.531-.806l-7.654-10.984a1.87 1.87 0 01-.349-1.074c0-.358.116-.716.349-1.074l12.085-17.268c1.683-2.4 3.733-4.225 6.15-5.479 2.417-1.253 5.076-1.88 7.976-1.88h40.176a.87.87 0 01.671.296.88.88 0 01.269.644c0 .18-.072.368-.215.564a4.359 4.359 0 00-.376.618 8.333 8.333 0 01-1.047 1.397 1.78 1.78 0 01-1.343.564h-29.246c-.609 0-1.119.268-1.531.805l-8.191 11.682a.397.397 0 00-.08.242c.072.304.215.457.43.457h23.606a.79.79 0 01.644.295c.179.18.269.376.269.59 0 .18-.072.377-.215.592-.126.214-.269.438-.43.671-.322.555-.653 1.012-.994 1.37-.34.358-.778.537-1.315.537h-24.278c-.609 0-1.119.268-1.531.805l-2.014 2.9a1.12 1.12 0 00-.215.672c0 .269.072.51.215.725l5.291 7.52c.268.358.6.537.993.537h16.463a.87.87 0 01.671.295.972.972 0 01.269.672c0 .16-.063.34-.188.537a20.62 20.62 0 01-.43.644 7.773 7.773 0 01-1.02 1.37c-.341.376-.779.564-1.316.564zm85.481 0h-41.68c-.609 0-1.119-.269-1.531-.806l-7.68-10.984a1.871 1.871 0 01-.35-1.074c0-.358.117-.707.35-1.047l12.111-17.295c1.683-2.381 3.724-4.198 6.123-5.452 2.417-1.27 5.076-1.906 7.976-1.906h50.865a.87.87 0 01.671.295.97.97 0 01.269.671 1 1 0 01-.161.51l-2.847 4.029c-1.683 2.381-3.733 4.207-6.15 5.478-2.399 1.254-5.049 1.88-7.949 1.88h-8.997a.911.911 0 01-.671-.268 1.033 1.033 0 01-.242-.672c0-.179.054-.358.161-.537l4.592-6.58a.516.516 0 00.081-.268.412.412 0 00-.134-.295.362.362 0 00-.322-.161h-20.276c-.609 0-1.11.26-1.504.778l-14.099 20.142a1.215 1.215 0 00-.242.698c0 .25.08.493.242.725l5.263 7.547c.287.34.627.51 1.021.51h27.151c.358 0 .635.17.832.51a.95.95 0 01.108.43.934.934 0 01-.188.537l-1.263 1.8c-.376.536-.886.805-1.53.805zm44.553 0h-17a.91.91 0 01-.671-.269 1.032 1.032 0 01-.242-.67c0-.18.054-.359.161-.538l25.433-36.309c.376-.537.886-.805 1.53-.805h16.973c.286 0 .51.098.671.295a.88.88 0 01.269.645c0 .179-.054.358-.161.537l-25.432 36.308c-.394.537-.904.806-1.531.806zm87.092 0h-16.999c-.341 0-.618-.17-.833-.51a.805.805 0 01-.107-.403c0-.197.062-.385.188-.564l4.485-6.419a.397.397 0 00.08-.241.53.53 0 00-.054-.242c-.071-.161-.205-.242-.402-.242h-17.886c-.501 0-.94.18-1.316.537l-7.52 7.547a1.788 1.788 0 01-1.316.537h-16.73c-.394 0-.681-.188-.86-.564a.942.942 0 01-.08-.376c0-.25.089-.465.268-.645l31.931-31.93c3.384-3.367 7.448-5.05 12.193-5.05h41.142a.79.79 0 01.645.296.879.879 0 01.268.644c0 .18-.053.359-.161.538l-25.432 36.281c-.376.537-.877.806-1.504.806zm-10.554-12.703c.43 0 .77-.179 1.02-.537l14.395-20.517a.391.391 0 00.081-.242.438.438 0 00-.135-.322.432.432 0 00-.349-.161h-10.124c-.502 0-.94.179-1.316.537l-20.437 20.464a.438.438 0 00-.135.322c0 .071.009.134.027.188.108.179.251.268.43.268h16.543zM520.178 39h-48.206a.91.91 0 01-.671-.269.971.971 0 01-.269-.67c0-.18.063-.359.188-.538l25.432-36.309c.376-.537.887-.805 1.531-.805h16.973a.87.87 0 01.671.295.97.97 0 01.269.671 1 1 0 01-.161.51l-22.64 32.308a.397.397 0 00-.08.242c0 .125.045.241.134.349.09.09.206.134.349.134h28.521a.87.87 0 01.671.295.972.972 0 01.269.672 1 1 0 01-.161.51l-1.29 1.8c-.375.536-.886.805-1.53.805zm39.88 0h-16.999a.911.911 0 01-.672-.269 1.031 1.031 0 01-.241-.67c0-.18.053-.359.161-.538l25.432-36.309c.376-.537.886-.805 1.531-.805h16.972c.287 0 .51.098.672.295a.879.879 0 01.268.645c0 .179-.054.358-.161.537l-25.432 36.308c-.394.537-.904.806-1.531.806zm86.502 0h-53.47c-.519 0-.94-.161-1.262-.483a6.413 6.413 0 01-.913-1.182l-.403-.59a1.978 1.978 0 01-.322-1.075c0-.645.313-1.182.94-1.611L640.812 5.35c.162-.107.242-.242.242-.403a.412.412 0 00-.134-.295.362.362 0 00-.322-.161h-28.037a.912.912 0 01-.672-.269.97.97 0 01-.268-.671c0-.18.071-.367.214-.564l.43-.645c.322-.537.654-.993.994-1.37a1.777 1.777 0 011.343-.563h58.142a.87.87 0 01.671.295.97.97 0 01.269.671c0 .162-.063.34-.188.538-.126.179-.278.402-.457.671-.716 1.092-1.253 1.746-1.611 1.96L620.322 34.06c-.161.107-.242.232-.242.376 0 .125.045.241.134.349.09.09.206.134.349.134h28.038a.79.79 0 01.644.295.88.88 0 01.269.645c0 .179-.054.358-.161.537l-.511.752a8.09 8.09 0 01-.993 1.316c-.323.358-.752.537-1.289.537zm76.726 0h-31.018c-.609 0-1.119-.269-1.531-.806l-7.654-10.984a1.87 1.87 0 01-.349-1.074c0-.358.116-.716.349-1.074l12.085-17.268c1.683-2.4 3.733-4.225 6.15-5.479 2.417-1.253 5.076-1.88 7.976-1.88h40.176a.87.87 0 01.671.296.88.88 0 01.269.644c0 .18-.072.368-.215.564a4.359 4.359 0 00-.376.618 8.28 8.28 0 01-1.048 1.397 1.776 1.776 0 01-1.342.564h-29.246c-.609 0-1.119.268-1.531.805l-8.191 11.682a.397.397 0 00-.08.242c.071.304.215.457.43.457h23.606a.79.79 0 01.644.295c.179.18.269.376.269.59 0 .18-.072.377-.215.592-.126.214-.269.438-.43.671-.322.555-.653 1.012-.994 1.37-.34.358-.778.537-1.316.537h-24.277c-.609 0-1.119.268-1.531.805l-2.014 2.9a1.12 1.12 0 00-.215.672c0 .269.072.51.215.725l5.291 7.52c.268.358.6.537.993.537H725.3a.87.87 0 01.671.295.972.972 0 01.269.672c0 .16-.063.34-.188.537a20.62 20.62 0 01-.43.644 7.773 7.773 0 01-1.02 1.37c-.341.376-.779.564-1.316.564zm77.988 0H750.41a.911.911 0 01-.672-.269.97.97 0 01-.268-.67c0-.18.062-.359.188-.538L775.063 1.24c.412-.537.922-.805 1.531-.805h48.608c.627 0 1.137.268 1.531.805l4.216 6.043c.233.34.349.689.349 1.047 0 .376-.116.734-.349 1.074L815.4 31.642c-1.683 2.38-3.733 4.207-6.15 5.478-2.417 1.253-5.076 1.88-7.976 1.88zm-8.889-4.082c.626 0 1.137-.26 1.531-.779l17.536-25.083c.161-.233.242-.474.242-.725 0-.233-.081-.465-.242-.698l-1.799-2.605a1.202 1.202 0 00-1.021-.51h-15.468c-.43 0-.77.17-1.021.51l-20.41 29.165a.391.391 0 00-.081.242c0 .09.018.17.054.241.107.161.242.242.403.242h20.276z" fill="#fff"/></svg>