<svg width="40" height="40" fill="none" xmlns="http://www.w3.org/2000/svg"><path d="M20 10.164c3.203 0 3.583.012 4.848.07 1.17.053 1.806.248 2.228.413.56.217.96.477 1.38.897.42.42.68.82.898 1.38.164.423.36 1.058.413 2.228.058 1.265.07 1.645.07 4.849s-.012 3.583-.07 4.849c-.054 1.17-.25 1.805-.413 2.228-.218.56-.478.96-.898 1.38-.42.42-.82.68-1.38.897-.422.164-1.058.36-2.228.413-1.265.058-1.644.07-4.849.07-3.204 0-3.583-.012-4.848-.07-1.17-.053-1.806-.249-2.229-.413a3.718 3.718 0 01-1.38-.898 3.71 3.71 0 01-.897-1.38c-.164-.422-.36-1.058-.413-2.227-.058-1.266-.07-1.645-.07-4.85 0-3.203.012-3.583.07-4.848.053-1.17.249-1.805.413-2.228.218-.56.478-.96.898-1.38.42-.42.82-.68 1.38-.897.422-.165 1.058-.36 2.228-.414 1.265-.057 1.644-.07 4.848-.07zM20 8c-3.26 0-3.668.014-4.948.073-1.277.058-2.15.26-2.913.557a5.883 5.883 0 00-2.125 1.384A5.88 5.88 0 008.63 12.14c-.297.763-.5 1.635-.558 2.912-.058 1.282-.072 1.69-.072 4.95 0 3.259.014 3.667.072 4.947.058 1.277.261 2.15.558 2.913a5.88 5.88 0 001.384 2.125 5.881 5.881 0 002.125 1.384c.764.297 1.636.5 2.913.558 1.28.058 1.689.072 4.947.072 3.26 0 3.668-.014 4.948-.072 1.277-.058 2.15-.261 2.912-.558a5.88 5.88 0 002.126-1.384 5.883 5.883 0 001.384-2.125c.297-.763.5-1.636.558-2.913.058-1.28.072-1.688.072-4.947 0-3.259-.014-3.668-.072-4.948-.059-1.277-.261-2.149-.558-2.912a5.883 5.883 0 00-1.384-2.126 5.882 5.882 0 00-2.126-1.384c-.763-.296-1.635-.5-2.912-.557-1.28-.06-1.689-.075-4.948-.075z" fill="#fff"/><path d="M20.002 13.85a6.162 6.162 0 100 12.324 6.162 6.162 0 000-12.323zm0 10.162a4 4 0 110-8 4 4 0 010 8zm7.85-10.41a1.44 1.44 0 11-2.88 0 1.44 1.44 0 012.88 0z" fill="#fff"/></svg>