<svg width="40" height="40" fill="none" xmlns="http://www.w3.org/2000/svg"><path fill-rule="evenodd" clip-rule="evenodd" d="M8.19 25.356c.059 0 .108-.047.116-.112l.31-2.427-.31-2.482c-.01-.066-.057-.11-.115-.11-.06 0-.109.046-.116.111l-.274 2.48.274 2.427c.008.066.056.113.116.113zm-1.03-.923c.057 0 .103-.044.112-.107l.241-1.51-.241-1.534c-.009-.064-.054-.108-.112-.108s-.104.045-.112.108l-.204 1.535.204 1.509c.008.063.054.107.112.107zm2.265-4.56c-.009-.078-.067-.135-.14-.135a.142.142 0 00-.14.135l-.26 2.944.26 2.836c.007.08.067.136.14.136.073 0 .131-.056.14-.135l.296-2.837-.296-2.944zm.964 6.03a.167.167 0 00.164-.158l.278-2.926-.278-3.026a.168.168 0 00-.164-.16.166.166 0 00-.163.16l-.245 3.026.245 2.926c.007.09.077.158.163.158zm1.113.048c.1 0 .18-.078.188-.182l.263-2.95-.264-2.807a.19.19 0 00-.187-.182.19.19 0 00-.187.183l-.231 2.806.231 2.95a.188.188 0 00.187.182zm1.58-3.131l-.246-4.566a.216.216 0 00-.21-.207.213.213 0 00-.211.207l-.218 4.566.218 2.95a.214.214 0 00.21.207.213.213 0 00.21-.208v.002l.246-2.951zm.673 3.161a.238.238 0 00.235-.23v.002l.23-2.932-.23-5.61a.239.239 0 00-.235-.231.237.237 0 00-.235.23l-.204 5.61.204 2.932c.006.128.109.23.235.23zm1.14-9.492a.26.26 0 00-.26.254l-.189 6.078.19 2.901a.26.26 0 00.258.254c.14 0 .253-.112.259-.255v.002l.213-2.902-.213-6.078a.261.261 0 00-.259-.254zm1.148 9.492a.283.283 0 00.283-.278v.002l.197-2.884-.197-6.283a.282.282 0 00-.564 0l-.177 6.283.176 2.884a.28.28 0 00.282.276zm1.158-.003a.306.306 0 00.306-.302v.003l.182-2.858-.182-6.123a.306.306 0 00-.612 0l-.161 6.123.16 2.856c.004.17.14.301.307.301zm1.662-3.156l-.166-5.899a.33.33 0 00-.66 0l-.147 5.9.147 2.837a.33.33 0 00.66-.002v.002l.166-2.838zm.681 3.168c.19 0 .35-.157.352-.35v.003l.15-2.82-.15-7.02a.356.356 0 00-.352-.35.356.356 0 00-.354.35l-.134 7.018.134 2.822c.003.19.161.347.354.347zm1.17-11.195a.378.378 0 00-.377.373l-.155 7.656.155 2.778a.378.378 0 00.754-.002v.002l.168-2.778-.168-7.657a.378.378 0 00-.376-.372zm1.071 11.197l9.502.006c1.892 0 3.428-1.522 3.428-3.4 0-1.877-1.535-3.398-3.428-3.398-.47 0-.918.095-1.326.264-.272-3.064-2.863-5.466-6.023-5.466a6.18 6.18 0 00-2.193.406c-.26.1-.328.202-.33.4V25.59a.412.412 0 00.37.402z" fill="#fff"/></svg>