<svg width="40" height="40" fill="none" xmlns="http://www.w3.org/2000/svg"><path d="M21.071 5.376a15 15 0 1013.545 16.325A15.015 15.015 0 0021.071 5.376zm2.515 21.344a1.154 1.154 0 01-1.597.334 6.171 6.171 0 00-5.819-.542 1.153 1.153 0 01-.885-2.13 8.557 8.557 0 017.967.741 1.154 1.154 0 01.334 1.597zm2.672-3.807a1.154 1.154 0 01-1.598.33 11.115 11.115 0 00-10.409-.97 1.154 1.154 0 01-.891-2.128 13.414 13.414 0 0112.568 1.17 1.154 1.154 0 01.328 1.6l.002-.002zm2.671-3.807a1.154 1.154 0 01-1.599.327 15.953 15.953 0 00-15-1.395 1.155 1.155 0 01-.895-2.129 18.268 18.268 0 0117.167 1.598 1.155 1.155 0 01.326 1.601l.001-.002z" fill="#fff"/></svg>