<svg width="40" height="40" fill="none" xmlns="http://www.w3.org/2000/svg"><path fill-rule="evenodd" clip-rule="evenodd" d="M31.293 12.385c.399.4.686.896.834 1.441.849 3.417.652 8.814.016 12.363a3.231 3.231 0 01-2.274 2.274c-1.995.544-10.022.544-10.022.544s-8.028 0-10.022-.544A3.231 3.231 0 017.55 26.19c-.854-3.403-.62-8.803-.017-12.347a3.23 3.23 0 012.275-2.274c1.995-.544 10.022-.56 10.022-.56s8.028 0 10.022.543a3.23 3.23 0 011.44.834zm-7.358 7.622l-6.66 3.857V16.15l6.66 3.857z" fill="#fff"/></svg>