<svg width="23" height="23" fill="none" xmlns="http://www.w3.org/2000/svg"><path fill-rule="evenodd" clip-rule="evenodd" d="M13.143 4.929a4.929 4.929 0 11-9.857 0 4.929 4.929 0 019.857 0zm4.518 7.392a1.232 1.232 0 011.232 1.233v2.875h2.875a1.232 1.232 0 010 2.464h-2.875v2.875a1.233 1.233 0 01-2.464 0v-2.875h-2.875a1.233 1.233 0 010-2.464h2.875v-2.875a1.232 1.232 0 011.232-1.233zM8.214 11.5a8.196 8.196 0 016.161 2.781v.094h-.821a3.286 3.286 0 00-1.594 6.16H.821a.821.821 0 01-.821-.82A8.214 8.214 0 018.214 11.5z" fill="#fff"/></svg>