<svg width="19" height="21" fill="none" xmlns="http://www.w3.org/2000/svg"><path d="M16.59 4.143L10.65.713a3.163 3.163 0 00-3.15 0l-5.93 3.43A3.149 3.149 0 000 6.873v6.84a3.174 3.174 0 001.57 2.73l5.94 3.43a3.163 3.163 0 003.15 0l5.94-3.43a3.15 3.15 0 001.57-2.73v-6.84a3.192 3.192 0 00-1.58-2.73zm-8.26 1.9a.75.75 0 011.5 0v5.25a.75.75 0 11-1.5 0v-5.25zm1.67 8.88a1.13 1.13 0 01-.21.33.99.99 0 01-1.09.21 1.032 1.032 0 01-.33-.21 1.44 1.44 0 01-.22-.33.986.986 0 01-.07-.38c0-.265.103-.52.29-.71a1.06 1.06 0 01.33-.21 1 1 0 011.09.21c.09.096.162.208.21.33a.942.942 0 010 .76z" fill="#F1BB34"/></svg>