<svg width="90" height="83" fill="none" xmlns="http://www.w3.org/2000/svg"><path d="M.369 41.482V41.1c.016-.014.038-.025.046-.043a.82.82 0 01.724-.439c.603-.077 1.204-.172 1.806-.263.612-.093 1.229-.2 1.845-.284a5.087 5.087 0 001.496-.44 25.38 25.38 0 003.422-1.959 55.658 55.658 0 005.248-4.136c1.619-1.405 3.25-2.796 4.866-4.204.704-.612 1.4-1.235 2.073-1.882.7-.671 1.4-1.341 2.142-1.964a19.63 19.63 0 014.225-2.745c.876-.414 1.78-.766 2.672-1.146.637-.272 1.285-.523 1.908-.824a15.69 15.69 0 003.392-2.197 19.272 19.272 0 004.808-6.084c.348-.694.674-1.403.963-2.124.528-1.311 1.02-2.638 1.529-3.958A14.32 14.32 0 0145.01 3.48a6.62 6.62 0 011.784-1.793 6.969 6.969 0 013.17-1.125 12.208 12.208 0 012.564.013c.78.078 1.56.18 2.338.282 1.404.176 2.796.44 4.167.788 1.32.352 2.616.792 3.877 1.318a28.51 28.51 0 012.56 1.23c.53.283 1.04.605 1.524.962a21.05 21.05 0 012.564 2.284c.287.293.568.591.844.895.595.653 1.193 1.303 1.776 1.968.408.462.793.94 1.18 1.418.423.521.841 1.047 1.254 1.576.345.44.68.885 1.02 1.33.272.36.544.722.813 1.088.504.691 1.004 1.385 1.502 2.08a.359.359 0 00.381.162 9.38 9.38 0 01.675-.068c.476-.04.958-.074 1.437-.114.38-.032.76-.072 1.14-.105.423-.037.847-.068 1.269-.105.64-.058 1.28-.126 1.922-.181.472-.041.945-.062 1.417-.103.987-.085 1.973-.179 2.958-.267a.455.455 0 01.516.31c.013.033.028.065.043.097v.127a.563.563 0 01-.392.408c-.297.115-.59.238-.884.359l-2.415.987-2.18.89c-.637.259-1.274.512-1.91.77-.713.291-1.427.584-2.139.878-.154.064-.307.132-.503.217.102.059.157.098.219.127a894.667 894.667 0 003.788 1.768l1.844.866c.34.16.68.317 1.015.484a.455.455 0 01.23.52.419.419 0 01-.42.35 2.054 2.054 0 01-.318-.01c-.66-.074-1.32-.15-1.981-.23-.92-.107-1.84-.217-2.76-.322-.92-.106-1.842-.204-2.763-.31-.19-.02-.222 0-.26.184-.091.45-.18.902-.269 1.353-.184.965-.364 1.932-.55 2.897-.062.317-.069.31-.379.35a5.249 5.249 0 00-2.661 1.129 5.407 5.407 0 00-1.484 1.832 1.249 1.249 0 01-.792.656 1.272 1.272 0 01-.872-.044 27.429 27.429 0 01-.88-.369c-1.123-.488-2.244-.978-3.366-1.468-.169-.074-.176-.09-.144-.276.05-.293.106-.584.157-.877.187-1.051.372-2.103.557-3.154a.3.3 0 00-.016-.262c-.13.081-.253.161-.377.237-.623.378-1.247.754-1.869 1.134-.621.38-1.224.758-1.844 1.132a.304.304 0 00-.163.333c.048.357.09.715.136 1.073.107.835.217 1.67.322 2.504.16 1.29.32 2.583.476 3.876.056.457.11.913.167 1.369.09.743.183 1.487.277 2.23a.217.217 0 01-.143.253c-.068.028-.129.058-.194.086-.408.17-.825.34-1.235.512-.958.404-1.914.812-2.873 1.215a1856.273 1856.273 0 00-7.553 3.172c-.063.027-.13.042-.222.068a2.033 2.033 0 01-.036-.244c-.017-.877-.029-1.753-.044-2.63a265.79 265.79 0 00-.035-1.781c-.003-.171.013-.204.19-.25.33-.084.66-.16.991-.236 1.248-.287 2.496-.572 3.745-.857.234-.053.254-.087.21-.32l-.28-1.458c-.063-.32-.126-.638-.193-.957-.04-.187-.062-.204-.241-.176-.601.09-1.203.178-1.804.276-.65.105-1.295.226-1.945.33-1.306.21-2.613.412-3.919.621-.712.114-1.422.242-2.135.355-1.208.19-2.418.37-3.626.564-.816.13-1.632.282-2.448.415-1.096.177-2.194.343-3.29.518-.804.126-1.607.256-2.41.388-.97.159-1.938.333-2.91.476a1.31 1.31 0 00-.833.428c-.94 1.02-1.908 2.011-2.865 3.014-1.078 1.129-2.157 2.26-3.235 3.393a.623.623 0 01-.304.18c-.691.182-1.379.374-2.07.555-1.471.385-2.943.768-4.416 1.148-.247.065-.255.08-.265.33l-.08 1.905c-.058 1.35-.114 2.699-.17 4.048a.815.815 0 00.045.332c.25.616.5 1.232.77 1.836.277.62.578 1.228.869 1.842h-6.072c.007-.068.01-.14.021-.21.112-.712.226-1.424.34-2.136.155-.963.308-1.927.469-2.889.04-.229.022-.465-.052-.686-.374-1.142-.739-2.288-1.105-3.432-.196-.613-.384-1.229-.587-1.837a.415.415 0 01.076-.448c.106-.123.194-.261.288-.394.715-1.02 1.428-2.04 2.144-3.056.828-1.173 1.663-2.34 2.49-3.513.555-.785 1.101-1.577 1.651-2.366.136-.197.14-.199-.03-.37A9008.096 9008.096 0 0015.6 35.75c-.21-.21-.212-.209-.452-.04l-5.722 4.037-4.18 2.954a.52.52 0 01-.454.09c-1.202-.266-2.403-.533-3.608-.78a1.02 1.02 0 01-.8-.516c0-.007-.01-.01-.016-.015M11.05 73.207h3.45a2.433 2.433 0 011.65.594 1.837 1.837 0 010 2.88 2.433 2.433 0 01-1.65.595h-3.45v-4.07zm-.355-.717v.006h-.374v9.152h.73v-3.656h2.2l2.505 2.599a3.75 3.75 0 001.05.884c.492.123 1 .17 1.505.14v-.717a4.47 4.47 0 01-1.21-.095 3.161 3.161 0 01-.807-.698l-2.04-2.112h.249a3.15 3.15 0 002.176-.806 2.553 2.553 0 000-3.891 3.148 3.148 0 00-2.176-.806h-3.808zm65.94 0a2.933 2.933 0 00-2.018.703 2.309 2.309 0 00-.795 1.8 1.856 1.856 0 00.533 1.388c.643.515 1.46.76 2.28.686h1.99a2.06 2.06 0 011.465.562 1.847 1.847 0 01.604 1.396 1.757 1.757 0 01-.598 1.356 2.07 2.07 0 01-1.472.55H74.19v.718h4.434c.74.02 1.457-.251 1.998-.755a2.446 2.446 0 00.807-1.87 2.517 2.517 0 00-.816-1.904 2.788 2.788 0 00-1.99-.767h-1.99a2.512 2.512 0 01-1.735-.468 1.156 1.156 0 01-.34-.895 1.628 1.628 0 01.577-1.293 2.225 2.225 0 011.497-.5h4.428v-.709l-4.425.002zm-50.039-.007l-3.03 3.944-3.022-3.944h-.92l3.575 4.653v4.512h.736v-4.512l3.574-4.653h-.913zm10.808 0v.716h3.233v8.449h.737v-8.449h3.23v-.716h-7.2zm32.247 0l-3.89 8.442-1.8-3.905 2.089-4.537h-.808l-1.682 3.661-1.689-3.661h-.808l2.09 4.537-1.794 3.905-3.89-8.442h-.809l4.224 9.165h.94l1.735-3.757 1.728 3.757h.946l4.225-9.165h-.807zm2.122 9.165h.736v-9.165h-.733l-.003 9.165zm-42.214-8.455h3.45a2.437 2.437 0 011.657.602 1.823 1.823 0 01.69 1.435 1.86 1.86 0 01-.69 1.446 2.473 2.473 0 01-1.657.588h-3.45v-4.07zm-.368-.716v.006h-.368v9.165h.736V77.98h3.45a3.14 3.14 0 002.176-.807 2.537 2.537 0 000-3.89 3.138 3.138 0 00-2.176-.806H29.19zm54.534-.007v3.534a1.305 1.305 0 00-.476.325 2.982 2.982 0 00-.5.761l.676.294c.08-.172.181-.334.303-.48v4.743h5.935v-.717h-5.196v-4.294c.145.017.288.049.426.095.232.099.465.2.698.302.251.129.51.242.775.34.299.11.615.166.933.166.247.002.493-.044.723-.136.201-.083.39-.195.558-.333a3.18 3.18 0 00.434-.442 11 11 0 00.34-.461l-.617-.397c-.096.141-.2.28-.31.416a2.636 2.636 0 01-.328.34c-.11.09-.235.161-.368.212a1.428 1.428 0 01-1.103-.038 6.467 6.467 0 01-.71-.307c-.25-.116-.501-.221-.757-.32a2.516 2.516 0 00-.695-.16v-2.727h5.197v-.716h-5.938zm-82.05 1.337a4.514 4.514 0 000 6.497 4.626 4.626 0 003.337 1.344 4.694 4.694 0 002.313-.596 4.63 4.63 0 001.681-1.564h-.898c-.37.444-.831.802-1.354 1.049-.542.263-1.138.4-1.742.397A3.868 3.868 0 012.2 79.791a3.793 3.793 0 010-5.477 3.879 3.879 0 012.813-1.134c.603-.002 1.2.131 1.744.39a3.92 3.92 0 011.354 1.056H9a4.635 4.635 0 00-1.674-1.565 4.706 4.706 0 00-2.312-.596 4.625 4.625 0 00-3.338 1.344m46.031 5.843a3.793 3.793 0 010-5.216 3.873 3.873 0 012.556-1.235v7.685a3.865 3.865 0 01-2.556-1.236m3.292-6.451c.977.073 1.89.515 2.556 1.235a3.795 3.795 0 010 5.216 3.87 3.87 0 01-2.556 1.235v-7.686zm-.736-1.23v.512a4.603 4.603 0 00-3.069 1.447 4.475 4.475 0 000 6.227 4.589 4.589 0 003.069 1.447v.512h.735v-.512a4.617 4.617 0 003.075-1.447 4.482 4.482 0 000-6.22 4.612 4.612 0 00-3.075-1.452v-.512l-.735-.001z" fill="#F8C541"/></svg>