<svg width="38" height="39" fill="none" xmlns="http://www.w3.org/2000/svg"><path d="M26.99 38.11H11.297C4.477 38.11.403 34.03.403 27.197V11.504C.403 4.682 4.476.61 11.297.61H27.01a11.001 11.001 0 018.009 2.893 10.974 10.974 0 012.865 8v15.714c0 6.821-4.072 10.893-10.894 10.893zm-7.5-17c-5.013 0-9.09 3.364-9.09 7.5a.5.5 0 00.5.5h17.178a.5.5 0 00.5-.5c.005-4.137-4.075-7.5-9.085-7.5h-.003zm0-12.5a5.005 5.005 0 00-5 5 5.006 5.006 0 005 5 5.005 5.005 0 005-5 5.005 5.005 0 00-4.997-5h-.003z" fill="url(#paint0_linear_1_411)"/><defs><linearGradient id="paint0_linear_1_411" x1=".403" y1=".596" x2="36.193" y2="38.094" gradientUnits="userSpaceOnUse"><stop stop-color="#16B8EE"/><stop offset="1" stop-color="#A336F7"/></linearGradient></defs></svg>