<svg width="80" height="100" fill="none" xmlns="http://www.w3.org/2000/svg"><path d="M10.457 21.531c-.693.729-.652 1.88.163 2.532l10.352 9.555c.816.69 2.12.575 2.813-.27.611-.767.407-1.84-.326-2.493l-10.312-9.44c-.775-.651-1.997-.613-2.69.116z" fill="url(#paint0_linear_51_8)"/><path d="M51.54 20.034l-1.06-18.34c-.04-.998-.937-1.765-1.996-1.689-1.06.039-1.875.883-1.794 1.88l1.06 18.341c.04.998.937 1.765 1.997 1.689 1.06-.039 1.834-.883 1.793-1.88z" fill="url(#paint1_linear_51_8)"/><path d="M27.779 2.039c-.326-.96-1.386-1.458-2.405-1.19-1.019.308-1.549 1.305-1.263 2.264l5.706 17.267c.326.96 1.386 1.458 2.404 1.19 1.02-.308 1.55-1.305 1.264-2.265L27.779 2.04z" fill="url(#paint2_linear_51_8)"/><path d="M1.857 50.309c5.991 8.096 5.95 11.74 5.91 15.27-.286 25.747 18.667 33.728 29.957 34.342.856.038 1.67.077 2.527.077 10.515.115 20.623-4.03 27.715-11.358l6.277-6.484.122-.116 3.098-3.223c3.383-3.184 3.383-8.326 0-11.51a8.527 8.527 0 00-4.28-2.188c1.141-3.913-1.304-7.942-5.42-9.017a6.86 6.86 0 00-1.223-.23 6.69 6.69 0 00.489-2.532c0-3.876-2.894-7.214-6.93-7.943l10.353-9.784c3.383-3.185 3.383-8.327 0-11.511-3.382-3.185-8.844-3.185-12.227 0l-.204.192C46.65 35.69 32.547 48.697 26.964 50.807c-3.261 1.267-4.035.269-6.563-3.607a29.35 29.35 0 00-6.847-8.019c-3.301-2.532-7.173-2.609-10.393-.192-3.668 2.763-4.198 7.406-1.304 11.32zm69.37 18.225c1.263 0 2.527.46 3.423 1.343 1.875 1.804 1.875 4.681-.04 6.485l-.041.038-3.016 3.146c-1.671.73-3.628.422-4.932-.767l-.163-.153c-1.63-1.497-1.793-3.914-.367-5.564l4.769-4.49.367-.038zm-2.853-8.058c1.467 1.382 1.549 3.569.244 5.065a1.033 1.033 0 00-.203.23l-5.503 5.18c-1.59.538-3.342.192-4.565-.882l-.244-.23c-1.55-1.535-1.671-3.876-.286-5.525.775-.576 3.954-2.955 5.666-4.336 1.59-.883 3.587-.691 4.89.498zm-6.685-10.321c.897.844 1.427 1.995 1.427 3.223-.122 1.458-.856 2.84-1.997 3.799-1.182.959-3.668 2.84-5.543 4.22-1.59.422-3.342 0-4.524-1.112l-.123-.115a4.22 4.22 0 010-6.178l4.484-4.22c1.915-1.42 4.565-1.229 6.276.383zM5.484 41.79c1.834-1.381 3.668-1.304 5.625.154a25.49 25.49 0 015.991 7.06 19.072 19.072 0 003.301 4.259c.041.038.082.115.123.153.163.154 3.831 3.914.081 9.401-.53.844-.244 1.957.693 2.456.856.46 1.957.23 2.527-.537 2.12-2.878 2.772-6.523 1.753-9.9a10.184 10.184 0 002.771-.729c7.5-2.916 25.148-20.144 32.403-27.396.897-.921 2.12-1.42 3.424-1.458a4.924 4.924 0 013.505 1.343c1.875 1.765 1.875 4.642 0 6.408L48.239 51.268c-3.301 3.108-3.342 8.134-.04 11.28l.04.039.123.115c1.304 1.228 3.016 2.034 4.89 2.264-.692 2.647.163 5.41 2.16 7.329l.164.153c1.548 1.458 3.627 2.264 5.828 2.264-.244 2.34.611 4.643 2.364 6.292l.163.154a8.196 8.196 0 004.035 2.072l-2.853 2.993-.081.077c-6.93 7.021-16.874 10.705-27.023 9.976a30.914 30.914 0 01-13.776-4.49h1.712c4.768-.306 9.13-3.03 13.042-8.096.612-.805.367-1.956-.489-2.494-.856-.537-1.997-.345-2.608.422-3.18 4.183-6.603 6.408-10.15 6.638-4.972.307-8.762-3.415-8.844-3.491a1.751 1.751 0 00-.285-.23c-3.057-4.375-5.136-10.475-5.013-18.917.04-4.758-.408-9.055-6.603-17.42-1.467-1.88-1.834-4.643.49-6.408z" fill="url(#paint3_linear_51_8)"/><defs><linearGradient id="paint0_linear_51_8" x1="0" y1="100.006" x2="80" y2="100.006" gradientUnits="userSpaceOnUse"><stop stop-color="#EC656D"/><stop offset="1" stop-color="#EF914F"/></linearGradient><linearGradient id="paint1_linear_51_8" x1="0" y1="100.006" x2="80" y2="100.006" gradientUnits="userSpaceOnUse"><stop stop-color="#EC656D"/><stop offset="1" stop-color="#EF914F"/></linearGradient><linearGradient id="paint2_linear_51_8" x1="0" y1="100.006" x2="80" y2="100.006" gradientUnits="userSpaceOnUse"><stop stop-color="#EC656D"/><stop offset="1" stop-color="#EF914F"/></linearGradient><linearGradient id="paint3_linear_51_8" x1="0" y1="100.006" x2="80" y2="100.006" gradientUnits="userSpaceOnUse"><stop stop-color="#EC656D"/><stop offset="1" stop-color="#EF914F"/></linearGradient></defs></svg>