<svg width="95" height="100" fill="none" xmlns="http://www.w3.org/2000/svg"><path d="M76.317 83.5H2.375C1.108 83.5 0 84.667 0 86v11.5c0 1.333 1.108 2.5 2.375 2.5h73.942c1.266 0 2.375-1.167 2.375-2.5V86c0-1.333-1.109-2.5-2.375-2.5zM73.942 95H4.75v-6.5h69.192V95zM59.058 45.667c1.267 0 2.375-1.167 2.375-2.5v-29c0-1.334-1.108-2.5-2.375-2.5H19.475c-1.267 0-2.375 1.166-2.375 2.5v29c0 1.333 1.108 2.5 2.375 2.5h39.583zm-37.05-29h34.834v24H22.008v-24zm58.9-15.5l-.316-.334c-1.109-.833-2.534-.5-3.325.5-.792 1.167-.475 2.667.475 3.5l.316.334a27.953 27.953 0 018.234 10.166h-.475c-4.117 0-7.442 3.5-7.442 7.834C78.375 27.5 81.7 31 85.817 31c1.583 0 3.008-.5 4.275-1.5v40.167c0 2.166-1.742 4-3.8 4-2.059 0-3.8-1.834-3.8-4V50.5c0-6.833-4.75-12.667-10.925-13.833V2.5c0-1.333-1.109-2.5-2.375-2.5H9.5C8.233 0 7.125 1.167 7.125 2.5v77.667h4.75V5h55.1v75.167h4.75V41.833C75.367 43 77.9 46.333 77.9 50.5v19c0 5 3.8 9 8.55 9 4.75 0 8.55-4 8.55-9V31.167c0-11.834-5.225-23-14.092-30zm5.067 24.666c-1.425 0-2.692-1.166-2.692-2.833 0-1.667 1.109-2.833 2.692-2.833 1.583 0 2.692 1.166 2.692 2.833 0 1.667-1.267 2.833-2.692 2.833z" fill="url(#paint0_linear_51_7)"/><defs><linearGradient id="paint0_linear_51_7" x1="0" y1="100.006" x2="95" y2="100.006" gradientUnits="userSpaceOnUse"><stop stop-color="#EC656D"/><stop offset="1" stop-color="#EF914F"/></linearGradient></defs></svg>