<svg width="96" height="106" fill="none" xmlns="http://www.w3.org/2000/svg"><path d="M52.701 103c3.569-.306 7.137-1.02 10.285-2.245 1.05-.306 1.994-.714 2.938-1.122C84.184 90.55 93 76.163 93 55.653V7.796L52.7 3" stroke="url(#paint0_linear_51_9)" stroke-width="5" stroke-miterlimit="10"/><path d="M43.298 3L3 7.8v47.907C3 76.238 11.838 90.64 30.146 99.73c.947.511 1.894.818 2.946 1.124 3.157 1.124 6.63 1.839 10.101 2.145" stroke="url(#paint1_linear_51_9)" stroke-width="5" stroke-miterlimit="10"/><path d="M62.575 38.065L43.94 56.21 33.32 45.915l-6.14 6.015c.208.203 16.97 16.005 16.97 16.005l24.67-23.753-6.246-6.117z" fill="url(#paint2_linear_51_9)"/><defs><linearGradient id="paint0_linear_51_9" x1="52.701" y1="103.006" x2="93" y2="103.006" gradientUnits="userSpaceOnUse"><stop stop-color="#EC656D"/><stop offset="1" stop-color="#EF914F"/></linearGradient><linearGradient id="paint1_linear_51_9" x1="3" y1="103.006" x2="43.298" y2="103.006" gradientUnits="userSpaceOnUse"><stop stop-color="#EC656D"/><stop offset="1" stop-color="#EF914F"/></linearGradient><linearGradient id="paint2_linear_51_9" x1="27.179" y1="67.937" x2="68.821" y2="67.937" gradientUnits="userSpaceOnUse"><stop stop-color="#EC656D"/><stop offset="1" stop-color="#EF914F"/></linearGradient></defs></svg>