<svg width="60" height="60" fill="none" xmlns="http://www.w3.org/2000/svg"><path d="M44.063 33.119v.23l.102.209 3.928 8.042h0a.864.864 0 01-.775 1.245H34.809v1.181a4.973 4.973 0 11-9.946 0v-1.181h-12.5a.864.864 0 01-.775-1.244V41.6l3.929-8.043.101-.207v-7.906h0v-.01a13.91 13.91 0 018.894-13.129l.008-.002.007-.003h0l.003-.002.02-.007.082-.032a18.365 18.365 0 011.533-.493c1.005-.274 2.299-.536 3.544-.536 1.25 0 2.612.263 3.69.54a22.449 22.449 0 011.757.53l.017.007a14.143 14.143 0 018.89 13.128s0 0 0 0v7.684z" stroke="#46B843" stroke-width="2"/><path d="M15.357 43.268H43.93" stroke="#46B843" stroke-width="2" stroke-linecap="square"/></svg>