<svg width="976" height="489" fill="none" xmlns="http://www.w3.org/2000/svg"><path fill="#2D32FF" d="M852.972 366.75V244.5h122.25v122.25z"/><path fill="#F5BD33" d="M365.361 122.25V0h122.25v122.25z"/><path fill="#fff" d="M122.25 365.361h120.861v122.25H122.25z"/><path fill="#2D32FF" d="M365.361 122.25h122.25V244.5h-122.25zm-122.25 243.111h122.25v122.25h-122.25z"/><path fill="#E55733" d="M487.611 122.25h122.25V244.5h-122.25z"/><path fill="#fff" d="M609.861 244.5h120.861v120.861H609.861zm243.111 0v122.25l122.25-122.25h-122.25zM365.361 0v122.25L487.611 0h-122.25z"/><path d="M487.611 365.361h-40.75v40.75h-40.75v40.75h-40.75v40.75h122.25v-122.25z" fill="#F5BD33"/><path d="M730.722 183.375l-60.431-61.125-60.43 61.125 60.43 61.125 60.431-61.125z" fill="#2D32FF"/><path d="M487.429 182.93l-60.976-60.977-60.977 60.977h121.953z" fill="#fff"/><path d="M487.429 243.906l-60.976-60.977-60.977 60.977h121.953z" fill="#fff"/><path d="M243.111 365.361c0 33.758-27.056 61.125-60.431 61.125-33.374 0-60.43-27.367-60.43-61.125h36.653c0 13.283 10.645 24.051 23.777 24.051 13.132 0 23.778-10.768 23.778-24.051h36.653z" fill="#E55733"/><path d="M730.722 366.75c33.758 0 61.125 27.367 61.125 61.125 0 33.758-27.367 61.125-61.125 61.125v-37.074c13.283 0 24.05-10.768 24.05-24.051 0-13.283-10.768-24.051-24.05-24.051V366.75zM122.25 487.611c0-33.759 27.056-61.125 60.43-61.125 33.375 0 60.431 27.366 60.431 61.125h-36.653c0-13.283-10.646-24.051-23.778-24.051-13.132 0-23.777 10.768-23.777 24.051H122.25z" fill="#2D32FF"/><path d="M852.972 489c-33.759 0-61.125-27.367-61.125-61.125 0-33.758 27.366-61.125 61.125-61.125v37.074c-13.283 0-24.051 10.768-24.051 24.051 0 13.283 10.768 24.051 24.051 24.051V489z" fill="#F5BD33"/><path d="M730.722 122.25c-32.992 0-59.736-27.367-59.736-61.125C670.986 27.367 697.73 0 730.722 0v37.074c-12.981 0-23.505 10.768-23.505 24.051 0 13.283 10.524 24.05 23.505 24.05v37.075zM609.861 0c33.758 0 61.125 27.367 61.125 61.125 0 33.758-27.367 61.125-61.125 61.125V85.176c13.283 0 24.051-10.768 24.051-24.051 0-13.283-10.768-24.05-24.051-24.05V0z" fill="#E55733"/><path d="M526.604 122.25h-38.993V244.5h122.25v-37.94h-83.257v-84.31z" fill="#fff"/><path d="M404.502 283.196l-39.141 21.734 39.141 21.735 21.984 38.696 21.984-38.696 39.141-21.735-39.141-21.734-21.984-38.696-21.984 38.696zm448.47 144.679c0 33.758 27.366 61.125 61.125 61.125l61.125-61.125-61.125-61.125c-33.759 0-61.125 27.367-61.125 61.125zm122.25-366.75L914.097 0l-61.125 61.125 61.125 61.125 61.125-61.125z" fill="#E55733"/><path fill-rule="evenodd" clip-rule="evenodd" d="M558.776 376.23c0-5.727-4.643-10.37-10.37-10.37-5.727 0-10.37 4.643-10.37 10.37v11.368l-5.617-9.884c-2.83-4.979-9.16-6.722-14.14-3.892-4.979 2.829-6.722 9.16-3.892 14.139l6.392 11.249-11.248-6.392c-4.979-2.83-11.31-1.087-14.14 3.892-2.829 4.98-1.086 11.31 3.893 14.14l9.883 5.616H497.8c-5.728 0-10.371 4.643-10.371 10.371 0 5.727 4.643 10.37 10.371 10.37h11.369l-9.885 5.617c-4.979 2.83-6.722 9.16-3.893 14.14 2.83 4.979 9.161 6.722 14.14 3.892l11.247-6.391-6.391 11.246c-2.83 4.98-1.087 11.31 3.892 14.14 4.98 2.829 11.31 1.087 14.14-3.893l5.617-9.884v11.369c0 5.727 4.643 10.37 10.37 10.37 5.727 0 10.37-4.643 10.37-10.37v-11.369l5.617 9.884c2.83 4.98 9.16 6.722 14.14 3.893 4.979-2.83 6.722-9.16 3.892-14.14l-6.391-11.246 11.247 6.391c4.979 2.83 11.31 1.087 14.139-3.892 2.83-4.98 1.087-11.31-3.892-14.14l-9.885-5.617h11.369c5.728 0 10.371-4.643 10.371-10.37 0-5.728-4.643-10.371-10.371-10.371h-11.367l9.883-5.616c4.979-2.83 6.722-9.16 3.893-14.14-2.83-4.979-9.161-6.722-14.14-3.892l-11.248 6.392 6.392-11.249c2.83-4.979 1.087-11.31-3.893-14.139-4.979-2.83-11.31-1.087-14.139 3.892l-5.617 9.884V376.23z" fill="#E55733"/><path d="M774.823 138.057c16.879 16.879 17.024 45.33 17.024 45.33s-27.223 1.085-44.102-15.793c-16.879-16.879-17.023-45.33-17.023-45.33s27.222-1.085 44.101 15.793zm34.047 0c-16.879 16.879-17.023 45.33-17.023 45.33s27.222 1.085 44.101-15.793c16.879-16.879 17.024-45.33 17.024-45.33s-27.223-1.085-44.102 15.793z" fill="#F5BD33"/><path d="M774.823 228.693c16.879-16.879 17.024-45.33 17.024-45.33s-27.223-1.085-44.102 15.793c-16.879 16.879-17.023 45.33-17.023 45.33s27.222 1.085 44.101-15.793zm34.047 0c-16.879-16.879-17.023-45.33-17.023-45.33s27.222-1.085 44.101 15.793c16.879 16.879 17.024 45.33 17.024 45.33s-27.223 1.085-44.102-15.793z" fill="#F5BD33"/><path fill-rule="evenodd" clip-rule="evenodd" d="M914.267 138.213c-24.696 0-44.716 20.02-44.716 44.717 0 24.696 20.02 44.716 44.716 44.716s44.717-20.02 44.717-44.716c0-24.697-20.021-44.717-44.717-44.717zm-60.976 44.717c0-33.677 27.3-60.977 60.976-60.977 33.677 0 60.977 27.3 60.977 60.977 0 33.676-27.3 60.976-60.977 60.976-33.676 0-60.976-27.3-60.976-60.976z" fill="#F5BD33"/><path d="M510.115 304.93c-13.734 6.243-22.504 15.745-22.504 26.388 0 18.802 27.366 34.043 61.125 34.043 33.758 0 61.125-15.241 61.125-34.043 0-10.643-8.77-20.145-22.505-26.388 13.735-6.242 22.505-15.744 22.505-26.387 0-18.802-27.367-34.043-61.125-34.043-33.759 0-61.125 15.241-61.125 34.043 0 10.643 8.77 20.145 22.504 26.387z" fill="#F5BD33"/><path fill-rule="evenodd" clip-rule="evenodd" d="M742.012 321.331c-15.054-5.178-15.054-26.234 0-31.412l3.868-1.331-2.099-3.479c-8.166-13.537 5.518-29.666 20.415-24.063l3.828 1.44.654-3.999c2.542-15.562 23.507-19.218 31.277-5.455l1.997 3.537 3.099-2.648c12.061-10.305 30.497.223 27.505 15.706l-.769 3.979 4.095-.058c15.936-.226 23.217 19.56 10.862 29.518l-3.175 2.559 3.175 2.559c12.355 9.958 5.074 29.744-10.862 29.518l-4.095-.058.769 3.979c2.992 15.483-15.444 26.011-27.505 15.706l-3.099-2.648-1.997 3.537c-7.77 13.763-28.735 10.107-31.277-5.455l-.654-3.999-3.828 1.44c-14.897 5.603-28.581-10.526-20.415-24.063l2.099-3.479-3.868-1.331zm18.829-15.706c7.358 3.985 10.618 12.846 7.572 20.576 8.226-1.625 16.483 3.09 19.173 10.949 5.246-6.475 14.634-8.112 21.803-3.802-.19-8.296 5.938-15.519 14.23-16.775-5.536-6.233-5.536-15.663 0-21.896-8.292-1.256-14.42-8.479-14.23-16.775-7.169 4.31-16.557 2.673-21.803-3.802-2.69 7.859-10.947 12.574-19.173 10.949 3.046 7.73-.214 16.591-7.572 20.576z" fill="#2D32FF"/><path fill-rule="evenodd" clip-rule="evenodd" d="M792.312 60.976h.001-.001zm.001 0zm0 0zm.001 0h-.001l37.321-48.862-13.665-7.89-23.656 56.752L800.203 0h-15.78l7.89 60.976-23.656-56.752-13.665 7.89 37.321 48.862h-.001l-48.862-37.32-7.889 13.665 56.75 23.655-60.975-7.89v15.78l60.976-7.89h.001l-.001.001-56.751 23.655 7.89 13.666 48.861-37.32-37.32 48.861 13.665 7.889 23.656-56.751-7.89 60.976h15.78l-7.89-60.976 23.656 56.751 13.665-7.889-37.32-48.861 48.861 37.32 7.89-13.666-56.751-23.655h-.001l60.977 7.89v-15.78l-60.976 7.89 56.751-23.656-7.889-13.665-48.862 37.32zm-.001 0zm0 0z" fill="#E55733"/><path d="M686.461 298.232c25.524.814 44.261 3.504 44.261 6.698 0 3.194-18.737 5.885-44.261 6.698 17.473 18.623 28.819 33.775 26.561 36.033-2.259 2.259-17.41-9.088-36.033-26.56-.813 25.523-3.504 44.26-6.698 44.26-3.194 0-5.885-18.737-6.698-44.26-18.622 17.472-33.774 28.819-36.033 26.56-2.258-2.258 9.088-17.41 26.561-36.033-25.523-.813-44.26-3.504-44.26-6.698 0-3.194 18.737-5.884 44.26-6.698-17.473-18.622-28.819-33.774-26.561-36.032 2.259-2.259 17.411 9.088 36.033 26.56.813-25.523 3.504-44.26 6.698-44.26 3.194 0 5.885 18.737 6.698 44.26 18.623-17.472 33.774-28.819 36.033-26.56 2.258 2.258-9.088 17.41-26.561 36.032z" fill="#2D32FF"/><path fill-rule="evenodd" clip-rule="evenodd" d="M515.675 94.93l-28.245-1.046 31.723-32.907-31.723-32.908 28.243-1.047L518.877 0l29.529 30.632L577.936 0l3.203 27.022 28.244 1.047-31.724 32.908 31.724 32.907-28.245 1.046-3.202 27.023-29.53-30.632-29.529 30.632-3.202-27.023z" fill="#2D32FF"/><path fill-rule="evenodd" clip-rule="evenodd" d="M243.523 426.835c33.669 0 60.965-27.288 60.976-60.954.012 33.666 27.308 60.954 60.977 60.954v.001c-33.666 0-60.96 27.284-60.977 60.946-.016-33.663-27.31-60.946-60.976-60.946v-.001z" fill="#fff"/><path fill-rule="evenodd" clip-rule="evenodd" d="M670.359 382.121c-24.696 0-44.716 20.02-44.716 44.716s20.02 44.716 44.716 44.716 44.716-20.02 44.716-44.716-20.02-44.716-44.716-44.716zm-60.977 44.716c0-33.677 27.301-60.977 60.977-60.977s60.977 27.3 60.977 60.977c0 33.676-27.301 60.976-60.977 60.976s-60.977-27.3-60.977-60.976z" fill="#F5BD33"/><path fill-rule="evenodd" clip-rule="evenodd" d="M670.359 410.64c-8.945 0-16.197 7.251-16.197 16.197 0 8.945 7.252 16.197 16.197 16.197s16.197-7.252 16.197-16.197c0-8.946-7.252-16.197-16.197-16.197zm-32.394 16.197c0-17.891 14.503-32.394 32.394-32.394s32.394 14.503 32.394 32.394c0 17.89-14.503 32.394-32.394 32.394s-32.394-14.504-32.394-32.394z" fill="#E55733"/><path d="M0 426.486c0-33.759 27.367-61.125 61.125-61.125 33.758 0 61.125 27.366 61.125 61.125v61.125H0v-61.125zm304.236-59.736c33.758 0 61.125-27.367 61.125-61.125 0-33.758-27.367-61.125-61.125-61.125v61.125h-61.125c0 33.758 27.366 61.125 61.125 61.125z" fill="#F5BD33"/></svg>