<svg width="53" height="53" fill="none" xmlns="http://www.w3.org/2000/svg"><path d="M44.645 4.416H17.178a3.939 3.939 0 00-3.93 3.93v27.467a3.939 3.939 0 003.93 3.93h27.467a3.925 3.925 0 003.93-3.93V8.346a3.939 3.939 0 00-3.93-3.93zM24.42 33.12h-4.548v-4.55l13.38-13.38 4.548 4.548-13.38 13.38zm16.87-16.891l-2.209 2.208-4.526-4.527 2.208-2.208a1.174 1.174 0 011.7 0l2.826 2.827a1.174 1.174 0 010 1.7zM8.831 13.248H4.416V44.16a4.416 4.416 0 004.416 4.416h30.911V44.16H8.832V13.248z" fill="#000"/></svg>