<svg width="42" height="44" fill="none" xmlns="http://www.w3.org/2000/svg"><path d="M18.41.082a10.164 10.164 0 100 20.328 10.164 10.164 0 000-20.328zM5.728 22.951a5.085 5.085 0 00-5.105 5.082c0 4.297 2.117 7.536 5.425 9.648 2.663 1.697 6.086 2.663 9.82 2.955V30.574a5.082 5.082 0 015.083-5.082h14.565a5.081 5.081 0 00-4.401-2.541H5.728zm35.55 8.893v7.623a3.812 3.812 0 01-3.81 3.812H22.22a3.811 3.811 0 01-3.811-3.812v-7.623a3.812 3.812 0 013.811-3.811h15.246a3.811 3.811 0 013.812 3.811zm-2.54 7.623v-2.54a3.812 3.812 0 00-3.812 3.81h2.541a1.27 1.27 0 011.27-1.27zm0-7.623a1.27 1.27 0 01-1.27-1.27h-2.542a3.812 3.812 0 003.812 3.811v-2.54zm-16.517-1.27a1.27 1.27 0 01-1.27 1.27v2.541a3.812 3.812 0 003.811-3.811h-2.54zm-1.27 8.893a1.27 1.27 0 011.27 1.27h2.541a3.812 3.812 0 00-3.811-3.81v2.54zm8.893-7.623a3.812 3.812 0 100 7.624 3.812 3.812 0 000-7.624z" fill="#000"/></svg>