<svg width="86" height="80" fill="none" xmlns="http://www.w3.org/2000/svg"><g opacity=".8" stroke="#000" stroke-width="1.88"><path d="M84.5 64V23H8v41h76.5z"/><path d="M77.5 23v-8H1v41h7m37.5-21v-2.5m0 19.5v2.5"/><circle cx="45.5" cy="43.5" r="8.56"/><circle cx="16.5" cy="31.5" r="3.56"/><circle cx="76.5" cy="55.5" r="3.56"/><path d="M43.166 47.006c.285.325.643.583 1.048.755.404.171.844.25 1.286.233a2.681 2.681 0 001.86-.584c.518-.419.64-1.003.64-1.662 0-.66-.122-1.244-.64-1.663a2.681 2.681 0 00-1.86-.584 2.681 2.681 0 01-1.86-.584c-.518-.42-.64-.997-.64-1.663s.115-1.25.634-1.67c.52-.42 1.19-.627 1.866-.577.434-.025.868.042 1.272.198.404.155.766.395 1.062.701" stroke-linecap="square" stroke-linejoin="round"/></g></svg>