<svg width="80" height="80" fill="none" xmlns="http://www.w3.org/2000/svg"><path d="M52.728 45.228a.965.965 0 01.297-1.57l10.81-4.7a2.898 2.898 0 00-.253-5.392L24.92 20.942a2.898 2.898 0 00-3.642 3.642l12.623 38.661a2.87 2.87 0 002.609 1.99h.142a2.862 2.862 0 002.642-1.736l4.7-10.81a.967.967 0 011.57-.297L57.56 64.388a2.897 2.897 0 004.106 0l3.064-3.065a2.899 2.899 0 000-4.106L52.728 45.228zm10.627 14.733l-3.065 3.065a.966.966 0 01-1.364 0L46.93 51.029a2.898 2.898 0 00-4.708.894l-4.7 10.81a.966.966 0 01-1.784-.084L23.116 23.985a.966.966 0 011.208-1.208l38.657 12.627a.954.954 0 01.084 1.782l-10.81 4.702a2.898 2.898 0 00-.894 4.707l11.996 11.996a.966.966 0 010 1.365l-.002.005zM34.658 17.899v-1.932a.966.966 0 111.932 0v1.932a.966.966 0 01-1.932 0zm-19.32 17.389a.966.966 0 01.965-.966h1.932a.966.966 0 010 1.932h-1.932a.966.966 0 01-.966-.966zm27.15-15.89l1.932-3.864a.967.967 0 011.73.865l-1.933 3.864a.966.966 0 11-1.729-.864zM21.032 42.585a.965.965 0 01-.432 1.297l-3.864 1.932a.966.966 0 11-.865-1.73l3.864-1.931a.964.964 0 011.297.432z" fill="#000" opacity=".8"/></svg>