<svg width="22" height="21" fill="none" xmlns="http://www.w3.org/2000/svg"><path fill-rule="evenodd" clip-rule="evenodd" d="M10.553.106a1 1 0 01.894 0l10 5A1 1 0 0121 7H1a1 1 0 01-.447-1.894l10-5zM5.236 5h11.528L11 2.118 5.236 5zM5 8a1 1 0 011 1v5a1 1 0 01-2 0V9a1 1 0 011-1zm4 0a1 1 0 011 1v5a1 1 0 01-2 0V9a1 1 0 011-1zm4 0a1 1 0 011 1v5a1 1 0 01-2 0V9a1 1 0 011-1zm4 0a1 1 0 011 1v5a1 1 0 01-2 0V9a1 1 0 011-1zM2 17a1 1 0 011-1h16a1 1 0 110 2H3a1 1 0 01-1-1zm-2 2.999a1 1 0 011-1h20a1 1 0 010 2H1a1 1 0 01-1-1z" fill="#fff"/></svg>