<svg width="24" height="21" fill="none" xmlns="http://www.w3.org/2000/svg"><path fill-rule="evenodd" clip-rule="evenodd" d="M12.778 3.917c4.137-.117 7.657 3.008 8.16 7.063h.543a.5.5 0 00.344-.864l-.115-.108a1 1 0 011.375-1.452l.115.109c1.642 1.554.542 4.314-1.719 4.314h-.567c-.237 1.36-.956 2.456-1.914 3.414v3.586a1 1 0 01-1 1h-3a1 1 0 01-.949-.684l-.367-1.102a1.775 1.775 0 00-3.368 0l-.367 1.102a1 1 0 01-.949.684H6a1 1 0 01-1-1v-3c0-.528-.397-1.21-1.276-1.858-.848-.626-1.932-1.052-2.83-1.148A1 1 0 010 12.98v-4a1 1 0 01.553-.893l1.617-.81C2.828 5.447 4.483 4.412 6 4.09V.98A1 1 0 016.805 0l.32.002c.292 0 .585.002.875.034 2.031.227 4.085 1.996 4.778 3.88zM8 4.98V2.06c1.231.344 2.882 1.536 3 2.944a1.01 1.01 0 001.103.97l.28-.028C15.91 5.582 19 8.41 19 11.979c0 1.015-.403 1.99-1.121 2.707a7.929 7.929 0 01-.199.19c-.328.305-.68.634-.68 1.103v3h-1.28l-.139-.419a3.775 3.775 0 00-7.162 0l-.14.42H7v-2c0-1.473-1.013-2.675-2.089-3.469A8.434 8.434 0 002 12.144V9.598l1.447-.724a1 1 0 00.523-.652C4.33 6.786 5.826 5.98 7 5.98a1 1 0 001-1zm-.5 6a1.5 1.5 0 100-3.001 1.5 1.5 0 000 3z" fill="#fff"/></svg>