<svg width="36" height="37" fill="none" xmlns="http://www.w3.org/2000/svg"><g clip-path="url(#clip0_29_83)"><path d="M0 .5h36v36H0V.5z" fill="#C4162E"/><path d="M4.8 24.5c2.616 0 4.8-2.372 4.8-4.8 0-2.186-.216-4.8-2.4-4.8-1.158 0-4.32 1.62-4.8 2.4l2.4-4.8h4.8-7.2v4.8c.14-.24 2.178.176 2.4 0-.598 0 .394-.314 0 0 1.246 0 2.392 1.18 2.4 2.4 0 1.236-1.138 2.4-2.4 2.4-1.11 0-2.226-1.524-2.4-2.4.132 1.938-.098 4.8 2.4 4.8zm9.6 0c2.852 0 4.8-3.51 4.8-7.2 0-3.69-1.948-4.8-4.8-4.8-2.86 0-4.8 1.112-4.8 4.8 0 3.69 1.938 7.2 4.8 7.2zm0-2.4c-1.396 0-2.4-2.252-2.4-4.8s1.004-4.8 2.4-4.8c1.386 0 2.4 2.252 2.4 4.8s-1.014 4.8-2.4 4.8zm9.6 2.4c2.852 0 4.8-3.51 4.8-7.2 0-3.69-1.948-4.8-4.8-4.8-2.86 0-4.8 1.112-4.8 4.8 0 3.69 1.94 7.2 4.8 7.2zm0-2.4c-1.396 0-2.4-2.252-2.4-4.8s1.004-4.8 2.4-4.8c1.386 0 2.4 2.252 2.4 4.8s-1.014 4.8-2.4 4.8z" fill="#fff"/></g><defs><clipPath id="clip0_29_83"><path d="M0 18.5C0 8.559 8.059.5 18 .5s18 8.059 18 18-8.059 18-18 18-18-8.059-18-18z" fill="#fff"/></clipPath></defs></svg>