<svg width="36" height="37" fill="none" xmlns="http://www.w3.org/2000/svg"><g clip-path="url(#clip0_29_93)"><path d="M0 .5h36v36H0V.5z" fill="#0091BA"/><path d="M4.8 22.1h2.4v-9.6H2.4v2.4h2.4v7.2zm9.6 2.4c2.928 0 4.8-3.51 4.8-7.2 0-3.69-1.872-4.8-4.8-4.8-2.93 0-4.8 1.112-4.8 4.8 0 3.69 1.87 7.2 4.8 7.2zm0-2.4c-1.44 0-2.4-2.252-2.4-4.8s.96-4.8 2.4-4.8 2.4 2.252 2.4 4.8-.96 4.8-2.4 4.8zm9.6 2.4c2.93 0 4.8-3.51 4.8-7.2 0-3.69-1.87-4.8-4.8-4.8-2.928 0-4.8 1.112-4.8 4.8 0 3.69 1.872 7.2 4.8 7.2zm0-2.4c-1.44 0-2.4-2.252-2.4-4.8s.96-4.8 2.4-4.8 2.4 2.252 2.4 4.8-.958 4.8-2.4 4.8z" fill="#fff"/></g><defs><clipPath id="clip0_29_93"><path d="M0 18.5C0 8.559 8.059.5 18 .5s18 8.059 18 18-8.059 18-18 18-18-8.059-18-18z" fill="#fff"/></clipPath></defs></svg>