<svg width="20" height="20" fill="none" xmlns="http://www.w3.org/2000/svg"><g clip-path="url(#clip0_183_1812)" fill="#1F1F1F"><path d="M11.758 10a1.758 1.758 0 11-3.516 0 1.758 1.758 0 013.516 0z"/><path d="M12.969 4.688H7.03A2.346 2.346 0 004.688 7.03v5.938a2.346 2.346 0 002.343 2.344h5.938a2.346 2.346 0 002.344-2.344V7.03a2.346 2.346 0 00-2.344-2.343zM10 12.93A2.933 2.933 0 017.07 10 2.933 2.933 0 0110 7.07 2.933 2.933 0 0112.93 10 2.933 2.933 0 0110 12.93zm3.36-5.703a.586.586 0 110-1.172.586.586 0 010 1.172z"/><path d="M14.727 0H5.273A5.28 5.28 0 000 5.273v9.454A5.28 5.28 0 005.273 20h9.454A5.28 5.28 0 0020 14.727V5.273A5.28 5.28 0 0014.727 0zm1.757 12.969a3.52 3.52 0 01-3.515 3.515H7.03a3.52 3.52 0 01-3.515-3.515V7.03A3.52 3.52 0 017.03 3.516h5.938a3.52 3.52 0 013.515 3.515v5.938z"/></g><defs><clipPath id="clip0_183_1812"><path fill="#fff" d="M0 0h20v20H0z"/></clipPath></defs></svg>