<svg width="50" height="50" fill="none" xmlns="http://www.w3.org/2000/svg"><g clip-path="url(#clip0_187_1393)"><path d="M25 50c13.807 0 25-11.193 25-25S38.807 0 25 0 0 11.193 0 25s11.193 25 25 25z" fill="#039BE5"/><path d="M11.44 24.458l24.104-9.293c1.118-.405 2.095.272 1.733 1.964l.002-.002-4.104 19.335c-.304 1.371-1.119 1.705-2.258 1.059l-6.25-4.607-3.015 2.905c-.333.333-.615.614-1.26.614l.443-6.36L32.42 19.608c.504-.444-.113-.694-.777-.252L17.327 28.37l-6.17-1.925c-1.34-.425-1.37-1.34.282-1.986z" fill="#fff"/></g><defs><clipPath id="clip0_187_1393"><path fill="#fff" d="M0 0h50v50H0z"/></clipPath></defs></svg>