<svg width="50" height="50" fill="none" xmlns="http://www.w3.org/2000/svg"><path d="M50 25C50 11.193 38.807 0 25 0S0 11.193 0 25s11.193 25 25 25 25-11.193 25-25z" fill="url(#paint0_linear_187_1413)"/><path opacity=".1" d="M43.816 8.553c-3.645 6.69-8.8 13.592-15.24 20.033-6.441 6.44-13.343 11.585-20.024 15.23a23.914 23.914 0 01-1.22-1.138A25 25 0 1142.677 7.323c.395.394.775.804 1.139 1.23z" fill="#fff"/><path d="M30.92 11.842H19.08a7.237 7.237 0 00-7.237 7.237v11.842a7.237 7.237 0 007.237 7.237h11.84a7.237 7.237 0 007.237-7.237V19.08a7.237 7.237 0 00-7.237-7.237zm4.935 18.04a5.974 5.974 0 01-5.974 5.973h-9.763a5.974 5.974 0 01-5.974-5.973v-9.763a5.974 5.974 0 015.974-5.974h9.763a5.974 5.974 0 015.974 5.974v9.763z" fill="#fff"/><path d="M29.8 20.25l-.062-.063-.053-.052a6.631 6.631 0 00-4.684-1.934A6.75 6.75 0 0018.297 25a6.826 6.826 0 001.974 4.806 6.64 6.64 0 004.743 1.974A6.819 6.819 0 0029.8 20.25zm-4.799 9.21A4.46 4.46 0 1129.399 25a4.427 4.427 0 01-4.398 4.46zm8.692-11.571a1.605 1.605 0 01-1.595 1.618 1.582 1.582 0 01-1.125-.47 1.621 1.621 0 011.128-2.76c.371 0 .731.13 1.016.368l.033.033a.994.994 0 01.145.145l.036.04c.236.29.363.652.362 1.026z" fill="#fff"/><defs><linearGradient id="paint0_linear_187_1413" x1="7.322" y1="7.322" x2="42.678" y2="42.678" gradientUnits="userSpaceOnUse"><stop stop-color="#FAE100"/><stop offset=".15" stop-color="#FCB720"/><stop offset=".3" stop-color="#FF7950"/><stop offset=".5" stop-color="#FF1C74"/><stop offset="1" stop-color="#6C1CD1"/></linearGradient></defs></svg>