<svg width="50" height="50" fill="none" xmlns="http://www.w3.org/2000/svg"><g clip-path="url(#clip0_187_1426)"><rect width="50" height="50" rx="25" fill="#fff"/><g clip-path="url(#clip1_187_1426)"><path d="M25 50c13.807 0 25-11.193 25-25C50 11.192 38.807 0 25 0S0 11.192 0 25c0 13.807 11.193 25 25 25z" fill="#007AB9"/><path d="M39.937 27.011v10.307H33.96v-9.616c0-2.415-.862-4.064-3.026-4.064-1.651 0-2.632 1.11-3.065 2.185-.158.385-.198.918-.198 1.457v10.038h-5.976s.08-16.287 0-17.973h5.976v2.547c-.012.02-.029.04-.04.059h.04v-.06c.794-1.221 2.21-2.968 5.386-2.968 3.931 0 6.879 2.569 6.879 8.088zm-24.493-16.33c-2.044 0-3.382 1.343-3.382 3.106 0 1.725 1.3 3.106 3.304 3.106h.038c2.085 0 3.38-1.381 3.38-3.107-.039-1.762-1.295-3.104-3.34-3.104zm-3.026 26.637h5.974V19.345h-5.974v17.973z" fill="#F1F2F2"/></g></g><defs><clipPath id="clip0_187_1426"><rect width="50" height="50" rx="25" fill="#fff"/></clipPath><clipPath id="clip1_187_1426"><path fill="#fff" d="M0 0h50v50H0z"/></clipPath></defs></svg>