<svg width="50" height="50" fill="none" xmlns="http://www.w3.org/2000/svg"><rect width="50" height="50" rx="25" fill="#fff"/><path d="M37.293 31.348l-3.489-3.49c-1.245-1.245-3.364-.747-3.862.873-.374 1.121-1.62 1.744-2.741 1.495-2.492-.623-5.857-3.863-6.48-6.48-.373-1.12.374-2.367 1.496-2.74 1.62-.499 2.118-2.617.872-3.863L19.6 13.654c-.997-.872-2.492-.872-3.364 0l-2.368 2.368c-2.367 2.492.25 9.095 6.106 14.952 5.856 5.856 12.46 8.597 14.952 6.105l2.367-2.367c.873-.997.873-2.492 0-3.365z" fill="#00A94B"/></svg>