<svg width="16" height="16" fill="none" xmlns="http://www.w3.org/2000/svg"><g clip-path="url(#clip0_286_2983)"><path d="M8 16A8 8 0 108 0a8 8 0 000 16z" fill="#504F4F"/><path d="M3.66 7.827l7.714-2.974c.358-.13.67.087.555.628l-1.313 6.187c-.097.439-.358.545-.722.339l-2-1.474-.965.929c-.107.107-.197.197-.403.197l.142-2.036 3.706-3.348c.162-.142-.036-.222-.248-.081L5.545 9.078 3.57 8.462c-.428-.136-.438-.429.09-.635z" fill="#E9E9E9"/></g><defs><clipPath id="clip0_286_2983"><path fill="#fff" d="M0 0h16v16H0z"/></clipPath></defs></svg>