<svg width="20" height="20" fill="none" xmlns="http://www.w3.org/2000/svg"><g clip-path="url(#clip0_183_1808)"><path d="M10 20c5.523 0 10-4.477 10-10S15.523 0 10 0 0 4.477 0 10s4.477 10 10 10z" fill="#1F1F1F"/><path d="M4.576 9.784l9.642-3.718c.447-.162.838.11.693.786V6.85l-1.64 7.734c-.122.548-.448.682-.904.423l-2.5-1.842-1.206 1.162c-.133.133-.246.245-.504.245l.177-2.544 4.634-4.185c.201-.178-.045-.278-.311-.101L6.93 11.348l-2.468-.77c-.536-.17-.548-.536.113-.794z" fill="#ACACAC"/></g><defs><clipPath id="clip0_183_1808"><path fill="#fff" d="M0 0h20v20H0z"/></clipPath></defs></svg>