<svg width="1920" height="300" fill="none" xmlns="http://www.w3.org/2000/svg"><rect x="-171" width="541" height="238" rx="16" fill="url(#paint0_linear_303_310)"/><rect x="-170.5" y=".5" width="540" height="237" rx="15.5" stroke="url(#paint1_linear_303_310)" stroke-opacity=".6"/><rect x="-98" y="59" width="426" height="41" rx="6" fill="#202020" fill-opacity=".6"/><rect x="-98" y="112" width="426" height="41" rx="6" fill="#202020" fill-opacity=".6"/><rect x="-98" y="165" width="426" height="41" rx="6" fill="#202020" fill-opacity=".6"/><path d="M-81.86 83v-7.8h.972v3.432h4.212V75.2h.96V83h-.96v-3.528h-4.212V83h-.972zm8.102-8.316c0-.384.276-.648.66-.648.396 0 .672.264.672.648s-.276.66-.672.66a.637.637 0 01-.66-.66zm.204 8.316v-6.42h.924V83h-.924zm7.513-.744v-.816c-.552.516-1.2.768-2.1.768-1.836 0-2.928-1.02-2.928-2.844 0-1.872 1.032-2.904 2.82-2.904.96 0 1.692.276 2.292.816l.156-.696h.684v5.676c0 1.968-.96 2.94-2.868 2.94-1.656 0-2.664-.792-2.784-2.172h.936c.108.876.792 1.368 1.884 1.368 1.32 0 1.908-.648 1.908-2.136zm0-1.74v-2.328c-.48-.564-1.152-.9-1.992-.9-1.416 0-2.088.672-2.088 2.064 0 1.344.768 2.052 2.148 2.052.816 0 1.452-.312 1.932-.888zM-63.125 83v-8.76h.925v3.168c.516-.576 1.164-.948 2.111-.948 1.465 0 2.377.948 2.377 2.484V83h-.924v-3.876c0-1.176-.612-1.836-1.704-1.836-.732 0-1.368.384-1.86 1.02V83h-.924zm8.859-2.088c0 1.008.396 1.404 1.38 1.404.288 0 .612-.024.828-.06v.78a6.213 6.213 0 01-.972.084c-1.44 0-2.16-.684-2.16-2.04v-3.768h-1.404v-.732h1.404v-1.692l.924-.24v1.932h2.16v.732h-2.16v3.6zM-47.501 83v-7.8h3.144c1.752 0 2.628.744 2.628 2.1 0 .924-.396 1.5-1.176 1.764.9.252 1.344.84 1.344 1.812 0 1.38-.912 2.124-2.712 2.124H-47.5zm.972-4.308h2.04c1.284 0 1.764-.432 1.764-1.296 0-.864-.48-1.32-1.764-1.32h-2.04v2.616zm0 3.432h2.124c1.332 0 1.848-.456 1.848-1.344 0-.876-.516-1.308-1.848-1.308h-2.124v2.652zm6.296 2.976v-.816c.204.012.768.024.96.024.468 0 .804-.228 1.008-.768l.156-.432-2.664-6.528h1.008l2.088 5.352 2.04-5.352h1.008l-2.784 7.032c-.372.948-.828 1.512-1.788 1.512-.204 0-.828-.012-1.032-.024zm6.804-8.52h.696l.156.708c.492-.468 1.188-.828 2.196-.828 1.896 0 3.036 1.26 3.036 3.324 0 2.1-1.068 3.336-2.928 3.336-.972 0-1.704-.336-2.232-.78v2.82h-.924v-8.58zm.924 1.644v3.144c.504.612 1.188.912 2.004.912 1.476 0 2.22-.816 2.22-2.484 0-1.608-.816-2.496-2.268-2.496-.816 0-1.464.3-1.956.924zm6.236 3.048c0-1.116.78-1.8 2.16-1.8h2.172v-.792c0-.924-.552-1.392-1.608-1.392-.984 0-1.512.348-1.608 1.068h-.948c.108-1.248 1.008-1.896 2.628-1.884 1.488.012 2.46.816 2.46 2.04V83h-.696l-.168-.936c-.444.696-1.188 1.056-2.196 1.056-1.344 0-2.196-.72-2.196-1.848zm4.332-.072v-1.056h-2.028c-.852 0-1.368.456-1.368 1.14 0 .672.528 1.08 1.392 1.08.936 0 1.692-.456 2.004-1.164zm7.614 0c0 1.176-.972 1.92-2.484 1.92-1.692 0-2.736-.864-2.688-2.112h.912c0 .792.672 1.308 1.836 1.296.948-.012 1.488-.384 1.488-1.092 0-.636-.516-.816-1.62-.9-1.716-.132-2.592-.6-2.592-1.848 0-1.188.96-2.004 2.496-2.004 1.44 0 2.46.708 2.556 1.92h-.936c-.108-.708-.744-1.116-1.656-1.104-.948.012-1.524.456-1.524 1.14 0 .756.564.996 1.8 1.104 1.596.144 2.412.54 2.412 1.68zm6.27 0c0 1.176-.972 1.92-2.484 1.92-1.692 0-2.736-.864-2.688-2.112h.912c0 .792.672 1.308 1.836 1.296.948-.012 1.488-.384 1.488-1.092 0-.636-.516-.816-1.62-.9-1.716-.132-2.592-.6-2.592-1.848 0-1.188.96-2.004 2.496-2.004 1.44 0 2.46.708 2.556 1.92h-.936c-.108-.708-.744-1.116-1.656-1.104-.948.012-1.524.456-1.524 1.14 0 .756.564.996 1.8 1.104 1.596.144 2.412.54 2.412 1.68zm1.325-1.428v-.744h3.18v.744h-3.18zM1.5 75.2c1.764 0 2.784.84 2.784 2.316 0 1.26-.708 2.064-2.016 2.292L4.295 83H3.13l-1.908-3.132H-.661V83h-.972v-7.8h3.132zm-2.16 3.864h2.028c1.272 0 1.92-.564 1.92-1.548 0-.972-.648-1.44-1.92-1.44H-.661v2.988zm6.185 2.208c0-1.116.78-1.8 2.16-1.8h2.172v-.792c0-.924-.552-1.392-1.608-1.392-.984 0-1.512.348-1.608 1.068h-.948C5.8 77.108 6.7 76.46 8.32 76.472c1.488.012 2.46.816 2.46 2.04V83h-.696l-.168-.936c-.444.696-1.188 1.056-2.196 1.056-1.344 0-2.196-.72-2.196-1.848zm4.332-.072v-1.056H7.828c-.852 0-1.368.456-1.368 1.14 0 .672.528 1.08 1.392 1.08.936 0 1.692-.456 2.004-1.164zm4.374-.288c0 1.008.396 1.404 1.38 1.404.288 0 .612-.024.828-.06v.78a6.213 6.213 0 01-.972.084c-1.44 0-2.16-.684-2.16-2.04v-3.768h-1.404v-.732h1.404v-1.692l.924-.24v1.932h2.16v.732h-2.16v3.6zm6.216 2.208c-2.052 0-3.168-1.176-3.168-3.348 0-2.136 1.068-3.312 3.048-3.312 1.908 0 3 1.056 3 2.88 0 .276-.024.528-.036.672h-5.064c.072 1.524.804 2.268 2.208 2.268 1.044 0 1.656-.384 1.86-1.164h.924c-.288 1.32-1.236 2.004-2.772 2.004zm-2.208-3.816h4.164c0-1.308-.72-2.016-2.076-2.016-1.26 0-1.956.672-2.088 2.016z" fill="url(#paint2_linear_303_310)" fill-opacity=".6"/><path d="M-81.86 136v-7.8h5.184v.876h-4.212v2.544h3.936v.84h-3.936V136h-.972zm6.864 0v-8.76h.924V136h-.924zm5.653.12c-2.052 0-3.168-1.176-3.168-3.348 0-2.136 1.068-3.312 3.048-3.312 1.908 0 3 1.056 3 2.88 0 .276-.024.528-.036.672h-5.064c.072 1.524.804 2.268 2.208 2.268 1.044 0 1.656-.384 1.86-1.164h.924c-.288 1.32-1.236 2.004-2.772 2.004zm-2.208-3.816h4.164c0-1.308-.72-2.016-2.076-2.016-1.26 0-1.956.672-2.088 2.016zM-61.276 136l-1.8-2.448-1.8 2.448h-1.08l2.352-3.192-2.376-3.228h1.116l1.812 2.46 1.812-2.46h1.068l-2.34 3.192 2.364 3.228h-1.128zm2.12-8.316c0-.384.275-.648.66-.648.395 0 .671.264.671.648s-.276.66-.672.66a.637.637 0 01-.66-.66zm.203 8.316v-6.42h.924V136h-.924zm2.965 0v-8.64h.924v2.868c.492-.432 1.176-.768 2.124-.768 1.896 0 3.036 1.26 3.036 3.312 0 2.112-1.068 3.348-2.928 3.348-.948 0-1.68-.264-2.304-.828l-.156.708h-.696zm.924-4.776v3.144c.504.612 1.188.912 2.004.912 1.476 0 2.22-.816 2.22-2.496 0-1.596-.816-2.484-2.268-2.484-.816 0-1.464.3-1.956.924zm6.717 4.776v-8.76h.924V136h-.924zm5.653.12c-2.052 0-3.168-1.176-3.168-3.348 0-2.136 1.068-3.312 3.048-3.312 1.908 0 3 1.056 3 2.88 0 .276-.024.528-.036.672h-5.064c.072 1.524.804 2.268 2.208 2.268 1.044 0 1.656-.384 1.86-1.164h.924c-.288 1.32-1.236 2.004-2.772 2.004zm-2.208-3.816h4.164c0-1.308-.72-2.016-2.076-2.016-1.26 0-1.956.672-2.088 2.016zm12.39-2.016c-1.488.012-2.208.84-2.208 2.496 0 1.68.744 2.496 2.256 2.496 1.152 0 1.788-.468 1.92-1.452h.912c-.12 1.512-1.188 2.292-2.832 2.292-2.04 0-3.156-1.188-3.156-3.348 0-2.136 1.092-3.312 3.144-3.312 1.656 0 2.712.78 2.832 2.292h-.912c-.12-.984-.756-1.464-1.956-1.464zm9.61-.708V136h-.684l-.192-.852c-.504.588-1.14.972-2.076.972-1.404 0-2.28-.948-2.28-2.484v-4.056h.924v3.876c0 1.176.576 1.836 1.608 1.836.708 0 1.308-.384 1.776-1.032v-4.68h.924zm6.74 4.62c0 1.176-.973 1.92-2.485 1.92-1.692 0-2.736-.864-2.688-2.112h.912c0 .792.672 1.308 1.836 1.296.948-.012 1.488-.384 1.488-1.092 0-.636-.516-.816-1.62-.9-1.716-.132-2.592-.6-2.592-1.848 0-1.188.96-2.004 2.496-2.004 1.44 0 2.46.708 2.556 1.92h-.936c-.108-.708-.744-1.116-1.656-1.104-.948.012-1.524.456-1.524 1.14 0 .756.564.996 1.8 1.104 1.596.144 2.412.54 2.412 1.68zm3.029-.288c0 1.008.396 1.404 1.38 1.404.288 0 .612-.024.828-.06v.78a6.213 6.213 0 01-.972.084c-1.44 0-2.16-.684-2.16-2.04v-3.768h-1.404v-.732h1.404v-1.692l.924-.24v1.932h2.16v.732h-2.16v3.6zm3.048-1.14c0-2.136 1.116-3.312 3.204-3.312 2.064 0 3.18 1.176 3.18 3.312 0 2.172-1.116 3.348-3.18 3.348-2.088 0-3.204-1.176-3.204-3.348zm.936 0c0 1.692.744 2.508 2.256 2.508 1.512 0 2.256-.828 2.256-2.508 0-1.644-.756-2.484-2.256-2.484-1.5 0-2.256.828-2.256 2.484zM-2.14 136v-6.42h.696l.18.84c.492-.576 1.092-.96 1.98-.96.9 0 1.56.408 1.908 1.116.54-.672 1.236-1.116 2.208-1.116 1.368 0 2.208.936 2.208 2.424V136h-.924v-3.936c0-1.14-.552-1.776-1.536-1.776-.66 0-1.272.372-1.716 1.032.024.18.048.36.048.564V136h-.924v-3.936c0-1.14-.54-1.776-1.524-1.776-.66 0-1.248.372-1.68 1.02V136h-.924zm10.952-8.316c0-.384.276-.648.66-.648.396 0 .672.264.672.648s-.276.66-.672.66a.637.637 0 01-.66-.66zM9.016 136v-6.42h.924V136h-.924zm2.485-5.688v-.732h4.812v.732l-3.696 4.956h3.696V136H11.5v-.732l3.708-4.956H11.5zm5.894 3.96c0-1.116.78-1.8 2.16-1.8h2.172v-.792c0-.924-.552-1.392-1.608-1.392-.983 0-1.511.348-1.607 1.068h-.948c.108-1.248 1.008-1.896 2.628-1.884 1.488.012 2.46.816 2.46 2.04V136h-.697l-.167-.936c-.445.696-1.189 1.056-2.197 1.056-1.344 0-2.196-.72-2.196-1.848zm4.332-.072v-1.056H19.7c-.852 0-1.369.456-1.369 1.14 0 .672.529 1.08 1.393 1.08.936 0 1.692-.456 2.003-1.164zm4.374-.288c0 1.008.396 1.404 1.38 1.404.288 0 .612-.024.828-.06v.78a6.213 6.213 0 01-.972.084c-1.44 0-2.16-.684-2.16-2.04v-3.768h-1.404v-.732h1.404v-1.692l.924-.24v1.932h2.16v.732h-2.16v3.6zm3.324-6.228c0-.384.276-.648.66-.648.396 0 .672.264.672.648s-.276.66-.672.66a.637.637 0 01-.66-.66zM29.63 136v-6.42h.924V136h-.924zm2.485-3.228c0-2.136 1.116-3.312 3.204-3.312 2.064 0 3.18 1.176 3.18 3.312 0 2.172-1.116 3.348-3.18 3.348-2.088 0-3.204-1.176-3.204-3.348zm.936 0c0 1.692.744 2.508 2.256 2.508 1.512 0 2.256-.828 2.256-2.508 0-1.644-.756-2.484-2.256-2.484-1.5 0-2.256.828-2.256 2.484zM40.06 136v-6.42h.695l.192.864c.528-.588 1.188-.984 2.172-.984 1.464 0 2.388.948 2.388 2.484V136h-.924v-3.876c0-1.176-.624-1.836-1.716-1.836-.744 0-1.392.384-1.884 1.02V136h-.924z" fill="url(#paint3_linear_303_310)" fill-opacity=".6"/><path d="M-78.896 181.2c2.424 0 3.66 1.488 3.66 3.888 0 2.412-1.236 3.912-3.66 3.912h-2.964v-7.8h2.964zm-1.992 6.924h1.98c1.848 0 2.664-1.128 2.664-3.036 0-1.884-.828-3.012-2.664-3.012h-1.98v6.048zm9.975.996c-2.052 0-3.168-1.176-3.168-3.348 0-2.136 1.068-3.312 3.048-3.312 1.908 0 3 1.056 3 2.88 0 .276-.024.528-.036.672h-5.064c.072 1.524.804 2.268 2.208 2.268 1.044 0 1.656-.384 1.86-1.164h.924c-.288 1.32-1.236 2.004-2.772 2.004zm-2.208-3.816h4.164c0-1.308-.72-2.016-2.076-2.016-1.26 0-1.956.672-2.088 2.016zM-60.872 189h-.684l-.144-.72c-.504.456-1.2.84-2.22.84-1.896 0-3.036-1.272-3.036-3.324 0-2.112 1.08-3.336 2.928-3.336.912 0 1.632.24 2.232.756v-2.952h.924V189zm-.924-1.644v-3.144c-.504-.624-1.188-.924-2.004-.924-1.476 0-2.208.828-2.208 2.496 0 1.608.804 2.496 2.256 2.496.816 0 1.464-.3 1.956-.924zm2.757-6.672c0-.384.276-.648.66-.648.395 0 .671.264.671.648s-.276.66-.672.66a.637.637 0 01-.66-.66zm.203 8.316v-6.42h.925V189h-.925zm5.593-5.712c-1.488.012-2.208.84-2.208 2.496 0 1.68.744 2.496 2.256 2.496 1.152 0 1.788-.468 1.92-1.452h.912c-.12 1.512-1.188 2.292-2.832 2.292-2.04 0-3.156-1.188-3.156-3.348 0-2.136 1.092-3.312 3.144-3.312 1.656 0 2.712.78 2.832 2.292h-.912c-.12-.984-.756-1.464-1.956-1.464zm3.959 3.984c0-1.116.78-1.8 2.16-1.8h2.172v-.792c0-.924-.552-1.392-1.608-1.392-.984 0-1.512.348-1.608 1.068h-.948c.108-1.248 1.008-1.896 2.628-1.884 1.488.012 2.46.816 2.46 2.04V189h-.696l-.168-.936c-.444.696-1.188 1.056-2.196 1.056-1.344 0-2.196-.72-2.196-1.848zm4.332-.072v-1.056h-2.028c-.852 0-1.368.456-1.368 1.14 0 .672.528 1.08 1.392 1.08.936 0 1.692-.456 2.004-1.164zm4.373-.288c0 1.008.397 1.404 1.38 1.404.288 0 .612-.024.828-.06v.78a6.213 6.213 0 01-.971.084c-1.44 0-2.16-.684-2.16-2.04v-3.768h-1.404v-.732h1.404v-1.692l.924-.24v1.932h2.16v.732h-2.16v3.6zm6.217 2.208c-2.052 0-3.168-1.176-3.168-3.348 0-2.136 1.068-3.312 3.048-3.312 1.908 0 3 1.056 3 2.88 0 .276-.024.528-.036.672h-5.064c.072 1.524.804 2.268 2.208 2.268 1.044 0 1.656-.384 1.86-1.164h.924c-.288 1.32-1.236 2.004-2.772 2.004zm-2.208-3.816h4.164c0-1.308-.72-2.016-2.076-2.016-1.26 0-1.956.672-2.088 2.016zM-24.321 189h-.684l-.144-.72c-.504.456-1.2.84-2.22.84-1.896 0-3.036-1.272-3.036-3.324 0-2.112 1.08-3.336 2.928-3.336.912 0 1.632.24 2.232.756v-2.952h.924V189zm-.924-1.644v-3.144c-.504-.624-1.188-.924-2.004-.924-1.476 0-2.208.828-2.208 2.496 0 1.608.804 2.496 2.256 2.496.816 0 1.464-.3 1.956-.924zm6.078-4.776h.696l.155.708c.492-.468 1.188-.828 2.197-.828 1.896 0 3.035 1.26 3.035 3.324 0 2.1-1.068 3.336-2.928 3.336-.971 0-1.703-.336-2.232-.78v2.82h-.924v-8.58zm.924 1.644v3.144c.503.612 1.188.912 2.003.912 1.476 0 2.22-.816 2.22-2.484 0-1.608-.816-2.496-2.268-2.496-.816 0-1.463.3-1.956.924zm6.236 1.548c0-2.136 1.116-3.312 3.204-3.312 2.064 0 3.18 1.176 3.18 3.312 0 2.172-1.116 3.348-3.18 3.348-2.088 0-3.204-1.176-3.204-3.348zm.936 0c0 1.692.744 2.508 2.256 2.508 1.512 0 2.256-.828 2.256-2.508 0-1.644-.756-2.484-2.256-2.484-1.5 0-2.256.828-2.256 2.484zM-2.94 189l-2.195-6.42h1.008l1.692 5.172 1.716-5.172h.876l1.728 5.172 1.68-5.172h1.008L2.376 189h-.948l-1.704-5.136L-1.992 189h-.948zm11.165.12c-2.052 0-3.168-1.176-3.168-3.348 0-2.136 1.068-3.312 3.048-3.312 1.908 0 3 1.056 3 2.88 0 .276-.024.528-.036.672H6.004c.072 1.524.804 2.268 2.208 2.268 1.044 0 1.656-.384 1.86-1.164h.924c-.288 1.32-1.236 2.004-2.772 2.004zm-2.208-3.816h4.164c0-1.308-.72-2.016-2.076-2.016-1.26 0-1.956.672-2.088 2.016zM12.66 189v-6.42h.732l.144.984c.468-.744 1.152-1.104 2.1-1.104.108 0 .276.012.372.036v.864a3.109 3.109 0 00-.492-.048c-1.176 0-1.836.648-1.932 1.932V189h-.924z" fill="url(#paint4_linear_303_310)" fill-opacity=".6"/><path d="M293.4 75.6h.72V84h-.84v-7.476l-1.884.564-.216-.72 2.22-.768zm7.798 7.368c-.552.784-1.332 1.176-2.34 1.176-1.008 0-1.792-.392-2.352-1.176-.552-.792-.828-1.848-.828-3.168s.276-2.372.828-3.156c.56-.792 1.344-1.188 2.352-1.188 1.008 0 1.788.396 2.34 1.188.56.784.84 1.836.84 3.156s-.28 2.376-.84 3.168zm-4.068-.564c.416.616.992.924 1.728.924s1.308-.308 1.716-.924c.416-.616.624-1.484.624-2.604s-.208-1.988-.624-2.604c-.408-.616-.98-.924-1.716-.924s-1.312.308-1.728.924c-.408.616-.612 1.484-.612 2.604s.204 1.988.612 2.604zm11.627.564c-.552.784-1.332 1.176-2.34 1.176-1.008 0-1.792-.392-2.352-1.176-.552-.792-.828-1.848-.828-3.168s.276-2.372.828-3.156c.56-.792 1.344-1.188 2.352-1.188 1.008 0 1.788.396 2.34 1.188.56.784.84 1.836.84 3.156s-.28 2.376-.84 3.168zm-4.068-.564c.416.616.992.924 1.728.924s1.308-.308 1.716-.924c.416-.616.624-1.484.624-2.604s-.208-1.988-.624-2.604c-.408-.616-.98-.924-1.716-.924s-1.312.308-1.728.924c-.408.616-.612 1.484-.612 2.604s.204 1.988.612 2.604zm7.828-3.348c-.52 0-.956-.172-1.308-.516a1.748 1.748 0 01-.528-1.284c0-.504.176-.928.528-1.272a1.776 1.776 0 011.308-.528c.52 0 .956.176 1.308.528.352.344.528.768.528 1.272s-.172.932-.516 1.284c-.344.344-.784.516-1.32.516zm-.768-1.032c.2.208.456.312.768.312s.568-.104.768-.312c.2-.208.3-.464.3-.768s-.1-.56-.3-.768a1.019 1.019 0 00-.768-.312c-.312 0-.568.104-.768.312-.2.208-.3.464-.3.768s.1.56.3.768zm-.648 4.836l5.628-6.324.516.288-5.64 6.324-.504-.288zm6.12.768c-.352.344-.788.516-1.308.516s-.956-.172-1.308-.516a1.748 1.748 0 01-.528-1.284c0-.504.176-.928.528-1.272a1.776 1.776 0 011.308-.528c.52 0 .956.176 1.308.528.352.344.528.768.528 1.272s-.176.932-.528 1.284zm-2.076-.516c.2.208.456.312.768.312s.568-.104.768-.312c.2-.208.3-.464.3-.768s-.1-.56-.3-.768a1.019 1.019 0 00-.768-.312c-.312 0-.568.104-.768.312-.2.208-.3.464-.3.768s.1.56.3.768zM293.4 128.6h.72v8.4h-.84v-7.476l-1.884.564-.216-.72 2.22-.768zm7.798 7.368c-.552.784-1.332 1.176-2.34 1.176-1.008 0-1.792-.392-2.352-1.176-.552-.792-.828-1.848-.828-3.168s.276-2.372.828-3.156c.56-.792 1.344-1.188 2.352-1.188 1.008 0 1.788.396 2.34 1.188.56.784.84 1.836.84 3.156s-.28 2.376-.84 3.168zm-4.068-.564c.416.616.992.924 1.728.924s1.308-.308 1.716-.924c.416-.616.624-1.484.624-2.604s-.208-1.988-.624-2.604c-.408-.616-.98-.924-1.716-.924s-1.312.308-1.728.924c-.408.616-.612 1.484-.612 2.604s.204 1.988.612 2.604zm11.627.564c-.552.784-1.332 1.176-2.34 1.176-1.008 0-1.792-.392-2.352-1.176-.552-.792-.828-1.848-.828-3.168s.276-2.372.828-3.156c.56-.792 1.344-1.188 2.352-1.188 1.008 0 1.788.396 2.34 1.188.56.784.84 1.836.84 3.156s-.28 2.376-.84 3.168zm-4.068-.564c.416.616.992.924 1.728.924s1.308-.308 1.716-.924c.416-.616.624-1.484.624-2.604s-.208-1.988-.624-2.604c-.408-.616-.98-.924-1.716-.924s-1.312.308-1.728.924c-.408.616-.612 1.484-.612 2.604s.204 1.988.612 2.604zm7.828-3.348c-.52 0-.956-.172-1.308-.516a1.748 1.748 0 01-.528-1.284c0-.504.176-.928.528-1.272a1.776 1.776 0 011.308-.528c.52 0 .956.176 1.308.528.352.344.528.768.528 1.272s-.172.932-.516 1.284c-.344.344-.784.516-1.32.516zm-.768-1.032c.2.208.456.312.768.312s.568-.104.768-.312c.2-.208.3-.464.3-.768s-.1-.56-.3-.768a1.019 1.019 0 00-.768-.312c-.312 0-.568.104-.768.312-.2.208-.3.464-.3.768s.1.56.3.768zm-.648 4.836l5.628-6.324.516.288-5.64 6.324-.504-.288zm6.12.768c-.352.344-.788.516-1.308.516s-.956-.172-1.308-.516a1.748 1.748 0 01-.528-1.284c0-.504.176-.928.528-1.272a1.776 1.776 0 011.308-.528c.52 0 .956.176 1.308.528.352.344.528.768.528 1.272s-.176.932-.528 1.284zm-2.076-.516c.2.208.456.312.768.312s.568-.104.768-.312c.2-.208.3-.464.3-.768s-.1-.56-.3-.768a1.019 1.019 0 00-.768-.312c-.312 0-.568.104-.768.312-.2.208-.3.464-.3.768s.1.56.3.768zM293.4 181.6h.72v8.4h-.84v-7.476l-1.884.564-.216-.72 2.22-.768zm7.798 7.368c-.552.784-1.332 1.176-2.34 1.176-1.008 0-1.792-.392-2.352-1.176-.552-.792-.828-1.848-.828-3.168s.276-2.372.828-3.156c.56-.792 1.344-1.188 2.352-1.188 1.008 0 1.788.396 2.34 1.188.56.784.84 1.836.84 3.156s-.28 2.376-.84 3.168zm-4.068-.564c.416.616.992.924 1.728.924s1.308-.308 1.716-.924c.416-.616.624-1.484.624-2.604s-.208-1.988-.624-2.604c-.408-.616-.98-.924-1.716-.924s-1.312.308-1.728.924c-.408.616-.612 1.484-.612 2.604s.204 1.988.612 2.604zm11.627.564c-.552.784-1.332 1.176-2.34 1.176-1.008 0-1.792-.392-2.352-1.176-.552-.792-.828-1.848-.828-3.168s.276-2.372.828-3.156c.56-.792 1.344-1.188 2.352-1.188 1.008 0 1.788.396 2.34 1.188.56.784.84 1.836.84 3.156s-.28 2.376-.84 3.168zm-4.068-.564c.416.616.992.924 1.728.924s1.308-.308 1.716-.924c.416-.616.624-1.484.624-2.604s-.208-1.988-.624-2.604c-.408-.616-.98-.924-1.716-.924s-1.312.308-1.728.924c-.408.616-.612 1.484-.612 2.604s.204 1.988.612 2.604zm7.828-3.348c-.52 0-.956-.172-1.308-.516a1.748 1.748 0 01-.528-1.284c0-.504.176-.928.528-1.272a1.776 1.776 0 011.308-.528c.52 0 .956.176 1.308.528.352.344.528.768.528 1.272s-.172.932-.516 1.284c-.344.344-.784.516-1.32.516zm-.768-1.032c.2.208.456.312.768.312s.568-.104.768-.312c.2-.208.3-.464.3-.768s-.1-.56-.3-.768a1.019 1.019 0 00-.768-.312c-.312 0-.568.104-.768.312-.2.208-.3.464-.3.768s.1.56.3.768zm-.648 4.836l5.628-6.324.516.288-5.64 6.324-.504-.288zm6.12.768c-.352.344-.788.516-1.308.516s-.956-.172-1.308-.516a1.748 1.748 0 01-.528-1.284c0-.504.176-.928.528-1.272a1.776 1.776 0 011.308-.528c.52 0 .956.176 1.308.528.352.344.528.768.528 1.272s-.176.932-.528 1.284zm-2.076-.516c.2.208.456.312.768.312s.568-.104.768-.312c.2-.208.3-.464.3-.768s-.1-.56-.3-.768a1.019 1.019 0 00-.768-.312c-.312 0-.568.104-.768.312-.2.208-.3.464-.3.768s.1.56.3.768z" fill="#757575" fill-opacity=".6"/><rect x="1514" y="62" width="541" height="238" rx="16" fill="url(#paint5_linear_303_310)" fill-opacity=".6"/><rect x="1514.5" y="62.5" width="540" height="237" rx="15.5" stroke="url(#paint6_linear_303_310)" stroke-opacity=".6"/><path d="M1544.77 129.118c1.71 0 2.47-.896 2.47-2.898v-5.32h1.13v5.432c0 2.562-1.17 3.808-3.6 3.808-2.4 0-3.58-1.246-3.58-3.808V120.9h1.13v5.32c0 2.016.75 2.898 2.45 2.898zm5.98.882v-7.49h.81l.22 1.008c.62-.686 1.39-1.148 2.54-1.148 1.7 0 2.78 1.106 2.78 2.898V130h-1.08v-4.522c0-1.372-.72-2.142-2-2.142-.87 0-1.62.448-2.2 1.19V130h-1.07zm8.66 0v-10.22h1.08V130h-1.08zm2.9-3.766c0-2.492 1.31-3.864 3.74-3.864 2.41 0 3.71 1.372 3.71 3.864 0 2.534-1.3 3.906-3.71 3.906-2.43 0-3.74-1.372-3.74-3.906zm1.1 0c0 1.974.86 2.926 2.63 2.926 1.76 0 2.63-.966 2.63-2.926 0-1.918-.88-2.898-2.63-2.898s-2.63.966-2.63 2.898zm11.24-2.898c-1.74.014-2.58.98-2.58 2.912 0 1.96.87 2.912 2.63 2.912 1.35 0 2.09-.546 2.24-1.694h1.07c-.14 1.764-1.39 2.674-3.31 2.674-2.38 0-3.68-1.386-3.68-3.906 0-2.492 1.28-3.864 3.67-3.864 1.93 0 3.16.91 3.3 2.674h-1.06c-.14-1.148-.88-1.708-2.28-1.708zm5.18 6.664v-10.22h1.07v5.656h1.29l2.24-2.926h1.42l-2.68 3.318 3.12 4.172h-1.41l-2.63-3.542h-1.35V130h-1.07zm13.07-2.436c0 1.176.46 1.638 1.61 1.638.33 0 .71-.028.96-.07v.91c-.22.042-.71.098-1.13.098-1.68 0-2.52-.798-2.52-2.38v-4.396h-1.64v-.854h1.64v-1.974l1.08-.28v2.254h2.52v.854h-2.52v4.2zm4.11 2.436v-10.22h1.08v3.696c.6-.672 1.36-1.106 2.46-1.106 1.71 0 2.78 1.106 2.78 2.898V130h-1.08v-4.522c0-1.372-.72-2.142-1.99-2.142-.85 0-1.6.448-2.17 1.19V130h-1.08zm11.77.14c-2.4 0-3.7-1.372-3.7-3.906 0-2.492 1.25-3.864 3.56-3.864 2.22 0 3.5 1.232 3.5 3.36 0 .322-.03.616-.05.784h-5.9c.08 1.778.93 2.646 2.57 2.646 1.22 0 1.93-.448 2.17-1.358h1.08c-.34 1.54-1.44 2.338-3.23 2.338zm-2.58-4.452h4.86c0-1.526-.84-2.352-2.42-2.352-1.47 0-2.29.784-2.44 2.352zm13.94 4.312v-8.078h-3.39V120.9h7.89v1.022h-3.37V130h-1.13zm6.05 0v-10.22h1.08v3.696c.6-.672 1.35-1.106 2.46-1.106 1.71 0 2.77 1.106 2.77 2.898V130h-1.08v-4.522c0-1.372-.71-2.142-1.98-2.142-.86 0-1.6.448-2.17 1.19V130h-1.08zm8.63 0v-7.49h.85l.17 1.148c.54-.868 1.34-1.288 2.45-1.288.12 0 .32.014.43.042v1.008a3.552 3.552 0 00-.57-.056c-1.37 0-2.14.756-2.26 2.254V130h-1.07zm5.35-9.702c0-.448.32-.756.77-.756.46 0 .78.308.78.756s-.32.77-.78.77a.742.742 0 01-.77-.77zm.24 9.702v-7.49h1.07V130h-1.07zm3.46 0v-10.22h1.07V130h-1.07zm3.45 0v-10.22h1.08V130h-1.08zm3.23-9.702c0-.448.32-.756.77-.756.46 0 .78.308.78.756s-.32.77-.78.77a.742.742 0 01-.77-.77zm.23 9.702v-7.49h1.08V130h-1.08zm3.46 0v-7.49h.81l.23 1.008c.61-.686 1.38-1.148 2.53-1.148 1.71 0 2.79 1.106 2.79 2.898V130h-1.08v-4.522c0-1.372-.73-2.142-2-2.142-.87 0-1.63.448-2.2 1.19V130h-1.08zm13.98-.868v-.952c-.65.602-1.4.896-2.45.896-2.15 0-3.42-1.19-3.42-3.318 0-2.184 1.2-3.388 3.29-3.388 1.12 0 1.97.322 2.67.952l.19-.812h.79v6.622c0 2.296-1.12 3.43-3.34 3.43-1.93 0-3.11-.924-3.25-2.534h1.09c.13 1.022.93 1.596 2.2 1.596 1.54 0 2.23-.756 2.23-2.492zm0-2.03v-2.716c-.56-.658-1.35-1.05-2.33-1.05-1.65 0-2.43.784-2.43 2.408 0 1.568.89 2.394 2.5 2.394.95 0 1.7-.364 2.26-1.036zm10.65-6.202c2.17 0 3.43 1.106 3.43 3.024 0 1.946-1.26 3.164-3.43 3.164-.31 0-1.56-.014-2.34-.056V130h-1.13v-9.1h3.47zm-2.34 5.11c.71.042 1.92.056 2.2.056 1.58 0 2.39-.798 2.39-2.142 0-1.33-.81-2.002-2.39-2.002h-2.2v4.088zm7.09.224c0-2.492 1.31-3.864 3.74-3.864 2.41 0 3.71 1.372 3.71 3.864 0 2.534-1.3 3.906-3.71 3.906-2.43 0-3.74-1.372-3.74-3.906zm1.1 0c0 1.974.86 2.926 2.63 2.926 1.76 0 2.63-.966 2.63-2.926 0-1.918-.88-2.898-2.63-2.898s-2.63.966-2.63 2.898zm9.88 1.33c0 1.176.46 1.638 1.61 1.638.34 0 .72-.028.97-.07v.91c-.23.042-.72.098-1.14.098-1.68 0-2.52-.798-2.52-2.38v-4.396h-1.63v-.854h1.63v-1.974l1.08-.28v2.254h2.52v.854h-2.52v4.2zm7.25 2.576c-2.39 0-3.69-1.372-3.69-3.906 0-2.492 1.24-3.864 3.55-3.864 2.23 0 3.5 1.232 3.5 3.36 0 .322-.02.616-.04.784h-5.91c.09 1.778.94 2.646 2.58 2.646 1.22 0 1.93-.448 2.17-1.358h1.08c-.34 1.54-1.44 2.338-3.24 2.338zm-2.57-4.452h4.86c0-1.526-.84-2.352-2.43-2.352-1.47 0-2.28.784-2.43 2.352zm7.75 4.312v-7.49h.81l.23 1.008c.61-.686 1.38-1.148 2.53-1.148 1.71 0 2.79 1.106 2.79 2.898V130h-1.08v-4.522c0-1.372-.73-2.142-2-2.142-.87 0-1.63.448-2.2 1.19V130h-1.08zm10.38-2.436c0 1.176.46 1.638 1.61 1.638.33 0 .71-.028.96-.07v.91c-.22.042-.71.098-1.13.098-1.68 0-2.52-.798-2.52-2.38v-4.396h-1.64v-.854h1.64v-1.974l1.08-.28v2.254h2.52v.854h-2.52v4.2zm3.87-7.266c0-.448.33-.756.77-.756.47 0 .79.308.79.756s-.32.77-.79.77a.747.747 0 01-.77-.77zm.24 9.702v-7.49h1.08V130h-1.08zm2.9-2.016c0-1.302.91-2.1 2.52-2.1h2.54v-.924c0-1.078-.65-1.624-1.88-1.624-1.15 0-1.76.406-1.88 1.246h-1.1c.12-1.456 1.17-2.212 3.06-2.198 1.74.014 2.87.952 2.87 2.38V130h-.81l-.19-1.092c-.52.812-1.39 1.232-2.57 1.232-1.56 0-2.56-.84-2.56-2.156zm5.06-.084v-1.232h-2.37c-.99 0-1.6.532-1.6 1.33 0 .784.62 1.26 1.63 1.26 1.09 0 1.97-.532 2.34-1.358zm3.39 2.1v-10.22h1.08V130h-1.08zm6.54-3.766c0-2.492 1.3-3.864 3.73-3.864 2.41 0 3.71 1.372 3.71 3.864 0 2.534-1.3 3.906-3.71 3.906-2.43 0-3.73-1.372-3.73-3.906zm1.09 0c0 1.974.87 2.926 2.63 2.926 1.76 0 2.63-.966 2.63-2.926 0-1.918-.88-2.898-2.63-2.898s-2.63.966-2.63 2.898zm9.76 3.766h-1.08v-6.636h-1.63v-.854h1.63v-.504c0-1.638.89-2.366 2.67-2.366.38 0 1 .014 1.35.042v.938c-.35-.028-.97-.042-1.38-.042-1.41 0-1.56.686-1.56 1.932h2.92v.854h-2.92V130zm14.44-2.478c0 1.554-1.43 2.618-3.55 2.618-2.19 0-3.59-1.12-3.53-2.772h1.12c0 1.12.95 1.778 2.57 1.764 1.46-.014 2.23-.588 2.23-1.61 0-1.036-.85-1.344-2.53-1.498-2.1-.182-3.35-.896-3.35-2.548 0-1.624 1.41-2.716 3.51-2.716 2.01 0 3.32 1.008 3.43 2.59h-1.12c-.14-1.036-.98-1.596-2.36-1.582-1.44.014-2.28.63-2.28 1.666 0 1.106.86 1.484 2.38 1.624 2.24.182 3.48.826 3.48 2.464zm3.63.042c0 1.176.47 1.638 1.61 1.638.34 0 .72-.028.97-.07v.91c-.22.042-.71.098-1.13.098-1.68 0-2.52-.798-2.52-2.38v-4.396h-1.64v-.854h1.64v-1.974l1.07-.28v2.254h2.52v.854h-2.52v4.2zm3.56-1.33c0-2.492 1.3-3.864 3.74-3.864 2.41 0 3.71 1.372 3.71 3.864 0 2.534-1.3 3.906-3.71 3.906-2.44 0-3.74-1.372-3.74-3.906zm1.09 0c0 1.974.87 2.926 2.63 2.926 1.77 0 2.64-.966 2.64-2.926 0-1.918-.89-2.898-2.64-2.898s-2.63.966-2.63 2.898zm8.18 3.766v-7.49h.85l.17 1.148c.55-.868 1.34-1.288 2.45-1.288.13 0 .32.014.43.042v1.008a3.552 3.552 0 00-.57-.056c-1.37 0-2.14.756-2.25 2.254V130h-1.08zm5.59 0v-7.49h.81l.21.98c.58-.672 1.28-1.12 2.31-1.12 1.05 0 1.82.476 2.23 1.302.63-.784 1.44-1.302 2.57-1.302 1.6 0 2.58 1.092 2.58 2.828V130h-1.08v-4.592c0-1.33-.64-2.072-1.79-2.072-.77 0-1.48.434-2 1.204.03.21.05.42.05.658V130h-1.07v-4.592c0-1.33-.63-2.072-1.78-2.072-.77 0-1.46.434-1.96 1.19V130h-1.08zm12.67 2.45v-.952c.23.014.89.028 1.12.028.54 0 .93-.266 1.17-.896l.18-.504-3.1-7.616h1.17l2.44 6.244 2.38-6.244h1.17l-3.24 8.204c-.44 1.106-.97 1.764-2.09 1.764-.24 0-.97-.014-1.2-.028zm7.93-9.324c0-.462.33-.784.79-.784.49 0 .81.322.81.784s-.32.784-.81.784c-.46 0-.79-.322-.79-.784zm0 6.23c0-.462.33-.784.79-.784.49 0 .81.322.81.784s-.32.784-.81.784c-.46 0-.79-.322-.79-.784zm6.75-8.456h1.16l2.37 7.574 2.37-7.574h1.12l2.36 7.574 2.37-7.574h1.16l-2.9 9.1h-1.2l-2.35-7.518-2.36 7.518h-1.2l-2.9-9.1zm14.42 9.1v-10.22h1.08v3.696c.6-.672 1.35-1.106 2.46-1.106 1.71 0 2.77 1.106 2.77 2.898V130h-1.08v-4.522c0-1.372-.71-2.142-1.98-2.142-.86 0-1.6.448-2.17 1.19V130h-1.08zm11.76.14c-2.39 0-3.69-1.372-3.69-3.906 0-2.492 1.24-3.864 3.55-3.864 2.23 0 3.5 1.232 3.5 3.36 0 .322-.03.616-.04.784h-5.91c.09 1.778.94 2.646 2.58 2.646 1.22 0 1.93-.448 2.17-1.358h1.08c-.34 1.54-1.45 2.338-3.24 2.338zm-2.57-4.452h4.85c0-1.526-.84-2.352-2.42-2.352-1.47 0-2.28.784-2.43 2.352zm7.75 4.312v-7.49h.85l.17 1.148c.55-.868 1.34-1.288 2.45-1.288.13 0 .32.014.43.042v1.008a3.552 3.552 0 00-.57-.056c-1.37 0-2.14.756-2.25 2.254V130h-1.08zm8.73.14c-2.4 0-3.7-1.372-3.7-3.906 0-2.492 1.25-3.864 3.56-3.864 2.22 0 3.5 1.232 3.5 3.36 0 .322-.03.616-.05.784h-5.9c.08 1.778.93 2.646 2.57 2.646 1.22 0 1.93-.448 2.17-1.358h1.08c-.34 1.54-1.44 2.338-3.23 2.338zm-2.58-4.452h4.86c0-1.526-.84-2.352-2.42-2.352-1.47 0-2.29.784-2.44 2.352zm11.53 4.312v-9.1h1.13v8.078h4.76V130h-5.89zm7.47-9.702c0-.448.32-.756.77-.756.46 0 .78.308.78.756s-.32.77-.78.77a.742.742 0 01-.77-.77zm.24 9.702v-7.49h1.07V130h-1.07zm8.76-.868v-.952c-.64.602-1.4.896-2.45.896-2.14 0-3.41-1.19-3.41-3.318 0-2.184 1.2-3.388 3.29-3.388 1.12 0 1.97.322 2.67.952l.18-.812h.8v6.622c0 2.296-1.12 3.43-3.35 3.43-1.93 0-3.1-.924-3.24-2.534h1.09c.12 1.022.92 1.596 2.2 1.596 1.54 0 2.22-.756 2.22-2.492zm0-2.03v-2.716c-.56-.658-1.34-1.05-2.32-1.05-1.65 0-2.44.784-2.44 2.408 0 1.568.9 2.394 2.51 2.394.95 0 1.69-.364 2.25-1.036zm3.4 2.898v-10.22h1.08v3.696c.6-.672 1.36-1.106 2.47-1.106 1.7 0 2.77 1.106 2.77 2.898V130h-1.08v-4.522c0-1.372-.71-2.142-1.99-2.142-.85 0-1.59.448-2.17 1.19V130h-1.08zm10.34-2.436c0 1.176.46 1.638 1.61 1.638.34 0 .71-.028.97-.07v.91c-.23.042-.72.098-1.14.098-1.68 0-2.52-.798-2.52-2.38v-4.396h-1.64v-.854h1.64v-1.974l1.08-.28v2.254h2.52v.854h-2.52v4.2zm4.12 2.436v-7.49h.81l.22 1.008c.62-.686 1.39-1.148 2.54-1.148 1.7 0 2.78 1.106 2.78 2.898V130h-1.08v-4.522c0-1.372-.72-2.142-2-2.142-.87 0-1.62.448-2.2 1.19V130h-1.07zm8.43-9.702c0-.448.32-.756.77-.756.46 0 .78.308.78.756s-.32.77-.78.77a.742.742 0 01-.77-.77zm.23 9.702v-7.49h1.08V130h-1.08zm3.46 0v-7.49h.81l.23 1.008c.61-.686 1.38-1.148 2.53-1.148 1.71 0 2.79 1.106 2.79 2.898V130h-1.08v-4.522c0-1.372-.73-2.142-2-2.142-.87 0-1.63.448-2.2 1.19V130h-1.08zm13.98-.868v-.952c-.65.602-1.4.896-2.45.896-2.15 0-3.42-1.19-3.42-3.318 0-2.184 1.2-3.388 3.29-3.388 1.12 0 1.97.322 2.67.952l.19-.812h.79v6.622c0 2.296-1.12 3.43-3.34 3.43-1.93 0-3.11-.924-3.25-2.534h1.09c.13 1.022.93 1.596 2.2 1.596 1.54 0 2.23-.756 2.23-2.492zm0-2.03v-2.716c-.56-.658-1.35-1.05-2.33-1.05-1.65 0-2.43.784-2.43 2.408 0 1.568.89 2.394 2.5 2.394.95 0 1.7-.364 2.26-1.036zm3.12-.868v-.868h3.71v.868h-3.71zm5.94 3.766v-9.1h6.05v1.022h-4.91v2.968h4.59v.98h-4.59V130h-1.14zm7.45-2.016c0-1.302.91-2.1 2.52-2.1h2.54v-.924c0-1.078-.65-1.624-1.88-1.624-1.15 0-1.76.406-1.88 1.246h-1.1c.12-1.456 1.17-2.212 3.06-2.198 1.74.014 2.87.952 2.87 2.38V130h-.81l-.19-1.092c-.52.812-1.39 1.232-2.57 1.232-1.56 0-2.56-.84-2.56-2.156zm5.06-.084v-1.232h-2.37c-.99 0-1.6.532-1.6 1.33 0 .784.62 1.26 1.63 1.26 1.09 0 1.97-.532 2.34-1.358zm8.88 0c0 1.372-1.14 2.24-2.9 2.24-1.97 0-3.19-1.008-3.14-2.464h1.07c0 .924.78 1.526 2.14 1.512 1.11-.014 1.74-.448 1.74-1.274 0-.742-.61-.952-1.89-1.05-2.01-.154-3.03-.7-3.03-2.156 0-1.386 1.12-2.338 2.91-2.338 1.68 0 2.87.826 2.99 2.24h-1.1c-.12-.826-.86-1.302-1.93-1.288-1.1.014-1.78.532-1.78 1.33 0 .882.66 1.162 2.1 1.288 1.87.168 2.82.63 2.82 1.96zm3.53-.336c0 1.176.46 1.638 1.61 1.638.34 0 .72-.028.97-.07v.91c-.23.042-.72.098-1.14.098-1.68 0-2.52-.798-2.52-2.38v-4.396h-1.63v-.854h1.63v-1.974l1.08-.28v2.254h2.52v.854h-2.52v4.2zm10.3 2.436v-8.078h-3.38V120.9h7.89v1.022h-3.37V130h-1.14zm8.63.14c-2.39 0-3.7-1.372-3.7-3.906 0-2.492 1.25-3.864 3.56-3.864 2.23 0 3.5 1.232 3.5 3.36 0 .322-.03.616-.04.784h-5.91c.08 1.778.94 2.646 2.58 2.646 1.21 0 1.93-.448 2.17-1.358h1.07c-.33 1.54-1.44 2.338-3.23 2.338zm-2.58-4.452h4.86c0-1.526-.84-2.352-2.42-2.352-1.47 0-2.28.784-2.44 2.352zm13.24 2.212c0 1.372-1.13 2.24-2.89 2.24-1.98 0-3.2-1.008-3.14-2.464h1.06c0 .924.79 1.526 2.15 1.512 1.1-.014 1.73-.448 1.73-1.274 0-.742-.6-.952-1.89-1.05-2-.154-3.02-.7-3.02-2.156 0-1.386 1.12-2.338 2.91-2.338 1.68 0 2.87.826 2.98 2.24h-1.09c-.13-.826-.87-1.302-1.93-1.288-1.11.014-1.78.532-1.78 1.33 0 .882.66 1.162 2.1 1.288 1.86.168 2.81.63 2.81 1.96zm3.54-.336c0 1.176.46 1.638 1.61 1.638.34 0 .71-.028.97-.07v.91c-.23.042-.72.098-1.14.098-1.68 0-2.52-.798-2.52-2.38v-4.396h-1.64v-.854h1.64v-1.974l1.08-.28v2.254h2.52v.854h-2.52v4.2zm3.88-7.266c0-.448.32-.756.77-.756.46 0 .78.308.78.756s-.32.77-.78.77a.742.742 0 01-.77-.77zm.24 9.702v-7.49h1.07V130h-1.07zm3.45 0v-7.49h.82l.22 1.008c.62-.686 1.39-1.148 2.53-1.148 1.71 0 2.79 1.106 2.79 2.898V130h-1.08v-4.522c0-1.372-.73-2.142-2-2.142-.87 0-1.62.448-2.2 1.19V130h-1.08zm13.98-.868v-.952c-.65.602-1.4.896-2.45.896-2.14 0-3.42-1.19-3.42-3.318 0-2.184 1.21-3.388 3.29-3.388 1.12 0 1.98.322 2.68.952l.18-.812h.8v6.622c0 2.296-1.12 3.43-3.35 3.43-1.93 0-3.11-.924-3.25-2.534h1.09c.13 1.022.93 1.596 2.2 1.596 1.54 0 2.23-.756 2.23-2.492zm0-2.03v-2.716c-.56-.658-1.35-1.05-2.33-1.05-1.65 0-2.43.784-2.43 2.408 0 1.568.89 2.394 2.5 2.394.96 0 1.7-.364 2.26-1.036zm-464.42 22.42c0 1.554-1.43 2.618-3.55 2.618-2.19 0-3.59-1.12-3.53-2.772h1.12c0 1.12.95 1.778 2.57 1.764 1.46-.014 2.23-.588 2.23-1.61 0-1.036-.85-1.344-2.53-1.498-2.1-.182-3.35-.896-3.35-2.548 0-1.624 1.41-2.716 3.51-2.716 2.01 0 3.32 1.008 3.43 2.59h-1.12c-.14-1.036-.98-1.596-2.36-1.582-1.44.014-2.28.63-2.28 1.666 0 1.106.86 1.484 2.38 1.624 2.24.182 3.48.826 3.48 2.464zm1.92-5.012h.82l.18.826c.57-.546 1.38-.966 2.56-.966 2.21 0 3.54 1.47 3.54 3.878 0 2.45-1.24 3.892-3.41 3.892-1.14 0-1.99-.392-2.61-.91v3.29h-1.08v-10.01zm1.08 1.918v3.668c.59.714 1.39 1.064 2.34 1.064 1.72 0 2.59-.952 2.59-2.898 0-1.876-.95-2.912-2.65-2.912-.95 0-1.7.35-2.28 1.078zm10.97 5.712c-2.39 0-3.69-1.372-3.69-3.906 0-2.492 1.24-3.864 3.55-3.864 2.23 0 3.5 1.232 3.5 3.36 0 .322-.02.616-.04.784h-5.91c.09 1.778.94 2.646 2.58 2.646 1.22 0 1.93-.448 2.17-1.358h1.08c-.34 1.54-1.44 2.338-3.24 2.338zm-2.57-4.452h4.86c0-1.526-.84-2.352-2.43-2.352-1.47 0-2.28.784-2.43 2.352zm10.89 4.452c-2.4 0-3.7-1.372-3.7-3.906 0-2.492 1.25-3.864 3.56-3.864 2.22 0 3.5 1.232 3.5 3.36 0 .322-.03.616-.04.784h-5.91c.08 1.778.94 2.646 2.57 2.646 1.22 0 1.94-.448 2.17-1.358h1.08c-.33 1.54-1.44 2.338-3.23 2.338zm-2.58-4.452h4.86c0-1.526-.84-2.352-2.42-2.352-1.47 0-2.28.784-2.44 2.352zm14.29 4.312h-.8l-.16-.84c-.59.532-1.4.98-2.59.98-2.22 0-3.55-1.484-3.55-3.878 0-2.464 1.26-3.892 3.42-3.892 1.06 0 1.9.28 2.6.882v-3.444h1.08V152zm-1.08-1.918v-3.668c-.58-.728-1.38-1.078-2.33-1.078-1.73 0-2.58.966-2.58 2.912 0 1.876.94 2.912 2.63 2.912.95 0 1.71-.35 2.28-1.078zm11.06-.448l-2.69-4.858V152h-1.14v-9.1h1.31l3.13 5.628 3.12-5.628h1.31v9.1h-1.12v-7.224l-2.71 4.858h-1.21zm10.7 2.506c-2.4 0-3.7-1.372-3.7-3.906 0-2.492 1.25-3.864 3.56-3.864 2.22 0 3.5 1.232 3.5 3.36 0 .322-.03.616-.05.784h-5.9c.08 1.778.93 2.646 2.57 2.646 1.22 0 1.93-.448 2.17-1.358h1.08c-.34 1.54-1.44 2.338-3.23 2.338zm-2.58-4.452h4.86c0-1.526-.84-2.352-2.42-2.352-1.47 0-2.29.784-2.44 2.352zm10.89 4.452c-2.4 0-3.7-1.372-3.7-3.906 0-2.492 1.25-3.864 3.56-3.864 2.22 0 3.5 1.232 3.5 3.36 0 .322-.03.616-.04.784h-5.91c.08 1.778.94 2.646 2.57 2.646 1.22 0 1.94-.448 2.17-1.358h1.08c-.33 1.54-1.44 2.338-3.23 2.338zm-2.58-4.452h4.86c0-1.526-.84-2.352-2.42-2.352-1.47 0-2.28.784-2.44 2.352zm9.46 1.876c0 1.176.47 1.638 1.61 1.638.34 0 .72-.028.97-.07v.91c-.22.042-.71.098-1.13.098-1.68 0-2.52-.798-2.52-2.38v-4.396h-1.64v-.854h1.64v-1.974l1.07-.28v2.254h2.52v.854h-2.52v4.2zm9.61.336c0 1.372-1.14 2.24-2.9 2.24-1.97 0-3.19-1.008-3.14-2.464h1.07c0 .924.78 1.526 2.14 1.512 1.11-.014 1.74-.448 1.74-1.274 0-.742-.61-.952-1.89-1.05-2.01-.154-3.03-.7-3.03-2.156 0-1.386 1.12-2.338 2.91-2.338 1.68 0 2.87.826 2.99 2.24h-1.1c-.12-.826-.86-1.302-1.93-1.288-1.1.014-1.78.532-1.78 1.33 0 .882.66 1.162 2.1 1.288 1.87.168 2.82.63 2.82 1.96zm7.17-.336c0 1.176.46 1.638 1.61 1.638.33 0 .71-.028.96-.07v.91c-.22.042-.71.098-1.13.098-1.68 0-2.52-.798-2.52-2.38v-4.396h-1.64v-.854h1.64v-1.974l1.08-.28v2.254h2.52v.854h-2.52v4.2zm4.11 2.436v-10.22h1.08v3.696c.6-.672 1.36-1.106 2.47-1.106 1.7 0 2.77 1.106 2.77 2.898V152h-1.08v-4.522c0-1.372-.71-2.142-1.99-2.142-.85 0-1.59.448-2.17 1.19V152h-1.08zm11.77.14c-2.4 0-3.7-1.372-3.7-3.906 0-2.492 1.25-3.864 3.56-3.864 2.22 0 3.5 1.232 3.5 3.36 0 .322-.03.616-.04.784h-5.91c.08 1.778.94 2.646 2.57 2.646 1.22 0 1.94-.448 2.17-1.358h1.08c-.33 1.54-1.44 2.338-3.23 2.338zm-2.58-4.452h4.86c0-1.526-.84-2.352-2.42-2.352-1.47 0-2.28.784-2.44 2.352zm15-4.788c2.17 0 3.43 1.106 3.43 3.024 0 1.946-1.26 3.164-3.43 3.164-.31 0-1.55-.014-2.34-.056V152h-1.13v-9.1h3.47zm-2.34 5.11c.72.042 1.92.056 2.2.056 1.58 0 2.4-.798 2.4-2.142 0-1.33-.82-2.002-2.4-2.002h-2.2v4.088zm7.66 3.99v-7.49h.85l.17 1.148c.55-.868 1.34-1.288 2.45-1.288.13 0 .32.014.43.042v1.008a3.552 3.552 0 00-.57-.056c-1.37 0-2.14.756-2.25 2.254V152h-1.08zm8.73.14c-2.4 0-3.7-1.372-3.7-3.906 0-2.492 1.25-3.864 3.56-3.864 2.22 0 3.5 1.232 3.5 3.36 0 .322-.03.616-.05.784h-5.9c.08 1.778.93 2.646 2.57 2.646 1.22 0 1.93-.448 2.17-1.358h1.08c-.34 1.54-1.44 2.338-3.23 2.338zm-2.58-4.452h4.86c0-1.526-.84-2.352-2.42-2.352-1.47 0-2.29.784-2.44 2.352zm10.82-2.352c-1.74.014-2.58.98-2.58 2.912 0 1.96.87 2.912 2.63 2.912 1.35 0 2.09-.546 2.24-1.694h1.07c-.14 1.764-1.39 2.674-3.31 2.674-2.38 0-3.68-1.386-3.68-3.906 0-2.492 1.28-3.864 3.67-3.864 1.93 0 3.16.91 3.3 2.674h-1.06c-.14-1.148-.88-1.708-2.28-1.708zm4.94-3.038c0-.448.32-.756.77-.756.46 0 .78.308.78.756s-.32.77-.78.77a.742.742 0 01-.77-.77zm.24 9.702v-7.49h1.08V152h-1.08zm8.94-2.1c0 1.372-1.13 2.24-2.89 2.24-1.98 0-3.2-1.008-3.14-2.464h1.06c0 .924.79 1.526 2.15 1.512 1.1-.014 1.73-.448 1.73-1.274 0-.742-.6-.952-1.89-1.05-2-.154-3.02-.7-3.02-2.156 0-1.386 1.12-2.338 2.91-2.338 1.68 0 2.87.826 2.98 2.24h-1.09c-.13-.826-.87-1.302-1.93-1.288-1.11.014-1.78.532-1.78 1.33 0 .882.66 1.162 2.1 1.288 1.86.168 2.81.63 2.81 1.96zm1.59-7.602c0-.448.32-.756.77-.756.46 0 .79.308.79.756s-.33.77-.79.77a.742.742 0 01-.77-.77zM1701 152v-7.49h1.08V152H1701zm2.9-3.766c0-2.492 1.3-3.864 3.74-3.864 2.41 0 3.71 1.372 3.71 3.864 0 2.534-1.3 3.906-3.71 3.906-2.44 0-3.74-1.372-3.74-3.906zm1.09 0c0 1.974.87 2.926 2.63 2.926 1.77 0 2.64-.966 2.64-2.926 0-1.918-.89-2.898-2.64-2.898s-2.63.966-2.63 2.898zm8.18 3.766v-7.49h.81l.22 1.008c.62-.686 1.39-1.148 2.54-1.148 1.71 0 2.78 1.106 2.78 2.898V152h-1.07v-4.522c0-1.372-.73-2.142-2.01-2.142-.86 0-1.62.448-2.19 1.19V152h-1.08zm11.74-3.766c0-2.492 1.31-3.864 3.74-3.864 2.41 0 3.71 1.372 3.71 3.864 0 2.534-1.3 3.906-3.71 3.906-2.43 0-3.74-1.372-3.74-3.906zm1.1 0c0 1.974.86 2.926 2.63 2.926 1.76 0 2.63-.966 2.63-2.926 0-1.918-.88-2.898-2.63-2.898s-2.63.966-2.63 2.898zm9.75 3.766h-1.07v-6.636h-1.63v-.854h1.63v-.504c0-1.638.89-2.366 2.67-2.366.38 0 .99.014 1.34.042v.938a20.98 20.98 0 00-1.37-.042c-1.41 0-1.57.686-1.57 1.932h2.93v.854h-2.93V152zm7.27-2.016c0-1.302.91-2.1 2.52-2.1h2.53v-.924c0-1.078-.64-1.624-1.87-1.624-1.15 0-1.77.406-1.88 1.246h-1.11c.13-1.456 1.18-2.212 3.07-2.198 1.74.014 2.87.952 2.87 2.38V152h-.81l-.2-1.092c-.52.812-1.38 1.232-2.56 1.232-1.57 0-2.56-.84-2.56-2.156zm5.05-.084v-1.232h-2.36c-1 0-1.6.532-1.6 1.33 0 .784.62 1.26 1.62 1.26 1.1 0 1.98-.532 2.34-1.358zm6.56-2.464c0-2.954 1.59-4.676 4.39-4.676 2.44 0 3.8 1.12 4.11 3.29h-1.22c-.25-1.526-1.21-2.282-2.91-2.282-2.09 0-3.21 1.302-3.21 3.654 0 2.394 1.11 3.682 3.21 3.682 1.72 0 2.66-.756 2.91-2.268h1.22c-.31 2.17-1.67 3.304-4.11 3.304-2.81 0-4.39-1.722-4.39-4.704zm10.06 7.014v-.952c.24.014.9.028 1.12.028.55 0 .94-.266 1.18-.896l.18-.504-3.11-7.616h1.18l2.44 6.244 2.38-6.244h1.17l-3.25 8.204c-.43 1.106-.96 1.764-2.08 1.764-.24 0-.97-.014-1.21-.028zm10.73-9.114c-1.73.014-2.57.98-2.57 2.912 0 1.96.87 2.912 2.63 2.912 1.34 0 2.09-.546 2.24-1.694h1.06c-.14 1.764-1.38 2.674-3.3 2.674-2.38 0-3.68-1.386-3.68-3.906 0-2.492 1.27-3.864 3.67-3.864 1.93 0 3.16.91 3.3 2.674h-1.06c-.14-1.148-.89-1.708-2.29-1.708zm5.18 6.664v-10.22h1.08V152h-1.08zm2.9-3.766c0-2.492 1.3-3.864 3.74-3.864 2.41 0 3.71 1.372 3.71 3.864 0 2.534-1.3 3.906-3.71 3.906-2.44 0-3.74-1.372-3.74-3.906zm1.09 0c0 1.974.87 2.926 2.63 2.926 1.77 0 2.64-.966 2.64-2.926 0-1.918-.89-2.898-2.64-2.898s-2.63.966-2.63 2.898zm8.18 3.766v-7.49h.81l.23 1.008c.61-.686 1.38-1.148 2.53-1.148 1.71 0 2.79 1.106 2.79 2.898V152h-1.08v-4.522c0-1.372-.73-2.142-2-2.142-.87 0-1.63.448-2.2 1.19V152h-1.08zm11.8.14c-2.39 0-3.69-1.372-3.69-3.906 0-2.492 1.24-3.864 3.55-3.864 2.23 0 3.5 1.232 3.5 3.36 0 .322-.02.616-.04.784h-5.91c.09 1.778.94 2.646 2.58 2.646 1.22 0 1.93-.448 2.17-1.358h1.08c-.34 1.54-1.44 2.338-3.24 2.338zm-2.57-4.452h4.86c0-1.526-.84-2.352-2.43-2.352-1.47 0-2.28.784-2.43 2.352zm7.47 5.866v-3.15h1.25l-.38 3.15h-.87zm6.42-3.57c0-1.302.91-2.1 2.52-2.1h2.53v-.924c0-1.078-.64-1.624-1.87-1.624-1.15 0-1.77.406-1.88 1.246h-1.1c.12-1.456 1.17-2.212 3.06-2.198 1.74.014 2.87.952 2.87 2.38V152h-.81l-.2-1.092c-.51.812-1.38 1.232-2.56 1.232-1.57 0-2.56-.84-2.56-2.156zm5.05-.084v-1.232h-2.36c-1 0-1.6.532-1.6 1.33 0 .784.62 1.26 1.63 1.26 1.09 0 1.97-.532 2.33-1.358zm3.4 2.1v-7.49h.81l.22 1.008c.62-.686 1.39-1.148 2.54-1.148 1.71 0 2.78 1.106 2.78 2.898V152h-1.07v-4.522c0-1.372-.73-2.142-2.01-2.142-.86 0-1.62.448-2.19 1.19V152h-1.08zm15.2 0h-.79l-.17-.84c-.59.532-1.4.98-2.59.98-2.21 0-3.54-1.484-3.54-3.878 0-2.464 1.26-3.892 3.41-3.892 1.07 0 1.91.28 2.61.882v-3.444h1.07V152zm-1.07-1.918v-3.668c-.59-.728-1.39-1.078-2.34-1.078-1.72 0-2.58.966-2.58 2.912 0 1.876.94 2.912 2.63 2.912.96 0 1.71-.35 2.29-1.078zm10.7-7.182c2.17 0 3.43 1.106 3.43 3.024 0 1.946-1.26 3.164-3.43 3.164-.31 0-1.56-.014-2.34-.056V152h-1.13v-9.1h3.47zm-2.34 5.11c.71.042 1.92.056 2.2.056 1.58 0 2.39-.798 2.39-2.142 0-1.33-.81-2.002-2.39-2.002h-2.2v4.088zm10.79 4.13c-2.39 0-3.7-1.372-3.7-3.906 0-2.492 1.25-3.864 3.56-3.864 2.23 0 3.5 1.232 3.5 3.36 0 .322-.03.616-.04.784h-5.91c.08 1.778.94 2.646 2.58 2.646 1.21 0 1.93-.448 2.17-1.358h1.07c-.33 1.54-1.44 2.338-3.23 2.338zm-2.58-4.452h4.86c0-1.526-.84-2.352-2.42-2.352-1.47 0-2.28.784-2.44 2.352zm7.76 4.312v-7.49h.85l.17 1.148c.55-.868 1.34-1.288 2.45-1.288.13 0 .32.014.43.042v1.008a3.552 3.552 0 00-.57-.056c-1.37 0-2.14.756-2.25 2.254V152h-1.08zm7.17 0h-1.08v-6.636h-1.62v-.854h1.62v-.504c0-1.638.9-2.366 2.68-2.366.37 0 .99.014 1.34.042v.938c-.35-.028-.97-.042-1.37-.042-1.42 0-1.57.686-1.57 1.932h2.93v.854h-2.93V152zm3.63-3.766c0-2.492 1.3-3.864 3.74-3.864 2.4 0 3.71 1.372 3.71 3.864 0 2.534-1.31 3.906-3.71 3.906-2.44 0-3.74-1.372-3.74-3.906zm1.09 0c0 1.974.87 2.926 2.63 2.926 1.77 0 2.63-.966 2.63-2.926 0-1.918-.88-2.898-2.63-2.898s-2.63.966-2.63 2.898zm8.18 3.766v-7.49h.85l.17 1.148c.55-.868 1.34-1.288 2.45-1.288.13 0 .32.014.43.042v1.008a3.552 3.552 0 00-.57-.056c-1.37 0-2.14.756-2.25 2.254V152h-1.08zm5.59 0v-7.49h.81l.21.98c.58-.672 1.28-1.12 2.31-1.12 1.05 0 1.82.476 2.23 1.302.63-.784 1.44-1.302 2.57-1.302 1.6 0 2.58 1.092 2.58 2.828V152h-1.08v-4.592c0-1.33-.64-2.072-1.79-2.072-.77 0-1.48.434-2 1.204.03.21.05.42.05.658V152h-1.07v-4.592c0-1.33-.63-2.072-1.78-2.072-.77 0-1.46.434-1.96 1.19V152h-1.08zm12.45-2.016c0-1.302.91-2.1 2.52-2.1h2.54v-.924c0-1.078-.65-1.624-1.88-1.624-1.15 0-1.76.406-1.87 1.246h-1.11c.13-1.456 1.18-2.212 3.07-2.198 1.73.014 2.87.952 2.87 2.38V152h-.82l-.19-1.092c-.52.812-1.39 1.232-2.56 1.232-1.57 0-2.57-.84-2.57-2.156zm5.06-.084v-1.232h-2.37c-.99 0-1.59.532-1.59 1.33 0 .784.61 1.26 1.62 1.26 1.09 0 1.97-.532 2.34-1.358zm3.39 2.1v-7.49h.82l.22 1.008c.62-.686 1.39-1.148 2.53-1.148 1.71 0 2.79 1.106 2.79 2.898V152h-1.08v-4.522c0-1.372-.73-2.142-2-2.142-.87 0-1.62.448-2.2 1.19V152h-1.08zm11.74-6.664c-1.74.014-2.58.98-2.58 2.912 0 1.96.87 2.912 2.63 2.912 1.35 0 2.09-.546 2.24-1.694h1.07c-.14 1.764-1.39 2.674-3.31 2.674-2.38 0-3.68-1.386-3.68-3.906 0-2.492 1.28-3.864 3.67-3.864 1.93 0 3.16.91 3.3 2.674h-1.06c-.14-1.148-.88-1.708-2.28-1.708zm8.31 6.804c-2.39 0-3.69-1.372-3.69-3.906 0-2.492 1.24-3.864 3.55-3.864 2.23 0 3.5 1.232 3.5 3.36 0 .322-.03.616-.04.784h-5.91c.09 1.778.94 2.646 2.58 2.646 1.22 0 1.93-.448 2.17-1.358h1.08c-.34 1.54-1.45 2.338-3.24 2.338zm-2.57-4.452h4.85c0-1.526-.84-2.352-2.42-2.352-1.47 0-2.28.784-2.43 2.352zm18.01 1.834c0 1.554-1.43 2.618-3.56 2.618-2.18 0-3.58-1.12-3.53-2.772h1.12c0 1.12.95 1.778 2.58 1.764 1.45-.014 2.22-.588 2.22-1.61 0-1.036-.85-1.344-2.53-1.498-2.1-.182-3.35-.896-3.35-2.548 0-1.624 1.42-2.716 3.52-2.716 2 0 3.32 1.008 3.43 2.59h-1.12c-.14-1.036-.98-1.596-2.37-1.582-1.44.014-2.28.63-2.28 1.666 0 1.106.87 1.484 2.38 1.624 2.24.182 3.49.826 3.49 2.464zm1.36-1.288c0-2.492 1.3-3.864 3.74-3.864 2.41 0 3.71 1.372 3.71 3.864 0 2.534-1.3 3.906-3.71 3.906-2.44 0-3.74-1.372-3.74-3.906zm1.09 0c0 1.974.87 2.926 2.63 2.926 1.77 0 2.64-.966 2.64-2.926 0-1.918-.89-2.898-2.64-2.898s-2.63.966-2.63 2.898zm7.62 1.75c0-1.302.91-2.1 2.52-2.1h2.53v-.924c0-1.078-.64-1.624-1.87-1.624-1.15 0-1.77.406-1.88 1.246h-1.11c.13-1.456 1.18-2.212 3.07-2.198 1.74.014 2.87.952 2.87 2.38V152h-.81l-.2-1.092c-.52.812-1.38 1.232-2.56 1.232-1.57 0-2.56-.84-2.56-2.156zm5.05-.084v-1.232h-2.36c-1 0-1.6.532-1.6 1.33 0 .784.62 1.26 1.62 1.26 1.1 0 1.98-.532 2.34-1.358zm3.4 2.1v-7.49h.85l.17 1.148c.55-.868 1.34-1.288 2.45-1.288.13 0 .32.014.43.042v1.008a3.552 3.552 0 00-.57-.056c-1.37 0-2.14.756-2.25 2.254V152h-1.08zm11.08-2.1c0 1.372-1.14 2.24-2.9 2.24-1.97 0-3.19-1.008-3.14-2.464h1.07c0 .924.78 1.526 2.14 1.512 1.11-.014 1.74-.448 1.74-1.274 0-.742-.61-.952-1.89-1.05-2.01-.154-3.03-.7-3.03-2.156 0-1.386 1.12-2.338 2.91-2.338 1.68 0 2.87.826 2.99 2.24h-1.1c-.12-.826-.86-1.302-1.93-1.288-1.1.014-1.78.532-1.78 1.33 0 .882.66 1.162 2.1 1.288 1.87.168 2.82.63 2.82 1.96zm5.6 2.1v-9.1h3.67c2.04 0 3.06.868 3.06 2.45 0 1.078-.46 1.75-1.37 2.058 1.05.294 1.57.98 1.57 2.114 0 1.61-1.06 2.478-3.16 2.478h-3.77zm1.13-5.026h2.38c1.5 0 2.06-.504 2.06-1.512s-.56-1.54-2.06-1.54h-2.38v3.052zm0 4.004h2.48c1.56 0 2.16-.532 2.16-1.568 0-1.022-.6-1.526-2.16-1.526h-2.48v3.094zm10.84 1.162c-2.4 0-3.7-1.372-3.7-3.906 0-2.492 1.25-3.864 3.56-3.864 2.22 0 3.5 1.232 3.5 3.36 0 .322-.03.616-.05.784h-5.9c.08 1.778.93 2.646 2.57 2.646 1.22 0 1.93-.448 2.17-1.358h1.08c-.34 1.54-1.44 2.338-3.23 2.338zm-2.58-4.452h4.86c0-1.526-.84-2.352-2.42-2.352-1.47 0-2.29.784-2.44 2.352zm7.13 6.762v-.952c.24.014.89.028 1.12.028.54 0 .94-.266 1.17-.896l.19-.504-3.11-7.616h1.17l2.44 6.244 2.38-6.244h1.18l-3.25 8.204c-.44 1.106-.97 1.764-2.09 1.764-.24 0-.96-.014-1.2-.028zm7.1-6.216c0-2.492 1.3-3.864 3.74-3.864 2.41 0 3.71 1.372 3.71 3.864 0 2.534-1.3 3.906-3.71 3.906-2.44 0-3.74-1.372-3.74-3.906zm1.09 0c0 1.974.87 2.926 2.64 2.926 1.76 0 2.63-.966 2.63-2.926 0-1.918-.88-2.898-2.63-2.898s-2.64.966-2.64 2.898zm8.18 3.766v-7.49h.81l.23 1.008c.61-.686 1.38-1.148 2.53-1.148 1.71 0 2.79 1.106 2.79 2.898V152h-1.08v-4.522c0-1.372-.73-2.142-2-2.142-.87 0-1.63.448-2.2 1.19V152h-1.08zm15.21 0h-.8l-.17-.84c-.59.532-1.4.98-2.59.98-2.21 0-3.54-1.484-3.54-3.878 0-2.464 1.26-3.892 3.42-3.892 1.06 0 1.9.28 2.6.882v-3.444h1.08V152zm-1.08-1.918v-3.668c-.59-.728-1.39-1.078-2.34-1.078-1.72 0-2.57.966-2.57 2.912 0 1.876.93 2.912 2.63 2.912.95 0 1.71-.35 2.28-1.078zm-484.18 21.482c0 1.176.46 1.638 1.61 1.638.33 0 .71-.028.96-.07v.91c-.22.042-.71.098-1.13.098-1.68 0-2.52-.798-2.52-2.38v-4.396h-1.64v-.854h1.64v-1.974l1.08-.28v2.254h2.52v.854h-2.52v4.2zm4.11 2.436v-10.22h1.08v3.696c.6-.672 1.36-1.106 2.47-1.106 1.7 0 2.77 1.106 2.77 2.898V174h-1.08v-4.522c0-1.372-.71-2.142-1.99-2.142-.85 0-1.59.448-2.17 1.19V174h-1.08zm11.77.14c-2.4 0-3.7-1.372-3.7-3.906 0-2.492 1.25-3.864 3.56-3.864 2.22 0 3.5 1.232 3.5 3.36 0 .322-.03.616-.04.784h-5.91c.08 1.778.94 2.646 2.57 2.646 1.22 0 1.94-.448 2.17-1.358h1.08c-.33 1.54-1.44 2.338-3.23 2.338zm-2.58-4.452h4.86c0-1.526-.84-2.352-2.42-2.352-1.47 0-2.28.784-2.44 2.352zm11.53 4.312v-9.1h1.13v4.004h4.92V164.9h1.12v9.1h-1.12v-4.116h-4.92V174h-1.13zm9.13-3.766c0-2.492 1.3-3.864 3.74-3.864 2.41 0 3.71 1.372 3.71 3.864 0 2.534-1.3 3.906-3.71 3.906-2.44 0-3.74-1.372-3.74-3.906zm1.09 0c0 1.974.87 2.926 2.63 2.926 1.77 0 2.64-.966 2.64-2.926 0-1.918-.89-2.898-2.64-2.898s-2.63.966-2.63 2.898zm8.18 3.766v-7.49h.85l.17 1.148c.55-.868 1.35-1.288 2.45-1.288.13 0 .32.014.44.042v1.008c-.16-.028-.4-.056-.58-.056-1.37 0-2.14.756-2.25 2.254V174h-1.08zm5.35-9.702c0-.448.33-.756.77-.756.47 0 .79.308.79.756s-.32.77-.79.77a.747.747 0 01-.77-.77zm.24 9.702v-7.49h1.08V174h-1.08zm2.9-6.636v-.854h5.61v.854l-4.31 5.782h4.31V174h-5.61v-.854l4.33-5.782h-4.33zm6.88 2.87c0-2.492 1.3-3.864 3.74-3.864 2.4 0 3.71 1.372 3.71 3.864 0 2.534-1.31 3.906-3.71 3.906-2.44 0-3.74-1.372-3.74-3.906zm1.09 0c0 1.974.87 2.926 2.63 2.926 1.77 0 2.63-.966 2.63-2.926 0-1.918-.88-2.898-2.63-2.898s-2.63.966-2.63 2.898zm8.18 3.766v-7.49h.81l.22 1.008c.62-.686 1.39-1.148 2.54-1.148 1.7 0 2.78 1.106 2.78 2.898V174h-1.08v-4.522c0-1.372-.72-2.142-2-2.142-.87 0-1.62.448-2.2 1.19V174h-1.07zm8.38-.644c0-.462.33-.784.79-.784.49 0 .81.322.81.784s-.32.784-.81.784c-.46 0-.79-.322-.79-.784zm6.47-8.456h1.16l2.37 7.574 2.36-7.574h1.12l2.37 7.574 2.37-7.574h1.16l-2.9 9.1h-1.2l-2.36-7.518-2.35 7.518h-1.2l-2.9-9.1zm14.18-.602c0-.448.32-.756.77-.756.46 0 .78.308.78.756s-.32.77-.78.77a.742.742 0 01-.77-.77zm.24 9.702v-7.49h1.08V174h-1.08zm5.16-2.436c0 1.176.47 1.638 1.61 1.638.34 0 .72-.028.97-.07v.91c-.22.042-.71.098-1.13.098-1.68 0-2.52-.798-2.52-2.38v-4.396h-1.64v-.854h1.64v-1.974l1.07-.28v2.254h2.52v.854h-2.52v4.2zm4.12 2.436v-10.22h1.08v3.696c.6-.672 1.36-1.106 2.46-1.106 1.71 0 2.77 1.106 2.77 2.898V174h-1.07v-4.522c0-1.372-.72-2.142-1.99-2.142-.86 0-1.6.448-2.17 1.19V174h-1.08zm18.89-2.478c0 1.554-1.43 2.618-3.56 2.618-2.18 0-3.58-1.12-3.53-2.772h1.12c0 1.12.95 1.778 2.58 1.764 1.45-.014 2.22-.588 2.22-1.61 0-1.036-.85-1.344-2.53-1.498-2.1-.182-3.35-.896-3.35-2.548 0-1.624 1.42-2.716 3.52-2.716 2 0 3.32 1.008 3.43 2.59h-1.12c-.14-1.036-.98-1.596-2.37-1.582-1.44.014-2.28.63-2.28 1.666 0 1.106.87 1.484 2.38 1.624 2.24.182 3.49.826 3.49 2.464zm3.63.042c0 1.176.46 1.638 1.61 1.638.33 0 .71-.028.96-.07v.91c-.22.042-.71.098-1.13.098-1.68 0-2.52-.798-2.52-2.38v-4.396h-1.64v-.854h1.64v-1.974l1.08-.28v2.254h2.52v.854h-2.52v4.2zm3.55-1.33c0-2.492 1.31-3.864 3.74-3.864 2.41 0 3.71 1.372 3.71 3.864 0 2.534-1.3 3.906-3.71 3.906-2.43 0-3.74-1.372-3.74-3.906zm1.1 0c0 1.974.86 2.926 2.63 2.926 1.76 0 2.63-.966 2.63-2.926 0-1.918-.88-2.898-2.63-2.898s-2.63.966-2.63 2.898zm8.17 3.766v-7.49h.86l.16 1.148c.55-.868 1.35-1.288 2.45-1.288.13 0 .33.014.44.042v1.008a3.681 3.681 0 00-.58-.056c-1.37 0-2.14.756-2.25 2.254V174h-1.08zm5.59 0v-7.49h.82l.21.98c.57-.672 1.27-1.12 2.31-1.12 1.05 0 1.82.476 2.22 1.302.63-.784 1.44-1.302 2.58-1.302 1.59 0 2.57 1.092 2.57 2.828V174h-1.07v-4.592c0-1.33-.65-2.072-1.8-2.072-.77 0-1.48.434-2 1.204.03.21.06.42.06.658V174h-1.08v-4.592c0-1.33-.63-2.072-1.78-2.072-.77 0-1.45.434-1.96 1.19V174h-1.08zm12.67 2.45v-.952c.24.014.9.028 1.12.028.55 0 .94-.266 1.18-.896l.18-.504-3.11-7.616h1.18l2.43 6.244 2.38-6.244h1.18l-3.25 8.204c-.43 1.106-.97 1.764-2.09 1.764-.23 0-.96-.014-1.2-.028zm7.66-.896v-3.15h1.24l-.37 3.15h-.87zm6.11-10.654h1.33l2.67 4.564 2.68-4.564h1.33l-3.45 5.698V174h-1.13v-3.43l-3.43-5.67zm7.96 5.334c0-2.492 1.31-3.864 3.74-3.864 2.41 0 3.71 1.372 3.71 3.864 0 2.534-1.3 3.906-3.71 3.906-2.43 0-3.74-1.372-3.74-3.906zm1.1 0c0 1.974.86 2.926 2.63 2.926 1.76 0 2.63-.966 2.63-2.926 0-1.918-.88-2.898-2.63-2.898s-2.63.966-2.63 2.898zm14.21-3.724V174h-.8l-.23-.994c-.58.686-1.33 1.134-2.42 1.134-1.64 0-2.66-1.106-2.66-2.898v-4.732h1.08v4.522c0 1.372.67 2.142 1.88 2.142.82 0 1.52-.448 2.07-1.204v-5.46h1.08zm2.37 7.49v-7.49h.85l.17 1.148c.55-.868 1.35-1.288 2.45-1.288.13 0 .32.014.44.042v1.008c-.16-.028-.4-.056-.58-.056-1.37 0-2.14.756-2.25 2.254V174h-1.08zm11.78 0v-8.078h-3.39V164.9h7.9v1.022h-3.38V174h-1.13zm8.62.14c-2.39 0-3.69-1.372-3.69-3.906 0-2.492 1.24-3.864 3.55-3.864 2.23 0 3.5 1.232 3.5 3.36 0 .322-.02.616-.04.784h-5.91c.09 1.778.94 2.646 2.58 2.646 1.22 0 1.93-.448 2.17-1.358h1.08c-.34 1.54-1.44 2.338-3.24 2.338zm-2.57-4.452h4.86c0-1.526-.84-2.352-2.43-2.352-1.47 0-2.28.784-2.43 2.352zm13.24 2.212c0 1.372-1.14 2.24-2.9 2.24-1.97 0-3.19-1.008-3.14-2.464h1.07c0 .924.78 1.526 2.14 1.512 1.11-.014 1.74-.448 1.74-1.274 0-.742-.61-.952-1.89-1.05-2.01-.154-3.03-.7-3.03-2.156 0-1.386 1.12-2.338 2.91-2.338 1.68 0 2.87.826 2.99 2.24h-1.1c-.12-.826-.86-1.302-1.93-1.288-1.1.014-1.78.532-1.78 1.33 0 .882.66 1.162 2.1 1.288 1.87.168 2.82.63 2.82 1.96zm3.53-.336c0 1.176.47 1.638 1.61 1.638.34 0 .72-.028.97-.07v.91c-.22.042-.71.098-1.13.098-1.68 0-2.52-.798-2.52-2.38v-4.396h-1.64v-.854h1.64v-1.974l1.07-.28v2.254h2.52v.854h-2.52v4.2zm3.88-7.266c0-.448.32-.756.77-.756.46 0 .79.308.79.756s-.33.77-.79.77a.742.742 0 01-.77-.77zm.24 9.702v-7.49h1.08V174h-1.08zm3.46 0v-7.49h.81l.22 1.008c.62-.686 1.39-1.148 2.54-1.148 1.71 0 2.78 1.106 2.78 2.898V174h-1.07v-4.522c0-1.372-.73-2.142-2.01-2.142-.86 0-1.62.448-2.19 1.19V174h-1.08zm13.97-.868v-.952c-.64.602-1.4.896-2.45.896-2.14 0-3.41-1.19-3.41-3.318 0-2.184 1.2-3.388 3.29-3.388 1.12 0 1.97.322 2.67.952l.18-.812h.8v6.622c0 2.296-1.12 3.43-3.35 3.43-1.93 0-3.1-.924-3.24-2.534h1.09c.12 1.022.92 1.596 2.2 1.596 1.54 0 2.22-.756 2.22-2.492zm0-2.03v-2.716c-.56-.658-1.34-1.05-2.32-1.05-1.65 0-2.44.784-2.44 2.408 0 1.568.9 2.394 2.51 2.394.95 0 1.69-.364 2.25-1.036zm7.18 2.898v-9.1h6.06v1.022h-4.92v2.968h4.64v.98h-4.64v3.108h4.92V174h-6.06zm12.67 0l-2.1-2.856-2.1 2.856h-1.26l2.74-3.724-2.77-3.766h1.3l2.12 2.87 2.11-2.87h1.25l-2.73 3.724 2.75 3.766h-1.31zm2.71-7.49h.81l.18.826c.58-.546 1.39-.966 2.57-.966 2.21 0 3.54 1.47 3.54 3.878 0 2.45-1.25 3.892-3.42 3.892-1.13 0-1.99-.392-2.6-.91v3.29h-1.08v-10.01zm1.08 1.918v3.668c.59.714 1.38 1.064 2.34 1.064 1.72 0 2.59-.952 2.59-2.898 0-1.876-.96-2.912-2.65-2.912-.95 0-1.71.35-2.28 1.078zm10.97 5.712c-2.39 0-3.7-1.372-3.7-3.906 0-2.492 1.25-3.864 3.56-3.864 2.23 0 3.5 1.232 3.5 3.36 0 .322-.03.616-.04.784h-5.91c.08 1.778.94 2.646 2.58 2.646 1.21 0 1.93-.448 2.17-1.358h1.07c-.33 1.54-1.44 2.338-3.23 2.338zm-2.58-4.452h4.86c0-1.526-.84-2.352-2.42-2.352-1.47 0-2.28.784-2.44 2.352zm7.76 4.312v-7.49h.85l.17 1.148c.54-.868 1.34-1.288 2.45-1.288.12 0 .32.014.43.042v1.008a3.552 3.552 0 00-.57-.056c-1.37 0-2.14.756-2.26 2.254V174h-1.07zm5.35-9.702c0-.448.32-.756.77-.756.46 0 .78.308.78.756s-.32.77-.78.77a.742.742 0 01-.77-.77zm.24 9.702v-7.49h1.08V174h-1.08zm6.59.14c-2.39 0-3.69-1.372-3.69-3.906 0-2.492 1.24-3.864 3.55-3.864 2.23 0 3.5 1.232 3.5 3.36 0 .322-.03.616-.04.784h-5.91c.09 1.778.94 2.646 2.58 2.646 1.22 0 1.93-.448 2.17-1.358h1.08c-.34 1.54-1.45 2.338-3.24 2.338zm-2.57-4.452h4.85c0-1.526-.84-2.352-2.42-2.352-1.47 0-2.28.784-2.43 2.352zm7.75 4.312v-7.49h.81l.23 1.008c.61-.686 1.38-1.148 2.53-1.148 1.71 0 2.79 1.106 2.79 2.898V174h-1.08v-4.522c0-1.372-.73-2.142-2-2.142-.87 0-1.63.448-2.2 1.19V174h-1.08zm11.73-6.664c-1.73.014-2.57.98-2.57 2.912 0 1.96.87 2.912 2.63 2.912 1.34 0 2.09-.546 2.24-1.694h1.06c-.14 1.764-1.38 2.674-3.3 2.674-2.38 0-3.68-1.386-3.68-3.906 0-2.492 1.27-3.864 3.67-3.864 1.93 0 3.16.91 3.3 2.674h-1.06c-.14-1.148-.89-1.708-2.29-1.708zm8.32 6.804c-2.4 0-3.7-1.372-3.7-3.906 0-2.492 1.25-3.864 3.56-3.864 2.22 0 3.5 1.232 3.5 3.36 0 .322-.03.616-.04.784h-5.91c.08 1.778.94 2.646 2.57 2.646 1.22 0 1.94-.448 2.17-1.358h1.08c-.33 1.54-1.44 2.338-3.23 2.338zm-2.58-4.452h4.86c0-1.526-.84-2.352-2.42-2.352-1.47 0-2.28.784-2.44 2.352zm15.18-4.788c2.06 0 3.25.98 3.25 2.702 0 1.47-.82 2.408-2.35 2.674l2.37 3.724h-1.36l-2.23-3.654h-2.2V174h-1.13v-9.1h3.65zm-2.52 4.508h2.37c1.48 0 2.24-.658 2.24-1.806 0-1.134-.76-1.68-2.24-1.68h-2.37v3.486zm10.92 4.732c-2.4 0-3.7-1.372-3.7-3.906 0-2.492 1.25-3.864 3.56-3.864 2.22 0 3.5 1.232 3.5 3.36 0 .322-.03.616-.04.784h-5.91c.08 1.778.94 2.646 2.57 2.646 1.22 0 1.94-.448 2.17-1.358h1.08c-.33 1.54-1.44 2.338-3.23 2.338zm-2.58-4.452h4.86c0-1.526-.84-2.352-2.42-2.352-1.47 0-2.28.784-2.44 2.352zm7.19 2.296c0-1.302.91-2.1 2.52-2.1h2.54v-.924c0-1.078-.65-1.624-1.88-1.624-1.15 0-1.76.406-1.87 1.246h-1.11c.13-1.456 1.18-2.212 3.07-2.198 1.73.014 2.87.952 2.87 2.38V174h-.82l-.19-1.092c-.52.812-1.39 1.232-2.56 1.232-1.57 0-2.57-.84-2.57-2.156zm5.06-.084v-1.232h-2.37c-.99 0-1.59.532-1.59 1.33 0 .784.61 1.26 1.62 1.26 1.09 0 1.97-.532 2.34-1.358zm6.46-4.564c-1.74.014-2.58.98-2.58 2.912 0 1.96.87 2.912 2.63 2.912 1.35 0 2.09-.546 2.24-1.694h1.07c-.14 1.764-1.39 2.674-3.31 2.674-2.38 0-3.68-1.386-3.68-3.906 0-2.492 1.28-3.864 3.67-3.864 1.93 0 3.16.91 3.3 2.674h-1.06c-.14-1.148-.88-1.708-2.28-1.708zm5.18 6.664v-10.22h1.07v3.696c.61-.672 1.36-1.106 2.47-1.106 1.71 0 2.77 1.106 2.77 2.898V174h-1.08v-4.522c0-1.372-.71-2.142-1.99-2.142-.85 0-1.59.448-2.17 1.19V174h-1.07zm11.76.14c-2.39 0-3.7-1.372-3.7-3.906 0-2.492 1.25-3.864 3.56-3.864 2.23 0 3.5 1.232 3.5 3.36 0 .322-.03.616-.04.784h-5.91c.08 1.778.94 2.646 2.58 2.646 1.21 0 1.93-.448 2.17-1.358h1.07c-.33 1.54-1.44 2.338-3.23 2.338zm-2.58-4.452h4.86c0-1.526-.84-2.352-2.42-2.352-1.47 0-2.28.784-2.44 2.352zm13.24 2.212c0 1.372-1.13 2.24-2.89 2.24-1.98 0-3.2-1.008-3.14-2.464h1.06c0 .924.79 1.526 2.15 1.512 1.1-.014 1.73-.448 1.73-1.274 0-.742-.6-.952-1.89-1.05-2-.154-3.02-.7-3.02-2.156 0-1.386 1.12-2.338 2.91-2.338 1.68 0 2.87.826 2.98 2.24h-1.09c-.13-.826-.87-1.302-1.93-1.288-1.11.014-1.78.532-1.78 1.33 0 .882.66 1.162 2.1 1.288 1.86.168 2.81.63 2.81 1.96zm11.45 2.1l-4.71-7.364V174h-1.13v-9.1h1.34l4.71 7.364V164.9h1.12v9.1h-1.33zm6.98.14c-2.39 0-3.69-1.372-3.69-3.906 0-2.492 1.24-3.864 3.55-3.864 2.23 0 3.5 1.232 3.5 3.36 0 .322-.02.616-.04.784h-5.91c.09 1.778.94 2.646 2.58 2.646 1.22 0 1.93-.448 2.17-1.358h1.08c-.34 1.54-1.44 2.338-3.24 2.338zm-2.57-4.452h4.86c0-1.526-.84-2.352-2.43-2.352-1.47 0-2.28.784-2.43 2.352zm9.06 4.312l-2.56-7.49h1.17l1.98 6.034 2-6.034h1.02l2.02 6.034 1.96-6.034h1.17l-2.56 7.49h-1.11l-1.98-5.992-2.01 5.992h-1.1zm13.94 0v-9.1h1.13v4.004h4.92V164.9h1.12v9.1h-1.12v-4.116h-4.92V174h-1.13zm12.82.14c-2.39 0-3.69-1.372-3.69-3.906 0-2.492 1.24-3.864 3.55-3.864 2.23 0 3.5 1.232 3.5 3.36 0 .322-.02.616-.04.784h-5.91c.09 1.778.94 2.646 2.58 2.646 1.22 0 1.93-.448 2.17-1.358h1.08c-.34 1.54-1.44 2.338-3.24 2.338zm-2.57-4.452h4.86c0-1.526-.84-2.352-2.43-2.352-1.47 0-2.28.784-2.43 2.352zm7.51-5.39c0-.448.32-.756.77-.756.46 0 .79.308.79.756s-.33.77-.79.77a.742.742 0 01-.77-.77zm.24 9.702v-7.49h1.08V174h-1.08zm8.77-.868v-.952c-.65.602-1.4.896-2.45.896-2.15 0-3.42-1.19-3.42-3.318 0-2.184 1.2-3.388 3.29-3.388 1.12 0 1.97.322 2.67.952l.19-.812h.79v6.622c0 2.296-1.12 3.43-3.34 3.43-1.93 0-3.11-.924-3.25-2.534h1.09c.13 1.022.93 1.596 2.2 1.596 1.54 0 2.23-.756 2.23-2.492zm0-2.03v-2.716c-.56-.658-1.35-1.05-2.33-1.05-1.65 0-2.43.784-2.43 2.408 0 1.568.89 2.394 2.5 2.394.95 0 1.7-.364 2.26-1.036zm3.4 2.898v-10.22h1.08v3.696c.6-.672 1.35-1.106 2.46-1.106 1.71 0 2.77 1.106 2.77 2.898V174h-1.08v-4.522c0-1.372-.71-2.142-1.98-2.142-.86 0-1.6.448-2.17 1.19V174h-1.08zm10.33-2.436c0 1.176.47 1.638 1.61 1.638.34 0 .72-.028.97-.07v.91c-.22.042-.71.098-1.13.098-1.68 0-2.52-.798-2.52-2.38v-4.396h-1.64v-.854h1.64v-1.974l1.07-.28v2.254h2.52v.854h-2.52v4.2zm9.61.336c0 1.372-1.14 2.24-2.9 2.24-1.97 0-3.19-1.008-3.14-2.464h1.07c0 .924.78 1.526 2.14 1.512 1.11-.014 1.74-.448 1.74-1.274 0-.742-.61-.952-1.89-1.05-2.01-.154-3.03-.7-3.03-2.156 0-1.386 1.12-2.338 2.91-2.338 1.68 0 2.87.826 2.99 2.24h-1.1c-.12-.826-.86-1.302-1.93-1.288-1.1.014-1.78.532-1.78 1.33 0 .882.66 1.162 2.1 1.288 1.87.168 2.82.63 2.82 1.96zm1.54 3.654v-3.15h1.25l-.38 3.15h-.87zM1544.79 186.9c2.83 0 4.27 1.736 4.27 4.536 0 2.814-1.44 4.564-4.27 4.564h-3.46v-9.1h3.46zm-2.33 8.078h2.31c2.16 0 3.11-1.316 3.11-3.542 0-2.198-.96-3.514-3.11-3.514h-2.31v7.056zm11.64 1.162c-2.39 0-3.69-1.372-3.69-3.906 0-2.492 1.24-3.864 3.55-3.864 2.23 0 3.5 1.232 3.5 3.36 0 .322-.03.616-.04.784h-5.91c.09 1.778.94 2.646 2.58 2.646 1.22 0 1.93-.448 2.17-1.358h1.08c-.34 1.54-1.45 2.338-3.24 2.338zm-2.57-4.452h4.85c0-1.526-.84-2.352-2.42-2.352-1.47 0-2.28.784-2.43 2.352zm7.75 4.312v-10.22h1.08V196h-1.08zm3.22-9.702c0-.448.32-.756.77-.756.46 0 .78.308.78.756s-.32.77-.78.77a.742.742 0 01-.77-.77zm.24 9.702v-7.49h1.07V196h-1.07zm5.54 0l-3.06-7.49h1.17l2.49 6.328 2.48-6.328h1.18l-3.07 7.49h-1.19zm8.52.14c-2.4 0-3.7-1.372-3.7-3.906 0-2.492 1.25-3.864 3.56-3.864 2.22 0 3.5 1.232 3.5 3.36 0 .322-.03.616-.05.784h-5.9c.08 1.778.93 2.646 2.57 2.646 1.22 0 1.93-.448 2.17-1.358h1.08c-.34 1.54-1.44 2.338-3.23 2.338zm-2.58-4.452h4.86c0-1.526-.84-2.352-2.42-2.352-1.47 0-2.29.784-2.44 2.352zm7.75 4.312v-7.49h.86l.17 1.148c.54-.868 1.34-1.288 2.45-1.288.12 0 .32.014.43.042v1.008a3.552 3.552 0 00-.57-.056c-1.38 0-2.15.756-2.26 2.254V196h-1.08zm5.36-9.702c0-.448.32-.756.77-.756.46 0 .78.308.78.756s-.32.77-.78.77a.742.742 0 01-.77-.77zm.24 9.702v-7.49h1.07V196h-1.07zm3.45 0v-7.49h.82l.22 1.008c.62-.686 1.39-1.148 2.53-1.148 1.71 0 2.79 1.106 2.79 2.898V196h-1.08v-4.522c0-1.372-.73-2.142-2-2.142-.87 0-1.62.448-2.2 1.19V196h-1.08zm13.98-.868v-.952c-.65.602-1.4.896-2.45.896-2.14 0-3.42-1.19-3.42-3.318 0-2.184 1.21-3.388 3.29-3.388 1.12 0 1.98.322 2.68.952l.18-.812h.8v6.622c0 2.296-1.12 3.43-3.35 3.43-1.93 0-3.11-.924-3.25-2.534h1.09c.13 1.022.93 1.596 2.2 1.596 1.54 0 2.23-.756 2.23-2.492zm0-2.03v-2.716c-.56-.658-1.35-1.05-2.33-1.05-1.65 0-2.43.784-2.43 2.408 0 1.568.89 2.394 2.5 2.394.96 0 1.7-.364 2.26-1.036zm10.83-6.202c2.06 0 3.25.98 3.25 2.702 0 1.47-.83 2.408-2.35 2.674l2.36 3.724h-1.35l-2.23-3.654h-2.2V196h-1.13v-9.1h3.65zm-2.52 4.508h2.37c1.48 0 2.24-.658 2.24-1.806 0-1.134-.76-1.68-2.24-1.68h-2.37v3.486zm10.91 4.732c-2.39 0-3.69-1.372-3.69-3.906 0-2.492 1.24-3.864 3.55-3.864 2.23 0 3.5 1.232 3.5 3.36 0 .322-.02.616-.04.784h-5.91c.09 1.778.94 2.646 2.58 2.646 1.22 0 1.93-.448 2.17-1.358h1.08c-.34 1.54-1.44 2.338-3.24 2.338zm-2.57-4.452h4.86c0-1.526-.84-2.352-2.43-2.352-1.47 0-2.28.784-2.43 2.352zm13.24 2.212c0 1.372-1.14 2.24-2.9 2.24-1.97 0-3.19-1.008-3.14-2.464h1.07c0 .924.78 1.526 2.14 1.512 1.11-.014 1.74-.448 1.74-1.274 0-.742-.61-.952-1.89-1.05-2.01-.154-3.03-.7-3.03-2.156 0-1.386 1.12-2.338 2.91-2.338 1.68 0 2.87.826 2.99 2.24h-1.1c-.12-.826-.86-1.302-1.93-1.288-1.1.014-1.78.532-1.78 1.33 0 .882.66 1.162 2.1 1.288 1.87.168 2.82.63 2.82 1.96zm7.86-5.39V196h-.8l-.22-.994c-.59.686-1.33 1.134-2.42 1.134-1.64 0-2.66-1.106-2.66-2.898v-4.732h1.07v4.522c0 1.372.68 2.142 1.88 2.142.83 0 1.53-.448 2.07-1.204v-5.46h1.08zm2.37 7.49v-10.22h1.08V196h-1.08zm5.17-2.436c0 1.176.46 1.638 1.61 1.638.34 0 .71-.028.97-.07v.91c-.23.042-.72.098-1.14.098-1.68 0-2.52-.798-2.52-2.38v-4.396h-1.64v-.854h1.64v-1.974l1.08-.28v2.254h2.52v.854h-2.52v4.2zm9.6.336c0 1.372-1.13 2.24-2.89 2.24-1.98 0-3.2-1.008-3.14-2.464h1.06c0 .924.79 1.526 2.15 1.512 1.1-.014 1.73-.448 1.73-1.274 0-.742-.6-.952-1.89-1.05-2-.154-3.02-.7-3.02-2.156 0-1.386 1.12-2.338 2.91-2.338 1.68 0 2.87.826 2.98 2.24h-1.09c-.13-.826-.87-1.302-1.93-1.288-1.11.014-1.78.532-1.78 1.33 0 .882.66 1.162 2.1 1.288 1.86.168 2.81.63 2.81 1.96zm8.02 2.1v-8.078h-3.39V186.9h7.89v1.022h-3.37V196h-1.13zm6.05 0v-10.22h1.08v3.696c.6-.672 1.35-1.106 2.46-1.106 1.71 0 2.77 1.106 2.77 2.898V196h-1.08v-4.522c0-1.372-.71-2.142-1.98-2.142-.86 0-1.6.448-2.17 1.19V196h-1.08zm8.06-2.016c0-1.302.91-2.1 2.52-2.1h2.54v-.924c0-1.078-.65-1.624-1.88-1.624-1.15 0-1.76.406-1.87 1.246h-1.11c.13-1.456 1.18-2.212 3.07-2.198 1.73.014 2.87.952 2.87 2.38V196h-.82l-.19-1.092c-.52.812-1.39 1.232-2.56 1.232-1.57 0-2.57-.84-2.57-2.156zm5.06-.084v-1.232h-2.37c-.99 0-1.59.532-1.59 1.33 0 .784.61 1.26 1.62 1.26 1.09 0 1.97-.532 2.34-1.358zm5.1-.336c0 1.176.46 1.638 1.61 1.638.34 0 .72-.028.97-.07v.91c-.23.042-.72.098-1.14.098-1.68 0-2.52-.798-2.52-2.38v-4.396h-1.63v-.854h1.63v-1.974l1.08-.28v2.254h2.52v.854h-2.52v4.2zm7.89 2.436v-9.1h1.14v8.078h4.76V196h-5.9zm10.85.14c-2.4 0-3.7-1.372-3.7-3.906 0-2.492 1.25-3.864 3.56-3.864 2.22 0 3.5 1.232 3.5 3.36 0 .322-.03.616-.04.784h-5.91c.08 1.778.94 2.646 2.57 2.646 1.22 0 1.94-.448 2.17-1.358h1.08c-.33 1.54-1.44 2.338-3.23 2.338zm-2.58-4.452h4.86c0-1.526-.84-2.352-2.42-2.352-1.47 0-2.28.784-2.44 2.352zm7.19 2.296c0-1.302.91-2.1 2.52-2.1h2.54v-.924c0-1.078-.65-1.624-1.88-1.624-1.15 0-1.76.406-1.87 1.246h-1.11c.13-1.456 1.18-2.212 3.07-2.198 1.73.014 2.87.952 2.87 2.38V196h-.82l-.19-1.092c-.52.812-1.39 1.232-2.56 1.232-1.57 0-2.57-.84-2.57-2.156zm5.06-.084v-1.232h-2.37c-.99 0-1.59.532-1.59 1.33 0 .784.61 1.26 1.62 1.26 1.09 0 1.97-.532 2.34-1.358zm5.21 2.1l-3.07-7.49h1.18l2.49 6.328 2.48-6.328h1.17l-3.06 7.49h-1.19zm8.51.14c-2.39 0-3.7-1.372-3.7-3.906 0-2.492 1.25-3.864 3.56-3.864 2.23 0 3.5 1.232 3.5 3.36 0 .322-.03.616-.04.784h-5.91c.08 1.778.94 2.646 2.58 2.646 1.21 0 1.93-.448 2.17-1.358h1.07c-.33 1.54-1.44 2.338-3.23 2.338zm-2.58-4.452h4.86c0-1.526-.84-2.352-2.42-2.352-1.47 0-2.28.784-2.44 2.352zm10.92-.252c0-2.954 1.59-4.676 4.39-4.676 2.44 0 3.8 1.12 4.11 3.29h-1.22c-.25-1.526-1.21-2.282-2.91-2.282-2.09 0-3.21 1.302-3.21 3.654 0 2.394 1.11 3.682 3.21 3.682 1.72 0 2.66-.756 2.91-2.268h1.22c-.31 2.17-1.67 3.304-4.11 3.304-2.81 0-4.39-1.722-4.39-4.704zm9.85.798c0-2.492 1.31-3.864 3.74-3.864 2.41 0 3.71 1.372 3.71 3.864 0 2.534-1.3 3.906-3.71 3.906-2.43 0-3.74-1.372-3.74-3.906zm1.1 0c0 1.974.86 2.926 2.63 2.926 1.76 0 2.63-.966 2.63-2.926 0-1.918-.88-2.898-2.63-2.898s-2.63.966-2.63 2.898zm8.17 3.766v-7.49h.81l.21.98c.58-.672 1.28-1.12 2.31-1.12 1.05 0 1.82.476 2.23 1.302.63-.784 1.44-1.302 2.58-1.302 1.59 0 2.57 1.092 2.57 2.828V196h-1.08v-4.592c0-1.33-.64-2.072-1.79-2.072-.77 0-1.48.434-2 1.204.03.21.06.42.06.658V196h-1.08v-4.592c0-1.33-.63-2.072-1.78-2.072-.77 0-1.46.434-1.96 1.19V196h-1.08zm13.02-7.49h.81l.18.826c.58-.546 1.39-.966 2.56-.966 2.22 0 3.55 1.47 3.55 3.878 0 2.45-1.25 3.892-3.42 3.892-1.13 0-1.99-.392-2.6-.91v3.29h-1.08v-10.01zm1.08 1.918v3.668c.58.714 1.38 1.064 2.33 1.064 1.73 0 2.59-.952 2.59-2.898 0-1.876-.95-2.912-2.64-2.912-.95 0-1.71.35-2.28 1.078zm10.97 5.712c-2.4 0-3.7-1.372-3.7-3.906 0-2.492 1.25-3.864 3.56-3.864 2.22 0 3.5 1.232 3.5 3.36 0 .322-.03.616-.04.784h-5.91c.08 1.778.94 2.646 2.57 2.646 1.22 0 1.94-.448 2.17-1.358h1.08c-.33 1.54-1.44 2.338-3.23 2.338zm-2.58-4.452h4.86c0-1.526-.84-2.352-2.42-2.352-1.47 0-2.28.784-2.44 2.352zm9.46 1.876c0 1.176.46 1.638 1.61 1.638.34 0 .72-.028.97-.07v.91c-.23.042-.72.098-1.14.098-1.68 0-2.52-.798-2.52-2.38v-4.396h-1.63v-.854h1.63v-1.974l1.08-.28v2.254h2.52v.854h-2.52v4.2zm3.88-7.266c0-.448.32-.756.77-.756.46 0 .78.308.78.756s-.32.77-.78.77a.742.742 0 01-.77-.77zm.24 9.702v-7.49h1.08V196h-1.08zm5.17-2.436c0 1.176.46 1.638 1.61 1.638.33 0 .71-.028.96-.07v.91c-.22.042-.71.098-1.13.098-1.68 0-2.52-.798-2.52-2.38v-4.396h-1.64v-.854h1.64v-1.974l1.08-.28v2.254h2.52v.854h-2.52v4.2zm3.55-1.33c0-2.492 1.3-3.864 3.74-3.864 2.41 0 3.71 1.372 3.71 3.864 0 2.534-1.3 3.906-3.71 3.906-2.44 0-3.74-1.372-3.74-3.906zm1.09 0c0 1.974.87 2.926 2.64 2.926 1.76 0 2.63-.966 2.63-2.926 0-1.918-.88-2.898-2.63-2.898s-2.64.966-2.64 2.898zm8.18 3.766v-7.49h.85l.17 1.148c.55-.868 1.35-1.288 2.45-1.288.13 0 .32.014.44.042v1.008c-.16-.028-.4-.056-.58-.056-1.37 0-2.14.756-2.25 2.254V196h-1.08zm11.08-2.1c0 1.372-1.13 2.24-2.9 2.24-1.97 0-3.19-1.008-3.13-2.464h1.06c0 .924.78 1.526 2.14 1.512 1.11-.014 1.74-.448 1.74-1.274 0-.742-.6-.952-1.89-1.05-2-.154-3.03-.7-3.03-2.156 0-1.386 1.12-2.338 2.92-2.338 1.68 0 2.87.826 2.98 2.24h-1.09c-.13-.826-.87-1.302-1.94-1.288-1.1.014-1.77.532-1.77 1.33 0 .882.65 1.162 2.1 1.288 1.86.168 2.81.63 2.81 1.96zm5.23-7.602c0-.448.32-.756.77-.756.46 0 .78.308.78.756s-.32.77-.78.77a.742.742 0 01-.77-.77zm.23 9.702v-7.49h1.08V196h-1.08zm3.46 0v-7.49h.81l.23 1.008c.61-.686 1.38-1.148 2.53-1.148 1.71 0 2.79 1.106 2.79 2.898V196h-1.08v-4.522c0-1.372-.73-2.142-2-2.142-.87 0-1.63.448-2.2 1.19V196h-1.08zm14.02-2.436c0 1.176.46 1.638 1.61 1.638.33 0 .71-.028.96-.07v.91c-.22.042-.71.098-1.13.098-1.68 0-2.52-.798-2.52-2.38v-4.396h-1.64v-.854h1.64v-1.974l1.08-.28v2.254h2.52v.854h-2.52v4.2zm4.11 2.436v-10.22h1.08v3.696c.6-.672 1.36-1.106 2.46-1.106 1.71 0 2.78 1.106 2.78 2.898V196h-1.08v-4.522c0-1.372-.72-2.142-1.99-2.142-.85 0-1.6.448-2.17 1.19V196h-1.08zm11.76.14c-2.39 0-3.69-1.372-3.69-3.906 0-2.492 1.24-3.864 3.55-3.864 2.23 0 3.5 1.232 3.5 3.36 0 .322-.02.616-.04.784h-5.91c.09 1.778.94 2.646 2.58 2.646 1.22 0 1.93-.448 2.17-1.358h1.08c-.34 1.54-1.44 2.338-3.24 2.338zm-2.57-4.452h4.86c0-1.526-.84-2.352-2.43-2.352-1.47 0-2.28.784-2.43 2.352zm14.99-4.788c2.82 0 4.27 1.736 4.27 4.536 0 2.814-1.45 4.564-4.27 4.564h-3.46v-9.1h3.46zm-2.33 8.078h2.31c2.16 0 3.11-1.316 3.11-3.542 0-2.198-.97-3.514-3.11-3.514h-2.31v7.056zm14.54-6.468V196h-.8l-.22-.994c-.59.686-1.33 1.134-2.43 1.134-1.63 0-2.66-1.106-2.66-2.898v-4.732h1.08v4.522c0 1.372.67 2.142 1.88 2.142.82 0 1.52-.448 2.07-1.204v-5.46h1.08zm7.86 5.39c0 1.372-1.13 2.24-2.9 2.24-1.97 0-3.19-1.008-3.13-2.464h1.06c0 .924.78 1.526 2.14 1.512 1.11-.014 1.74-.448 1.74-1.274 0-.742-.6-.952-1.89-1.05-2-.154-3.03-.7-3.03-2.156 0-1.386 1.12-2.338 2.92-2.338 1.68 0 2.87.826 2.98 2.24h-1.09c-.13-.826-.87-1.302-1.94-1.288-1.1.014-1.77.532-1.77 1.33 0 .882.65 1.162 2.1 1.288 1.86.168 2.81.63 2.81 1.96zm3.53-.336c0 1.176.47 1.638 1.61 1.638.34 0 .72-.028.97-.07v.91c-.22.042-.71.098-1.13.098-1.68 0-2.52-.798-2.52-2.38v-4.396h-1.64v-.854h1.64v-1.974l1.07-.28v2.254h2.52v.854h-2.52v4.2zm3.84 1.792c0-.462.32-.784.78-.784.49 0 .82.322.82.784s-.33.784-.82.784c-.46 0-.78-.322-.78-.784zm13.96-1.834c0 1.554-1.43 2.618-3.56 2.618-2.18 0-3.58-1.12-3.53-2.772h1.12c0 1.12.95 1.778 2.58 1.764 1.45-.014 2.22-.588 2.22-1.61 0-1.036-.85-1.344-2.53-1.498-2.1-.182-3.35-.896-3.35-2.548 0-1.624 1.42-2.716 3.52-2.716 2 0 3.32 1.008 3.43 2.59h-1.12c-.14-1.036-.98-1.596-2.37-1.582-1.44.014-2.28.63-2.28 1.666 0 1.106.87 1.484 2.38 1.624 2.24.182 3.49.826 3.49 2.464zm3.63.042c0 1.176.46 1.638 1.61 1.638.33 0 .71-.028.96-.07v.91c-.22.042-.71.098-1.13.098-1.68 0-2.52-.798-2.52-2.38v-4.396h-1.64v-.854h1.64v-1.974l1.08-.28v2.254h2.52v.854h-2.52v4.2zm7.25 2.576c-2.39 0-3.7-1.372-3.7-3.906 0-2.492 1.25-3.864 3.56-3.864 2.23 0 3.5 1.232 3.5 3.36 0 .322-.03.616-.04.784h-5.91c.08 1.778.94 2.646 2.58 2.646 1.21 0 1.93-.448 2.17-1.358h1.07c-.33 1.54-1.44 2.338-3.23 2.338zm-2.58-4.452h4.86c0-1.526-.84-2.352-2.42-2.352-1.47 0-2.28.784-2.44 2.352zm7.76-3.178h.81l.18.826c.57-.546 1.39-.966 2.56-.966 2.21 0 3.54 1.47 3.54 3.878 0 2.45-1.24 3.892-3.41 3.892-1.14 0-1.99-.392-2.61-.91v3.29h-1.07v-10.01zm1.07 1.918v3.668c.59.714 1.39 1.064 2.34 1.064 1.72 0 2.59-.952 2.59-2.898 0-1.876-.95-2.912-2.64-2.912-.96 0-1.71.35-2.29 1.078zm11.24-4.13c0-.448.32-.756.77-.756.46 0 .78.308.78.756s-.32.77-.78.77a.742.742 0 01-.77-.77zm.24 9.702v-7.49h1.08V196h-1.08zm3.46 0v-7.49h.81l.22 1.008c.62-.686 1.39-1.148 2.54-1.148 1.7 0 2.78 1.106 2.78 2.898V196h-1.08v-4.522c0-1.372-.72-2.142-2-2.142-.87 0-1.62.448-2.2 1.19V196h-1.07zm10.37-2.436c0 1.176.46 1.638 1.61 1.638.34 0 .72-.028.97-.07v.91c-.23.042-.72.098-1.14.098-1.68 0-2.52-.798-2.52-2.38v-4.396h-1.63v-.854h1.63v-1.974l1.08-.28v2.254h2.52v.854h-2.52v4.2zm3.56-1.33c0-2.492 1.3-3.864 3.74-3.864 2.4 0 3.71 1.372 3.71 3.864 0 2.534-1.31 3.906-3.71 3.906-2.44 0-3.74-1.372-3.74-3.906zm1.09 0c0 1.974.87 2.926 2.63 2.926 1.77 0 2.63-.966 2.63-2.926 0-1.918-.88-2.898-2.63-2.898s-2.63.966-2.63 2.898zm13.52 1.33c0 1.176.46 1.638 1.61 1.638.34 0 .72-.028.97-.07v.91c-.23.042-.72.098-1.14.098-1.68 0-2.52-.798-2.52-2.38v-4.396h-1.63v-.854h1.63v-1.974l1.08-.28v2.254h2.52v.854h-2.52v4.2zm4.12 2.436v-10.22h1.08v3.696c.6-.672 1.35-1.106 2.46-1.106 1.71 0 2.77 1.106 2.77 2.898V196h-1.08v-4.522c0-1.372-.71-2.142-1.98-2.142-.86 0-1.6.448-2.17 1.19V196h-1.08zm11.76.14c-2.39 0-3.69-1.372-3.69-3.906 0-2.492 1.24-3.864 3.55-3.864 2.23 0 3.5 1.232 3.5 3.36 0 .322-.03.616-.04.784h-5.91c.09 1.778.94 2.646 2.58 2.646 1.22 0 1.93-.448 2.17-1.358h1.08c-.34 1.54-1.45 2.338-3.24 2.338zm-2.57-4.452h4.85c0-1.526-.84-2.352-2.42-2.352-1.47 0-2.28.784-2.43 2.352zm11.52 4.312v-9.1h6.07v1.022h-4.93v2.968h4.65v.98h-4.65v3.108h4.93V196h-6.07zm7.81 2.45v-.952c.24.014.9.028 1.12.028.55 0 .94-.266 1.18-.896l.18-.504-3.11-7.616h1.18l2.44 6.244 2.38-6.244h1.17l-3.25 8.204c-.43 1.106-.96 1.764-2.08 1.764-.24 0-.97-.014-1.21-.028zm10.8-2.31c-2.39 0-3.69-1.372-3.69-3.906 0-2.492 1.24-3.864 3.55-3.864 2.23 0 3.5 1.232 3.5 3.36 0 .322-.02.616-.04.784H2021c.09 1.778.94 2.646 2.58 2.646 1.22 0 1.93-.448 2.17-1.358h1.08c-.34 1.54-1.44 2.338-3.24 2.338zm-2.57-4.452h4.86c0-1.526-.84-2.352-2.43-2.352-1.47 0-2.28.784-2.43 2.352zm-480.39 22.546c0-2.492 1.3-3.864 3.74-3.864 2.41 0 3.71 1.372 3.71 3.864 0 2.534-1.3 3.906-3.71 3.906-2.44 0-3.74-1.372-3.74-3.906zm1.09 0c0 1.974.87 2.926 2.63 2.926 1.77 0 2.64-.966 2.64-2.926 0-1.918-.89-2.898-2.64-2.898s-2.63.966-2.63 2.898zm9.76 3.766h-1.08v-6.636h-1.62v-.854h1.62v-.504c0-1.638.9-2.366 2.68-2.366.37 0 .99.014 1.34.042v.938c-.35-.028-.97-.042-1.37-.042-1.42 0-1.57.686-1.57 1.932h2.93v.854h-2.93V218zm9.53-2.436c0 1.176.47 1.638 1.61 1.638.34 0 .72-.028.97-.07v.91c-.22.042-.71.098-1.13.098-1.68 0-2.52-.798-2.52-2.38v-4.396h-1.64v-.854h1.64v-1.974l1.07-.28v2.254h2.52v.854h-2.52v4.2zm4.12 2.436v-10.22h1.08v3.696c.6-.672 1.36-1.106 2.46-1.106 1.71 0 2.77 1.106 2.77 2.898V218h-1.07v-4.522c0-1.372-.72-2.142-1.99-2.142-.86 0-1.6.448-2.17 1.19V218h-1.08zm11.76.14c-2.39 0-3.69-1.372-3.69-3.906 0-2.492 1.24-3.864 3.55-3.864 2.23 0 3.5 1.232 3.5 3.36 0 .322-.03.616-.04.784h-5.91c.09 1.778.94 2.646 2.58 2.646 1.22 0 1.93-.448 2.17-1.358h1.08c-.34 1.54-1.45 2.338-3.24 2.338zm-2.57-4.452h4.85c0-1.526-.84-2.352-2.42-2.352-1.47 0-2.28.784-2.43 2.352zm13.93 4.312v-8.078h-3.38V208.9h7.89v1.022h-3.37V218h-1.14zm8.63.14c-2.39 0-3.7-1.372-3.7-3.906 0-2.492 1.25-3.864 3.56-3.864 2.23 0 3.5 1.232 3.5 3.36 0 .322-.03.616-.04.784h-5.91c.08 1.778.94 2.646 2.58 2.646 1.21 0 1.93-.448 2.17-1.358h1.07c-.33 1.54-1.44 2.338-3.23 2.338zm-2.58-4.452h4.86c0-1.526-.84-2.352-2.42-2.352-1.47 0-2.28.784-2.44 2.352zm13.25 2.212c0 1.372-1.14 2.24-2.9 2.24-1.98 0-3.19-1.008-3.14-2.464h1.07c0 .924.78 1.526 2.14 1.512 1.1-.014 1.73-.448 1.73-1.274 0-.742-.6-.952-1.89-1.05-2-.154-3.02-.7-3.02-2.156 0-1.386 1.12-2.338 2.91-2.338 1.68 0 2.87.826 2.98 2.24h-1.09c-.12-.826-.87-1.302-1.93-1.288-1.11.014-1.78.532-1.78 1.33 0 .882.66 1.162 2.1 1.288 1.86.168 2.82.63 2.82 1.96zm3.53-.336c0 1.176.46 1.638 1.61 1.638.34 0 .71-.028.97-.07v.91c-.23.042-.72.098-1.14.098-1.68 0-2.52-.798-2.52-2.38v-4.396h-1.64v-.854h1.64v-1.974l1.08-.28v2.254h2.52v.854h-2.52v4.2zm3.88-7.266c0-.448.32-.756.77-.756.46 0 .78.308.78.756s-.32.77-.78.77a.742.742 0 01-.77-.77zm.24 9.702v-7.49h1.07V218h-1.07zm3.45 0v-7.49h.82l.22 1.008c.62-.686 1.39-1.148 2.53-1.148 1.71 0 2.79 1.106 2.79 2.898V218h-1.08v-4.522c0-1.372-.73-2.142-2-2.142-.87 0-1.62.448-2.2 1.19V218h-1.08zm13.98-.868v-.952c-.65.602-1.4.896-2.45.896-2.14 0-3.42-1.19-3.42-3.318 0-2.184 1.21-3.388 3.29-3.388 1.12 0 1.98.322 2.68.952l.18-.812h.8v6.622c0 2.296-1.12 3.43-3.35 3.43-1.93 0-3.11-.924-3.25-2.534h1.09c.13 1.022.93 1.596 2.2 1.596 1.54 0 2.23-.756 2.23-2.492zm0-2.03v-2.716c-.56-.658-1.35-1.05-2.33-1.05-1.65 0-2.43.784-2.43 2.408 0 1.568.89 2.394 2.5 2.394.96 0 1.7-.364 2.26-1.036zm13.66.42c0 1.554-1.43 2.618-3.56 2.618-2.18 0-3.58-1.12-3.52-2.772h1.12c0 1.12.95 1.778 2.57 1.764 1.46-.014 2.23-.588 2.23-1.61 0-1.036-.86-1.344-2.54-1.498-2.1-.182-3.34-.896-3.34-2.548 0-1.624 1.41-2.716 3.51-2.716 2 0 3.32 1.008 3.43 2.59h-1.12c-.14-1.036-.98-1.596-2.36-1.582-1.45.014-2.29.63-2.29 1.666 0 1.106.87 1.484 2.38 1.624 2.24.182 3.49.826 3.49 2.464zm3.63.042c0 1.176.46 1.638 1.61 1.638.34 0 .72-.028.97-.07v.91c-.23.042-.72.098-1.14.098-1.68 0-2.52-.798-2.52-2.38v-4.396h-1.63v-.854h1.63v-1.974l1.08-.28v2.254h2.52v.854h-2.52v4.2zm3.56-1.33c0-2.492 1.3-3.864 3.74-3.864 2.4 0 3.71 1.372 3.71 3.864 0 2.534-1.31 3.906-3.71 3.906-2.44 0-3.74-1.372-3.74-3.906zm1.09 0c0 1.974.87 2.926 2.63 2.926 1.77 0 2.63-.966 2.63-2.926 0-1.918-.88-2.898-2.63-2.898s-2.63.966-2.63 2.898zm8.18 3.766v-7.49h.85l.17 1.148c.54-.868 1.34-1.288 2.45-1.288.12 0 .32.014.43.042v1.008a3.552 3.552 0 00-.57-.056c-1.37 0-2.14.756-2.26 2.254V218h-1.07zm5.59 0v-7.49h.81l.21.98c.57-.672 1.27-1.12 2.31-1.12 1.05 0 1.82.476 2.23 1.302.63-.784 1.44-1.302 2.57-1.302 1.6 0 2.58 1.092 2.58 2.828V218h-1.08v-4.592c0-1.33-.64-2.072-1.79-2.072-.77 0-1.49.434-2 1.204.02.21.05.42.05.658V218h-1.08v-4.592c0-1.33-.63-2.072-1.77-2.072-.77 0-1.46.434-1.96 1.19V218h-1.08zm16.09-2.016c0-1.302.91-2.1 2.52-2.1h2.53v-.924c0-1.078-.64-1.624-1.87-1.624-1.15 0-1.77.406-1.88 1.246h-1.1c.12-1.456 1.17-2.212 3.06-2.198 1.74.014 2.87.952 2.87 2.38V218h-.81l-.2-1.092c-.51.812-1.38 1.232-2.56 1.232-1.57 0-2.56-.84-2.56-2.156zm5.05-.084v-1.232h-2.36c-1 0-1.6.532-1.6 1.33 0 .784.62 1.26 1.63 1.26 1.09 0 1.97-.532 2.33-1.358zm3.4 2.1v-7.49h.81l.23 1.008c.61-.686 1.38-1.148 2.53-1.148 1.71 0 2.79 1.106 2.79 2.898V218h-1.08v-4.522c0-1.372-.73-2.142-2-2.142-.87 0-1.63.448-2.2 1.19V218h-1.08zm15.21 0h-.8l-.17-.84c-.59.532-1.4.98-2.59.98-2.21 0-3.54-1.484-3.54-3.878 0-2.464 1.26-3.892 3.41-3.892 1.07 0 1.91.28 2.61.882v-3.444h1.08V218zm-1.08-1.918v-3.668c-.59-.728-1.39-1.078-2.34-1.078-1.72 0-2.58.966-2.58 2.912 0 1.876.94 2.912 2.64 2.912.95 0 1.7-.35 2.28-1.078zm7.23 1.918v-9.1h1.13v4.004h4.92V208.9h1.12v9.1h-1.12v-4.116h-4.92V218h-1.13zm9.13-2.016c0-1.302.91-2.1 2.52-2.1h2.53v-.924c0-1.078-.64-1.624-1.87-1.624-1.15 0-1.77.406-1.88 1.246h-1.11c.13-1.456 1.18-2.212 3.07-2.198 1.74.014 2.87.952 2.87 2.38V218h-.81l-.2-1.092c-.52.812-1.38 1.232-2.56 1.232-1.57 0-2.56-.84-2.56-2.156zm5.05-.084v-1.232h-2.36c-1 0-1.6.532-1.6 1.33 0 .784.62 1.26 1.62 1.26 1.1 0 1.98-.532 2.34-1.358zm3.4 2.1v-7.49h.85l.17 1.148c.54-.868 1.34-1.288 2.45-1.288.12 0 .32.014.43.042v1.008a3.552 3.552 0 00-.57-.056c-1.37 0-2.14.756-2.26 2.254V218h-1.07zm5.59 0v-7.49h.81l.22 1.008c.62-.686 1.39-1.148 2.54-1.148 1.71 0 2.78 1.106 2.78 2.898V218h-1.07v-4.522c0-1.372-.73-2.142-2.01-2.142-.86 0-1.62.448-2.19 1.19V218h-1.08zm11.8.14c-2.39 0-3.69-1.372-3.69-3.906 0-2.492 1.24-3.864 3.55-3.864 2.23 0 3.5 1.232 3.5 3.36 0 .322-.03.616-.04.784h-5.91c.09 1.778.94 2.646 2.58 2.646 1.22 0 1.93-.448 2.17-1.358h1.08c-.34 1.54-1.45 2.338-3.24 2.338zm-2.57-4.452h4.85c0-1.526-.84-2.352-2.42-2.352-1.47 0-2.28.784-2.43 2.352zm13.24 2.212c0 1.372-1.14 2.24-2.9 2.24-1.97 0-3.19-1.008-3.14-2.464h1.07c0 .924.78 1.526 2.14 1.512 1.11-.014 1.74-.448 1.74-1.274 0-.742-.61-.952-1.89-1.05-2.01-.154-3.03-.7-3.03-2.156 0-1.386 1.12-2.338 2.91-2.338 1.68 0 2.87.826 2.99 2.24h-1.1c-.12-.826-.86-1.302-1.93-1.288-1.1.014-1.78.532-1.78 1.33 0 .882.66 1.162 2.1 1.288 1.87.168 2.82.63 2.82 1.96zm7.31 0c0 1.372-1.13 2.24-2.9 2.24-1.97 0-3.19-1.008-3.13-2.464h1.06c0 .924.79 1.526 2.14 1.512 1.11-.014 1.74-.448 1.74-1.274 0-.742-.6-.952-1.89-1.05-2-.154-3.02-.7-3.02-2.156 0-1.386 1.12-2.338 2.91-2.338 1.68 0 2.87.826 2.98 2.24h-1.09c-.13-.826-.87-1.302-1.93-1.288-1.11.014-1.78.532-1.78 1.33 0 .882.66 1.162 2.1 1.288 1.86.168 2.81.63 2.81 1.96zm7.17-.336c0 1.176.46 1.638 1.61 1.638.34 0 .72-.028.97-.07v.91c-.23.042-.72.098-1.14.098-1.68 0-2.52-.798-2.52-2.38v-4.396h-1.63v-.854h1.63v-1.974l1.08-.28v2.254h2.52v.854h-2.52v4.2zm4.12 2.436v-10.22h1.08v3.696c.6-.672 1.36-1.106 2.46-1.106 1.71 0 2.77 1.106 2.77 2.898V218h-1.07v-4.522c0-1.372-.72-2.142-1.99-2.142-.86 0-1.6.448-2.17 1.19V218h-1.08zm11.76.14c-2.39 0-3.69-1.372-3.69-3.906 0-2.492 1.24-3.864 3.55-3.864 2.23 0 3.5 1.232 3.5 3.36 0 .322-.03.616-.04.784h-5.91c.09 1.778.94 2.646 2.58 2.646 1.22 0 1.93-.448 2.17-1.358h1.08c-.34 1.54-1.45 2.338-3.24 2.338zm-2.57-4.452h4.85c0-1.526-.84-2.352-2.42-2.352-1.47 0-2.28.784-2.43 2.352zm15-4.788c2.17 0 3.43 1.106 3.43 3.024 0 1.946-1.26 3.164-3.43 3.164-.31 0-1.56-.014-2.34-.056V218h-1.13v-9.1h3.47zm-2.34 5.11c.71.042 1.92.056 2.2.056 1.58 0 2.39-.798 2.39-2.142 0-1.33-.81-2.002-2.39-2.002h-2.2v4.088zm7.09.224c0-2.492 1.3-3.864 3.74-3.864 2.41 0 3.71 1.372 3.71 3.864 0 2.534-1.3 3.906-3.71 3.906-2.44 0-3.74-1.372-3.74-3.906zm1.09 0c0 1.974.87 2.926 2.64 2.926 1.76 0 2.63-.966 2.63-2.926 0-1.918-.88-2.898-2.63-2.898s-2.64.966-2.64 2.898zM1818 218l-2.56-7.49h1.17l1.98 6.034 2-6.034h1.02l2.02 6.034 1.96-6.034h1.17l-2.56 7.49h-1.1l-1.99-5.992-2 5.992H1818zm13.03.14c-2.4 0-3.7-1.372-3.7-3.906 0-2.492 1.25-3.864 3.56-3.864 2.22 0 3.5 1.232 3.5 3.36 0 .322-.03.616-.05.784h-5.9c.08 1.778.93 2.646 2.57 2.646 1.22 0 1.93-.448 2.17-1.358h1.08c-.34 1.54-1.44 2.338-3.23 2.338zm-2.58-4.452h4.86c0-1.526-.84-2.352-2.42-2.352-1.47 0-2.29.784-2.44 2.352zm7.75 4.312v-7.49h.86l.16 1.148c.55-.868 1.35-1.288 2.45-1.288.13 0 .33.014.44.042v1.008a3.681 3.681 0 00-.58-.056c-1.37 0-2.14.756-2.25 2.254V218h-1.08zm8.67-3.766c0-2.492 1.3-3.864 3.74-3.864 2.41 0 3.71 1.372 3.71 3.864 0 2.534-1.3 3.906-3.71 3.906-2.44 0-3.74-1.372-3.74-3.906zm1.09 0c0 1.974.87 2.926 2.63 2.926 1.77 0 2.64-.966 2.64-2.926 0-1.918-.89-2.898-2.64-2.898s-2.63.966-2.63 2.898zm9.76 3.766h-1.08v-6.636h-1.62v-.854h1.62v-.504c0-1.638.9-2.366 2.68-2.366.38 0 .99.014 1.34.042v.938a20.98 20.98 0 00-1.37-.042c-1.41 0-1.57.686-1.57 1.932h2.93v.854h-2.93V218zm11.41-.882c1.71 0 2.46-.896 2.46-2.898v-5.32h1.14v5.432c0 2.562-1.18 3.808-3.6 3.808-2.41 0-3.58-1.246-3.58-3.808V208.9h1.13v5.32c0 2.016.74 2.898 2.45 2.898zm5.97.882v-7.49h.81l.23 1.008c.61-.686 1.38-1.148 2.53-1.148 1.71 0 2.79 1.106 2.79 2.898V218h-1.08v-4.522c0-1.372-.73-2.142-2-2.142-.87 0-1.63.448-2.2 1.19V218h-1.08zm8.67 0v-7.49h.81l.21.98c.58-.672 1.28-1.12 2.31-1.12 1.05 0 1.82.476 2.23 1.302.63-.784 1.44-1.302 2.57-1.302 1.6 0 2.58 1.092 2.58 2.828V218h-1.08v-4.592c0-1.33-.64-2.072-1.79-2.072-.77 0-1.48.434-2 1.204.03.21.05.42.05.658V218h-1.07v-4.592c0-1.33-.63-2.072-1.78-2.072-.77 0-1.46.434-1.96 1.19V218h-1.08zm12.46-2.016c0-1.302.91-2.1 2.52-2.1h2.53v-.924c0-1.078-.64-1.624-1.88-1.624-1.14 0-1.76.406-1.87 1.246h-1.11c.13-1.456 1.18-2.212 3.07-2.198 1.73.014 2.87.952 2.87 2.38V218h-.81l-.2-1.092c-.52.812-1.39 1.232-2.56 1.232-1.57 0-2.56-.84-2.56-2.156zm5.05-.084v-1.232h-2.37c-.99 0-1.59.532-1.59 1.33 0 .784.61 1.26 1.62 1.26 1.09 0 1.98-.532 2.34-1.358zm5.1-.336c0 1.176.46 1.638 1.61 1.638.34 0 .72-.028.97-.07v.91c-.23.042-.72.098-1.14.098-1.68 0-2.52-.798-2.52-2.38v-4.396h-1.63v-.854h1.63v-1.974l1.08-.28v2.254h2.52v.854h-2.52v4.2zm7.18-4.228c-1.73.014-2.57.98-2.57 2.912 0 1.96.87 2.912 2.63 2.912 1.34 0 2.09-.546 2.24-1.694h1.06c-.14 1.764-1.38 2.674-3.3 2.674-2.38 0-3.68-1.386-3.68-3.906 0-2.492 1.27-3.864 3.67-3.864 1.93 0 3.16.91 3.3 2.674h-1.06c-.14-1.148-.89-1.708-2.29-1.708zm5.18 6.664v-10.22h1.08v3.696c.6-.672 1.36-1.106 2.46-1.106 1.71 0 2.78 1.106 2.78 2.898V218h-1.08v-4.522c0-1.372-.72-2.142-1.99-2.142-.85 0-1.6.448-2.17 1.19V218h-1.08zm11.77.14c-2.4 0-3.7-1.372-3.7-3.906 0-2.492 1.25-3.864 3.56-3.864 2.22 0 3.5 1.232 3.5 3.36 0 .322-.03.616-.05.784h-5.9c.08 1.778.93 2.646 2.57 2.646 1.22 0 1.93-.448 2.17-1.358h1.08c-.34 1.54-1.44 2.338-3.23 2.338zm-2.58-4.452h4.86c0-1.526-.84-2.352-2.42-2.352-1.47 0-2.29.784-2.44 2.352zm14.29 4.312h-.8l-.17-.84c-.58.532-1.4.98-2.59.98-2.21 0-3.54-1.484-3.54-3.878 0-2.464 1.26-3.892 3.42-3.892 1.06 0 1.9.28 2.6.882v-3.444h1.08V218zm-1.08-1.918v-3.668c-.59-.728-1.38-1.078-2.34-1.078-1.72 0-2.57.966-2.57 2.912 0 1.876.94 2.912 2.63 2.912.95 0 1.71-.35 2.28-1.078zm13.71-.56c0 1.554-1.42 2.618-3.55 2.618-2.19 0-3.59-1.12-3.53-2.772h1.12c0 1.12.95 1.778 2.58 1.764 1.45-.014 2.22-.588 2.22-1.61 0-1.036-.85-1.344-2.53-1.498-2.1-.182-3.35-.896-3.35-2.548 0-1.624 1.42-2.716 3.52-2.716 2 0 3.31 1.008 3.43 2.59h-1.12c-.14-1.036-.98-1.596-2.37-1.582-1.44.014-2.28.63-2.28 1.666 0 1.106.87 1.484 2.38 1.624 2.24.182 3.48.826 3.48 2.464zm1.93-5.012h.81l.18.826c.58-.546 1.39-.966 2.56-.966 2.22 0 3.55 1.47 3.55 3.878 0 2.45-1.25 3.892-3.42 3.892-1.13 0-1.99-.392-2.6-.91v3.29h-1.08v-10.01zm1.08 1.918v3.668c.58.714 1.38 1.064 2.33 1.064 1.73 0 2.59-.952 2.59-2.898 0-1.876-.95-2.912-2.64-2.912-.95 0-1.71.35-2.28 1.078zm10.97 5.712c-2.4 0-3.7-1.372-3.7-3.906 0-2.492 1.25-3.864 3.56-3.864 2.22 0 3.5 1.232 3.5 3.36 0 .322-.03.616-.04.784h-5.91c.08 1.778.94 2.646 2.57 2.646 1.22 0 1.94-.448 2.17-1.358h1.08c-.33 1.54-1.44 2.338-3.23 2.338zm-2.58-4.452h4.86c0-1.526-.84-2.352-2.42-2.352-1.47 0-2.28.784-2.44 2.352zm10.89 4.452c-2.39 0-3.7-1.372-3.7-3.906 0-2.492 1.25-3.864 3.56-3.864 2.23 0 3.5 1.232 3.5 3.36 0 .322-.03.616-.04.784h-5.91c.08 1.778.94 2.646 2.58 2.646 1.21 0 1.93-.448 2.17-1.358h1.07c-.33 1.54-1.44 2.338-3.23 2.338zm-2.58-4.452h4.86c0-1.526-.84-2.352-2.42-2.352-1.47 0-2.28.784-2.44 2.352zm14.29 4.312h-.79l-.17-.84c-.59.532-1.4.98-2.59.98-2.21 0-3.54-1.484-3.54-3.878 0-2.464 1.26-3.892 3.41-3.892 1.07 0 1.91.28 2.61.882v-3.444h1.07V218zm-1.07-1.918v-3.668c-.59-.728-1.39-1.078-2.34-1.078-1.72 0-2.58.966-2.58 2.912 0 1.876.94 2.912 2.63 2.912.96 0 1.71-.35 2.29-1.078zm3.17 3.472v-3.15h1.25l-.38 3.15h-.87zM1540.32 240l3.49-9.1h1.3l3.5 9.1h-1.2l-.82-2.156h-4.27l-.81 2.156h-1.19zm2.38-3.136h3.53l-1.76-4.648-1.77 4.648zm10.2-3.528c-1.74.014-2.58.98-2.58 2.912 0 1.96.87 2.912 2.63 2.912 1.35 0 2.09-.546 2.24-1.694h1.07c-.14 1.764-1.39 2.674-3.31 2.674-2.38 0-3.68-1.386-3.68-3.906 0-2.492 1.27-3.864 3.67-3.864 1.93 0 3.16.91 3.3 2.674h-1.06c-.14-1.148-.88-1.708-2.28-1.708zm8.24 0c-1.74.014-2.58.98-2.58 2.912 0 1.96.87 2.912 2.64 2.912 1.34 0 2.08-.546 2.24-1.694h1.06c-.14 1.764-1.39 2.674-3.3 2.674-2.38 0-3.69-1.386-3.69-3.906 0-2.492 1.28-3.864 3.67-3.864 1.93 0 3.17.91 3.31 2.674h-1.07c-.14-1.148-.88-1.708-2.28-1.708zm11.21-.826V240h-.8l-.22-.994c-.59.686-1.33 1.134-2.42 1.134-1.64 0-2.66-1.106-2.66-2.898v-4.732h1.08v4.522c0 1.372.67 2.142 1.87 2.142.83 0 1.53-.448 2.07-1.204v-5.46h1.08zm2.38 7.49v-7.49h.85l.17 1.148c.55-.868 1.34-1.288 2.45-1.288.13 0 .32.014.43.042v1.008a3.552 3.552 0 00-.57-.056c-1.37 0-2.14.756-2.25 2.254V240h-1.08zm5.03-2.016c0-1.302.91-2.1 2.52-2.1h2.53v-.924c0-1.078-.64-1.624-1.87-1.624-1.15 0-1.77.406-1.88 1.246h-1.11c.13-1.456 1.18-2.212 3.07-2.198 1.74.014 2.87.952 2.87 2.38V240h-.81l-.2-1.092c-.52.812-1.38 1.232-2.56 1.232-1.57 0-2.56-.84-2.56-2.156zm5.05-.084v-1.232h-2.36c-1 0-1.6.532-1.6 1.33 0 .784.62 1.26 1.62 1.26 1.1 0 1.98-.532 2.34-1.358zm6.46-4.564c-1.73.014-2.57.98-2.57 2.912 0 1.96.87 2.912 2.63 2.912 1.34 0 2.09-.546 2.24-1.694h1.06c-.14 1.764-1.38 2.674-3.3 2.674-2.38 0-3.68-1.386-3.68-3.906 0-2.492 1.27-3.864 3.67-3.864 1.93 0 3.16.91 3.3 2.674h-1.06c-.14-1.148-.89-1.708-2.29-1.708zm4.83 9.114v-.952c.24.014.9.028 1.12.028.55 0 .94-.266 1.18-.896l.18-.504-3.11-7.616h1.18l2.43 6.244 2.38-6.244h1.18l-3.25 8.204c-.43 1.106-.96 1.764-2.08 1.764-.24 0-.97-.014-1.21-.028zm7.66-.896v-3.15h1.25l-.38 3.15h-.87zm6.42-3.57c0-1.302.91-2.1 2.52-2.1h2.53v-.924c0-1.078-.64-1.624-1.87-1.624-1.15 0-1.77.406-1.88 1.246h-1.11c.13-1.456 1.18-2.212 3.07-2.198 1.74.014 2.87.952 2.87 2.38V240h-.81l-.2-1.092c-.52.812-1.38 1.232-2.56 1.232-1.57 0-2.56-.84-2.56-2.156zm5.05-.084v-1.232h-2.36c-1 0-1.6.532-1.6 1.33 0 .784.62 1.26 1.62 1.26 1.1 0 1.98-.532 2.34-1.358zm3.4 2.1v-7.49h.81l.22 1.008c.62-.686 1.39-1.148 2.54-1.148 1.71 0 2.78 1.106 2.78 2.898V240h-1.07v-4.522c0-1.372-.73-2.142-2.01-2.142-.86 0-1.62.448-2.19 1.19V240h-1.08zm15.2 0h-.79l-.17-.84c-.59.532-1.4.98-2.59.98-2.21 0-3.54-1.484-3.54-3.878 0-2.464 1.26-3.892 3.41-3.892 1.07 0 1.91.28 2.61.882v-3.444h1.07V240zm-1.07-1.918v-3.668c-.59-.728-1.39-1.078-2.34-1.078-1.72 0-2.58.966-2.58 2.912 0 1.876.94 2.912 2.63 2.912.96 0 1.71-.35 2.29-1.078zm10.7-7.182c2.17 0 3.43 1.106 3.43 3.024 0 1.946-1.26 3.164-3.43 3.164-.31 0-1.56-.014-2.34-.056V240h-1.13v-9.1h3.47zm-2.34 5.11c.71.042 1.92.056 2.2.056 1.58 0 2.39-.798 2.39-2.142 0-1.33-.81-2.002-2.39-2.002h-2.2v4.088zm10.79 4.13c-2.39 0-3.7-1.372-3.7-3.906 0-2.492 1.25-3.864 3.56-3.864 2.23 0 3.5 1.232 3.5 3.36 0 .322-.03.616-.04.784h-5.91c.08 1.778.94 2.646 2.58 2.646 1.21 0 1.93-.448 2.17-1.358h1.07c-.33 1.54-1.44 2.338-3.23 2.338zm-2.58-4.452h4.86c0-1.526-.84-2.352-2.42-2.352-1.47 0-2.28.784-2.44 2.352zm7.76 4.312v-7.49h.85l.17 1.148c.54-.868 1.34-1.288 2.45-1.288.12 0 .32.014.43.042v1.008a3.552 3.552 0 00-.57-.056c-1.37 0-2.14.756-2.26 2.254V240h-1.07zm7.17 0h-1.08v-6.636h-1.62v-.854h1.62v-.504c0-1.638.9-2.366 2.68-2.366.37 0 .99.014 1.34.042v.938c-.35-.028-.97-.042-1.37-.042-1.42 0-1.57.686-1.57 1.932h2.93v.854h-2.93V240zm3.63-3.766c0-2.492 1.3-3.864 3.74-3.864 2.4 0 3.71 1.372 3.71 3.864 0 2.534-1.31 3.906-3.71 3.906-2.44 0-3.74-1.372-3.74-3.906zm1.09 0c0 1.974.87 2.926 2.63 2.926 1.77 0 2.63-.966 2.63-2.926 0-1.918-.88-2.898-2.63-2.898s-2.63.966-2.63 2.898zm8.18 3.766v-7.49h.85l.17 1.148c.54-.868 1.34-1.288 2.45-1.288.12 0 .32.014.43.042v1.008a3.552 3.552 0 00-.57-.056c-1.37 0-2.14.756-2.26 2.254V240h-1.07zm5.59 0v-7.49h.81l.21.98c.57-.672 1.27-1.12 2.31-1.12 1.05 0 1.82.476 2.23 1.302.63-.784 1.44-1.302 2.57-1.302 1.6 0 2.58 1.092 2.58 2.828V240h-1.08v-4.592c0-1.33-.64-2.072-1.79-2.072-.77 0-1.49.434-2 1.204.02.21.05.42.05.658V240h-1.08v-4.592c0-1.33-.63-2.072-1.77-2.072-.77 0-1.46.434-1.96 1.19V240h-1.08zm12.45-2.016c0-1.302.91-2.1 2.52-2.1h2.54v-.924c0-1.078-.65-1.624-1.88-1.624-1.15 0-1.76.406-1.87 1.246h-1.11c.13-1.456 1.18-2.212 3.07-2.198 1.73.014 2.87.952 2.87 2.38V240h-.82l-.19-1.092c-.52.812-1.39 1.232-2.56 1.232-1.57 0-2.57-.84-2.57-2.156zm5.06-.084v-1.232h-2.37c-.99 0-1.59.532-1.59 1.33 0 .784.61 1.26 1.62 1.26 1.09 0 1.97-.532 2.34-1.358zm3.39 2.1v-7.49h.81l.23 1.008c.61-.686 1.38-1.148 2.53-1.148 1.71 0 2.79 1.106 2.79 2.898V240h-1.08v-4.522c0-1.372-.73-2.142-2-2.142-.87 0-1.63.448-2.2 1.19V240h-1.08zm11.74-6.664c-1.74.014-2.58.98-2.58 2.912 0 1.96.87 2.912 2.63 2.912 1.35 0 2.09-.546 2.24-1.694h1.07c-.14 1.764-1.39 2.674-3.31 2.674-2.38 0-3.68-1.386-3.68-3.906 0-2.492 1.27-3.864 3.67-3.864 1.93 0 3.16.91 3.3 2.674h-1.06c-.14-1.148-.88-1.708-2.28-1.708zm8.31 6.804c-2.39 0-3.69-1.372-3.69-3.906 0-2.492 1.24-3.864 3.55-3.864 2.23 0 3.5 1.232 3.5 3.36 0 .322-.03.616-.04.784h-5.91c.09 1.778.94 2.646 2.58 2.646 1.22 0 1.93-.448 2.17-1.358h1.08c-.34 1.54-1.45 2.338-3.24 2.338zm-2.58-4.452h4.86c0-1.526-.84-2.352-2.42-2.352-1.47 0-2.28.784-2.44 2.352zm7.48 3.668c0-.462.32-.784.78-.784.49 0 .81.322.81.784s-.32.784-.81.784c-.46 0-.78-.322-.78-.784z" fill="url(#paint7_linear_303_310)" fill-opacity=".6"/><defs><linearGradient id="paint0_linear_303_310" x1="354.5" y1="0" x2="-274.302" y2="154.423" gradientUnits="userSpaceOnUse"><stop stop-color="#1E1E1E"/><stop offset="1" stop-color="#1C1C1C" stop-opacity="0"/></linearGradient><linearGradient id="paint1_linear_303_310" x1="-177.028" y1="-3.027" x2="-117.694" y2="232.016" gradientUnits="userSpaceOnUse"><stop stop-color="#333"/><stop offset="1" stop-color="#333" stop-opacity="0"/></linearGradient><linearGradient id="paint2_linear_303_310" x1="24" y1="80" x2="-114" y2="80" gradientUnits="userSpaceOnUse"><stop stop-color="#757575"/><stop offset="1" stop-color="#757575" stop-opacity="0"/></linearGradient><linearGradient id="paint3_linear_303_310" x1="47" y1="133" x2="-120.664" y2="133" gradientUnits="userSpaceOnUse"><stop stop-color="#757575"/><stop offset="1" stop-color="#757575" stop-opacity="0"/></linearGradient><linearGradient id="paint4_linear_303_310" x1="17" y1="186" x2="-111.972" y2="186" gradientUnits="userSpaceOnUse"><stop stop-color="#757575"/><stop offset="1" stop-color="#757575" stop-opacity="0"/></linearGradient><linearGradient id="paint5_linear_303_310" x1="2015.5" y1="37" x2="1612.01" y2="287.21" gradientUnits="userSpaceOnUse"><stop stop-color="#1E1E1E"/><stop offset="1" stop-color="#1C1C1C" stop-opacity="0"/></linearGradient><linearGradient id="paint6_linear_303_310" x1="1507.97" y1="58.973" x2="1567.31" y2="294.016" gradientUnits="userSpaceOnUse"><stop stop-color="#333"/><stop offset="1" stop-color="#333" stop-opacity="0"/></linearGradient><linearGradient id="paint7_linear_303_310" x1="1540" y1="176.658" x2="2052.27" y2="198.527" gradientUnits="userSpaceOnUse"><stop stop-color="#929292"/><stop offset="1" stop-color="#929292" stop-opacity="0"/></linearGradient></defs></svg>