<svg width="24" height="24" fill="none" xmlns="http://www.w3.org/2000/svg"><path fill-rule="evenodd" clip-rule="evenodd" d="M2.972 8.13l3.89-1.373a19.636 19.636 0 00-2.058 3.465L2.972 8.129zM.27 8.354l3.603 4.117-.521 1.305a1.091 1.091 0 00.24 1.176l.343.342c-1.859 2.096-2.884 4.287-3.879 7.27a1.091 1.091 0 001.38 1.38c2.982-.995 5.174-2.02 7.269-3.88l.342.343a1.09 1.09 0 001.176.241l1.305-.521 4.117 3.603a1.091 1.091 0 001.747-.458l3.258-9.23A14.183 14.183 0 0024 4.888V1.091A1.09 1.09 0 0022.91 0h-3.797a14.182 14.182 0 00-9.155 3.349L.73 6.607a1.09 1.09 0 00-.458 1.747l-.001.001zM2.93 21.07c.685-1.654 1.453-2.97 2.551-4.23l1.678 1.679c-1.26 1.098-2.576 1.866-4.23 2.551zm7.151-2.714l-.582-.582L6.226 14.5l-.582-.582.774-1.937a17.453 17.453 0 012.954-4.876l.629-.734a12 12 0 019.112-4.19h2.705v2.705A12 12 0 0117.628 14l-.734.628a17.455 17.455 0 01-4.876 2.955l-1.937.774zm5.79 2.672l-2.093-1.83a19.633 19.633 0 003.465-2.06l-1.372 3.89zm-.598-13.392a1.09 1.09 0 112.181 0 1.09 1.09 0 01-2.181 0zm1.09-3.272a3.273 3.273 0 100 6.545 3.273 3.273 0 000-6.546z" fill="#fff"/></svg>