<svg width="59" height="19" fill="none" xmlns="http://www.w3.org/2000/svg"><path d="M2.384 18.192c-.496 0-.88-.136-1.152-.408-.256-.288-.384-.68-.384-1.176V2.64c0-.512.136-.896.408-1.152.272-.272.656-.408 1.152-.408h5.784c1.856 0 3.288.464 4.296 1.392C13.496 3.4 14 4.696 14 6.36c0 1.664-.504 2.968-1.512 3.912-1.008.928-2.44 1.392-4.296 1.392H3.92v4.944c0 .496-.128.888-.384 1.176-.256.272-.64.408-1.152.408zM3.92 9.24h3.792c1.088 0 1.912-.24 2.472-.72.56-.496.84-1.216.84-2.16 0-.944-.28-1.656-.84-2.136-.56-.48-1.384-.72-2.472-.72H3.92V9.24zm16.304 9c-1.328 0-2.328-.376-3-1.128-.672-.768-1.008-1.888-1.008-3.36V2.4c0-.496.128-.872.384-1.128.256-.256.624-.384 1.104-.384.48 0 .848.128 1.104.384.272.256.408.632.408 1.128v11.208c0 .736.152 1.28.456 1.632.32.352.768.528 1.344.528h.36l.336-.048c.224-.032.376.032.456.192.08.144.12.448.12.912 0 .4-.08.712-.24.936-.16.224-.424.36-.792.408l-.504.048a5.829 5.829 0 01-.528.024zm7.52 0c-.848 0-1.608-.16-2.28-.48a4.133 4.133 0 01-1.56-1.344 3.376 3.376 0 01-.552-1.896c0-.864.224-1.544.672-2.04.448-.512 1.176-.88 2.184-1.104 1.008-.224 2.36-.336 4.056-.336h1.2v1.728h-1.176c-.992 0-1.784.048-2.376.144-.592.096-1.016.264-1.272.504-.24.224-.36.544-.36.96 0 .528.184.96.552 1.296.368.336.88.504 1.536.504.528 0 .992-.12 1.392-.36.416-.256.744-.6.984-1.032.24-.432.36-.928.36-1.488v-2.76c0-.8-.176-1.376-.528-1.728-.352-.352-.944-.528-1.776-.528-.464 0-.968.056-1.512.168a8.057 8.057 0 00-1.68.576c-.304.144-.576.184-.816.12a.918.918 0 01-.528-.384 1.26 1.26 0 01-.192-.672c0-.24.064-.472.192-.696.128-.24.344-.416.648-.528.736-.304 1.44-.52 2.112-.648a10.32 10.32 0 011.872-.192c1.152 0 2.096.176 2.832.528a3.492 3.492 0 011.68 1.608c.368.704.552 1.616.552 2.736v5.76c0 .496-.12.88-.36 1.152-.24.256-.584.384-1.032.384-.448 0-.8-.128-1.056-.384-.24-.272-.36-.656-.36-1.152v-1.152h.192a3.33 3.33 0 01-.672 1.464c-.32.4-.728.712-1.224.936-.496.224-1.064.336-1.704.336zm10.75-.048c-.48 0-.849-.128-1.105-.384-.256-.272-.384-.656-.384-1.152V7.584c0-.496.128-.872.384-1.128.256-.256.616-.384 1.08-.384.464 0 .824.128 1.08.384.256.256.384.632.384 1.128v1.632l-.264-.6c.352-.848.896-1.488 1.632-1.92.752-.448 1.6-.672 2.544-.672s1.72.176 2.328.528c.608.352 1.064.888 1.368 1.608.304.704.456 1.6.456 2.688v5.808c0 .496-.128.88-.384 1.152-.256.256-.624.384-1.104.384-.48 0-.856-.128-1.128-.384-.256-.272-.384-.656-.384-1.152v-5.664c0-.912-.176-1.576-.528-1.992-.336-.416-.864-.624-1.584-.624-.88 0-1.584.28-2.112.84-.512.544-.768 1.272-.768 2.184v5.256c0 1.024-.504 1.536-1.512 1.536zm17.926.048c-1.04 0-1.912-.176-2.616-.528a3.399 3.399 0 01-1.536-1.536c-.336-.688-.504-1.536-.504-2.544V8.52h-1.248c-.384 0-.68-.096-.888-.288-.208-.208-.312-.488-.312-.84 0-.368.104-.648.312-.84.208-.192.504-.288.888-.288h1.248V4.08c0-.496.128-.872.384-1.128.272-.256.648-.384 1.128-.384.48 0 .848.128 1.104.384.256.256.384.632.384 1.128v2.184h2.544c.384 0 .68.096.888.288.208.192.312.472.312.84 0 .352-.104.632-.312.84-.208.192-.504.288-.888.288h-2.544v4.944c0 .768.168 1.344.504 1.728.336.384.88.576 1.632.576.272 0 .512-.024.72-.072.208-.048.392-.08.552-.096a.55.55 0 01.48.192c.128.128.192.4.192.816 0 .32-.056.608-.168.864-.096.24-.28.408-.552.504-.208.064-.48.12-.816.168a4.817 4.817 0 01-.888.096z" fill="#1A1A1A"/></svg>