<svg width="135" height="18" fill="none" xmlns="http://www.w3.org/2000/svg"><path d="M11.785 5H10.2a3.295 3.295 0 00-1.336-2.071 3.581 3.581 0 00-1.093-.537c-.4-.12-.818-.179-1.253-.179a4 4 0 00-2.154.6c-.639.401-1.148.992-1.528 1.772-.375.78-.562 1.736-.562 2.87 0 1.133.187 2.09.562 2.87.38.78.889 1.37 1.528 1.77a4 4 0 002.154.601c.435 0 .853-.06 1.253-.179.4-.12.765-.296 1.093-.53A3.357 3.357 0 0010.2 9.91h1.585a5.28 5.28 0 01-.652 1.795 4.909 4.909 0 01-1.176 1.349 5.149 5.149 0 01-1.579.837c-.58.192-1.2.288-1.86.288-1.116 0-2.11-.273-2.978-.818-.87-.546-1.554-1.321-2.052-2.327C.989 10.028.74 8.835.74 7.454c0-1.38.25-2.573.748-3.579.498-1.006 1.182-1.781 2.052-2.327C4.409 1.003 5.402.73 6.518.73c.66 0 1.28.096 1.86.288.584.192 1.11.473 1.58.844.468.366.86.813 1.175 1.342.316.524.533 1.123.652 1.796zm6.346 9.204c-.886 0-1.664-.21-2.333-.632-.665-.422-1.185-1.012-1.56-1.77-.37-.76-.556-1.646-.556-2.66 0-1.023.185-1.915.556-2.678.375-.763.895-1.355 1.56-1.777.669-.422 1.447-.633 2.333-.633.886 0 1.662.21 2.327.633.669.422 1.189 1.014 1.56 1.777.374.763.562 1.655.562 2.678 0 1.014-.188 1.9-.563 2.66-.37.758-.89 1.348-1.56 1.77-.664.422-1.44.633-2.326.633zm0-1.355c.673 0 1.227-.172 1.662-.517.435-.346.756-.8.965-1.362a5.213 5.213 0 00.313-1.828c0-.656-.104-1.268-.313-1.834a3.092 3.092 0 00-.965-1.375c-.435-.35-.989-.524-1.662-.524-.673 0-1.227.175-1.662.524-.435.35-.756.808-.965 1.375a5.266 5.266 0 00-.313 1.834c0 .656.104 1.266.313 1.828.209.563.53 1.016.965 1.362.435.345.989.517 1.662.517zM24.883 14V4.182h1.457v1.534h.128a2.47 2.47 0 01.99-1.221c.457-.294 1.004-.441 1.643-.441.648 0 1.187.147 1.618.441.434.29.773.697 1.016 1.22h.102a2.86 2.86 0 011.132-1.207c.502-.303 1.105-.454 1.809-.454.877 0 1.595.275 2.154.825.558.545.837 1.395.837 2.55V14h-1.508V7.429c0-.724-.199-1.242-.595-1.553a2.2 2.2 0 00-1.4-.467c-.69 0-1.225.209-1.604.627-.38.413-.57.937-.57 1.572V14H30.56V7.276c0-.559-.181-1.008-.544-1.35-.362-.344-.828-.517-1.4-.517-.391 0-.758.104-1.099.313-.336.21-.61.499-.818.87-.205.366-.307.79-.307 1.272V14h-1.508zm15.644 3.682v-13.5h1.458v1.56h.178c.111-.171.265-.388.46-.653.201-.268.487-.507.857-.715.375-.213.882-.32 1.522-.32.826 0 1.555.207 2.186.62.63.413 1.122 1 1.476 1.758.354.758.53 1.653.53 2.684 0 1.04-.176 1.941-.53 2.704-.354.759-.843 1.347-1.47 1.764-.626.414-1.349.62-2.167.62-.63 0-1.136-.104-1.515-.313-.379-.213-.67-.454-.876-.722a9.68 9.68 0 01-.473-.678h-.127v5.19h-1.509zM42.01 9.09c0 .741.109 1.396.326 1.962.217.563.535 1.004.953 1.323.417.316.928.473 1.534.473.63 0 1.157-.166 1.578-.498.427-.337.746-.789.96-1.355a5.318 5.318 0 00.325-1.905c0-.69-.106-1.313-.32-1.867-.208-.558-.526-.999-.952-1.323-.422-.328-.952-.492-1.591-.492-.614 0-1.13.156-1.547.467-.418.307-.733.737-.946 1.29-.213.55-.32 1.192-.32 1.925zm12.375 5.14a3.99 3.99 0 01-1.694-.352 2.907 2.907 0 01-1.208-1.03c-.298-.451-.447-.997-.447-1.636 0-.562.11-1.018.332-1.368.222-.354.518-.63.889-.83.37-.201.78-.35 1.227-.448.451-.103.905-.183 1.361-.243.597-.077 1.08-.134 1.451-.173.375-.042.648-.113.819-.21.174-.099.262-.27.262-.512v-.051c0-.63-.173-1.12-.518-1.47-.341-.35-.859-.524-1.553-.524-.72 0-1.285.157-1.694.473-.41.315-.697.652-.863 1.01l-1.432-.512c.256-.596.596-1.061 1.023-1.393.43-.337.899-.571 1.406-.703a5.839 5.839 0 011.508-.205c.316 0 .678.038 1.087.115.413.072.812.224 1.195.454.388.23.71.577.966 1.042.255.464.383 1.086.383 1.866V14h-1.508v-1.33H57.3a2.656 2.656 0 01-.511.684c-.24.243-.557.45-.953.62-.396.17-.88.256-1.45.256zm.23-1.356c.597 0 1.1-.117 1.509-.352a2.393 2.393 0 001.253-2.077v-1.38c-.064.076-.205.146-.422.21a7.11 7.11 0 01-.742.16 33.669 33.669 0 01-1.444.192 5.763 5.763 0 00-1.1.25c-.336.11-.61.278-.818.504-.204.222-.307.524-.307.908 0 .524.194.92.582 1.189.392.264.888.396 1.49.396zm8.532-4.781V14h-1.508V4.182h1.457v1.534h.128c.23-.499.58-.9 1.048-1.202.469-.307 1.074-.46 1.815-.46.665 0 1.247.136 1.745.41.499.268.887.677 1.164 1.226.277.546.415 1.236.415 2.071V14h-1.508V7.864c0-.772-.2-1.373-.601-1.803-.4-.435-.95-.652-1.65-.652-.48 0-.911.104-1.29.313a2.241 2.241 0 00-.889.914c-.217.4-.326.887-.326 1.458zm9.64 9.588a3.27 3.27 0 01-.683-.064 1.804 1.804 0 01-.416-.115l.384-1.33c.366.094.69.128.971.103.282-.026.531-.152.748-.378.222-.221.424-.581.608-1.08l.28-.767-3.63-9.87h1.636l2.71 7.825h.103l2.71-7.824h1.637l-4.168 11.25c-.188.507-.42.927-.697 1.26a2.61 2.61 0 01-.965.747 2.975 2.975 0 01-1.227.243zM97.485.909V14H95.95L88.816 3.722h-.128V14h-1.585V.91h1.534l7.159 10.303h.128V.91h1.56zm5.856 13.321a3.991 3.991 0 01-1.694-.351 2.912 2.912 0 01-1.208-1.03c-.298-.451-.447-.997-.447-1.636 0-.562.111-1.018.332-1.368.222-.354.518-.63.889-.83.37-.201.779-.35 1.227-.448.452-.103.905-.183 1.361-.243a62.267 62.267 0 011.451-.173c.375-.042.648-.113.819-.21.174-.099.262-.27.262-.512v-.051c0-.63-.173-1.12-.518-1.47-.341-.35-.859-.524-1.553-.524-.721 0-1.285.157-1.694.473-.409.315-.697.652-.863 1.01l-1.432-.512c.256-.596.597-1.061 1.023-1.393a3.83 3.83 0 011.406-.703 5.836 5.836 0 011.509-.205c.315 0 .677.038 1.086.115.414.072.812.224 1.195.454.388.23.71.577.966 1.042.255.464.383 1.086.383 1.866V14h-1.508v-1.33h-.077c-.102.213-.273.441-.511.684-.239.243-.556.45-.953.62-.396.17-.88.256-1.451.256zm.23-1.355c.597 0 1.1-.117 1.509-.352a2.396 2.396 0 001.253-2.077v-1.38c-.064.076-.205.146-.422.21-.213.06-.46.113-.742.16a33.834 33.834 0 01-1.444.192 5.771 5.771 0 00-1.1.25 1.9 1.9 0 00-.818.504c-.204.222-.307.524-.307.908 0 .524.194.92.582 1.189.392.264.888.396 1.489.396zM110.594 14V4.182h1.457v1.534h.128c.204-.524.535-.931.991-1.221.456-.294 1.003-.441 1.642-.441.648 0 1.187.147 1.618.441.434.29.773.697 1.016 1.22h.102a2.866 2.866 0 011.132-1.207c.502-.303 1.105-.454 1.808-.454.878 0 1.596.275 2.155.825.558.545.837 1.395.837 2.55V14h-1.509V7.429c0-.724-.198-1.242-.594-1.553a2.2 2.2 0 00-1.4-.467c-.69 0-1.225.209-1.604.627-.38.413-.569.937-.569 1.572V14h-1.534V7.276c0-.559-.181-1.008-.544-1.35-.362-.344-.828-.517-1.399-.517-.393 0-.759.104-1.1.313a2.364 2.364 0 00-.818.87c-.205.366-.307.79-.307 1.272V14h-1.508zm19.761.204c-.946 0-1.762-.208-2.449-.626a4.203 4.203 0 01-1.578-1.764c-.367-.759-.55-1.64-.55-2.646s.183-1.892.55-2.66c.37-.77.886-1.372 1.546-1.802.665-.435 1.441-.652 2.327-.652a4.65 4.65 0 011.515.256c.499.17.953.447 1.362.83.409.38.735.883.978 1.51.242.626.364 1.397.364 2.313v.64h-7.568V8.297h6.034c0-.554-.111-1.048-.333-1.483a2.5 2.5 0 00-.933-1.029c-.4-.251-.873-.377-1.419-.377-.601 0-1.121.15-1.559.448-.435.294-.77.677-1.004 1.15-.234.473-.352.98-.352 1.521v.87c0 .741.128 1.37.384 1.885.26.512.62.902 1.08 1.17.46.264.995.396 1.605.396.396 0 .754-.055 1.073-.166.324-.115.603-.285.838-.511a2.33 2.33 0 00.543-.857l1.458.41a3.241 3.241 0 01-.774 1.303c-.362.371-.81.66-1.342.87-.533.204-1.132.306-1.796.306z" fill="#000"/></svg>