<svg width="48" height="51" fill="none" xmlns="http://www.w3.org/2000/svg"><path d="M25.734 31.883a2.92 2.92 0 001.245-.366 3.27 3.27 0 00.952-.806l7.812-10.84c.098-.13.139-.3.122-.512a1.001 1.001 0 00-.22-.562c-.162-.163-.341-.244-.536-.244a1.3 1.3 0 00-.586.146l-10.791 7.813a2.29 2.29 0 00-.83.928c-.196.39-.326.813-.391 1.27-.033.455.024.878.17 1.269.147.39.4.732.758 1.025.293.293.618.513.976.66.358.146.733.22 1.123.22h.196zm-1.612-3.076c0-.195.05-.374.147-.537a4.28 4.28 0 01.341-.488l6.641-4.786-4.834 6.592a.91.91 0 01-.415.366 1.331 1.331 0 01-.561.122c-.196 0-.391-.024-.586-.073a.683.683 0 01-.44-.317.92.92 0 01-.22-.366 1.624 1.624 0 01-.073-.513zm20.215-12.305a33.506 33.506 0 00-1.44-2.173 18.92 18.92 0 00-1.587-1.928l1.806-1.807 1.221 1.22L47.853 8.3l-3.516-3.516L40.821 8.3l1.221 1.172-1.904 1.709a22.8 22.8 0 00-1.953-1.563 77.294 77.294 0 00-2.051-1.416h-.098a22.982 22.982 0 00-4.126-1.855 20.851 20.851 0 00-4.467-.977v-.976h1.27c.552 0 1.04-.204 1.464-.61a1.99 1.99 0 00.635-1.49 2.07 2.07 0 00-.586-1.489c-.39-.407-.895-.61-1.514-.61h-7.47c-.554 0-1.042.203-1.465.61a1.987 1.987 0 00-.635 1.49c0 .585.195 1.082.586 1.488.39.407.895.61 1.513.61h1.27v.977c-.423.065-.863.13-1.318.196-.456.065-.912.146-1.368.244a.743.743 0 00-.488.317c-.13.18-.163.399-.098.66.033.195.147.357.342.488.196.13.407.162.635.097.423-.097.814-.17 1.172-.22.358-.048.732-.105 1.123-.17l.928-.098h.78v1.611c0 .26.082.456.245.586a.91.91 0 00.586.196.84.84 0 00.537-.196c.163-.13.244-.325.244-.586v-1.61c1.563.064 3.076.308 4.541.731a22.15 22.15 0 014.15 1.66l-.78 1.417a.882.882 0 00-.074.61.826.826 0 00.366.513c.033.032.098.057.196.073.097.016.163.024.195.024a.97.97 0 00.44-.097.457.457 0 00.244-.342l.83-1.367a22.072 22.072 0 016.494 6.494l-1.416.781a.672.672 0 00-.366.488.94.94 0 00.073.635c.098.13.203.228.317.293a.726.726 0 00.366.098c.066 0 .139-.008.22-.025a.871.871 0 00.22-.073l1.367-.781a19.321 19.321 0 011.66 4.224c.39 1.48.651 3.002.782 4.565h-1.612c-.26 0-.464.081-.61.244a.786.786 0 00-.22.537c0 .196.09.383.269.562.179.179.366.268.561.268h1.612a19.651 19.651 0 01-.733 4.615 20.073 20.073 0 01-1.709 4.174l-1.367-.634a.94.94 0 00-.635-.074.661.661 0 00-.488.415.883.883 0 00-.073.61.66.66 0 00.366.465l1.416.83a24.187 24.187 0 01-2.905 3.564 21.385 21.385 0 01-3.59 2.93l-.83-1.416a.662.662 0 00-.463-.366.882.882 0 00-.61.073.662.662 0 00-.367.464.882.882 0 00.073.61l.782 1.416a18.43 18.43 0 01-4.15 1.66c-1.466.39-2.98.635-4.542.733v-1.612a.722.722 0 00-.244-.561.799.799 0 00-1.123.024c-.163.163-.244.342-.244.537v1.612a16.928 16.928 0 01-4.004-.489c-.195-.065-.399-.032-.61.098-.212.13-.334.293-.367.488-.065.196-.032.399.098.61a.92.92 0 00.488.416c.847.195 1.693.342 2.54.44.846.097 1.676.146 2.49.146h.097c1.986 0 3.915-.26 5.786-.782a21.448 21.448 0 005.2-2.197h.098a23.56 23.56 0 004.615-3.589 21.944 21.944 0 003.49-4.516v-.196a23.205 23.205 0 002.198-5.322c.52-1.888.781-3.857.781-5.908 0-2.05-.227-4.012-.683-5.884a20.452 20.452 0 00-2.1-5.298zm0-9.424L45.51 8.3l-1.172 1.172-1.22-1.172 1.22-1.22zM24.122 5.174v-2.49h-2.88a.373.373 0 01-.27-.122.373.373 0 01-.121-.269.37.37 0 01.122-.268.373.373 0 01.268-.122h7.471c.098 0 .195.04.293.122.098.081.147.17.147.268s-.05.187-.147.269a.459.459 0 01-.293.122h-2.88v2.49h-1.709zm-6.591 6.738h-4.2c-.26 0-.455.082-.586.244a.84.84 0 00-.195.538c0 .195.081.374.244.537.163.162.342.244.537.244h4.2c.26 0 .455-.082.585-.244a.84.84 0 00.196-.537c0-.196-.082-.375-.244-.538-.163-.162-.342-.244-.538-.244zm0 5.762H9.132c-.26 0-.456.09-.586.269a.941.941 0 00-.195.561c0 .195.081.374.244.537.163.163.342.244.537.244h8.3c.261 0 .457-.081.587-.244a.84.84 0 00.195-.537.941.941 0 00-.195-.561c-.13-.18-.293-.269-.488-.269zm0 5.81H5.03c-.26 0-.456.082-.586.245a.909.909 0 00-.196.586c0 .195.065.39.196.586.13.195.325.293.585.293h12.5c.26 0 .456-.082.586-.244a.84.84 0 00.196-.538.973.973 0 00-.244-.634c-.163-.196-.342-.293-.538-.293zm0 5.909H1.613a.786.786 0 00-.538.22.722.722 0 00-.244.561c0 .26.082.464.244.61.163.147.342.22.538.22h15.82c.26 0 .456-.081.586-.244a.909.909 0 00.195-.586.84.84 0 00-.195-.537.601.601 0 00-.488-.244zm0 5.81H6.64c-.195 0-.382.082-.56.244-.18.163-.27.342-.27.538 0 .195.09.382.27.561.178.18.365.269.56.269h10.792c.26 0 .456-.09.586-.269a.941.941 0 00.195-.561.84.84 0 00-.195-.538.601.601 0 00-.488-.244zm0 5.81H11.72a.722.722 0 00-.562.245.786.786 0 00-.22.537c0 .195.082.374.245.537.163.163.342.244.537.244h5.81c.26 0 .456-.081.586-.244a.84.84 0 00.196-.537c0-.195-.082-.374-.244-.537-.163-.163-.342-.244-.538-.244z" fill="#F77F00"/></svg>