<svg width="52" height="51" fill="none" xmlns="http://www.w3.org/2000/svg"><g clip-path="url(#clip0_1_918)"><path d="M21.44 20.711c-.26-.162-.512-.203-.756-.122a.804.804 0 00-.513.513c-.163.26-.203.52-.122.781.082.26.252.44.513.537.098.033.179.057.244.074.065.016.146.024.244.024a.943.943 0 00.488-.146.581.581 0 00.293-.391c.098-.195.122-.423.074-.684-.05-.26-.204-.455-.464-.586zm27.003 7.813l-7.52-13.135a3.305 3.305 0 001.514-2.783c0-.293-.025-.57-.073-.83a2.261 2.261 0 00-.318-.781c1.758-.391 3.215-1.294 4.37-2.71 1.156-1.416 1.734-3.036 1.734-4.859 0-.26-.09-.496-.269-.708-.179-.211-.431-.317-.757-.317-.227 0-.447.09-.659.268-.211.18-.317.432-.317.757 0 1.498-.505 2.816-1.514 3.955-1.009 1.14-2.279 1.774-3.809 1.905l1.514-2.1c.456-.651.7-1.35.733-2.1.032-.748-.18-1.448-.635-2.1-.456-.65-1.034-1.114-1.734-1.39a3.666 3.666 0 00-2.172-.172l-1.807.39a2.072 2.072 0 01-.635 0 2.06 2.06 0 01-.635-.194L33.941.692a3.628 3.628 0 00-1.929-.537c-.7 0-1.359.179-1.977.537l-1.465.928c-.13.13-.302.22-.513.268a2.026 2.026 0 01-.708.025l-1.807-.391a3.101 3.101 0 00-2.197.122c-.716.31-1.286.79-1.709 1.44a3.406 3.406 0 00-.635 2.149c.033.781.277 1.465.733 2.05l1.806 2.442c-.553.228-.992.619-1.318 1.172a3.5 3.5 0 00-.488 1.807 3.2 3.2 0 00.415 1.61c.276.49.643.88 1.098 1.173l-1.416 2.392c-.13.26-.154.521-.073.782.082.26.252.44.513.537a.793.793 0 00.732.122.805.805 0 00.537-.513l1.612-2.88H38.97l7.666 13.476a12.063 12.063 0 011.563 4.639 12.61 12.61 0 01-.318 4.76 12.771 12.771 0 01-2.075 4.322c-.977 1.302-2.197 2.392-3.662 3.271a9.912 9.912 0 01-2.979 1.367 12.56 12.56 0 01-3.32.44h-7.52a12.56 12.56 0 01-3.32-.44 11.268 11.268 0 01-3.076-1.367l-.195.293v-1.172h2.002c.26 0 .496-.097.708-.293a.955.955 0 00.317-.732v-4.688a.937.937 0 00-.293-.683.994.994 0 00-.732-.293h-2.002v-2.735h2.002c.26 0 .496-.09.708-.268a.882.882 0 00.317-.708v-4.737c0-.228-.098-.447-.293-.659a.955.955 0 00-.732-.317h-6.3l2.198-3.809a.793.793 0 00.122-.732.805.805 0 00-.512-.537c-.26-.163-.513-.204-.757-.122-.244.081-.432.252-.562.512l-2.197 3.809c-.098.13-.18.277-.244.44a7.188 7.188 0 01-.244.537H4.253c-.26 0-.496.089-.708.268-.211.18-.317.431-.317.757v3.662H1.324c-.228 0-.448.098-.66.293a.955.955 0 00-.317.732v4.688c0 .26.09.496.269.708a.882.882 0 00.708.317h2.002v2.686H1.324c-.228 0-.448.09-.66.268a.882.882 0 00-.317.708v4.64c0 .227.09.447.269.658a.882.882 0 00.708.318h19.53a.98.98 0 00.684-.269c.196-.179.293-.415.293-.708v-.635a14.523 14.523 0 006.592 1.612h7.52c1.302 0 2.588-.171 3.857-.513a14.358 14.358 0 003.565-1.49 14.953 14.953 0 004.125-3.76 15.106 15.106 0 002.466-5.028c.456-1.856.554-3.711.293-5.567a15.18 15.18 0 00-1.806-5.322zm-24.22-14.697a2.8 2.8 0 01-.39-.513 1.168 1.168 0 01-.195-.61c0-.391.138-.725.415-1.001.277-.277.61-.415 1.001-.415h1.709l-2.54 2.539zm5.323.195h-2.783l2.588-2.637.049-.049.049-.048h2.88l-2.783 2.734zm5.518 0h-2.735l2.637-2.637.049-.049.049-.048h2.685l-2.685 2.734zm4.101 0h-1.318l2.295-2.295c.098.098.187.228.268.39.082.163.123.326.123.489 0 .39-.13.724-.391 1-.26.278-.586.416-.977.416zm-.732-4.639H25.835l-2.49-3.271c-.26-.358-.383-.716-.366-1.074a1.88 1.88 0 01.268-.928c.163-.26.407-.472.733-.635.325-.163.716-.179 1.172-.049l1.806.39c.489.099.96.115 1.416.05a4.462 4.462 0 001.367-.44l1.514-.927a1.88 1.88 0 01.928-.245c.325 0 .618.082.879.245l1.465.927c.423.196.87.334 1.342.415a4.18 4.18 0 001.49-.024l1.806-.39c.424-.13.79-.115 1.099.048.31.163.578.374.806.635.13.26.22.57.268.928.049.358-.09.716-.415 1.074l-2.49 3.271zM5.23 31.503h17.529v2.685h-2.93v-.879c0-.26-.09-.496-.268-.708a.882.882 0 00-.708-.317c-.26 0-.497.097-.708.293a.955.955 0 00-.317.732v.879h-2.881v-.879c0-.26-.09-.496-.269-.708a.882.882 0 00-.708-.317c-.325 0-.578.097-.757.293-.179.195-.268.44-.268.732v.879H10.16v-.879c0-.26-.097-.496-.293-.708a.955.955 0 00-.732-.317c-.228 0-.448.097-.66.293a.955.955 0 00-.317.732v.879H5.23v-2.686zm-2.881 7.421V36.19h17.578v2.734h-2.88v-.732c0-.228-.09-.448-.27-.66a.882.882 0 00-.707-.317c-.326 0-.578.09-.757.269-.18.179-.269.415-.269.708v.635h-2.88v-.635c0-.228-.098-.448-.294-.66a.955.955 0 00-.732-.317c-.293 0-.529.09-.708.269-.179.179-.269.415-.269.708v.635H7.134v-.635c0-.228-.09-.448-.268-.66a.882.882 0 00-.708-.317c-.293 0-.538.09-.733.269-.195.179-.293.415-.293.708v.635H2.35v.097zm17.48 9.278h-2.88v-.88c0-.26-.09-.496-.269-.707-.179-.212-.431-.318-.757-.318-.293 0-.529.09-.708.269-.179.179-.268.431-.268.757v.879h-2.881v-.88c0-.26-.098-.496-.293-.707a.956.956 0 00-.733-.318c-.293 0-.529.09-.708.269-.179.179-.268.431-.268.757v.879h-2.93v-.88c0-.26-.09-.496-.268-.707a.882.882 0 00-.708-.318c-.293 0-.538.09-.733.269-.195.179-.293.431-.293.757v.879H2.35v-2.686h17.578v2.686h-.098zm0-4.59v-.733c0-.227-.09-.447-.268-.659a.882.882 0 00-.708-.317c-.293 0-.537.09-.733.268a.917.917 0 00-.293.708v.733h-2.88v-.733c0-.227-.09-.447-.269-.659a.882.882 0 00-.708-.317c-.325 0-.578.09-.757.268-.179.18-.268.415-.268.708v.733H10.16v-.733c0-.227-.097-.447-.293-.659a.955.955 0 00-.732-.317c-.228 0-.448.09-.66.268a.882.882 0 00-.317.708v.733H5.23v-2.686h17.628v2.686H19.83zm12.305-10.4c-.456 0-.838-.139-1.147-.416-.31-.276-.464-.61-.464-1 0-.391.154-.725.464-1.002.309-.276.691-.415 1.147-.415.456 0 .838.139 1.148.415.309.277.463.61.463 1.001 0 .26.09.497.269.708.179.212.431.318.757.318.228 0 .447-.098.659-.293a.955.955 0 00.317-.733 3.04 3.04 0 00-.732-2.002 3.508 3.508 0 00-1.855-1.171v-.098c0-.26-.098-.497-.293-.708a.955.955 0 00-.733-.317c-.228 0-.448.09-.66.268-.21.18-.317.431-.317.757v.098a3.508 3.508 0 00-1.855 1.172 3.04 3.04 0 00-.732 2.001c0 .912.35 1.71 1.05 2.393a3.472 3.472 0 002.514 1.025c.456 0 .838.13 1.148.391.309.26.463.586.463.977 0 .358-.146.675-.439.952a1.707 1.707 0 01-1.074.464h-.196a1.762 1.762 0 01-1.05-.464c-.309-.277-.463-.594-.463-.952 0-.228-.09-.448-.269-.66a.882.882 0 00-.708-.317.98.98 0 00-.683.269c-.196.179-.293.415-.293.708 0 .78.244 1.464.732 2.05a3.508 3.508 0 001.855 1.172V40c0 .26.09.496.27.707a.882.882 0 00.707.318c.26 0 .496-.098.708-.293a.956.956 0 00.318-.733v-.195a3.508 3.508 0 001.855-1.172c.488-.586.732-1.27.732-2.05 0-.944-.35-1.742-1.05-2.393-.7-.651-1.554-.977-2.563-.977zm7.324-6.397a10.333 10.333 0 00-3.32-2.246 10.355 10.355 0 00-3.784-.83 10.114 10.114 0 00-3.784.634 9.23 9.23 0 00-3.418 2.051 1.033 1.033 0 00-.318.684.939.939 0 00.22.683c.195.196.423.302.684.318.26.016.504-.057.732-.22 1.628-1.497 3.565-2.221 5.81-2.173 2.247.05 4.167.871 5.762 2.466 1.66 1.66 2.49 3.646 2.49 5.957s-.83 4.297-2.49 5.957a8.468 8.468 0 01-3.1 2.002 7.458 7.458 0 01-3.59.39 1.14 1.14 0 00-1.123.928c0 .228.082.456.245.684.163.228.39.358.683.39h.88c1.367 0 2.693-.26 3.979-.78a9.964 9.964 0 003.345-2.198 10.911 10.911 0 002.295-3.467c.52-1.27.78-2.563.78-3.881 0-1.319-.243-2.629-.732-3.931a10.742 10.742 0 00-2.246-3.418zM28.423 41.708a1.028 1.028 0 00-.732-.025.805.805 0 00-.537.513 1.17 1.17 0 00-.025.781c.082.26.252.44.513.537a.875.875 0 00.22.073.967.967 0 00.17.025c.196 0 .375-.049.538-.147.162-.097.293-.244.39-.44a.892.892 0 000-.707 1.283 1.283 0 00-.537-.61z" fill="#F77F00"/></g><defs><clipPath id="clip0_1_918"><path fill="#fff" transform="matrix(1 0 0 -1 .347 50.204)" d="M0 0h51v50H0z"/></clipPath></defs></svg>