<svg width="51" height="51" fill="none" xmlns="http://www.w3.org/2000/svg"><path d="M47.954 43.026l.098-4.834c0-.033-.04-.578-.122-1.636-.081-1.058-.35-2.238-.806-3.54l-2.588-6.103H40.24l-2.686 6.2c-.39 1.238-.627 2.385-.708 3.443a143.985 143.985 0 00-.122 1.636v1.611H34.33a2.3 2.3 0 01-1.684-.708 2.3 2.3 0 01-.708-1.684v-3.418c1.953-1.107 3.523-2.645 4.712-4.615 1.188-1.969 1.782-4.158 1.782-6.567v-.098a3.185 3.185 0 001.733-1.147c.44-.57.66-1.229.66-1.978 0-.748-.098-1.35-.294-1.806-.195-.456-.39-.782-.585-.977v-2.099a14.623 14.623 0 00-1.221-5.665 14.199 14.199 0 00-3.1-4.59 15.402 15.402 0 00-4.615-3.124A14.533 14.533 0 0025.347.204c-1.986 0-3.874.374-5.664 1.123-1.758.78-3.288 1.823-4.59 3.125s-2.344 2.832-3.125 4.59a14.534 14.534 0 00-1.123 5.664v2.099c-.163.195-.35.521-.562.977-.211.456-.317 1.058-.317 1.806 0 .75.22 1.416.66 2.002.439.586 1.017.96 1.733 1.123v.098c0 2.409.594 4.59 1.782 6.543a13.261 13.261 0 004.712 4.639v3.418a2.3 2.3 0 01-.708 1.684 2.3 2.3 0 01-1.685.708h-4.004V38.68c.782-.488 1.376-1.107 1.783-1.855.406-.749.61-1.628.61-2.637 0-.977-.326-1.953-.977-2.93-.65-.976-1.627-1.595-2.93-1.855l-.976-.195v4.199H8.452v-4.2l-1.025.196c-1.237.293-2.19.928-2.856 1.904-.668.977-1.001 1.937-1.001 2.881 0 1.01.195 1.888.586 2.637.39.748.992 1.367 1.806 1.855v2.002c-1.66.749-3.01 1.904-4.053 3.467C.868 45.71.347 47.469.347 49.422v.782h1.611v-.782c0-2.115.7-3.93 2.1-5.444 1.4-1.514 3.125-2.368 5.176-2.563v8.789h1.611v-8.887h2.393v8.887h1.61v-8.887h1.612c.13 0 .277-.016.44-.049a2.74 2.74 0 01.537-.049c.358 1.856 1.277 3.418 2.759 4.688 1.48 1.27 3.198 1.904 5.151 1.904 1.953 0 3.67-.627 5.151-1.88 1.482-1.253 2.401-2.824 2.76-4.712.13.033.276.057.439.073.162.017.341.025.537.025h1.611v8.887h1.611v-8.887h2.393v8.887h1.611v-8.79c2.051.196 3.776 1.067 5.176 2.613 1.4 1.546 2.1 3.345 2.1 5.395v.782h1.611v-.782c0-1.204-.212-2.36-.635-3.466a9.494 9.494 0 00-1.758-2.93zM11.236 37.41l-.391.195v2.1h-.781c-.423 0-.83.024-1.22.073a9.83 9.83 0 00-1.173.22v-2.393l-.44-.195c-.65-.358-1.147-.798-1.489-1.319-.341-.52-.512-1.188-.512-2.002 0-.488.146-1 .44-1.538a4.046 4.046 0 011.17-1.341v3.711h4.785v-3.71c.554.292.96.707 1.221 1.245.26.537.39 1.082.39 1.635 0 .814-.154 1.498-.463 2.051-.31.553-.822.977-1.538 1.27zm27.002-18.506a3.45 3.45 0 00.293-.22c.097-.081.195-.17.293-.268a2.918 2.918 0 01.244 1.172c0 .325-.074.602-.22.83-.146.227-.35.423-.61.585v-2.1zM24.566 1.913v5.615h1.562V1.913c1.66.097 3.223.488 4.688 1.171A13.322 13.322 0 0134.6 5.77a12.917 12.917 0 012.612 3.857 12 12 0 011.026 4.688c-1.433-.749-3.443-1.27-6.03-1.563-2.589-.293-4.875-.439-6.861-.439-1.986 0-4.273.146-6.86.44-2.588.292-4.598.813-6.03 1.562a12 12 0 011.025-4.688 12.917 12.917 0 012.612-3.857 13.32 13.32 0 013.784-2.686 12.752 12.752 0 014.688-1.171zm-12.11 19.091a1.918 1.918 0 01-.61-.585 1.508 1.508 0 01-.22-.83c0-.229.025-.448.074-.66.048-.211.105-.382.17-.512.098.097.196.178.293.244.098.065.196.146.293.244v2.1zm0-4.687c.098-.423 1.27-.928 3.516-1.514s5.371-.879 9.375-.879c4.036 0 7.186.293 9.448.88 2.263.585 3.41 1.09 3.443 1.513 0 .781-1.14 1.505-3.418 2.173-2.279.667-5.437 1-9.473 1-4.037.066-7.194-.252-9.473-.951-2.278-.7-3.418-1.44-3.418-2.222zm1.612 6.494v-3.125c1.79.651 3.84 1.066 6.152 1.245 2.311.18 4.02.269 5.127.269 1.107 0 2.816-.073 5.127-.22 2.311-.146 4.362-.578 6.152-1.294v3.125c0 1.53-.293 2.995-.879 4.395a11.34 11.34 0 01-2.417 3.588 11.339 11.339 0 01-3.588 2.417c-1.368.586-2.832.88-4.395.88-1.563 0-3.027-.294-4.395-.88a11.339 11.339 0 01-3.588-2.417 11.338 11.338 0 01-2.417-3.588 11.27 11.27 0 01-.88-4.395zM25.347 46.2c-1.66 0-3.093-.554-4.297-1.66-1.204-1.107-1.904-2.458-2.1-4.053.456-.326.839-.773 1.148-1.343.31-.57.464-1.18.464-1.831v-2.588a15.92 15.92 0 002.32.708c.797.18 1.619.269 2.465.269.846 0 1.668-.082 2.466-.244.797-.163 1.57-.407 2.32-.733v2.588c0 .651.146 1.245.439 1.782a4.572 4.572 0 001.172 1.392c-.163 1.595-.855 2.946-2.076 4.053-1.22 1.106-2.66 1.66-4.321 1.66zm15.185-6.494h-2.197v-1.612l.098-1.416c.065-.944.277-1.97.635-3.076l2.197-5.176h.293V35.8a2.461 2.461 0 00-1.148.855c-.309.407-.463.887-.463 1.44-.066.358-.033.668.097.928s.293.488.489.684zm1.807-.782c-.195 0-.374-.09-.537-.268-.163-.18-.244-.366-.244-.562 0-.195.081-.374.244-.537.163-.163.342-.244.537-.244.196 0 .383.081.562.244.179.163.268.342.268.537 0 .196-.09.383-.268.562-.18.179-.367.268-.562.268zm4.004 2.686a8.598 8.598 0 00-1.318-.806 11.197 11.197 0 00-1.465-.61 2.47 2.47 0 00.83-.855c.228-.374.342-.789.342-1.245 0-.553-.155-1.025-.464-1.416a2.992 2.992 0 00-1.099-.879v-7.373h.293l2.197 5.078c.391 1.14.619 2.19.684 3.15l.098 1.44-.098 3.516zM26.128 23.592h7.325v-1.611h-8.887v8.105h1.562v-6.494zm-11.28-12.89h1.612v1.611h-1.61v-1.611zm3.321-.782h1.563v1.563h-1.563V9.92z" fill="#F77F00"/></svg>