<svg width="55" height="51" fill="none" xmlns="http://www.w3.org/2000/svg"><path d="M39.964 31.004a.786.786 0 00.537-.22c.163-.146.244-.35.244-.61v-6.982c0-.814-.211-1.563-.634-2.246a4.097 4.097 0 00-1.758-1.563L32.152 16.6a.683.683 0 01-.367-.342 1.084 1.084 0 01-.122-.488v-2.1c.749-.586 1.351-1.335 1.807-2.246a6.46 6.46 0 00.684-2.93v-3.32c0-1.335-.147-2.417-.44-3.247l-.44-1.245c-.162-.13-.3-.244-.414-.342a.616.616 0 00-.416-.146h-6.298c-.39 0-.765.065-1.123.195s-.684.293-.977.488h-.098c-.553.065-1.22.366-2.002.904-.78.537-1.171 1.505-1.171 2.905v3.808c0 1.042.228 2.019.683 2.93.456.912 1.058 1.66 1.807 2.246v2.1a.943.943 0 01-.147.488.86.86 0 01-.341.342l-6.202 2.783a4.316 4.316 0 00-1.782 1.538c-.44.668-.659 1.424-.659 2.27v6.983c0 .228.073.423.22.586.146.163.35.244.61.244a.786.786 0 00.537-.22c.163-.146.244-.35.244-.61v-2.197l2.588 1.025v3.272l-2.197.341a1.924 1.924 0 00-1.758 1.563 1.827 1.827 0 00-.049 1.245c.13.407.342.757.635 1.05l4.688 4.54-1.075 6.397c-.065.424-.024.83.122 1.221.147.39.4.716.757.977a2.74 2.74 0 001.172.415 2.13 2.13 0 001.22-.22l5.811-3.027 5.81 3.027c.131.098.294.17.49.22.194.048.39.073.585.073.26 0 .497-.033.708-.098.212-.065.415-.162.61-.293.359-.26.619-.594.782-1 .163-.408.195-.806.097-1.197l-1.074-6.396 4.688-4.541c.293-.293.488-.643.586-1.05a2.681 2.681 0 000-1.245 2.213 2.213 0 00-.684-1.001 2.617 2.617 0 00-1.123-.562l-2.197-.342v-3.174l2.637-.488v1.465c-.228.228-.27.423-.123.586a.67.67 0 00.513.244zM22.337 4.686c0-.39.057-.724.171-1.001a1.67 1.67 0 01.562-.708c.032.097.08.195.146.293.065.097.18.146.342.146.195.033.399 0 .61-.097.212-.098.334-.245.366-.44a1.4 1.4 0 01.586-.781 1.805 1.805 0 011.026-.293h5.81c.098.228.212.602.342 1.123.13.52.212 1.107.244 1.758-.553.195-1.448.358-2.685.488s-2.637-.13-4.2-.781a.831.831 0 00-.561 0 1.253 1.253 0 00-.464.293l-.562.683c-.374.456-.92.863-1.635 1.221l-.098-1.904zm0 3.808V8.3c.814-.26 1.49-.618 2.026-1.074.538-.456.936-.83 1.197-1.123 1.497.553 2.848.773 4.053.659 1.204-.114 2.148-.269 2.831-.464v2.197c0 1.4-.496 2.596-1.489 3.59-.992.992-2.189 1.489-3.589 1.489-1.367 0-2.547-.497-3.54-1.49-.992-.993-1.489-2.189-1.489-3.589zm9.131 9.522a4.334 4.334 0 01-1.49 2.197 3.913 3.913 0 01-2.514.879 4.09 4.09 0 01-2.539-.854c-.749-.57-1.27-1.278-1.563-2.125h.098a2.487 2.487 0 001.05-.952c.244-.407.366-.822.366-1.245v-1.22c.39.162.806.284 1.245.366a7.397 7.397 0 002.686 0c.44-.082.854-.204 1.245-.366v1.22c-.033.39.081.782.342 1.172.26.39.618.7 1.074.928zm7.08 16.162c.163 0 .293.049.39.147a.742.742 0 01.196.39.42.42 0 01.024.366c-.048.114-.122.22-.22.318l-4.882 4.785a1.014 1.014 0 00-.22.317c-.049.114-.04.253.025.415l1.171 6.787a.92.92 0 01-.073.367c-.049.114-.122.22-.22.317a.574.574 0 01-.341.17.893.893 0 01-.44-.072l-6.201-3.174c-.065-.065-.122-.098-.17-.098h-.417c-.032 0-.098.033-.195.098l-6.104 3.174a.535.535 0 01-.366.073 1.161 1.161 0 01-.464-.171 1.013 1.013 0 01-.22-.317.92.92 0 01-.073-.367l1.22-6.787c0-.162-.007-.3-.024-.415a.559.559 0 00-.17-.317l-4.932-4.785a.724.724 0 01-.195-.342.607.607 0 010-.342c.065-.163.146-.277.244-.342s.211-.13.342-.195l6.835-.977c.13 0 .245-.04.342-.122.098-.081.18-.17.244-.268l3.077-6.201a.618.618 0 01.293-.342.787.787 0 01.341-.098c.13 0 .253.033.367.098.114.065.187.179.22.342l3.124 6.2a.59.59 0 00.586.39l6.885.978zm.586-7.08l-2.588.488v-2.392a.786.786 0 00-.22-.537.722.722 0 00-.561-.245.941.941 0 00-.562.196c-.179.13-.268.325-.268.586v6.884l-2.588-.39-2.881-5.81c-.195-.391-.48-.7-.855-.928a2.182 2.182 0 00-1.147-.342c-.456 0-.87.114-1.245.341a1.69 1.69 0 00-.757.928l-2.93 5.81-2.587.391v-6.884a.84.84 0 00-.196-.537c-.13-.163-.325-.245-.586-.245-.26 0-.464.066-.61.196-.146.13-.22.325-.22.586v2.197l-2.588-.977v-3.222c0-.489.139-.944.415-1.367a2.434 2.434 0 011.099-.928l4.785-2.197c.423 1.139 1.131 2.09 2.124 2.856a5.412 5.412 0 003.394 1.147c1.237 0 2.36-.366 3.369-1.098 1.009-.733 1.725-1.701 2.148-2.905l4.785 2.197c.456.195.822.504 1.1.928.276.423.414.878.414 1.367l-.244 3.906zM16.868 41.6a.772.772 0 00-.561-.244.772.772 0 00-.562.244l-1.611 1.611a.767.767 0 00-.195.293.78.78 0 000 .39l.83 4.493a.34.34 0 01-.025.146c-.016.033-.04.05-.073.05l-.073.048c-.049.033-.09.016-.122-.049l-4.102-2.1a1.171 1.171 0 00-.366-.048c-.146 0-.269.016-.366.049l-4.102 2.1c-.032.064-.073.08-.122.048l-.073-.049-.049-.049c-.032-.032-.049-.08-.049-.146l.83-4.492a2.48 2.48 0 00-.024-.39c-.016-.099-.09-.196-.22-.294L2.562 39.99c-.065-.033-.098-.074-.098-.122v-.074c0-.065.016-.097.049-.097h.146l4.59-.684a.59.59 0 00.39-.122.586.586 0 00.196-.318l2.002-4.101c-.032-.13-.04-.212-.024-.244l.024-.049.073.024c.05.017.09.041.122.074l1.807 3.613a.741.741 0 00.464.39c.211.066.399.066.561 0a.74.74 0 00.391-.463c.065-.212.065-.383 0-.513l-1.807-3.613a1.565 1.565 0 00-.634-.708 1.837 1.837 0 00-.977-.269c-.325 0-.635.09-.928.269a1.564 1.564 0 00-.634.708L6.37 37.498l-4.199.586a1.75 1.75 0 00-.903.44 1.869 1.869 0 00-.513.78 1.505 1.505 0 000 .929c.098.325.26.618.488.879l3.028 2.88-.733 4.102c-.032.358.017.684.147.977.13.293.325.537.586.732.13.098.293.17.488.22.195.048.358.073.488.073.163 0 .31-.024.44-.073.13-.05.26-.09.39-.122l3.662-2.002L13.45 49.9c.293.13.61.195.953.195.341 0 .659-.098.952-.293.293-.195.496-.456.61-.781.114-.326.138-.635.073-.928l-.683-4.102 1.318-1.318c.228-.13.35-.31.366-.537.017-.228-.04-.407-.17-.537zm37.207-2.393a1.714 1.714 0 00-.561-.781 2.047 2.047 0 00-.855-.44l-4.199-.585-1.904-3.809a1.969 1.969 0 00-.66-.708 1.714 1.714 0 00-.952-.269c-.358 0-.675.09-.952.269-.276.18-.496.415-.659.708l-1.758 3.613a.727.727 0 00-.024.61c.081.212.22.334.415.367a.727.727 0 00.61.024c.212-.081.334-.22.367-.415l1.806-3.613c0-.033.025-.057.073-.073a.404.404 0 01.122-.025c.066 0 .106.009.123.025l.073.073 2.002 4.102c.065.097.146.187.244.268a.59.59 0 00.39.122l4.59.733c.033 0 .074.016.123.048l.073.05c0 .032-.008.056-.025.073a.564.564 0 00-.073.122l-3.32 3.173c-.098.13-.163.245-.195.342a.78.78 0 000 .39l.83 4.493a.34.34 0 01-.025.146c-.016.033-.057.05-.122.05l-.049.048c-.032.033-.081.016-.146-.049l-4.102-2.1a1.08 1.08 0 00-.342-.048c-.13 0-.244.016-.341.049l-4.102 2.1c-.032.064-.073.08-.122.048l-.073-.049-.05-.049c-.032-.032-.048-.08-.048-.146l.781-4.492c0-.163-.008-.293-.024-.39a.834.834 0 00-.171-.343l-1.611-1.562a.625.625 0 00-.513-.244.772.772 0 00-.562.244.65.65 0 00-.244.537.65.65 0 00.244.537l1.319 1.319-.733 4.101c-.032.358.017.684.147.977.13.293.325.537.586.732.293.195.602.31.928.342.325.032.634-.049.927-.244l3.711-2.002 3.711 2.002c.163.032.301.073.415.122a.918.918 0 00.366.073c.228 0 .415-.024.562-.073a2.36 2.36 0 00.464-.22c.293-.195.496-.456.61-.781.114-.326.139-.635.073-.928l-.683-4.102 2.978-2.93c.26-.097.44-.3.537-.61a1.578 1.578 0 000-.952z" fill="#F77F00"/></svg>