<svg width="160" height="160" fill="none" xmlns="http://www.w3.org/2000/svg"><path d="M70.72 151.825l.492-3.846c.048-.379-.022-.685-.211-.918-.19-.223-.48-.359-.87-.409l-1.816-.232.167-1.308 1.939.248c.8.103 1.403.399 1.81.889.396.488.545 1.112.448 1.871l-.497 3.893 2.846.364-.165 1.292-2.43-.311c-.175-.022-.297-.007-.366.047-.07.064-.116.178-.137.342l-.205 1.6-1.43-.183.26-2.046-3.507-.449.165-1.293 3.508.449zm-14.116-1.732c-1.264-.426-2.118-1.068-2.56-1.926-.446-.848-.463-1.885-.052-3.11l1.249-3.72 1.396.47-1.249 3.72c-.266.794-.243 1.473.07 2.036.299.57.87.997 1.713 1.28a3.374 3.374 0 001.706.133 2.84 2.84 0 001.433-.713l1.575-4.69 1.411.475-3.435 10.234-1.412-.475 1.299-3.867a3.96 3.96 0 01-1.521.388 4.442 4.442 0 01-1.623-.235zm-15.796-12.734l6.341 3.811c.301-.603.327-1.209.077-1.817-.255-.6-.76-1.126-1.513-1.579-.7-.421-1.336-.647-1.909-.677-.586-.027-1.014.144-1.284.513l-1.37-.823c.534-.729 1.268-1.108 2.202-1.138.926-.035 1.947.283 3.063.954.789.474 1.396 1.02 1.822 1.638.42.626.64 1.284.662 1.972.012.683-.181 1.357-.58 2.022l-.167.28c-.404.674-.91 1.166-1.519 1.476-.622.314-1.305.428-2.05.342-.75-.076-1.518-.352-2.307-.826-1.179-.708-1.93-1.558-2.252-2.548-.328-.981-.186-1.981.425-3.001l.359-.599zm2.17 4.978c.709.426 1.372.626 1.991.599a2.057 2.057 0 001.515-.718l-4.958-2.98a1.973 1.973 0 00.04 1.653c.25.548.72 1.03 1.412 1.446zm-20.707-18.625l2.233 2.662 4.88-4.102.956 1.141-4.88 4.102 1.725 2.056-.998.839-1.724-2.056-.546.459c-.57.479-1.157.688-1.76.628-.618-.061-1.173-.385-1.665-.971l-1.206-1.438 1.01-.848 1.086 1.295c.239.285.5.444.783.476.277.024.562-.087.855-.333l.486-.409-2.232-2.662.997-.839zm-8.461-11.33l6.713-3.726.669 1.208-.838.536c1.04.298 1.864.976 2.473 2.033.65 1.176.855 2.228.612 3.155-.257.923-.951 1.699-2.081 2.326l-3.431 1.904-.714-1.289 3.431-1.904c.724-.402 1.167-.914 1.33-1.537.159-.632.022-1.337-.408-2.114a3.325 3.325 0 00-1.17-1.249c-.49-.308-.998-.458-1.525-.449l-4.34 2.408-.721-1.302zm-2.655-10.433l3.694-1.18c.364-.117.612-.31.743-.58.12-.266.122-.587.002-.961l-.556-1.744 1.256-.401.594 1.862c.245.768.231 1.44-.041 2.016-.276.565-.778.965-1.507 1.198l-3.737 1.194.871 2.734-1.24.397-.745-2.335c-.054-.168-.12-.272-.197-.312-.088-.037-.21-.03-.368.02l-1.537.491-.438-1.374 1.965-.628-1.074-3.37 1.24-.396 1.075 3.369zM6.499 84.442l7.63-.858.153 1.372-.98.172c.846.675 1.348 1.618 1.504 2.828.15 1.336-.065 2.385-.645 3.147-.592.754-1.53 1.203-2.815 1.347l-3.9.439-.164-1.465 3.9-.438c.822-.093 1.428-.395 1.818-.907.389-.522.533-1.225.434-2.11a3.325 3.325 0 00-.601-1.602c-.334-.472-.746-.805-1.236-1l-4.932.555-.166-1.48zm.474-13.534l1.299.105-.137 1.7c-.045.557.008 1.06.159 1.507.151.438.388.789.709 1.053l5.287.427-.12 1.484-7.652-.617.112-1.392.885.025a3.412 3.412 0 01-.552-1.258 4.78 4.78 0 01-.11-1.534l.12-1.5zm7.402-13.205l-1.956 7.135c.662.128 1.252-.01 1.77-.414.508-.408.879-1.035 1.111-1.883.216-.787.261-1.461.136-2.021-.132-.573-.412-.94-.84-1.1l.422-1.54c.846.318 1.409.923 1.69 1.815.283.882.253 1.952-.092 3.208-.243.888-.605 1.62-1.084 2.195-.49.574-1.063.963-1.72 1.168-.654.196-1.355.191-2.102-.014l-.315-.087c-.757-.208-1.367-.563-1.83-1.066-.47-.515-.764-1.143-.883-1.883-.129-.743-.071-1.559.172-2.446.364-1.326.979-2.278 1.844-2.855.856-.58 1.857-.712 3.004-.397l.673.185zm-4.205 3.429c-.218.797-.232 1.49-.04 2.08.186.576.552.999 1.1 1.267l1.53-5.58a1.967 1.967 0 00-1.58.483c-.46.389-.796.972-1.01 1.75zm16.435-19.334c-.55.764-1.152 1.337-1.808 1.718-.664.376-1.34.545-2.027.51-.695-.043-1.362-.294-2-.753l-.214-.154c-.646-.466-1.1-1.022-1.36-1.669-.261-.646-.315-1.342-.163-2.086.144-.75.491-1.506 1.04-2.27.543-.756 1.144-1.318 1.802-1.684.656-.382 1.329-.547 2.018-.496.696.042 1.367.296 2.013.761l.214.154c.637.46 1.087 1.012 1.348 1.66.258.632.315 1.323.171 2.073-.146.735-.491 1.48-1.034 2.236zm-1.117-.785c.555-.772.81-1.507.762-2.203-.047-.697-.389-1.275-1.026-1.734l-.214-.154c-.646-.465-1.307-.61-1.981-.433-.683.17-1.302.642-1.857 1.415-.568.79-.828 1.532-.78 2.228.052.689.406 1.268 1.06 1.74l.214.154c.638.46 1.294.6 1.969.424.68-.185 1.298-.664 1.853-1.437zm7.51-15.983l-2.518 2.394 4.387 4.625-1.078 1.026L29.4 28.45l-1.944 1.849-.897-.945 1.945-1.85-.491-.517c-.513-.54-.757-1.113-.734-1.72.023-.622.312-1.196.866-1.723l1.36-1.294.908.957-1.225 1.165c-.27.256-.412.527-.427.812-.007.278.12.556.384.833l.438.462 2.518-2.394.896.945zm18.175-4.268c-.672.343-1.26.452-1.766.326-.5-.139-.902-.508-1.207-1.107l-3.967-7.797 1.326-.676 3.855 7.575c.16.313.348.502.565.565.213.053.49-.006.831-.18l.594-.303.598 1.175-.829.422zm4.221-10.082l2.637 7.212-1.398.512-2.637-7.21 1.398-.513zm-1.12-.894c-.281.104-.54.105-.775.004a.965.965 0 01-.507-.574.897.897 0 01.028-.737c.114-.23.312-.396.594-.499.282-.103.54-.104.775-.003.235.1.4.283.496.545.1.272.094.527-.017.766-.114.229-.312.395-.594.498zm16.702-2.949l.04.214-2.404 8.05-1.89.36-5.198-6.607-.04-.213 1.523-.29 4.417 5.65 2.028-6.874 1.524-.29zm14.901 4.043l-7.397-.18c.036.674.313 1.213.83 1.618.518.396 1.217.604 2.095.625.817.02 1.482-.099 1.995-.356.523-.266.811-.627.863-1.08l1.597.038c-.104.897-.555 1.59-1.353 2.078-.787.487-1.832.716-3.135.684-.92-.022-1.717-.196-2.392-.523-.674-.336-1.19-.799-1.549-1.387-.348-.587-.512-1.269-.494-2.044l.008-.325c.019-.786.216-1.464.592-2.034.386-.58.924-1.017 1.614-1.311.69-.304 1.495-.445 2.415-.423 1.375.033 2.447.4 3.216 1.101.77.691 1.14 1.63 1.111 2.82l-.016.697zm-4.344-3.255c-.827-.02-1.503.135-2.028.464a2.06 2.06 0 00-.964 1.373l5.784.139a1.969 1.969 0 00-.85-1.417c-.488-.353-1.136-.54-1.942-.559zm32.29 6.736c1.138.52 1.868 1.223 2.192 2.11.327.877.23 1.89-.293 3.037l-1.646 3.614-1.355-.619 1.646-3.613c.339-.743.406-1.4.2-1.972-.206-.571-.666-1.02-1.381-1.347a3.368 3.368 0 00-1.704-.3c-.58.053-1.092.24-1.534.561-.09.323-.197.62-.321.893l-1.646 3.614-1.341-.612 1.646-3.614c.335-.734.399-1.386.194-1.957-.202-.581-.66-1.035-1.375-1.361a3.198 3.198 0 00-1.675-.288 2.734 2.734 0 00-1.486.567l-2.044 4.488-1.34-.612 3.182-6.987 1.256.574-.369.922a3.691 3.691 0 011.545-.249 4.305 4.305 0 011.624.4c.696.319 1.238.714 1.625 1.186.391.463.618.987.681 1.573a4.127 4.127 0 011.802-.44 4.512 4.512 0 011.917.432zm16.152 11.514l-4.898 5.913-1.062-.882.586-.804c-1.077.1-2.091-.231-3.043-.995-1.035-.858-1.607-1.764-1.718-2.716-.096-.953.268-1.928 1.092-2.923l2.503-3.022 1.134.94-2.503 3.023c-.528.637-.755 1.275-.68 1.915.082.646.465 1.253 1.15 1.821.469.39.984.636 1.544.738.568.109 1.095.063 1.583-.137l3.166-3.822 1.146.95zm1.816 13.7c-.852-1.093-1.346-2.09-1.485-2.992-.139-.902.098-1.591.709-2.069l.086-.066.914 1.174-.085.067c-.603.471-.289 1.498.944 3.08.546.702 1.027 1.186 1.443 1.451.425.259.763.29 1.016.093l.086-.067c.203-.16.265-.391.185-.696-.08-.305-.313-.772-.699-1.402l-.949-1.522c-.59-.943-.91-1.716-.96-2.32-.051-.603.169-1.095.658-1.477l.122-.096c.562-.439 1.228-.492 1.997-.161.769.33 1.554 1.01 2.354 2.038.826 1.061 1.295 2.026 1.409 2.895.121.863-.124 1.533-.735 2.01l-.086.067-.905-1.163.085-.067c.294-.229.369-.595.225-1.1-.137-.496-.498-1.12-1.083-1.87-.495-.636-.948-1.083-1.358-1.34-.395-.256-.707-.294-.935-.116l-.086.067c-.204.159-.282.377-.236.656.053.287.243.682.571 1.188l.98 1.536c.654 1.025 1.01 1.861 1.07 2.51.068.642-.151 1.16-.657 1.555l-.122.096c-.57.445-1.254.493-2.05.144-.796-.35-1.604-1.05-2.423-2.103zm13.167 5.898l-6.74 3.675-.712-1.308 6.741-3.675.711 1.308zm.72-1.24c-.143-.264-.182-.52-.116-.767a.963.963 0 01.493-.587.894.894 0 01.732-.081c.243.08.437.25.58.514.143.263.182.519.117.767a.9.9 0 01-.466.572.965.965 0 01-.76.096c-.243-.08-.436-.25-.58-.514zm-3.677 14.027c-.303-.869-.421-1.682-.356-2.438.075-.76.325-1.411.749-1.953.434-.546 1.017-.947 1.75-1.202l.263-.092c.752-.262 1.467-.314 2.146-.157.679.157 1.277.507 1.794 1.05.531.549.949 1.262 1.254 2.141.276.791.387 1.552.335 2.282-.043.727-.243 1.35-.599 1.868a2.699 2.699 0 01-1.407 1.099l-.059.02-.505-1.45.059-.02c.352-.123.623-.35.815-.68.205-.322.313-.721.323-1.196a4.13 4.13 0 00-.25-1.473c-.313-.899-.772-1.527-1.379-1.885-.596-.361-1.275-.41-2.037-.143l-.234.081c-.742.259-1.235.715-1.478 1.37-.243.654-.208 1.43.105 2.329.183.527.424.969.723 1.324.299.356.624.599.976.728a1.48 1.48 0 001.059.024l.059-.02.505 1.45-.059.02a2.765 2.765 0 01-1.794.035c-.591-.188-1.129-.553-1.614-1.096-.481-.533-.862-1.205-1.144-2.016zm3.707 22.977c.019-.92.191-1.723.515-2.41.335-.685.795-1.208 1.382-1.569.597-.36 1.283-.532 2.058-.516l.279.006c.796.016 1.485.217 2.067.601.581.384 1.02.92 1.316 1.61.307.699.45 1.513.431 2.444-.017.837-.177 1.589-.481 2.255-.293.666-.696 1.18-1.21 1.542a2.697 2.697 0 01-1.702.539l-.062-.001.031-1.535h.062a1.48 1.48 0 001-.351c.305-.232.545-.568.719-1.01.174-.43.267-.92.278-1.467.02-.951-.192-1.7-.636-2.247-.433-.547-1.053-.829-1.86-.845l-.248-.005c-.786-.016-1.406.24-1.862.768-.455.529-.693 1.268-.712 2.22a4.162 4.162 0 00.217 1.493c.157.438.377.778.662 1.022.284.254.612.385.985.393l.062.001-.032 1.535-.062-.001a2.767 2.767 0 01-1.694-.593c-.489-.383-.866-.913-1.131-1.59-.266-.668-.39-1.43-.372-2.289zm-1.711 13.813c.216-.916.554-1.676 1.015-2.278.472-.6 1.032-1.016 1.681-1.245.659-.226 1.371-.249 2.135-.068l.257.06c.775.184 1.406.525 1.894 1.023.488.498.803 1.12.946 1.865.153.748.121 1.58-.095 2.496-.214.906-.555 1.654-1.024 2.244-.461.603-1.02 1.013-1.676 1.229-.659.227-1.376.248-2.151.065l-.257-.061c-.764-.181-1.391-.52-1.879-1.018-.48-.486-.797-1.102-.949-1.85-.146-.736-.111-1.557.103-2.463zm1.331.299c-.218.925-.173 1.701.136 2.327.309.626.846 1.029 1.611 1.21l.257.06c.774.184 1.44.065 1.996-.356.566-.418.959-1.09 1.177-2.016.224-.946.181-1.732-.128-2.358-.312-.615-.86-1.016-1.645-1.202l-.256-.06c-.765-.181-1.426-.061-1.982.36-.558.43-.947 1.109-1.166 2.035zm1.187 16.666c-.582 1.212-1.324 1.98-2.225 2.303-.896.337-1.926.225-3.091-.336l-3.535-1.702.638-1.329 3.535 1.703c.755.364 1.431.425 2.028.185.602-.226 1.096-.74 1.481-1.542.264-.55.38-1.113.348-1.691a2.757 2.757 0 00-.522-1.491l-4.472-2.154.645-1.342 6.917 3.331-.598 1.245-.921-.375c.358 1.022.282 2.087-.228 3.195zm-14.662 8.49c.567-.724 1.187-1.264 1.858-1.618.679-.347 1.361-.489 2.046-.424.693.07 1.345.345 1.955.824l.22.172c.626.492 1.056 1.066 1.29 1.723.235.657.263 1.35.087 2.079-.175.743-.549 1.481-1.123 2.214-.516.659-1.096 1.164-1.738 1.515-.634.357-1.265.525-1.893.506a2.7 2.7 0 01-1.683-.592l-.049-.038.946-1.21.049.039c.293.23.63.336 1.011.319.382-.002.775-.127 1.18-.375.397-.24.765-.575 1.103-1.007.587-.749.867-1.475.84-2.18-.018-.698-.345-1.295-.979-1.793l-.195-.154c-.619-.485-1.268-.653-1.95-.504-.681.149-1.315.598-1.901 1.347-.344.44-.585.882-.723 1.326-.137.444-.165.849-.084 1.215.075.374.258.676.551.906l.049.038-.947 1.209-.048-.038a2.77 2.77 0 01-.998-1.493c-.161-.6-.144-1.25.05-1.952.188-.693.547-1.378 1.076-2.054zm-10.73 15.517l5.682-4.738c-.469-.484-1.032-.708-1.689-.672-.649.044-1.312.347-1.987.91-.627.523-1.049 1.05-1.266 1.581-.219.546-.199 1.007.061 1.383l-1.227 1.023c-.512-.744-.628-1.563-.349-2.456.272-.886.908-1.746 1.908-2.58.707-.59 1.422-.984 2.144-1.182.73-.191 1.422-.183 2.078.024.649.213 1.221.618 1.717 1.214l.208.251c.503.604.8 1.244.893 1.921.091.692-.027 1.375-.353 2.051-.319.683-.832 1.32-1.538 1.909-1.057.881-2.105 1.31-3.145 1.289-1.033-.013-1.93-.477-2.69-1.391l-.447-.537zm5.409-.41c.635-.53 1.042-1.092 1.221-1.685a2.066 2.066 0 00-.178-1.669l-4.443 3.705c.455.401.979.57 1.571.507.6-.056 1.209-.342 1.829-.858zm-13.649 10.443l-.632-1.139 1.491-.829c.488-.272.877-.594 1.166-.968.28-.369.442-.76.484-1.174l-2.573-4.639 1.301-.723 3.724 6.713-1.22.679-.469-.751a3.43 3.43 0 01-.741 1.158 4.78 4.78 0 01-1.216.942l-1.315.731zm-8.978 2.309l-1.287-3.658c-.127-.361-.328-.603-.601-.726-.27-.113-.59-.104-.961.027l-1.726.608-.437-1.243 1.843-.65c.76-.268 1.432-.275 2.015-.02.573.258.987.748 1.241 1.47l1.302 3.702 2.706-.955.433 1.229-2.311.815c-.166.059-.268.128-.306.207-.034.089-.024.211.031.367l.535 1.522-1.36.48-.685-1.946-3.335 1.176-.432-1.229 3.335-1.176zm-14.214-3.213c1.371-.202 2.483-.142 3.335.182.852.324 1.335.869 1.448 1.636l.016.108-1.473.217-.016-.107c-.111-.757-1.16-.989-3.144-.696-.88.13-1.537.31-1.974.542-.434.242-.628.521-.582.838l.016.108c.038.256.209.424.513.504.305.081.826.108 1.565.083l1.791-.077c1.111-.049 1.942.054 2.491.307.55.253.87.687.96 1.301l.022.153c.104.706-.177 1.312-.845 1.818-.667.506-1.646.855-2.934 1.045-1.33.196-2.4.129-3.212-.2-.81-.32-1.272-.863-1.385-1.63l-.016-.108 1.458-.215.016.108c.054.368.336.614.845.737.5.125 1.22.118 2.16-.021.798-.118 1.41-.292 1.836-.522.418-.218.605-.471.563-.757l-.016-.107c-.038-.256-.189-.432-.454-.529-.275-.095-.713-.125-1.314-.088l-1.82.096c-1.214.064-2.117-.038-2.71-.305-.592-.258-.935-.704-1.028-1.338l-.023-.154c-.106-.716.19-1.334.887-1.855.697-.521 1.705-.879 3.024-1.074z" fill="#fff"/><path transform="matrix(-.70193 .71225 .72227 .69161 104 57)" stroke="#F11DB2" stroke-width="4" d="M0-2h64.584"/><path stroke="#F11DB2" stroke-width="4" d="M58 100.371V62.257m.668 38.8h38.667"/></svg>