<svg width="96" height="63" fill="none" xmlns="http://www.w3.org/2000/svg"><path d="M4.028 44.396H10.2l3.633-9.033h14.881l3.633 9.033h6.52L24.135 8.968H18.76L4.028 44.396zm17.27-27.404l5.077 12.567H16.172l5.126-12.567zm23.534 27.404h6.122V9.07h-6.122v35.327zm30.991-13.222h8.411v5.551c-1.294 1.262-4.529 2.423-7.216 2.423-7.068 0-11.796-4.896-11.796-12.415 0-7.873 4.927-12.415 11.646-12.415 3.036 0 6.122 1.06 7.864 2.725l2.588-4.946c-2.837-2.271-6.22-3.583-11.198-3.583-10.651 0-17.37 8.075-17.37 18.219 0 11.002 6.769 18.219 18.166 18.219 4.33 0 9.954-1.817 13.04-4.946V25.37H75.823v5.804zM0 59.856h1.04l.376-.968h1.79l.375.968h1.106l-1.881-4.61H1.88L0 59.856zm2.314-3.26l.504 1.304H1.804l.51-1.304zm3.986 3.26v-1.613h.382l1.099 1.613h1.254l-1.32-1.817c.247-.126.764-.475.764-1.33 0-.85-.44-1.476-1.675-1.476-.129 0-1.286.014-1.538.014v4.609H6.3zm.453-3.635c.497 0 .627.244.627.5 0 .39-.31.534-.705.534H6.3v-1.02c.214-.007.298-.014.453-.014zm2.927 3.635h1.034v-4.61H9.68v4.61zm2.265 0h2.747v-.988H12.98v-.836h1.455v-.988H12.98v-.81h1.649v-.988h-2.683v4.61zm5.38-1.264c0 .217-.156.355-.427.355a1.26 1.26 0 01-.97-.487l-.588.718c.22.494.924.757 1.532.757.873 0 1.552-.553 1.552-1.357 0-1.5-1.888-1.317-1.888-2.08 0-.211.168-.343.452-.343.337 0 .485.119.686.31l.556-.79c-.285-.31-.75-.508-1.332-.508-.905 0-1.461.62-1.461 1.33 0 1.489 1.888 1.403 1.888 2.095zm1.613-1.04c0 1.468 1.028 2.383 2.405 2.383 1.377 0 2.405-.988 2.405-2.384 0-1.468-1.028-2.384-2.405-2.384-1.442 0-2.405 1.047-2.405 2.384zm1.1 0c0-.844.555-1.397 1.305-1.397.73 0 1.306.553 1.306 1.396 0 .777-.446 1.396-1.306 1.396-.724 0-1.306-.605-1.306-1.396zm8.495 2.304v-4.61h-.97v2.78l-2.146-2.78h-.827v4.61h.97V57.09l2.145 2.766h.828zm2.522 0h1.035v-4.61h-1.035v4.61zm6.209 0v-4.61h-.97v2.78l-2.146-2.78h-.828v4.61h.97V57.09l2.146 2.766h.828zm4.887-4.61h-1.04l-1.087 3.043-1.138-3.043h-1.105l1.81 4.61h.795l1.765-4.61zm.519 4.61h2.747v-.988h-1.713v-.836h1.454v-.988h-1.454v-.81h1.648v-.988H42.67v4.61zm5.379-1.264c0 .217-.155.355-.427.355a1.26 1.26 0 01-.97-.487l-.588.718c.22.494.925.757 1.532.757.873 0 1.552-.553 1.552-1.357 0-1.5-1.888-1.317-1.888-2.08 0-.211.169-.343.453-.343.336 0 .485.119.685.31l.556-.79c-.284-.31-.75-.508-1.331-.508-.906 0-1.462.62-1.462 1.33 0 1.489 1.888 1.403 1.888 2.095zm1.42-2.358h1.357v3.622h1.035v-3.622h1.357v-.988h-3.75v.988zm4.393 3.622h1.034v-2.917l1.255 1.778h.148l1.261-1.798v2.937h1.034v-4.61h-.976l-1.319 1.943-1.396-1.943h-1.04v4.61zm5.896 0h2.748v-.988h-1.713v-.836h1.454v-.988h-1.454v-.81h1.648v-.988h-2.683v4.61zm7.662 0v-4.61h-.97v2.78l-2.146-2.78h-.827v4.61h.97V57.09l2.146 2.766h.827zm.647-3.622h1.357v3.622h1.034v-3.622h1.358v-.988h-3.75v.988zm7.549 1.982h.963v.5c-.104.1-.44.231-.711.231-.808 0-1.338-.546-1.338-1.396 0-.948.575-1.396 1.318-1.396.35 0 .744.145.925.343l.433-.85c-.369-.296-.808-.48-1.48-.48-1.423 0-2.295 1.06-2.295 2.383 0 1.436.872 2.384 2.424 2.384.562 0 1.293-.244 1.694-.652V57.23h-1.933v.987zm3.87 1.64v-1.613h.38l1.1 1.613h1.254l-1.32-1.817c.246-.126.764-.475.764-1.33 0-.85-.44-1.476-1.675-1.476-.129 0-1.286.014-1.538.014v4.609h1.034zm.452-3.635c.497 0 .627.244.627.5 0 .39-.31.534-.705.534h-.375v-1.02c.213-.007.297-.014.453-.014zm2.343 1.33c0 1.469 1.028 2.384 2.405 2.384 1.377 0 2.405-.988 2.405-2.384 0-1.468-1.028-2.384-2.405-2.384-1.442 0-2.405 1.047-2.405 2.384zm1.1 0c0-.843.555-1.396 1.305-1.396.73 0 1.306.553 1.306 1.396 0 .777-.446 1.396-1.306 1.396-.724 0-1.306-.605-1.306-1.396zm8.308-2.305h-1.035v2.496c0 .738-.187 1.205-.814 1.205-.724 0-.938-.546-.938-1.264v-2.437h-1.034v2.66c0 1.35.808 2.029 1.972 2.029.97 0 1.849-.573 1.849-1.982v-2.707zm2.133 4.61v-1.567c.161.02.407.02.504.02 1.047 0 1.674-.725 1.674-1.548 0-.797-.453-1.528-1.83-1.528-.349 0-1.13.014-1.383.014v4.609h1.034zm.452-3.635c.368 0 .627.125.627.534 0 .447-.336.566-.608.566a3.8 3.8 0 01-.472-.033v-1.054c.214-.006.317-.013.453-.013z" fill="#424242"/></svg>