<svg width="105" height="68" fill="none" xmlns="http://www.w3.org/2000/svg"><path d="M4.406 47.92h6.75l3.974-9.75h16.276l3.974 9.75h7.131L26.398 9.68h-5.88L4.407 47.92zm18.89-29.579l5.552 13.564h-11.16l5.607-13.564zM49.034 47.92h6.696V9.789h-6.696V47.92zm33.897-14.272h9.2v5.992c-1.416 1.362-4.954 2.615-7.894 2.615-7.73 0-12.901-5.284-12.901-13.4 0-8.498 5.389-13.401 12.738-13.401 3.32 0 6.695 1.144 8.6 2.941l2.832-5.338c-3.103-2.451-6.805-3.868-12.249-3.868-11.65 0-18.998 8.716-18.998 19.665 0 11.876 7.403 19.665 19.87 19.665 4.735 0 10.887-1.96 14.262-5.338V27.384h-15.46v6.264zM0 64.607h1.138l.41-1.045h1.959l.41 1.045h1.209L3.069 59.63H2.057L0 64.607zm2.531-3.519l.552 1.408h-1.11l.558-1.408zm4.36 3.519v-1.742h.417l1.202 1.742h1.372l-1.443-1.962c.269-.135.835-.512.835-1.436 0-.917-.481-1.592-1.832-1.592-.141 0-1.407.014-1.682.014v4.976h1.13zm.495-3.924c.544 0 .686.263.686.54 0 .42-.34.576-.771.576h-.41v-1.102c.233-.007.325-.014.495-.014zm3.202 3.924h1.13V59.63h-1.13v4.976zm2.477 0h3.005V63.54h-1.874v-.902h1.59v-1.066h-1.59v-.875h1.803v-1.066h-2.934v4.976zm5.884-1.365c0 .234-.17.384-.467.384-.346 0-.778-.164-1.06-.526l-.644.774c.24.533 1.011.818 1.676.818.954 0 1.697-.597 1.697-1.464 0-1.62-2.065-1.422-2.065-2.246 0-.228.184-.37.495-.37.368 0 .53.128.75.334l.608-.853c-.311-.334-.82-.547-1.457-.547-.99 0-1.598.668-1.598 1.436 0 1.606 2.065 1.514 2.065 2.26zm1.765-1.123c0 1.585 1.124 2.573 2.63 2.573 1.506 0 2.63-1.066 2.63-2.573 0-1.585-1.124-2.573-2.63-2.573-1.577 0-2.63 1.13-2.63 2.573zm1.202 0c0-.91.608-1.507 1.428-1.507.799 0 1.428.597 1.428 1.507 0 .839-.488 1.507-1.428 1.507-.792 0-1.428-.654-1.428-1.507zm9.292 2.488V59.63h-1.06v3l-2.348-3h-.905v4.976h1.06V61.62l2.348 2.986h.905zm2.759 0h1.131V59.63h-1.131v4.976zm6.79 0V59.63h-1.06v3l-2.348-3h-.905v4.976h1.06V61.62l2.348 2.986h.905zm5.346-4.976h-1.139l-1.188 3.284-1.244-3.284h-1.209l1.98 4.976h.87l1.93-4.976zm.567 4.976h3.005V63.54H47.8v-.902h1.591v-1.066h-1.59v-.875h1.802v-1.066H46.67v4.976zm5.884-1.365c0 .234-.17.384-.467.384-.347 0-.778-.164-1.06-.526l-.644.774c.24.533 1.011.818 1.676.818.954 0 1.697-.597 1.697-1.464 0-1.62-2.065-1.422-2.065-2.246 0-.228.184-.37.495-.37.368 0 .53.128.75.334l.608-.853c-.311-.334-.82-.547-1.457-.547-.99 0-1.598.668-1.598 1.436 0 1.606 2.065 1.514 2.065 2.26zm1.553-2.545h1.484v3.91h1.132v-3.91h1.484v-1.066h-4.1v1.066zm4.805 3.91h1.13v-3.15l1.373 1.92h.162l1.38-1.94v3.17h1.13V59.63H63.02l-1.442 2.097-1.527-2.097h-1.138v4.976zm6.449 0h3.005V63.54h-1.874v-.902h1.591v-1.066h-1.59v-.875h1.802v-1.066h-2.934v4.976zm8.38 0V59.63h-1.06v3l-2.348-3h-.905v4.976h1.06V61.62l2.348 2.986h.905zm.707-3.91h1.485v3.91h1.13v-3.91h1.486v-1.066h-4.101v1.066zm8.257 2.14h1.053v.54c-.113.106-.48.249-.778.249-.883 0-1.463-.59-1.463-1.507 0-1.024.629-1.507 1.442-1.507.382 0 .813.156 1.011.37l.474-.917c-.403-.32-.884-.52-1.62-.52-1.555 0-2.51 1.145-2.51 2.574 0 1.55.955 2.573 2.652 2.573.615 0 1.414-.263 1.853-.704v-2.217h-2.114v1.066zm4.232 1.77v-1.742h.417l1.202 1.742h1.372l-1.443-1.962c.269-.135.835-.512.835-1.436 0-.917-.481-1.592-1.832-1.592-.141 0-1.407.014-1.682.014v4.976h1.13zm.495-3.924c.544 0 .686.263.686.54 0 .42-.34.576-.771.576h-.41v-1.102c.233-.007.325-.014.495-.014zm2.563 1.436c0 1.585 1.124 2.573 2.63 2.573 1.506 0 2.63-1.066 2.63-2.573 0-1.585-1.124-2.573-2.63-2.573-1.576 0-2.63 1.13-2.63 2.573zm1.202 0c0-.91.608-1.507 1.428-1.507.8 0 1.429.597 1.429 1.507 0 .839-.488 1.507-1.429 1.507-.791 0-1.428-.654-1.428-1.507zm9.087-2.488h-1.13v2.694c0 .796-.206 1.3-.892 1.3-.792 0-1.025-.59-1.025-1.364v-2.63h-1.131v2.872c0 1.457.884 2.189 2.156 2.189 1.06 0 2.022-.618 2.022-2.14v-2.92zm2.333 4.976v-1.692c.177.021.446.021.552.021 1.145 0 1.831-.782 1.831-1.67 0-.86-.495-1.649-2.001-1.649-.382 0-1.237.014-1.513.014v4.976h1.131zm.495-3.924c.403 0 .686.135.686.576 0 .483-.368.611-.665.611-.162 0-.353-.014-.516-.035v-1.138c.234-.007.347-.014.495-.014z" fill="#424242"/></svg>