<svg width="60" height="61" fill="none" xmlns="http://www.w3.org/2000/svg"><path d="M42.555 60.498h-25.11a21.408 21.408 0 01-7.33-1.188 14.83 14.83 0 01-5.479-3.436 14.86 14.86 0 01-3.432-5.489 21.514 21.514 0 01-1.189-7.347v-25.11C.015 7.014 6.531.498 17.444.498h25.141a21.412 21.412 0 017.335 1.19 14.814 14.814 0 015.478 3.437 14.799 14.799 0 013.417 5.473 21.355 21.355 0 011.17 7.325v25.14c0 10.919-6.516 17.435-17.43 17.435zm-20.54-15.319a2.007 2.007 0 011.65 1.177l.11.19a1.694 1.694 0 001.447.83c.293 0 .58-.079.832-.229l1.731-.99a1.88 1.88 0 00.885-1.15 1.879 1.879 0 00-.186-1.44 2 2 0 01-.2-2.014 2 2 0 011.841-.837 1.9 1.9 0 001.9-1.9v-1.759a1.92 1.92 0 00-1.91-1.9 2 2 0 01-1.842-.836 2 2 0 01.191-2.015 1.9 1.9 0 00-.7-2.59l-1.73-.99a1.628 1.628 0 00-.831-.229 1.7 1.7 0 00-1.448.829l-.11.19a1.99 1.99 0 01-1.64 1.178 2.007 2.007 0 01-1.65-1.178l-.11-.19a1.647 1.647 0 00-1.43-.828c-.292 0-.579.08-.83.229l-1.73.99a1.906 1.906 0 00-.701 2.6 1.985 1.985 0 01.2 2 2 2 0 01-1.842.838 1.9 1.9 0 00-1.9 1.9v1.759a1.9 1.9 0 001.9 1.9 2 2 0 011.841.837 2 2 0 01-.2 2.014 1.9 1.9 0 00.7 2.59l1.731.99c.251.15.538.229.831.229a1.7 1.7 0 001.45-.829l.11-.19a1.989 1.989 0 011.64-1.176zm15-14a2.006 2.006 0 011.65 1.178l.11.19a1.693 1.693 0 001.447.829c.293 0 .581-.079.833-.229l1.73-.99a1.876 1.876 0 00.886-1.149 1.877 1.877 0 00-.186-1.44 2 2 0 01-.2-2.014 2 2 0 011.84-.836 1.9 1.9 0 001.9-1.9v-1.76a1.92 1.92 0 00-1.91-1.9 2 2 0 01-1.84-.835 2 2 0 01.19-2.015 1.892 1.892 0 00.186-1.441 1.874 1.874 0 00-.886-1.148l-1.73-.99a1.63 1.63 0 00-.832-.229 1.7 1.7 0 00-1.449.828l-.11.191a1.99 1.99 0 01-1.64 1.177 2.006 2.006 0 01-1.649-1.177l-.11-.191a1.648 1.648 0 00-1.43-.83c-.292 0-.58.08-.83.229l-1.73.99a1.907 1.907 0 00-.701 2.6 1.984 1.984 0 01.2 2 2 2 0 01-1.842.838 1.9 1.9 0 00-1.9 1.9v1.76a1.9 1.9 0 001.9 1.9 2 2 0 011.84.836 2 2 0 01-.2 2.014 1.9 1.9 0 00.7 2.589l1.73.99c.252.15.54.229.832.229a1.7 1.7 0 001.448-.829l.11-.19a1.99 1.99 0 011.643-1.175zm-15 10.008a3.254 3.254 0 01-3.25-3.25 3.254 3.254 0 013.25-3.251 3.254 3.254 0 013.251 3.251 3.254 3.254 0 01-3.25 3.25zm15-14a3.254 3.254 0 01-3.25-3.25 3.254 3.254 0 013.25-3.25 3.254 3.254 0 013.25 3.25 3.255 3.255 0 01-3.25 3.25z" fill="url(#paint0_linear_1_106)"/><defs><linearGradient id="paint0_linear_1_106" x1=".013" y1=".496" x2="60.017" y2="60.47" gradientUnits="userSpaceOnUse"><stop stop-color="#22ADEF"/><stop offset="1" stop-color="#9840F7"/></linearGradient></defs></svg>