<svg width="60" height="61" fill="none" xmlns="http://www.w3.org/2000/svg"><path d="M42.556 60.498h-25.11a21.414 21.414 0 01-7.332-1.188 14.831 14.831 0 01-5.48-3.435 14.859 14.859 0 01-3.431-5.489 21.516 21.516 0 01-1.188-7.348v-25.11C.015 7.014 6.53.498 17.445.498h25.14a21.412 21.412 0 017.335 1.19 14.812 14.812 0 015.479 3.438 14.8 14.8 0 013.418 5.478 21.357 21.357 0 011.167 7.325v25.14c0 10.913-6.515 17.429-17.428 17.429zm-17.441-44a9.112 9.112 0 00-9.1 9.1v9.7a9.112 9.112 0 009.1 9.1h9.7a9.112 9.112 0 009.1-9.1v-9.7a9.113 9.113 0 00-9.1-9.1h-9.7zm9.7 24.254H31.79v-8.476h8.474v3.022a5.457 5.457 0 01-5.45 5.454zm-6.676 0h-3.026a5.456 5.456 0 01-5.45-5.45v-3.026h8.476v8.476zm12.152-12.1h-8.5v-8.5h3.026a5.517 5.517 0 015.477 5.477v3.025l-.002-.002zm-12.126-.026h-8.5v-3.028a5.47 5.47 0 015.476-5.45h3.026v8.475l-.002.003z" fill="url(#paint0_linear_1_103)"/><defs><linearGradient id="paint0_linear_1_103" x1=".013" y1=".496" x2="57.258" y2="60.472" gradientUnits="userSpaceOnUse"><stop stop-color="#16B8EE"/><stop offset="1" stop-color="#A336F7"/></linearGradient></defs></svg>