<svg width="61" height="61" fill="none" xmlns="http://www.w3.org/2000/svg"><path d="M43.085.5h-25.14C7.025.5.515 7.01.515 17.93v25.11c0 10.95 6.51 17.46 17.43 17.46h25.11c10.92 0 17.43-6.51 17.43-17.43V17.93C60.515 7.01 54.005.5 43.085.5zm-25.68 48.45a2.25 2.25 0 01-4.5 0v-6.21a2.25 2.25 0 114.5 0v6.21zm15.36 0a2.25 2.25 0 01-4.5 0V36.5a2.25 2.25 0 114.5 0v12.45zm15.36 0a2.25 2.25 0 01-4.5 0V30.29a2.25 2.25 0 114.5 0v18.66zm0-28.14a2.25 2.25 0 01-4.5 0V17.9a58.6 58.6 0 01-27.93 16.08 1.66 1.66 0 01-.54.06 2.27 2.27 0 01-2.19-1.71 2.243 2.243 0 011.65-2.73 54.213 54.213 0 0026.25-15.33h-3.75a2.25 2.25 0 010-4.5h8.79c.12 0 .21.06.33.06.152.016.303.046.45.09.146.069.287.149.42.24.09.06.18.09.27.15.03.03.03.06.06.06.109.113.209.233.3.36.09.095.162.207.21.33.047.125.078.256.09.39.047.156.077.317.09.48 0 .03.03.06.03.09v8.79h-.03z" fill="url(#paint0_linear_1_101)"/><defs><linearGradient id="paint0_linear_1_101" x1=".515" y1=".5" x2="60.514" y2="58.37" gradientUnits="userSpaceOnUse"><stop stop-color="#23ACEF"/><stop offset="1" stop-color="#9A3DF6"/></linearGradient></defs></svg>