<svg width="60" height="61" fill="none" xmlns="http://www.w3.org/2000/svg"><path d="M17.443 60.496C6.524 60.496.016 53.987.016 43.035v-25.11C.016 7.005 6.524.496 17.443.496h25.14c10.922 0 17.432 6.509 17.4 17.429v25.14c0 10.922-6.508 17.432-17.43 17.432l-25.11-.001zm8.191-41.641a11.357 11.357 0 00-2.818 11.4l-7.05 7.05a2.982 2.982 0 00-.72 2.22l.446 3.269a2.863 2.863 0 002.252 2.252l3.272.45a2.904 2.904 0 002.22-.778l1.23-1.231a.722.722 0 000-1.05l-2.909-2.91a1.13 1.13 0 010-1.591 1.165 1.165 0 011.591 0l2.91 2.91a.776.776 0 001.05 0l3.178-3.149a11.35 11.35 0 0011.4-2.79 11.34 11.34 0 000-16.051 11.378 11.378 0 00-8.038-3.307 11.301 11.301 0 00-8.014 3.306zm4.38 7.893a3.75 3.75 0 117.496-.004 3.75 3.75 0 01-7.494.003l-.002.001z" fill="url(#paint0_linear_1_134)"/><defs><linearGradient id="paint0_linear_1_134" x1=".016" y1=".496" x2="60.017" y2="60.463" gradientUnits="userSpaceOnUse"><stop stop-color="#22ADEF"/><stop offset="1" stop-color="#9840F7"/></linearGradient></defs></svg>