<svg width="60" height="61" fill="none" xmlns="http://www.w3.org/2000/svg"><path d="M42.555 60.5h-25.11C6.532 60.5.016 53.973.016 43.04V17.93C.015 7.016 6.53.5 17.445.5h25.14c5.364 0 9.794 1.6 12.813 4.627 3.019 3.027 4.6 7.451 4.587 12.8V43.07c0 10.914-6.515 17.43-17.43 17.43zM23.748 42.867l1.367 1.119 2.776 1.928h4.765l2.787-1.928 1.37-1.12 7.054 1.94 2.029-6.881-2.19-6.744 1.443-1.68-.622-.448.995-.908-.771-.6 1-.76-.66-.5 1.058-5.077-1.58-4.716-10.09 3.77h-8.387l-10.1-3.77-1.567 4.716 1.058 5.077-.672.5 1 .76-.759.6.995.908-.622.448 1.432 1.68-2.165 6.744 2.015 6.881 7.055-1.94-.014.001z" fill="url(#paint0_linear_1_136)"/><defs><linearGradient id="paint0_linear_1_136" x1=".015" y1=".5" x2="57.256" y2="60.471" gradientUnits="userSpaceOnUse"><stop stop-color="#16B8EE"/><stop offset="1" stop-color="#A336F7"/></linearGradient></defs></svg>