<svg width="61" height="61" fill="none" xmlns="http://www.w3.org/2000/svg"><path d="M43.085.496h-25.14C7.025.496.515 7.006.515 17.926v25.11c0 10.95 6.51 17.46 17.43 17.46h25.11c10.92 0 17.43-6.51 17.43-17.43v-25.14c.03-10.92-6.48-17.43-17.4-17.43zm2.07 28.59a2.1 2.1 0 11-4.2 0v-.54l-8.16 8.16a2.061 2.061 0 01-1.68.6 1.993 1.993 0 01-1.53-.93l-3.06-4.56-7.14 7.14a2.015 2.015 0 01-1.47.6 2.09 2.09 0 01-1.47-.6 2.12 2.12 0 010-2.97l8.94-8.94a2.064 2.064 0 011.68-.6 1.996 1.996 0 011.53.93l3.06 4.56 6.33-6.33h-.54a2.1 2.1 0 010-4.2h5.58c.276.006.55.057.81.15.515.215.925.625 1.14 1.14.108.256.159.532.15.81v5.58h.03z" fill="url(#paint0_linear_1_138)"/><defs><linearGradient id="paint0_linear_1_138" x1=".515" y1=".496" x2="57.757" y2="60.468" gradientUnits="userSpaceOnUse"><stop stop-color="#16B8EE"/><stop offset="1" stop-color="#A336F7"/></linearGradient></defs></svg>