<svg width="81" height="80" fill="none" xmlns="http://www.w3.org/2000/svg"><g opacity=".8" stroke="#000" stroke-width="1.88" stroke-miterlimit="3.55"><path d="M42.338 32.422c.682 1.656 2.717 2.129 3.524 2.26.182.028.366.042.55.041H66.37a4.219 4.219 0 010 8.436h-1.566c2.33 0 4.469 1.89 4.469 4.22a4.219 4.219 0 01-4.221 4.218h-1.787a4.219 4.219 0 110 8.438h-1.753a4.216 4.216 0 014.217 4.217 4.219 4.219 0 01-4.219 4.22H38.502c-2.018 0-8.86-.353-13.182-4.237" stroke-linecap="square"/><path d="M27.64 35.88l6.678-5.783L45.273 11s8.226 1.794 4.25 13.027l-4.452 11.33"/><path d="M10.5 66.75h14.054l3.744-35.656H14.166L10.5 66.749z" stroke-linecap="round"/></g></svg>