<svg width="81" height="80" fill="none" xmlns="http://www.w3.org/2000/svg"><g opacity=".8" stroke="#000" stroke-width="1.88" stroke-miterlimit="3.55" stroke-linecap="square"><path d="M21.264 73.206v-5.843s.566-2.287-3.125-5.516C14.449 58.618 3.5 43.672 3.5 43.672l.321-26.487s3.068-.887 4.68 2.033c1.612 2.919 1.815 6.752 1.815 7.154 0 .403.201 12.6.201 12.6l3.605 3.888"/><path d="M23.259 53.889L12.406 45.22s2.253-3.728 5.427-3.426c3.174.302 8.152 4.683 8.152 4.683m1.405 1.195l9.027 7.727.403 17.808m-21.157-31.43V27.585s.457-5.055-5.624-5.788m49.906 51.409v-5.843s-.567-2.287 3.124-5.516c3.69-3.229 14.639-18.175 14.639-18.175l-.321-26.487s-3.068-.887-4.68 2.033c-1.612 2.919-1.813 6.752-1.813 7.154 0 .403-.203 12.6-.203 12.6l-3.522 3.804"/><path d="M57.952 53.889l10.852-8.668s-2.252-3.728-5.425-3.426c-3.173.302-6.316 2.938-6.316 2.938m-1.388 1.244l-10.882 9.422-.402 17.808M65.55 41.778V27.586s-.528-5 5.554-5.734M59.19 16.785C59.19 11.382 54.893 7 49.6 7c-4.555 0-8.366 3.239-9.345 7.584l-.011.053C39.284 10.266 35.459 7 30.887 7c-5.297 0-9.59 4.383-9.59 9.785 0 .61.055 1.218.165 1.818C22.641 26.607 40.2 41.777 40.2 41.777s13.644-11.79 17.686-20.066a9.879 9.879 0 001.304-4.926z"/></g></svg>