<svg width="81" height="80" fill="none" xmlns="http://www.w3.org/2000/svg"><g opacity=".8" stroke="#000" stroke-width="1.88" stroke-miterlimit="3.55" stroke-linecap="square"><path d="M35.3 21.938H21.18m39.078 3.284L43.85 19.169s-5.724-.533-10.099 5.335c-4.374 5.867-5.39 10.268-2.696 11.201 2.694.934 6.959-3.87 6.959-3.87l6.06-1.734 17.397 19.874 3.388-6.459M17 42l15.738 17.039s7.94 7.513 11.646 3.645m-7.603-9.914l7.295 8.533s2.72 3.335 4.968 1.467c2.247-1.867 2.107-3.228 2.107-3.228m-8.088-9.573l6.204 7.03s1.979 3.117 4.339 2.45c2.36-.667 3.038-4.495 3.038-4.495"/><path d="M47.656 44.637l7.197 8.136s3.095 3.852 5.164 2.18c.671-.544 2.913-3.32.92-5.597M9.697 16.24a1 1 0 00-1.197.98v25.331a1 1 0 001 1h5.752a1 1 0 00.98-.8l4.746-23.222a1 1 0 00-.783-1.18L9.697 16.24zm61.191 0a1 1 0 011.197.98v25.331a1 1 0 01-1 1h-5.752a1 1 0 01-.98-.8L59.607 19.53a1 1 0 01.783-1.18l10.498-2.109z"/></g></svg>