<svg width="16" height="15" fill="none" xmlns="http://www.w3.org/2000/svg"><path fill-rule="evenodd" clip-rule="evenodd" d="M.767 0a.775.775 0 00-.542.22.742.742 0 000 1.06c.143.141.338.22.542.22h.361c.169 0 .332.054.466.154.133.1.23.24.274.399l.319 1.144L3.833 9.1v1.4c0 .521.18 1 .483 1.38a1.84 1.84 0 00-.402 1.784c.094.306.266.583.5.806.234.223.523.383.838.466.316.083.648.085.964.008a1.93 1.93 0 00.846-.453 1.87 1.87 0 00.514-.798c.099-.305.116-.63.051-.942h2.377a1.836 1.836 0 00.45 1.624c.199.218.447.387.725.494a1.955 1.955 0 001.713-.151c.254-.154.467-.364.623-.613a1.847 1.847 0 00.146-1.677.74.74 0 00-.233-1.069.778.778 0 00-.396-.108H6.133a.775.775 0 01-.542-.22.742.742 0 01-.224-.53v-.75h7.846c.337 0 .664-.109.931-.308.267-.2.46-.48.549-.798l1.253-4.5a1.467 1.467 0 00-.261-1.306 1.527 1.527 0 00-.54-.434 1.56 1.56 0 00-.68-.155H3.512l-.164-.592A2.249 2.249 0 002.524.462 2.333 2.333 0 001.128 0H.767zm11.115 12.75c-.102 0-.2.04-.271.11a.371.371 0 000 .53.388.388 0 00.542 0 .37.37 0 000-.53.387.387 0 00-.271-.11zm1.33-4.5H5.186L3.93 3.75h10.536l-1.253 4.5zm-7.463 4.5a.386.386 0 00-.27.11.371.371 0 000 .53.388.388 0 00.541 0 .37.37 0 000-.53.388.388 0 00-.27-.11z" fill="#BDBDBD"/></svg>