<svg width="16" height="16" fill="none" xmlns="http://www.w3.org/2000/svg"><path fill-rule="evenodd" clip-rule="evenodd" d="M2.483 5.634l2.377-.838c-.49.66-.912 1.37-1.258 2.117l-1.12-1.279zM.83 5.772l2.202 2.516-.318.798a.667.667 0 00.146.718l.21.21c-1.136 1.28-1.762 2.619-2.37 4.441a.667.667 0 00.843.844c1.823-.608 3.162-1.235 4.442-2.37l.21.208a.667.667 0 00.718.148l.797-.319 2.516 2.202a.666.666 0 001.068-.28l1.991-5.64a8.667 8.667 0 002.047-5.595v-2.32a.667.667 0 00-.666-.666h-2.32a8.67 8.67 0 00-5.595 2.046l-5.64 1.991a.667.667 0 00-.28 1.068zm1.626 7.77c.418-1.01.888-1.814 1.559-2.584l1.025 1.025c-.77.672-1.574 1.141-2.584 1.56zm4.37-1.658l-.356-.356-2-2-.356-.356.474-1.183a10.666 10.666 0 011.805-2.98l.384-.449A7.333 7.333 0 0112.347 2H14v1.653a7.333 7.333 0 01-2.56 5.569l-.45.384a10.67 10.67 0 01-2.98 1.805l-1.183.473zm3.538 1.633l-1.278-1.119a11.997 11.997 0 002.117-1.258l-.839 2.377zM10 5.333a.667.667 0 111.333 0 .667.667 0 01-1.333 0zm.667-2a2 2 0 100 4 2 2 0 000-4z" fill="#BDBDBD"/></svg>